<svg xmlns="http://www.w3.org/2000/svg" viewBox="0 0 160.83 27.78"><defs><style>.cls-1{fill:#1f140f;}.cls-1,.cls-2,.cls-3,.cls-4,.cls-6,.cls-7{fill-rule:evenodd;}.cls-2{fill:#00913d;}.cls-3{fill:#e0040b;}.cls-4,.cls-5{fill:#dbb700;}.cls-6{fill:#ffe600;}.cls-7{fill:#c9cde7;}</style></defs><title>Asset 4</title><g id="Layer_2" data-name="Layer 2"><g id="Capa_1" data-name="Capa 1"><path class="cls-1" d="M90.38,11.34c0-.12.07-.19.21-.19h.74v-.84a.51.51,0,0,1,.28-.48l1-.67c.21-.13.39-.05.39.21v1.78h1.14c.15,0,.21.07.21.19v.39c0,.13-.08.19-.22.19H93.05v4.44c0,.92.39,1.38,1.08,1.32.31,0,.51.1.51.34s-.57.65-1.42.65a1.79,1.79,0,0,1-1.9-1.94V11.92H90.6c-.14,0-.22-.06-.22-.19Zm-.89,7.14H88.28c-.2,0-.27-.09-.27-.31V13.28c0-.82-.35-1.36-1.2-1.36s-1.19.54-1.19,1.32v5a.24.24,0,0,1-.26.26H84.15a.25.25,0,0,1-.28-.27V12.41c0-.59.23-.84.82-1.08A5.93,5.93,0,0,1,86.78,11c2.2,0,3,.66,3,2.27v5C89.75,18.4,89.66,18.48,89.49,18.48ZM80.1,11a2.68,2.68,0,0,1,2.68,2.72c0,.36-.16.49-.55.55l-3.88.57c.16,1.43.89,2.35,2,2.35a2.13,2.13,0,0,0,1.72-1.08.54.54,0,0,1,.41-.27.36.36,0,0,1,.36.45,2.74,2.74,0,0,1-2.76,2.45c-1.89,0-3.22-1.3-3.22-3.91C76.87,12.38,78.15,11,80.1,11Zm-1.82,3c.16-1.09.54-1.88,1.48-1.88.76,0,1.22.58,1.25,1.44ZM63.11,14v-.66c0-.87-.18-1.34-.87-1.34a1,1,0,0,0-1,.67c-.19.51-.35.81-.83.81a.74.74,0,0,1-.78-.74c0-.88,1.07-1.74,2.82-1.74s2.28.89,2.28,2.23v4.09c0,1.17-1.54,1.38-2.74,1.38-1.71,0-2.72-.66-2.72-2C59.32,15.16,60.56,14.51,63.11,14Zm0,.81-.81.29c-.82.28-1.25.7-1.25,1.41a1.13,1.13,0,0,0,1.17,1.23.81.81,0,0,0,.89-.93ZM55,11.34c0-.12.06-.19.2-.19h.74v-.84a.51.51,0,0,1,.28-.48l1.05-.67c.22-.13.39-.05.39.21v1.78h1.15c.14,0,.2.07.2.19v.39c0,.13-.07.19-.22.19H57.63v4.44c0,.92.4,1.38,1.08,1.32.31,0,.52.1.52.34s-.58.65-1.43.65a1.8,1.8,0,0,1-1.9-1.94V11.92h-.72c-.14,0-.22-.06-.22-.19Zm20.62,7.14H74.38c-.21,0-.27-.09-.27-.31v-4.8c0-.83-.37-1.33-1.1-1.33a1,1,0,0,0-1.13,1.09l0,5.11c0,.16-.09.24-.26.24H70.39c-.21,0-.27-.09-.27-.31V13.41c0-.78-.29-1.41-1.14-1.41s-1.1.55-1.1,1.33v4.9a.24.24,0,0,1-.26.26H66.41a.25.25,0,0,1-.28-.27V12.41c0-.59.23-.82.82-1.06a5.27,5.27,0,0,1,2-.37,2.61,2.61,0,0,1,2.16.8,3.05,3.05,0,0,1,2.2-.8c1.87,0,2.56.72,2.56,2.33v4.93C75.85,18.4,75.76,18.48,75.59,18.48ZM54,18.48H52.76c-.2,0-.27-.09-.27-.31V13.28c0-.82-.34-1.36-1.19-1.36s-1.19.54-1.19,1.32v5a.24.24,0,0,1-.27.26H48.63a.25.25,0,0,1-.28-.27V12.41c0-.59.23-.84.82-1.08A6,6,0,0,1,51.26,11c2.2,0,3,.66,3,2.27v5C54.23,18.4,54.15,18.48,54,18.48ZM41.34,11.15h1.25c.2,0,.27.09.27.31v4.82c0,.82.39,1.22,1.24,1.22s1.14-.39,1.14-1.18V11.39a.24.24,0,0,1,.27-.25h1.21c.18,0,.28.09.28.26V17a1.3,1.3,0,0,1-.86,1.3,5.7,5.7,0,0,1-2,.38c-2.14,0-3-.72-3-2.27v-5C41.07,11.22,41.16,11.15,41.34,11.15ZM37.9,9.27a.86.86,0,0,1,1-.88.88.88,0,1,1,0,1.75A.87.87,0,0,1,37.9,9.27Zm.3,1.87h1.28c.19,0,.26.07.26.26V17a7.2,7.2,0,0,1-.6,3.05,3.06,3.06,0,0,1-2.37,1.84c-.27,0-.47-.14-.47-.4a.43.43,0,0,1,.27-.41c1-.54,1.37-1.53,1.37-3.87V11.4C37.94,11.23,38,11.14,38.2,11.14Zm-9.37,7,3.5-9.41c.08-.19.15-.29.33-.29h.86a.3.3,0,0,1,.34.25l3.47,9.47c.06.17,0,.29-.21.29h-1.5c-.19,0-.27-.08-.33-.26-.29-.75-.64-1.74-1-2.86H31.36c-.33,1-.66,1.91-1,2.81-.07.21-.16.31-.35.31H29C28.82,18.49,28.76,18.36,28.83,18.18ZM33.9,14.3c-.36-1.06-.73-2.18-1.1-3.29-.36,1.14-.72,2.23-1.08,3.29ZM153,7.85c0-.14-.06-.24-.2-.24h-1.35a.2.2,0,0,0-.21.22V18.22a.22.22,0,0,0,.23.23h1.31a.23.23,0,0,0,.22-.24Zm-8.6,3.09a2.66,2.66,0,0,1,2.67,2.7c0,.35-.16.48-.55.54l-3.86.58c.16,1.42.88,2.33,2,2.33A2.12,2.12,0,0,0,146.35,16a.53.53,0,0,1,.41-.27.37.37,0,0,1,.36.45,2.74,2.74,0,0,1-2.75,2.43c-1.88,0-3.21-1.29-3.21-3.89C141.16,12.36,142.44,11,144.38,10.94Zm-1.8,3c.15-1.09.53-1.87,1.46-1.87.76,0,1.21.58,1.25,1.43Zm-33.49-3a2.66,2.66,0,0,1,2.66,2.7c0,.35-.16.48-.55.54l-3.85.58c.15,1.42.88,2.33,2,2.33A2.09,2.09,0,0,0,111.05,16a.54.54,0,0,1,.41-.27.36.36,0,0,1,.36.45,2.73,2.73,0,0,1-2.75,2.43c-1.88,0-3.2-1.29-3.2-3.89C105.87,12.36,107.15,11,109.09,10.94Zm-1.81,3c.15-1.09.53-1.87,1.46-1.87.76,0,1.22.58,1.25,1.43ZM103,11.31V7.93a.28.28,0,0,1,.31-.31h1.11c.18,0,.33.06.33.29V17a1.26,1.26,0,0,1-.93,1.26,5,5,0,0,1-1.91.34c-2.13,0-3.34-1.31-3.34-3.62,0-2.12,1.08-4.09,3.14-4.09A2.38,2.38,0,0,1,103,11.31Zm0,.94a1.47,1.47,0,0,0-.93-.37c-1,0-1.73,1.08-1.73,2.81s.76,2.8,1.79,2.8c.59,0,.87-.33.87-.95ZM157.36,12c1.18,0,1.63,1.54,1.63,2.82s-.39,2.65-1.47,2.65-1.63-1.6-1.63-2.89C155.89,13.47,156.26,12,157.36,12Zm.13-1.07a2.92,2.92,0,0,1,2.26.94,4.29,4.29,0,0,1,1.08,2.91c0,2.29-1.32,3.85-3.41,3.85s-3.36-1.78-3.36-3.9A3.52,3.52,0,0,1,157.49,10.92ZM157.1,10a.35.35,0,0,0,.34.38.5.5,0,0,0,.31-.13L159,9.35a.77.77,0,0,0,.37-.64.5.5,0,0,0-.48-.54.49.49,0,0,0-.37.18l-1.18,1.26A.67.67,0,0,0,157.1,10Zm-7.24-2.18c0-.14-.07-.24-.2-.24H148.3a.21.21,0,0,0-.21.22V18.22a.22.22,0,0,0,.24.23h1.31a.23.23,0,0,0,.22-.24ZM136.7,11.3c0-.12.06-.19.2-.19h.73v-.84a.48.48,0,0,1,.27-.47L139,9.13c.21-.14.39-.06.39.21v1.77h1.14c.14,0,.2.07.2.19v.39c0,.13-.08.19-.22.19h-1.12v4.43c0,.91.39,1.37,1.07,1.31.31,0,.51.09.51.34s-.57.65-1.42.65a1.79,1.79,0,0,1-1.89-1.94V11.88h-.72c-.14,0-.21-.06-.21-.19Zm-2.95-.36c1.39,0,2.31.73,2.31,1.52a.66.66,0,0,1-.67.69c-.43,0-.67-.32-.89-.75a.9.9,0,0,0-.88-.52.86.86,0,0,0-.83.84c0,.53.33.81.86,1.06s.95.43,1.27.59a2.16,2.16,0,0,1,1.36,2,2.21,2.21,0,0,1-2.51,2.23c-1.6,0-2.67-.78-2.67-1.74a.72.72,0,0,1,.73-.75c.33,0,.59.21.84.61a1.32,1.32,0,0,0,1.1.8.83.83,0,0,0,.9-.9c0-.44-.27-.86-1.24-1.26-1.4-.58-2.22-1.26-2.17-2.4C131.32,11.65,132.25,10.94,133.75,10.94Zm-5.36,3v-.66c0-.87-.18-1.34-.87-1.34a.94.94,0,0,0-1,.67c-.2.51-.36.81-.84.81a.74.74,0,0,1-.78-.74c0-.87,1.08-1.74,2.82-1.74s2.28.89,2.28,2.23v4.09c0,1.16-1.54,1.38-2.73,1.38-1.72,0-2.73-.66-2.73-2C124.6,15.13,125.84,14.48,128.39,13.92Zm0,.81-.81.29c-.82.29-1.25.7-1.25,1.41a1.13,1.13,0,0,0,1.17,1.23.81.81,0,0,0,.89-.93Zm-7.5-6.51a4.18,4.18,0,0,0-3.1,1.2,5.59,5.59,0,0,0-1.49,4,6.41,6.41,0,0,0,1.14,3.71,4.09,4.09,0,0,0,3.49,1.58c2,0,3.16-1.14,3.16-1.81a.45.45,0,0,0-.45-.49c-.53,0-.86.85-2.26.85-1.7,0-3-1.66-3-4.33,0-2.18,1-3.5,2.4-3.5a1.81,1.81,0,0,1,1.58.91c.26.37.41.83,1,.83a.85.85,0,0,0,.86-.85C124.2,9.32,122.78,8.22,120.89,8.22Z"/><path class="cls-1" d="M1.77,14A.28.28,0,0,0,2,13.74l.63.65A2.23,2.23,0,0,0,1.77,14Zm0-.68a.3.3,0,0,1,.23.22l2.2-2.21a1,1,0,0,1-.54.13.75.75,0,0,1-.73-.77.68.68,0,0,1,.55-.66,1.08,1.08,0,0,1,.3,0,.52.52,0,0,0-.38-.17.93.93,0,0,0-.86.58A1.74,1.74,0,0,1,3,11.66,1.72,1.72,0,0,1,1.73,13.34ZM18.2,17.11l-1.31,1.35a.36.36,0,0,1,.36.24.35.35,0,0,1,.41.17l.24-.24a.67.67,0,0,1-.1-.19l.24-.28A1.38,1.38,0,0,1,18.2,17.11ZM17,19.51a.35.35,0,0,1-.16-.4.28.28,0,0,1-.22-.38L15.33,20a1.08,1.08,0,0,1,.94-.07l.27-.24.17.1Zm-2,.77-1.8,1.86a2.08,2.08,0,0,0,1.4.55c1,0,1.84-.69,1.84-1.32a.78.78,0,0,0-.44-.7.54.54,0,0,1,.08.28.58.58,0,0,1-.57.56.62.62,0,0,1-.68-.7A1.11,1.11,0,0,1,15,20.28Zm3.49-3.42a.74.74,0,0,1,.48-.15.68.68,0,0,1,.64.7A.6.6,0,0,1,19,18a.54.54,0,0,0,.59.28,1.68,1.68,0,0,0,1.25-1.68,2.45,2.45,0,0,0-.5-1.62Zm2.7-2.72.29-.28a.42.42,0,0,0,.53,0,.57.57,0,0,0,.2.15A3.44,3.44,0,0,0,21.19,14.14ZM8.4,20.28l1.8,1.86a2.3,2.3,0,0,1-1.49.55c-1,0-1.81-.69-1.81-1.33a.68.68,0,0,1,.39-.67.51.51,0,0,0-.07.28.6.6,0,0,0,.64.6.69.69,0,0,0,.69-.78A1,1,0,0,0,8.4,20.28Zm-2-.82a.41.41,0,0,0,.11-.29.37.37,0,0,0,.35-.39L8.09,20A1.36,1.36,0,0,0,7,19.87l-.3-.29-.14.06ZM5.17,17l1.36,1.42a.34.34,0,0,0-.36.24.34.34,0,0,0-.35,0l-.29-.23a.54.54,0,0,0,0-.15l-.24-.28A1.33,1.33,0,0,0,5.17,17ZM2.72,14.51,5,16.86a1,1,0,0,0-.54-.2.63.63,0,0,0-.68.61.56.56,0,0,0,.72.57.75.75,0,0,1-.72.48,1.67,1.67,0,0,1-1.24-1.68A2.44,2.44,0,0,1,3.08,15C3,14.87,2.88,14.71,2.72,14.51ZM14.08,6.07A.65.65,0,0,0,14.34,6a.51.51,0,0,1-.16-.09A.28.28,0,0,1,14.08,6.07ZM11.22,4.93a2.19,2.19,0,0,1,.35.27l.11-.09.1.09a1.7,1.7,0,0,1,.35-.27A3.94,3.94,0,0,0,11.22,4.93Zm1.63.12a2,2,0,0,0-.4-.06,1.28,1.28,0,0,0-.54.34l.6.57.09-.13c-.12,0-.21-.11-.21-.2a.22.22,0,0,1,.28-.22A.26.26,0,0,1,12.85,5.05Zm.25,0a.38.38,0,0,1,.07.29.28.28,0,0,1,.21.26.28.28,0,0,1-.18.25.21.21,0,0,0,.21.12.62.62,0,0,0,.53-.37C13.9,5.39,13.62,5.21,13.1,5.1ZM10.63,5a.27.27,0,0,1,.09.33c.15,0,.27,0,.29.16a.22.22,0,0,1-.11.24l0,0,.5-.44A1.41,1.41,0,0,0,10.87,5Zm-1,.11a.83.83,0,0,0-.15.48c0,.36.63.53.75.26a.26.26,0,0,1,0-.49A.27.27,0,0,1,10.41,5,3.1,3.1,0,0,0,9.65,5.1Zm-1.28.33c.06.15.21.3.34.3s.42-.21.43-.55A2.77,2.77,0,0,0,8.37,5.43ZM9,6.11a2.23,2.23,0,0,0,.41.06.64.64,0,0,1-.21-.26A.64.64,0,0,1,9,6.11Zm1.36.13h.12l.18-.2-.08,0A.48.48,0,0,1,10.37,6.24ZM12.85,6a.53.53,0,0,1-.12.1l.13.13a.53.53,0,0,0,.21,0A.88.88,0,0,1,12.85,6Zm1.56-.58c-.05.15,0,.29.15.29a.32.32,0,0,0,.27-.16A2,2,0,0,0,14.41,5.44Zm-5,1.89a5.07,5.07,0,0,1-2.24-.77.7.7,0,0,1-.24-.72.14.14,0,0,1,0-.18V5.55a.27.27,0,0,1,0-.4V5.07a.23.23,0,0,1-.1-.4c-.28-.08-.5-.36-.69-.83a1.76,1.76,0,0,0-.65-.95.28.28,0,0,0-.25,0c-.17.07-.28.08-.35,0a.72.72,0,0,1,.84-.39,2.26,2.26,0,0,1,.26-.41C5.92,2,6,2,6,2.08a.66.66,0,0,1,.25.5,1.08,1.08,0,0,1,.49.07c.1,0,.09.14,0,.2a.73.73,0,0,0-.21.45.63.63,0,0,0-.21.43.47.47,0,0,0,.45.49.29.29,0,0,0,.26-.37c-.18,0-.33-.09-.33-.26A.28.28,0,0,1,7,3.31a.36.36,0,0,1-.06-.21.24.24,0,0,1,.25-.25A.26.26,0,0,1,7.4,3,.25.25,0,0,1,7.6,3a.27.27,0,0,1,.29.26.22.22,0,0,1-.1.21.36.36,0,0,0,.3.18.26.26,0,0,0,.23-.27.75.75,0,0,0-.24-.56c-.16,0-.29.07-.39.06s-.24-.08-.34-.09-.2-.06-.2-.15a1,1,0,0,1,.23-.55,1.12,1.12,0,0,1-.31-.44.14.14,0,0,1,.07-.19,1.81,1.81,0,0,1,.55-.05A.76.76,0,0,0,7.8.94.05.05,0,0,1,7.86.88a.84.84,0,0,1,.6.27A1.41,1.41,0,0,1,9.12.83c.06,0,.08,0,.09.07a2.11,2.11,0,0,1,0,.51,1.36,1.36,0,0,1,.4.2l.15.07c.07,0,.08.08,0,.16A1.66,1.66,0,0,0,9.57,2a.8.8,0,0,1-.47.39A.17.17,0,0,0,9,2.6a.53.53,0,0,0,.46.56A.21.21,0,0,0,9.65,3a.1.1,0,0,0-.06-.1.24.24,0,0,1-.12-.21c0-.15.14-.24.33-.27a.34.34,0,0,1,0-.14c0-.18.09-.3.26-.3a.28.28,0,0,1,.27.21.29.29,0,0,1,0,.13c.23,0,.35.06.35.25s0,.17-.16.21A.33.33,0,0,0,10.8,3a.49.49,0,0,0,.41-.53c0-.25-.08-.36-.19-.36a.75.75,0,0,1-.44-.15.9.9,0,0,0-.22-.11.13.13,0,0,1-.08-.19.7.7,0,0,1,.39-.43,1.61,1.61,0,0,1-.1-.65c0-.06,0-.09.1-.08a1.76,1.76,0,0,1,.57.14,2,2,0,0,1,.33-.54A.13.13,0,0,1,11.66,0a.11.11,0,0,1,.09.06,1.72,1.72,0,0,1,.33.52,1.42,1.42,0,0,1,.57-.17c.06,0,.14.06.14.12a.93.93,0,0,1-.19.59,1.14,1.14,0,0,1,.53.51.13.13,0,0,1-.08.19,1.53,1.53,0,0,0-.29.14,1.29,1.29,0,0,1-.57.13c-.12,0-.19.11-.19.36a.49.49,0,0,0,.48.49.21.21,0,0,0,.22-.22.25.25,0,0,1-.09-.22c0-.19.13-.31.42-.24,0-.23.13-.32.26-.32a.26.26,0,0,1,.27.29.43.43,0,0,1,0,.14.3.3,0,0,1,.3.31.25.25,0,0,1-.21.24s-.06.05-.06.1.15.16.3.16.44-.29.44-.6a.17.17,0,0,0-.15-.17c-.27-.08-.3-.18-.42-.36l-.14-.19c-.06-.07,0-.12,0-.18a1,1,0,0,1,.5-.25,1.84,1.84,0,0,1,0-.53.14.14,0,0,1,.18-.13,1,1,0,0,1,.52.33A.85.85,0,0,1,15.4.83a.1.1,0,0,1,.13.09.76.76,0,0,0,.06.38,2.27,2.27,0,0,1,.57.09.14.14,0,0,1,.08.19A.94.94,0,0,1,16,2a1.23,1.23,0,0,1,.24.57c0,.09,0,.14-.17.15s-.32.12-.45.13-.29-.1-.46-.07a.47.47,0,0,0-.22.39c0,.2.14.45.32.45a.28.28,0,0,0,.27-.17.23.23,0,0,1-.09-.19A.25.25,0,0,1,15.66,3a.34.34,0,0,1,.2.06.35.35,0,0,1,.32-.21.28.28,0,0,1,.26.27.38.38,0,0,1-.06.19.28.28,0,0,1,.15.24c0,.18-.16.25-.39.24a.34.34,0,0,0,.33.43.44.44,0,0,0,.45-.47.59.59,0,0,0-.29-.46.75.75,0,0,0-.14-.42.12.12,0,0,1,.05-.2A1.08,1.08,0,0,1,17,2.57c.06-.2.09-.34.23-.44s.14-.07.2,0a.87.87,0,0,1,.28.4c.4-.06.64,0,.79.32-.07.09-.13.06-.31.06a.47.47,0,0,0-.3.11,2.12,2.12,0,0,0-.61,1,1,1,0,0,1-.62.71c.16.15.15.34-.05.39v.07c.17.19.16.45-.06.51,0,0,0,.12,0,.21.2.39-.16.67-.4.81a6,6,0,0,1-2.1.64l.2.2a2.69,2.69,0,0,0,.89-.23l1.49,1.48a1.41,1.41,0,0,1-.08-.5,1.16,1.16,0,0,1,1.18-1.07,1,1,0,0,1,1,.63A.62.62,0,0,1,18.9,8a.46.46,0,0,1,.51.15.36.36,0,0,1,.23-.06A.35.35,0,0,1,20,8.4a.31.31,0,0,1-.25.32.39.39,0,0,1,.15.11,1.09,1.09,0,0,1,.84.48,1.86,1.86,0,0,1,1.09,1.36,1.27,1.27,0,0,0-.56,1.1.84.84,0,0,0,.91.85.64.64,0,0,1-.4-.6.76.76,0,0,1,.73-.66.86.86,0,0,1,.86,1,1,1,0,0,1-.78.93l.11.08a.5.5,0,0,1,.41-.19.53.53,0,0,1,.44.53.48.48,0,0,1-.43.47.47.47,0,0,1-.39-.15.22.22,0,0,1-.19.07,1.13,1.13,0,0,1,.78,1,.8.8,0,0,1-.8.91c-.46,0-.72-.23-.72-.67a.61.61,0,0,1,.37-.55.73.73,0,0,0-.73.3,5.06,5.06,0,0,1,.26,1.47,2.44,2.44,0,0,1-2.25,2.66c-.12,0-.24,0-.39,0l-.2.2a.35.35,0,0,1-.13,0s-.2.2-.38.36a.48.48,0,0,1,.39.56.3.3,0,0,1,.3.15.38.38,0,0,1-.35.53.34.34,0,0,1-.34-.28.44.44,0,0,1-.55-.39l-.31.31.06.12-.28.28a.91.91,0,0,1,0,.35,2.28,2.28,0,0,1-2.44,2.28,3.78,3.78,0,0,1-1.73-.39.76.76,0,0,0-.18.75.51.51,0,0,1,.53-.32.76.76,0,0,1,.73.72.83.83,0,0,1-.92.81,1.25,1.25,0,0,1-1.18-1.35,1.45,1.45,0,0,1,.12-.65l-.37.38A.33.33,0,0,1,12,24a.43.43,0,0,1,0,.67.46.46,0,0,1,.18.49A1.84,1.84,0,0,1,13,26.73c0,.12-.06.17-.18.14a1.31,1.31,0,0,1-.64-.3,1.81,1.81,0,0,1-.42,1.13s-.07.08-.13.08a.2.2,0,0,1-.13-.08,1.71,1.71,0,0,1-.36-1.1,1.25,1.25,0,0,1-.62.33c-.11,0-.16,0-.17-.14a2,2,0,0,1,.81-1.63.48.48,0,0,1,.16-.51.42.42,0,0,1,0-.67.34.34,0,0,1,.13-.48l-.4-.41a1.45,1.45,0,0,1,.12.65c0,.85-.49,1.42-1.1,1.42a1,1,0,0,1-1-.9.64.64,0,0,1,.6-.7c.43,0,.63.23.62.68a.89.89,0,0,0-.11-1.14,3.78,3.78,0,0,1-1.73.39A2.32,2.32,0,0,1,6,21.14a1,1,0,0,1,.06-.38l-.19-.2L6,20.44l-.23-.26a.5.5,0,0,1-.21,0A.42.42,0,0,1,5,20.6a.31.31,0,0,1-.33.21.35.35,0,0,1-.29-.53.28.28,0,0,1,.29-.13A.37.37,0,0,1,5,19.69a.88.88,0,0,1,0-.17l-.26-.27a.2.2,0,0,1-.13,0L4.39,19a1,1,0,0,1-.36.07,2.44,2.44,0,0,1-2.22-2.68A4.52,4.52,0,0,1,2,15.06a.69.69,0,0,0-.69-.34.61.61,0,0,1,.37.55.73.73,0,0,1-.87.7c-.44,0-.7-.41-.7-.94a1.15,1.15,0,0,1,.78-1L.78,14a.35.35,0,0,1-.35.17A.48.48,0,0,1,0,13.67a.52.52,0,0,1,.44-.54.44.44,0,0,1,.41.19L1,13.26a1.24,1.24,0,0,1-.83-1A.81.81,0,0,1,1,11.3a.7.7,0,0,1,.63.7.64.64,0,0,1-.33.62.76.76,0,0,0,.84-.81,1.43,1.43,0,0,0-.55-1.24A2.91,2.91,0,0,1,2.76,9.31a1.1,1.1,0,0,1,.84-.48.74.74,0,0,1,.2-.16.34.34,0,0,1-.25-.31c0-.19.1-.32.28-.32a.41.41,0,0,1,.22.07A.46.46,0,0,1,4.56,8a.77.77,0,0,1,.19-.14.86.86,0,0,1,.87-.6A1.15,1.15,0,0,1,6.79,8.28a1.41,1.41,0,0,1-.08.5L8.3,7.24a2.82,2.82,0,0,0,.91.27l.18-.18Zm1.88-4.08h.65a1.06,1.06,0,0,1-.33-.34A1.31,1.31,0,0,1,11.27,3.25Zm1.92.1a1,1,0,0,1-.14-.24,1.15,1.15,0,0,1-.26.19Zm1.41.35a.54.54,0,0,1-.16-.35,1.17,1.17,0,0,1-.37.19A2.37,2.37,0,0,1,14.6,3.7Zm1.07.22a.93.93,0,0,1-.25.1c.12.06.24.11.34.17A.54.54,0,0,1,15.67,3.92ZM10,3.38l.4,0a1.2,1.2,0,0,1-.27-.19A.7.7,0,0,1,10,3.38ZM8.6,3.75a2.37,2.37,0,0,1,.53-.16,1.17,1.17,0,0,1-.37-.19A.54.54,0,0,1,8.6,3.75Zm-1,.19a.54.54,0,0,1-.09.27l.35-.16A.89.89,0,0,1,7.55,3.94Zm14.11,9.38a.32.32,0,0,0-.23.22l-2.19-2.19a1,1,0,0,0,.54.13.75.75,0,0,0,.75-.76A.69.69,0,0,0,20,10a1.31,1.31,0,0,0-.33,0A.48.48,0,0,1,20,9.9a1,1,0,0,1,.88.58,1.81,1.81,0,0,0-.5,1.22A1.66,1.66,0,0,0,21.66,13.32Z"/><path class="cls-2" d="M9.84,4.28A1.57,1.57,0,0,1,10.23,4a2.22,2.22,0,0,1,.41.19,2,2,0,0,1-.34.3A1.08,1.08,0,0,1,9.84,4.28Z"/><path class="cls-3" d="M8.64,4.5a2,2,0,0,1,.24-.26l.34-.07a.66.66,0,0,1,.28.13,1.11,1.11,0,0,1-.21.25l-.39.1A.61.61,0,0,1,8.64,4.5Z"/><path class="cls-2" d="M7.76,4.64a1.39,1.39,0,0,1,.45,0A.59.59,0,0,1,8,5,1,1,0,0,1,7.53,5,1,1,0,0,1,7.76,4.64Z"/><path class="cls-3" d="M7.21,5.11a.61.61,0,0,0-.19,0,.27.27,0,0,0-.13.2c0,.09.06.14.16.13a.25.25,0,0,0,.12-.08A.87.87,0,0,0,7.21,5.11Z"/><path class="cls-3" d="M11.06,4.11a.74.74,0,0,1,.15-.19,8.34,8.34,0,0,1,.84,0,.58.58,0,0,1,.19.19.87.87,0,0,1-.19.23,6.49,6.49,0,0,1-.76,0A.51.51,0,0,1,11.06,4.11Z"/><path class="cls-2" d="M12.68,4.15A1.77,1.77,0,0,1,13.13,4a1.85,1.85,0,0,1,.28.28,2.26,2.26,0,0,1-.38.22A1.4,1.4,0,0,1,12.68,4.15Z"/><path class="cls-2" d="M15.12,4.74a1.3,1.3,0,0,0,.31.31A.67.67,0,0,0,15.77,5a1.3,1.3,0,0,0-.32-.34A1.39,1.39,0,0,0,15.12,4.74Z"/><path class="cls-3" d="M13.79,4.35A1,1,0,0,1,14,4.2l.53.15a1.29,1.29,0,0,1,.19.21,1,1,0,0,1-.21.2,4.39,4.39,0,0,1-.63-.19A.73.73,0,0,1,13.79,4.35Z"/><path class="cls-3" d="M16.06,5.12a.53.53,0,0,1,.2,0,1.63,1.63,0,0,1,.34.21.28.28,0,0,1,0,.22.12.12,0,0,1-.15,0l-.21-.1A.77.77,0,0,1,16.06,5.12Z"/><path class="cls-4" d="M6.22,2.69a.61.61,0,0,1,.46,0,.07.07,0,0,1,0,.1.32.32,0,0,0-.08.09c0-.16-.13-.21-.37-.16Z"/><path class="cls-4" d="M6.28,2.94l0,0A.66.66,0,0,0,6,3.3l0,.09A.85.85,0,0,1,6.28,2.94Zm-1-.36q.36,0,.63.57,0-.28.18-.33a.17.17,0,0,0,0,.14h0a.34.34,0,0,1,.36-.15.87.87,0,0,1-.29.7.21.21,0,0,0,.13,0,.63.63,0,0,0,.55.84.52.52,0,0,0,.48-.52c0-.17,0-.22-.18-.18s-.25,0-.25-.09v0a.15.15,0,0,0,.22.05v0A.11.11,0,0,1,7,3.41a.16.16,0,0,1,.11,0,.42.42,0,0,1,.41.44.62.62,0,0,1-.67.65c-.52,0-.57-.57-.9-1.17-.19-.37-.44-.57-.65-.58a.51.51,0,0,0-.29.1A.3.3,0,0,1,5.28,2.58Z"/><path class="cls-4" d="M6,2.41c0,.13,0,.25,0,.37a.6.6,0,0,1,.12-.11A.42.42,0,0,0,6,2.39Z"/><path class="cls-4" d="M8.09,1.38a4.1,4.1,0,0,1,.32.85h0a.91.91,0,0,0-.53-.36,1.68,1.68,0,0,1,0-.5,1.09,1.09,0,0,0,0-.4,1.06,1.06,0,0,1,.46.2l0,0a.32.32,0,0,0-.25-.11c-.1,0-.16.2-.12.45H8c0-.19,0-.3.14-.32a.92.92,0,0,1,.41.4.17.17,0,0,1,0,.17,1.36,1.36,0,0,0-.06.2h0a2.33,2.33,0,0,1-.1-.58h0a.45.45,0,0,0,0,.13h0a1,1,0,0,0-.13-.2Z"/><path class="cls-4" d="M7.51,3.23h0a.07.07,0,0,0,.08.06s.1,0,.11.09a.19.19,0,0,0,.07-.16c0-.11-.06-.17-.19-.17a.19.19,0,0,0-.19.21.53.53,0,0,0,0,.19.85.85,0,0,1,.18.28.83.83,0,0,0,.42.13.66.66,0,0,0,.63-.65.9.9,0,0,0-.8-.9c-.14,0-.17,0-.28,0v0a.78.78,0,0,1,.77.08l0,0a.82.82,0,0,0-.57-.43c-.28,0-.47.22-.54.65h.11a.25.25,0,0,0,0-.12.64.64,0,0,1,.29-.41l0,0a.52.52,0,0,0-.19.33c0,.07.08.11.21.11a.32.32,0,0,0,.21-.06.21.21,0,0,1,.28,0l0,0a.25.25,0,0,0-.29,0,.41.41,0,0,1-.27,0s0,0,0,.06A.53.53,0,0,0,8,2.63a.13.13,0,0,1,.17,0,.91.91,0,0,1,.29.59.43.43,0,0,1-.35.46.41.41,0,0,1-.43-.33C7.56,3.39,7.5,3.34,7.51,3.23Z"/><path class="cls-4" d="M7,3a.18.18,0,0,1,.18-.1.19.19,0,0,1,0,.37.12.12,0,0,1-.08,0,.1.1,0,0,1,.09,0s.07,0,.08,0l0,0c-.06,0-.11,0-.13,0A.11.11,0,0,0,7,3Z"/><path class="cls-4" d="M5.92,2.45c0,.09,0,.19,0,.32a.38.38,0,0,0-.17-.14v0c.06,0,.1,0,.13-.14Z"/><path class="cls-4" d="M5.84,2.27a.35.35,0,0,1,.1-.11s0,0,0,0,0,0,.08.09l0,0c-.07-.06-.14,0-.16,0Z"/><path class="cls-4" d="M9.9,2.07a.17.17,0,0,1,.19,0,.18.18,0,0,1,.12.23.17.17,0,0,1-.22.12.12.12,0,0,1-.07-.05.09.09,0,0,1,.1,0,.06.06,0,0,0,.09,0v0c-.06,0-.11,0-.12-.08A.14.14,0,0,0,9.9,2.07Z"/><path class="cls-4" d="M7.2,1.65A.89.89,0,0,0,7.5,2a.34.34,0,0,1,.2-.09,1.3,1.3,0,0,0-.2-.15v0a.47.47,0,0,1,.15.06l0-.05c0-.09-.1-.13-.23-.12a.65.65,0,0,0-.17,0,.2.2,0,0,0,0,.08l0,0a.24.24,0,0,1-.08-.09Z"/><path class="cls-4" d="M8.86,2.37c0,.55.24.93.63.93.23,0,.33-.18.32-.47a.38.38,0,0,0-.12-.28s0,0,0,0a.13.13,0,0,1,.12,0c.2,0,.28.22.28.46a.6.6,0,0,1-.6.54c-.57,0-.87-.54-.84-1.22,0-.1,0-.16.12-.16L8.82,2l0,0a.85.85,0,0,1,.24-.2V1.76A.91.91,0,0,0,8.73,2a.17.17,0,0,1,0-.1V1.84l-.07,0h0a.28.28,0,0,1,.11-.23l0,.05a.66.66,0,0,1,.6.12A.65.65,0,0,1,9,2.21v0H9A.16.16,0,0,1,8.86,2.37Z"/><path class="cls-4" d="M8.85,1l0,0C9,1,9,1,9.05,1.06a.69.69,0,0,1,0,.26h0a1.4,1.4,0,0,0,0-.35s0-.06-.11,0A.46.46,0,0,0,8.85,1Z"/><path class="cls-4" d="M7.23,1.52c-.07,0-.09.05-.06.09S7.25,1.56,7.23,1.52Z"/><path class="cls-4" d="M8.62,1.92h0a.27.27,0,0,1,0,.14A.38.38,0,0,1,8.62,1.92Z"/><path class="cls-4" d="M8.65,1.29a.11.11,0,0,0,0,.16h0a1.46,1.46,0,0,1,.19-.29h0c0,.12-.1.21-.14.3s0,.05,0,.06A.51.51,0,0,1,9,1.46c0-.11,0-.2,0-.27s-.07-.12-.15-.08A1.68,1.68,0,0,0,8.65,1.29Z"/><path class="cls-4" d="M8.94,1.56a.53.53,0,0,1,.31,0,1.35,1.35,0,0,1,.38.19s0,0,0,.07A2,2,0,0,0,9.45,2a1.14,1.14,0,0,1-.22.22l0,0A.9.9,0,0,0,9.36,2a.85.85,0,0,1,.17-.2s0,0,0,0A.66.66,0,0,0,9,1.61Z"/><path class="cls-4" d="M8.42,1.33l.05.08,0,0a.22.22,0,0,0-.06-.07Z"/><path class="cls-4" d="M11.36,2.34a.51.51,0,0,1,0,.42.58.58,0,0,1-.52.29.36.36,0,0,1-.42-.41.12.12,0,0,1-.1,0,.07.07,0,0,0-.11,0c.06.41.32.64.62.63a.72.72,0,0,0,.75-.66.89.89,0,0,0,.07-.32c0-.43-.27-.69-.77-.77v0a.81.81,0,0,1,.66.22s.06,0,0-.05a.83.83,0,0,0-.33-.38.05.05,0,0,0-.08.05.65.65,0,0,0-.53.21s0,0,0,.05a1,1,0,0,1,.19.12.4.4,0,0,0,.28.08v.05a.3.3,0,0,1-.31-.07.54.54,0,0,0-.22-.09c-.09,0-.09-.09-.06-.15a.36.36,0,0,1,.08-.09l0,0a.58.58,0,0,0-.17.18c0,.07,0,.11,0,.12a.64.64,0,0,1,.27.11.61.61,0,0,0,.41.12.18.18,0,0,1,.21.15A.68.68,0,0,0,11.36,2.34Z"/><path class="cls-4" d="M10.23,2.46c0-.08.07-.12.16-.13s.17.08.16.15,0,.1-.07.12a.08.08,0,0,0-.09-.05.08.08,0,0,1-.09-.06A.08.08,0,0,0,10.23,2.46Z"/><path class="cls-4" d="M7.38,5.77a7.37,7.37,0,0,0,2.94.63l-.82.8c-1.5-.28-2.29-.62-2.35-1A1,1,0,0,1,7.38,5.77Z"/><path class="cls-4" d="M8.33,7.39A2.51,2.51,0,0,0,9,7.61l-6,6,8.68,8.8,8.86-8.8-6.1-6a2.64,2.64,0,0,0,.7-.17l6.3,6.24-9.73,9.68L2.11,13.64Z"/><path class="cls-4" d="M3.83,13.6l7.83-7.75,7.87,7.75-7.87,7.9Zm-.59,0,8.42-8.3L20.2,13.6l-8.54,8.49Z"/><path class="cls-4" d="M4.89,7.78a.78.78,0,0,1,.74-.41,1,1,0,0,1,1,1,1,1,0,0,1-.43.84,1.4,1.4,0,0,0,.14-.64,1,1,0,0,0-1.07-.88A.86.86,0,0,0,4.89,7.78Z"/><path class="cls-4" d="M4.73,8.07a.59.59,0,0,1,.48-.19.75.75,0,0,1,.69.79A.58.58,0,0,1,5.81,9a.5.5,0,0,0-.33-.24.8.8,0,0,0,0-.23A.58.58,0,0,0,5,8,1,1,0,0,0,4.73,8.07Z"/><path class="cls-4" d="M5.75,8l0,0A.83.83,0,0,1,5.9,9.3a.49.49,0,0,1-.2.3.19.19,0,0,1-.1.22s-.06.08-.07.15,0,.13-.15.14l0-.08a.6.6,0,0,0,0-.52c.28.07.4,0,.46-.27a.79.79,0,0,0,.3-.67A1,1,0,0,0,5.75,8Z"/><path class="cls-4" d="M5.62,9.27l0,0a.15.15,0,0,1-.23,0A.27.27,0,0,1,5.27,9a.69.69,0,0,0,.17-.17.32.32,0,0,1,.34.3.34.34,0,0,1-.32.34.23.23,0,0,1-.2-.11l0,0C5.44,9.41,5.57,9.39,5.62,9.27Z"/><path class="cls-4" d="M5.2,9a.38.38,0,0,0,0,.22l0,0a.21.21,0,0,1,0-.24Z"/><path class="cls-4" d="M3.7,8.82a1,1,0,0,1,.55-.12l.16,0A.66.66,0,0,0,4.92,9a1.36,1.36,0,0,1,.32.71,1,1,0,0,1-.23.77A1.11,1.11,0,0,0,5,10,1.31,1.31,0,0,0,3.7,8.82Z"/><path class="cls-4" d="M5,8.46q0,.12.12.15v.05a.2.2,0,0,1-.2-.07.16.16,0,0,1,0-.15Zm-.1-.18a.25.25,0,0,0-.15.24A.3.3,0,0,0,5,8.83a.17.17,0,0,0,.13-.05l0,0c-.2,0-.31-.07-.31-.22a.27.27,0,0,1,.1-.18Zm-.24.25A.39.39,0,0,1,5,8.13a.41.41,0,0,1,0,.81A.4.4,0,0,1,4.65,8.53Z"/><path class="cls-5" d="M4.2,8.16a.2.2,0,0,0-.08.17.28.28,0,0,0,.3.27v.06a.35.35,0,0,1-.36-.22H4a.25.25,0,0,0,0,.15c-.1,0-.17,0-.21,0a.26.26,0,0,1-.17-.05l0,0a.15.15,0,0,0,.13,0V8.43a.09.09,0,0,1-.11-.08.12.12,0,0,1,0-.1v0a.16.16,0,0,0-.08,0l0,0a.21.21,0,0,1,.21-.09.09.09,0,0,1,.07.12.17.17,0,0,1,.12.05A.3.3,0,0,1,4.35,8a.35.35,0,0,1,.3.13,1.14,1.14,0,0,0-.26.34c-.09,0-.2-.06-.2-.16a.15.15,0,0,1,.07-.14S4.24,8.15,4.2,8.16Z"/><path class="cls-4" d="M3,9.27A.93.93,0,0,1,3.73,9,1.18,1.18,0,0,1,4.9,10.15a1.11,1.11,0,0,1-.45.93,1.34,1.34,0,0,0,.19-.72,1.22,1.22,0,0,0-1.4-1.13A.86.86,0,0,0,3,9.27Z"/><path class="cls-4" d="M2.85,11.68a1.53,1.53,0,0,1-1.41,1.56,1.12,1.12,0,0,1-1.14-1,.74.74,0,0,1,.62-.78.56.56,0,0,1,.56.5c0,.26-.13.52-.34.52a.26.26,0,0,1-.24-.28A.24.24,0,0,1,1,12v-.05a.25.25,0,0,0-.21.26.58.58,0,0,0,.65.6,1,1,0,0,0,.88-1.11,1.69,1.69,0,0,0-.52-1.15A1.83,1.83,0,0,1,3.3,9.35a1.11,1.11,0,0,1,1.21,1.07.9.9,0,0,1-.83.95A.64.64,0,0,1,3,10.76a.56.56,0,0,1,.5-.59.36.36,0,0,1,.39.34c0,.19-.11.3-.35.29l0,0a.26.26,0,0,0,.15,0,.38.38,0,0,0,.34-.42.72.72,0,0,0-.74-.66,1.09,1.09,0,0,0-1,.71A1.83,1.83,0,0,1,2.85,11.68Z"/><path class="cls-4" d="M16.67,8.37a1.15,1.15,0,0,1,1.06-1,1.05,1.05,0,0,1,.91.55,1.1,1.1,0,0,0-.71-.26A1.19,1.19,0,0,0,16.82,9,.87.87,0,0,1,16.67,8.37Z"/><path class="cls-4" d="M18.07,9.32a.46.46,0,0,1-.21-.05l0,0a.2.2,0,0,0,.24.06Z"/><path class="cls-4" d="M19.7,8.83a2.23,2.23,0,0,1-.39-.09.67.67,0,0,1-.44.06.6.6,0,0,1-.53.31,1.11,1.11,0,0,1-.15.36c.17.24.11.51-.27.58.17.16.31.29.47.47A1.38,1.38,0,0,1,19.7,8.83Z"/><path class="cls-4" d="M18.44,8.66a.13.13,0,0,1-.14-.14h-.05a.17.17,0,0,0,0,.2.16.16,0,0,0,.15,0Zm.17.1a.24.24,0,0,1-.25.13.29.29,0,0,1-.28-.32.22.22,0,0,1,.06-.13l0,0a.24.24,0,0,0,.19.33.2.2,0,0,0,.2-.09ZM18.33,9a.41.41,0,0,0,.45-.35.39.39,0,0,0-.36-.42.4.4,0,0,0-.45.34A.41.41,0,0,0,18.33,9Z"/><path class="cls-4" d="M20.39,9.23A1,1,0,0,0,19.64,9a1.18,1.18,0,0,0-1.14,1.15,1,1,0,0,0,.43.9,1.13,1.13,0,0,1-.21-.67,1.2,1.2,0,0,1,1.33-1.2A1,1,0,0,1,20.39,9.23Z"/><path class="cls-4" d="M20.57,11.68A1.56,1.56,0,0,0,22,13.24a1.13,1.13,0,0,0,1.14-1,.74.74,0,0,0-.69-.71.55.55,0,0,0-.57.54.48.48,0,0,0,.44.46.31.31,0,0,0,.3-.29.26.26,0,0,0-.19-.28v-.06a.28.28,0,0,1,.27.3c0,.35-.3.6-.73.6a1,1,0,0,1-.93-1.07,1.28,1.28,0,0,1,.56-1.06A1.87,1.87,0,0,0,20.09,9.3a1.13,1.13,0,0,0-1.18,1.13.89.89,0,0,0,.83.93.65.65,0,0,0,.65-.61.53.53,0,0,0-.47-.58.35.35,0,0,0-.38.34c0,.19.14.35.46.24l0,.05a.26.26,0,0,1-.24.11.47.47,0,0,1-.49-.51.72.72,0,0,1,.77-.63,1.2,1.2,0,0,1,1,.7A2,2,0,0,0,20.57,11.68Z"/><path class="cls-4" d="M18.66,8.05a.75.75,0,0,0-.46-.16,1,1,0,0,0-1,1,1.05,1.05,0,0,0,.43.92.31.31,0,0,1,.11-.38.5.5,0,0,1,.09-.74.5.5,0,0,1,.47-.59.56.56,0,0,1,.35.09A1.05,1.05,0,0,0,18.66,8.05Z"/><path class="cls-4" d="M18.05,7.75a1.1,1.1,0,0,0-1.13,1.1.49.49,0,0,0,.12.34h0a.36.36,0,0,0,0-.24A1,1,0,0,1,18,7.79,0,0,0,0,0,18.05,7.75Z"/><path class="cls-4" d="M15.73,5.69a7.11,7.11,0,0,1-2.64.71l.82.8c1.5-.28,2.29-.62,2.35-1A.78.78,0,0,0,15.73,5.69Z"/><path class="cls-4" d="M17.88,8.78a.45.45,0,0,0,.32.31.13.13,0,0,1-.16.14.19.19,0,0,1-.19-.17.14.14,0,0,0,0-.14A.1.1,0,0,1,17.88,8.78Z"/><path class="cls-4" d="M17.75,9.68a.14.14,0,0,1,.16-.16c.11,0,.24.08.24.18a.19.19,0,0,1-.2.18A.21.21,0,0,1,17.75,9.68Zm.09-.11c0,.12,0,.22.1.24a.22.22,0,0,0,.14-.05l0,0c-.12.06-.21,0-.16-.13Z"/><path class="cls-4" d="M18.8,8.18a.19.19,0,0,1,.2-.13.37.37,0,0,1,.34.34.19.19,0,0,1,0,.08c0-.06-.08-.07-.14,0a.54.54,0,0,0,0,.2.31.31,0,0,1-.17,0,.42.42,0,0,1-.15,0l0-.06a.26.26,0,0,0,.17,0V8.51c-.21,0-.28-.12-.22-.31Z"/><path class="cls-4" d="M19.64,8.25l0,0a.25.25,0,0,1,0,.38l0-.08a.19.19,0,0,1-.15-.11s.05,0,0-.09l0,0C19.6,8.36,19.68,8.32,19.64,8.25Z"/><path class="cls-4" d="M19.59,8.61a.26.26,0,0,1-.14-.06l0,0a.15.15,0,0,0,.16.07Z"/><path class="cls-4" d="M1.39,14.11A1.82,1.82,0,0,1,2.91,15a2.18,2.18,0,0,0-.5,1.37c0,1.28.66,2.16,1.56,2.12a.85.85,0,0,0,.8-.83.36.36,0,0,0-.13-.3l0,.05a.16.16,0,0,1,0,.12.25.25,0,0,1-.26.22A.41.41,0,0,1,4,17.29a.46.46,0,0,1,.41-.48.83.83,0,0,1,.82.91A1.27,1.27,0,0,1,4,19c-1.16,0-2-1.15-2-2.72A2.79,2.79,0,0,1,2.22,15a.94.94,0,0,0-.84-.45.65.65,0,0,0-.64.61H.81a.34.34,0,0,1,.32-.35.4.4,0,0,1,.38.37.57.57,0,0,1-.59.61.7.7,0,0,1-.66-.73A1,1,0,0,1,1.39,14.11Z"/><path class="cls-4" d="M4.54,19a1.81,1.81,0,0,0,.73-.75l.14.13a1.61,1.61,0,0,1-.72.76Z"/><path class="cls-4" d="M4.87,19.16a1.63,1.63,0,0,0,.57-.54l.28.25a.31.31,0,0,0,0,.25.54.54,0,0,0-.63.26Z"/><path class="cls-4" d="M5.82,20.12A.6.6,0,0,0,6,19.6a.45.45,0,0,0,.28-.05l.17.17a2.43,2.43,0,0,0-.49.61Z"/><path class="cls-4" d="M6.05,20.53a1.44,1.44,0,0,1,.7-.73l.11.11a1.41,1.41,0,0,0-.72.7Z"/><path class="cls-4" d="M11,23.77a1.63,1.63,0,0,0-.83-1.42,2.76,2.76,0,0,1-1.53.49,1.75,1.75,0,0,1-1.94-1.56.76.76,0,0,1,.74-.79.45.45,0,0,1,.39.21l0,0a.21.21,0,0,0-.17-.07.36.36,0,0,0-.29.35.44.44,0,0,0,.49.42.56.56,0,0,0,.51-.58A.88.88,0,0,0,7.43,20,1.22,1.22,0,0,0,6.22,21.3a2.11,2.11,0,0,0,2.35,2,4.18,4.18,0,0,0,1.57-.4,1.08,1.08,0,0,1,.42.93c0,.45-.31.72-.68.67v-.06c.2,0,.26-.2.26-.37a.43.43,0,0,0-.42-.39.48.48,0,0,0-.5.45A.84.84,0,0,0,10,25,1.17,1.17,0,0,0,11,23.77Z"/><path class="cls-4" d="M22.05,14.18a1.72,1.72,0,0,0-1.49.77,3,3,0,0,1,.49,1.55,1.75,1.75,0,0,1-1.64,2,.89.89,0,0,1-.83-.84.29.29,0,0,1,.24-.31v.05a.24.24,0,0,0-.11.24.32.32,0,0,0,.31.31c.27,0,.39-.21.39-.47a.57.57,0,0,0-.62-.58c-.34,0-.67.36-.67.9A1.28,1.28,0,0,0,19.5,19a2.39,2.39,0,0,0,2-2.63A4.14,4.14,0,0,0,21.19,15a1,1,0,0,1,.88-.37.66.66,0,0,1,.64.61h-.07a.34.34,0,0,0-.32-.35.5.5,0,0,0-.43.42.53.53,0,0,0,.54.56.68.68,0,0,0,.67-.68A1.08,1.08,0,0,0,22.05,14.18Z"/><path class="cls-4" d="M18.87,19.07a1.38,1.38,0,0,1-.79-.76l-.14.14a1.7,1.7,0,0,0,.83.72Z"/><path class="cls-4" d="M18.54,19.18a2.47,2.47,0,0,1-.55-.44l-.27.26a.56.56,0,0,1,0,.18.45.45,0,0,1,.5.29Z"/><path class="cls-4" d="M12.24,23.84a2,2,0,0,1,.87-1.54,2.43,2.43,0,0,0,1.53.55c1.08,0,1.93-.71,1.93-1.42a.87.87,0,0,0-.78-.91.39.39,0,0,0-.4.17l0,0a.23.23,0,0,1,.19-.08.27.27,0,0,1,.25.29.42.42,0,0,1-.41.44.52.52,0,0,1-.53-.52.86.86,0,0,1,.91-.8,1.24,1.24,0,0,1,1.22,1.25,2.22,2.22,0,0,1-2.31,2.09,3.33,3.33,0,0,1-1.67-.46,1,1,0,0,0-.37.79c0,.44.16.73.58.73v-.07a.25.25,0,0,1-.28-.24.41.41,0,0,1,.38-.42.6.6,0,0,1,.61.61c0,.44-.5.62-.72.62A1.1,1.1,0,0,1,12.24,23.84Z"/><path class="cls-4" d="M17.57,20.14a.44.44,0,0,1-.31-.51.3.3,0,0,1-.16,0l-.27.27a2.46,2.46,0,0,1,.51.51Z"/><path class="cls-4" d="M17.3,20.64a1.56,1.56,0,0,0-.72-.77l-.11.13a1.45,1.45,0,0,1,.69.78Z"/><path class="cls-4" d="M1.36,13.93a.32.32,0,0,1-.2.07L1,14l0-.06a.42.42,0,0,0,.27,0ZM.8,13.66a.3.3,0,0,1,.32-.32.36.36,0,0,1,.25.1.41.41,0,0,0-.08.24c0,.09-.07.15-.18.15a.17.17,0,0,1-.17-.17.24.24,0,0,1,.1-.19l0,0a.24.24,0,0,0-.16.21.26.26,0,0,0,.11.21l0,.06A.33.33,0,0,1,.8,13.66Z"/><path class="cls-4" d="M1.59,13.5h0a.17.17,0,0,1,.17.16.2.2,0,0,1-.19.19.16.16,0,0,1-.13-.06.74.74,0,0,1,0-.18h.07A.27.27,0,0,1,1.59,13.5Z"/><path class="cls-4" d="M21.61,13.54a.17.17,0,0,1,.16-.12.19.19,0,0,1,.18.2.18.18,0,0,1-.13.19v-.06a.15.15,0,0,1-.11-.17Zm.54.13c0-.14.06-.24.22-.24a.23.23,0,0,1,.24.24.25.25,0,0,1-.2.25v-.07c-.14,0-.22-.06-.23-.15h0Zm.53-.22a.31.31,0,0,1,.29-.17.39.39,0,0,1,.41.35A.4.4,0,0,1,23,14a.48.48,0,0,1-.23-.07l0-.06a.22.22,0,0,0,.27-.05l0,0a.2.2,0,0,1-.31-.19.31.31,0,0,1,.09-.22l0,0a.31.31,0,0,0-.09.11Zm.24.05a.14.14,0,0,0,0,.11.15.15,0,0,0,.13.14l0-.06a.09.09,0,0,1-.05-.15Z"/><path class="cls-4" d="M.4,13.48a.14.14,0,0,0,0,.11.15.15,0,0,0,.13.14l0-.06a.09.09,0,0,1-.05-.15Zm-.14-.14a.36.36,0,0,1,.25-.08.26.26,0,0,1,.24.14.51.51,0,0,0,0,.49A.34.34,0,0,1,.45,14a.31.31,0,0,1-.3-.21l.05,0a.26.26,0,0,0,.37.12l0-.05a.23.23,0,0,1-.3-.23.33.33,0,0,1,.07-.23Z"/><path class="cls-4" d="M11.56,23.73a.15.15,0,0,0,0,.16.16.16,0,0,0,.19,0l0-.05c-.09,0-.13-.06-.11-.14Zm-.08.06a.22.22,0,0,1,.2-.23.2.2,0,0,1,.2.21.26.26,0,0,1-.23.25C11.54,24,11.48,23.92,11.48,23.79Z"/><path class="cls-4" d="M11.34,24.32a.3.3,0,0,1,.05-.16l.07,0c-.06.19,0,.41.32.34v-.06c-.22,0-.28-.12-.25-.26a.51.51,0,0,0,.33-.16.28.28,0,0,1,.16.27.32.32,0,0,1-.33.31A.33.33,0,0,1,11.34,24.32Z"/><path class="cls-4" d="M11.57,24.94a.14.14,0,0,0,0,.16.16.16,0,0,0,.18,0v0c-.09,0-.13,0-.12-.15Zm-.28.07a.34.34,0,0,1,.1-.25l.07,0a.39.39,0,0,0-.06.3.32.32,0,0,0,.45.19l0,0c-.21,0-.36-.06-.36-.23a.26.26,0,0,1,.1-.22.85.85,0,0,0,.26-.05A.31.31,0,0,1,12,25a.33.33,0,0,1-.36.37A.39.39,0,0,1,11.29,25Z"/><path class="cls-4" d="M11.26,25.29a.39.39,0,0,0,.08.1,8.84,8.84,0,0,0-.74,1.28l0,0a9.93,9.93,0,0,1,.81-1.24.23.23,0,0,0,.11,0,1.58,1.58,0,0,1-.92,1.31c-.07,0-.12,0-.12-.11A2.27,2.27,0,0,1,11.26,25.29Z"/><path class="cls-4" d="M11.66,26.27a3.34,3.34,0,0,0,0,.9h.05a4.55,4.55,0,0,0,0-.91Zm0-.61h.05a2.52,2.52,0,0,0,.35.8,1.82,1.82,0,0,1-.34,1.1s0,0-.06,0a1.71,1.71,0,0,1-.3-1.12A2.38,2.38,0,0,0,11.66,25.66Z"/><path class="cls-4" d="M11.82,25.51l.13-.06a5.94,5.94,0,0,1,.69.84l0,0a3.81,3.81,0,0,0-.62-.9.44.44,0,0,0,.08-.11,1.51,1.51,0,0,1,.71,1.4c0,.05,0,.07-.07.05A1.41,1.41,0,0,1,11.82,25.51Z"/><path class="cls-4" d="M5.82,19.09a.28.28,0,0,1,.31-.26.27.27,0,0,1,.26.28.32.32,0,0,1-.14.25c-.23,0-.32-.13-.26-.31l0,0a.17.17,0,0,0-.06.21l0,0A.27.27,0,0,1,5.82,19.09Z"/><path class="cls-4" d="M5.48,19.32a.31.31,0,0,0-.21.43.31.31,0,0,0,.46.14l0-.05c-.19,0-.34,0-.38-.15a.27.27,0,0,1,.17-.31Zm-.31.31a.39.39,0,0,1,.39-.39.36.36,0,0,1,.35.39.37.37,0,1,1-.74,0Z"/><path class="cls-4" d="M4.75,20.12a.28.28,0,0,1,.3-.3h0a.66.66,0,0,0,.32.32.28.28,0,0,1-.31.3.29.29,0,0,1-.29-.21l.08,0a.25.25,0,0,0,.37.13l0-.05a.21.21,0,0,1-.27-.07A.18.18,0,0,1,5,20l0,0a.23.23,0,0,0-.08.19H4.76Z"/><path class="cls-4" d="M6.45,18.63a.14.14,0,0,0,0,.2.16.16,0,0,0,.12.06v0l-.06,0V19a.16.16,0,0,0,.16-.18A.2.2,0,0,0,6.45,18.63Z"/><path class="cls-4" d="M4.64,20.32a.56.56,0,0,0,.17.25.08.08,0,0,1,0,.05.13.13,0,0,1-.13-.2l0-.05a.11.11,0,0,0,0,.09l0,0C4.5,20.34,4.55,20.3,4.64,20.32Z"/><path class="cls-4" d="M18.61,20.69a.16.16,0,0,0,.15,0v.07a.15.15,0,0,1-.17,0Zm-.05-.15a.35.35,0,0,0,.16-.21.26.26,0,0,1,.15.25l-.08,0a.11.11,0,0,1-.12.06C18.61,20.61,18.57,20.59,18.56,20.54Zm-1.78-1.85A.22.22,0,0,1,17,18.6a.18.18,0,0,1,.19.16.64.64,0,0,0-.26.24.24.24,0,0,1-.13-.09l.07,0a.14.14,0,0,1,0-.12Zm1.5,1.12a.29.29,0,0,1,.25.3.33.33,0,0,1-.28.35.31.31,0,0,1-.25-.15l.05-.06a.22.22,0,0,0,.35.08l0,0a.18.18,0,0,1-.26-.13A1,1,0,0,0,18.28,19.81Zm-.61-.44,0,.05a.23.23,0,0,0-.07.32.26.26,0,0,0,.32.09l0,.05a.3.3,0,1,1-.3-.51Zm-.26.31a.34.34,0,0,1,.35-.37.35.35,0,0,1,.35.35.36.36,0,0,1-.32.39A.4.4,0,0,1,17.41,19.68Zm.3-.14.05,0c0,.1,0,.14.11.13v.06a.16.16,0,0,1-.19-.05A.16.16,0,0,1,17.71,19.54Zm-.39-.61c-.18,0-.28.09-.28.25a.29.29,0,0,0,.23.27.08.08,0,0,1,0,0,.31.31,0,0,1-.28-.31.32.32,0,0,1,.63,0v.05a.62.62,0,0,0-.25.15c-.13,0-.23-.07-.22-.18a.19.19,0,0,1,.18-.2Z"/><path class="cls-4" d="M10.58,5.87a.65.65,0,0,1-.51.37.84.84,0,0,1-.84-.53,1.25,1.25,0,0,1-.45.39,4.67,4.67,0,0,1-1.26-.42,2,2,0,0,1,.55-.18.84.84,0,0,0,.71.39c.3,0,.49-.31.47-.74l.25,0a1.1,1.1,0,0,0-.13.51.61.61,0,0,0,.67.51.45.45,0,0,0,.41-.36c-.14,0-.22-.08-.21-.2a.17.17,0,0,1,.16-.14.21.21,0,0,1,0-.19.13.13,0,0,1,.18-.07v.22a.16.16,0,0,1,.07.09.26.26,0,0,1,.22.06.12.12,0,0,1-.1.14l0,.08,0,.07.07.09L10.74,6Z"/><path class="cls-4" d="M14,5.1a9,9,0,0,1,1.58.49,6,6,0,0,1-.78.33.6.6,0,0,1-.22,0,.43.43,0,0,1-.39-.31,1.16,1.16,0,0,1-.34.5,3.3,3.3,0,0,1-.6.08.78.78,0,0,1-.39-.37.7.7,0,0,1-.19.16l0-.07a.45.45,0,0,1,.15-.18l0-.08c-.14,0-.22,0-.22-.13s.16-.17.3-.11a.41.41,0,0,1,0-.15.15.15,0,0,1,.13-.13c.14,0,.17.17.1.28.12.06.2.11.2.2a.15.15,0,0,1-.14.17.5.5,0,0,1,0,.18c.42.28.86.08,1-.45A1.21,1.21,0,0,1,14,5.17Zm.24.16a5,5,0,0,1,.82.3.58.58,0,0,1-.48.31C14.37,5.87,14.2,5.58,14.23,5.26Z"/><path class="cls-4" d="M6.84,4.66a9.07,9.07,0,0,1,4.79-1.34,9.66,9.66,0,0,1,5,1.38c.06,0,.1.12.07.17a.15.15,0,0,1-.19,0,9.62,9.62,0,0,0-4.82-1.37A9.36,9.36,0,0,0,6.94,4.78c-.05,0-.13,0-.14,0A.09.09,0,0,1,6.84,4.66Z"/><path class="cls-4" d="M15,4.7a1.19,1.19,0,0,1,.44-.11,1,1,0,0,1,.37.41.54.54,0,0,1-.43.1A.71.71,0,0,1,15,4.7Zm-2.47-.57a1.6,1.6,0,0,1,.59-.23,4,4,0,0,1,.37.35,1.34,1.34,0,0,1-.51.28A1.32,1.32,0,0,1,12.57,4.13ZM7.46,5a1.1,1.1,0,0,1,.27-.38,1.24,1.24,0,0,1,.55,0A.62.62,0,0,1,8,5.06,1.34,1.34,0,0,1,7.46,5Zm2.32-.7a1.13,1.13,0,0,1,.45-.38,2.32,2.32,0,0,1,.53.24,2.6,2.6,0,0,1-.45.38C10,4.46,9.84,4.39,9.78,4.28ZM7,4.89a8.69,8.69,0,0,1,4.65-1.27A9.46,9.46,0,0,1,16.56,5l0,.08L16.27,5a.64.64,0,0,0-.31.11,2.15,2.15,0,0,0,.21.4,9.74,9.74,0,0,0-4.69-1,8.49,8.49,0,0,0-4.26,1l0-.06,0,0a1.21,1.21,0,0,0,.07-.33.64.64,0,0,0-.2,0Zm1.8-.71.4-.1a2.69,2.69,0,0,1,.38.2,1.23,1.23,0,0,1-.26.33l-.47.11a1.38,1.38,0,0,1-.33-.2A2.63,2.63,0,0,1,8.84,4.18ZM11,4.12a.93.93,0,0,1,.23-.28,8.35,8.35,0,0,1,.87,0,1,1,0,0,1,.27.26.87.87,0,0,1-.25.3,3.94,3.94,0,0,1-.85,0A.7.7,0,0,1,11,4.12Zm2.72.22A.8.8,0,0,1,14,4.12a4.24,4.24,0,0,1,.6.19,1.29,1.29,0,0,1,.25.28l-.28.22-.7-.19A1.43,1.43,0,0,1,13.71,4.34Z"/><path class="cls-4" d="M7,5.87S7,6,7,6s.06,0,.08,0c.24-.62,2.6-1.29,4.57-1.29a9.8,9.8,0,0,1,4,.83c.45.2.7.42.67.78a.31.31,0,0,0,.12-.23.54.54,0,0,0-.29-.39,9.35,9.35,0,0,0-4.53-1.11C9.69,4.58,7.66,5.17,7,5.87Z"/><path class="cls-4" d="M16,3a.15.15,0,0,1,.18-.05.16.16,0,0,1,.11.21.15.15,0,0,1-.2.11s-.05,0-.06,0a.07.07,0,0,1,.09,0,.08.08,0,0,0,.08,0v0c-.06,0-.1,0-.11-.07A.09.09,0,0,0,16,3Z"/><path class="cls-4" d="M11.08.64a1.16,1.16,0,0,0-.32-.08c-.06,0-.1,0-.1,0a.59.59,0,0,0,0,.19h0a.16.16,0,0,1,.12-.15.47.47,0,0,1,.24.06Zm-.39.24.07,0a.2.2,0,0,1,0-.07.17.17,0,0,1,.22,0,.94.94,0,0,1,.18.12L11.11,1A1.36,1.36,0,0,0,10.86.8l0,0a1.37,1.37,0,0,1,.24.29v0a1.27,1.27,0,0,0-.28,0A.81.81,0,0,1,10.69.88Z"/><path class="cls-4" d="M11.44.49a1,1,0,0,1,.15-.24.08.08,0,0,1,.14,0A2.6,2.6,0,0,1,12,.69l0,0A1.5,1.5,0,0,0,11.8.48a.2.2,0,0,0-.28,0,.21.21,0,0,0,0,.06Z"/><path class="cls-4" d="M11.26,1.18a.52.52,0,0,1,.08-.33l.06,0a1.06,1.06,0,0,1,.16-.32.11.11,0,0,1,.18,0,1,1,0,0,1,.25.54h.07l0,0a.84.84,0,0,0-.35.46h0c0-.32,0-.61,0-.87h0c0,.28,0,.57,0,.87h0A1.16,1.16,0,0,0,11.26,1.18Z"/><path class="cls-4" d="M10.86,1.21a.25.25,0,0,1,.22,0v0a.61.61,0,0,0-.19,0Z"/><path class="cls-4" d="M11.89,2.33a.51.51,0,0,0,.09.41.61.61,0,0,0,.46.28.39.39,0,0,0,.48-.41.2.2,0,0,0-.05-.14c-.09-.11,0-.14.07-.14s.2.32.2.33a.61.61,0,0,1-.6.58c-.54,0-.87-.26-.9-.69,0,0,.08-.06.07-.13a.76.76,0,0,1,.67-.9l0,0a.62.62,0,0,0-.5.19s-.08,0-.05,0a.89.89,0,0,1,.23-.35s.07,0,.07,0a.69.69,0,0,1,.64.26s0,.05,0,.06a.77.77,0,0,1-.28.07.74.74,0,0,0-.31.07l0,.05a2.63,2.63,0,0,1,.36,0c.08,0,.2-.09.28-.1s.09-.07.05-.14a1.53,1.53,0,0,0-.3-.27l0,0a.87.87,0,0,1,.38.35c0,.07,0,.1-.05.12a.86.86,0,0,0-.24.11,1,1,0,0,1-.52.05.27.27,0,0,0-.25.21A.74.74,0,0,1,11.89,2.33Z"/><path class="cls-5" d="M12.78,2.6a0,0,0,0,1,0-.06s0,0,.05,0,0,0,0,.05A0,0,0,0,1,12.78,2.6Z"/><path class="cls-4" d="M12.55,1.2a.24.24,0,0,0-.22,0v0a.41.41,0,0,1,.19,0Z"/><path class="cls-4" d="M12.11.74l.06.26s0,0,0,0a1.25,1.25,0,0,1,.23-.23l0,0a1,1,0,0,0-.18.26,0,0,0,0,0,0,.06.55.55,0,0,1,.22,0c0-.06,0-.09,0-.09s0,0,0,0a.89.89,0,0,0,.07-.19c0-.08,0-.13-.1-.11a.72.72,0,0,0-.25.07S12.14.72,12.11.74Z"/><path class="cls-5" d="M12.6.63s0-.05,0-.05,0,0,0,0a0,0,0,0,1,0,.06A0,0,0,0,1,12.6.63Z"/><path class="cls-4" d="M13.18,2.07a.16.16,0,0,1,.11,0,.19.19,0,0,1,.19.17.19.19,0,0,1-.11.18c0-.06,0-.1-.06-.11s-.08,0-.07-.11S13.22,2.09,13.18,2.07Z"/><path class="cls-4" d="M13.2,2.88c0-.24.14-.43.3-.43s.22.07.22.18a.16.16,0,0,1-.13.16l0-.08a.19.19,0,0,1-.08-.07.3.3,0,0,0-.07.18.41.41,0,0,0,.39.46.62.62,0,0,0,.58-.69c0-.11-.05-.18-.06-.33s-.05-.09-.1-.1a.48.48,0,0,1-.31-.28s0-.06,0-.08a.65.65,0,0,1,.59-.09l0,0a.77.77,0,0,0-.76.06.08.08,0,0,0,0,.08.33.33,0,0,0,.08.11l0,0a.32.32,0,0,1-.11-.13s0-.06,0-.09a.75.75,0,0,1,.6-.21c.26,0,.44.24.45.59,0,.06,0,.06-.06,0a.65.65,0,0,0-.42-.3v0a.52.52,0,0,1,.38.49c0,.52-.31,1.08-.79,1.08C13.6,3.45,13.2,3.22,13.2,2.88Z"/><path class="cls-4" d="M14.64,1.53a.83.83,0,0,1,.21.53h0a5.37,5.37,0,0,1,.33-.79.53.53,0,0,0-.22,0l0-.06A1.45,1.45,0,0,0,14.64,1.53Z"/><path class="cls-4" d="M15,2a3.21,3.21,0,0,1,.27-.68.32.32,0,0,1,.1.18,1.7,1.7,0,0,1,0,.26c0,.1-.11.19-.3.26Z"/><path class="cls-4" d="M15.2,1A.35.35,0,0,1,15.34,1a.07.07,0,0,1,.09.06c0,.06,0,.12,0,.18s0,0,0,0a.21.21,0,0,0-.2-.14S15.18,1.05,15.2,1Z"/><path class="cls-4" d="M15.68,3.29a.07.07,0,0,1,0-.09s0-.07-.06-.07a.09.09,0,0,1,.12-.08.21.21,0,0,1,.19.24.64.64,0,0,1-.58.59.7.7,0,0,1-.65-.72.82.82,0,0,1,.75-.87.5.5,0,0,1,.31.08l0,0a.68.68,0,0,0-.72,0l0-.05a.7.7,0,0,1,.55-.32V2l-.06,0V2c.19,0,.34.13.44.41,0,0,0,0,0,.06a1.14,1.14,0,0,1-.6,0l0,0a.94.94,0,0,0,.59,0H16s0,0,0,0a.78.78,0,0,0,0-.24l0,0a1,1,0,0,1,.07.23c0,.06,0,.09-.1.11a1.17,1.17,0,0,1-.72,0,.2.2,0,0,0-.21,0,.79.79,0,0,0-.25.6.53.53,0,0,0,.47.49.39.39,0,0,0,.38-.3l0-.06.06,0S15.7,3.31,15.68,3.29Z"/><path class="cls-4" d="M14.49,1.45l-.26-.05a2.8,2.8,0,0,1,0-.41c0-.05,0-.08.09-.07a.24.24,0,0,1,.13,0l0,0c-.07,0-.13,0-.14,0a.2.2,0,0,0,0,.15h0s0-.06.07,0a.29.29,0,0,1,.22.14l-.06.07a.28.28,0,0,0-.1-.15l0,0A.49.49,0,0,1,14.49,1.45Z"/><path class="cls-4" d="M16,1.44v0A.08.08,0,0,1,16,1.6l0,0a.14.14,0,0,0,0-.15A.14.14,0,0,0,16,1.44Z"/><path class="cls-4" d="M15.57,1.81a.41.41,0,0,1,.27-.15c.05,0,.06.05,0,.08s0,0,0,0,0,.05,0,.06l.06,0s0,0,0,.05a.54.54,0,0,0-.28-.09Z"/><path class="cls-4" d="M15.52,1.7a.42.42,0,0,1,.07-.28s.1,0,.09,0v.06s0,0,0,0h.07a0,0,0,0,1,0,.06.53.53,0,0,0-.26.13Z"/><path class="cls-4" d="M16.76,2.85c0,.07,0,.15.06.25a.85.85,0,0,1,.19.19v0a.59.59,0,0,1,.09.34.63.63,0,0,1-.59.62A.46.46,0,0,1,16,3.8a.22.22,0,0,1,.16-.22.14.14,0,0,0,.12.06.13.13,0,0,0,.13-.14c0-.09-.09-.17-.22-.17s-.36.19-.36.49a.68.68,0,0,0,.72.63.8.8,0,0,0,.69-.82.83.83,0,0,0-.35-.73v0a.73.73,0,0,1,.42.49l0,0a.78.78,0,0,0-.07-.43h-.05a.88.88,0,0,0-.45-.11S16.75,2.82,16.76,2.85Z"/><path class="cls-4" d="M18.35,2.77h0A.39.39,0,0,0,18,2.64a.51.51,0,0,0-.44.27l0,0A.59.59,0,0,1,18,2.69a.29.29,0,0,1,.25.1h-.22a.35.35,0,0,0-.27.14,1.55,1.55,0,0,0-.3.36l0,0a1.29,1.29,0,0,0,0-.38A.6.6,0,0,1,18,2.58.4.4,0,0,1,18.35,2.77Z"/><path class="cls-4" d="M17.46,2.44a.55.55,0,0,1,.1.17l-.12.1,0,0A.89.89,0,0,0,17.46,2.44Z"/><path class="cls-4" d="M17.36,2.41a1,1,0,0,1,0,.32h0a1.15,1.15,0,0,0,0-.14.32.32,0,0,1,0-.19S17.35,2.38,17.36,2.41Z"/><path class="cls-5" d="M16.58,2.8a0,0,0,0,1,0-.06s0,0,.05,0a0,0,0,0,1,0,0S16.6,2.81,16.58,2.8Z"/><path class="cls-3" d="M9.17,10.49v-.42a.34.34,0,0,0,.18.25.5.5,0,0,1-.15.17Zm1.54,7.65V20.3L9.17,18.73v-1c.21.14.44.28.7.43Zm0-9.5v0a.57.57,0,0,1-.15.23V9h.15v.16h-.1v4.06l-.74,0V10.9l.08-.13v-.2a1,1,0,0,1-.27-.27A.34.34,0,0,0,9.86,10a.35.35,0,0,0-.35-.35.34.34,0,0,0-.34.28V8.6l1.54-1.54v1a.33.33,0,0,0-.15.28A.32.32,0,0,0,10.71,8.64Zm3.44,9.15v1L12.6,20.32V18.14h.9C13.73,18,14,17.91,14.15,17.79Zm0-7.59v.28a.42.42,0,0,1-.13-.16A.49.49,0,0,0,14.15,10.2Zm0-1.64V9.82a.35.35,0,1,0-.49.48.84.84,0,0,1-.26.27v.2l.08.13v2.36h-.72V9.15H12.6V9h.16V8.91a.54.54,0,0,1-.16-.26.32.32,0,0,0,0-.56V7ZM17.59,12v3.38l-1.46,1.46V10.51ZM7.22,10.54v6.22L5.76,15.27V12Z"/><path class="cls-6" d="M5.59,12.16v2.95L4.12,13.62ZM9,8.76v1.73a.44.44,0,0,1-.15-.22A.34.34,0,0,0,9,10a.35.35,0,0,0-.35-.35.35.35,0,0,0-.35.35.34.34,0,0,0,.17.29,1,1,0,0,1-.22.27v.2l.11.16v2.82L8,14v.18l.07.1v.16l.07.06v2.4A4.46,4.46,0,0,0,9,17.6v1L7.38,16.92V10.37Zm3.44,9.38v2.34l-.78.78-.8-.81V18.14Zm0-9.14v.15h-.62l-.28,0-.68,0V9h.69l.15,0Zm0-2.12V8.05a.32.32,0,0,0-.32.32.29.29,0,0,0,.14.26A.6.6,0,0,1,12,8.9h0a.4.4,0,0,1-.17-.26A.33.33,0,0,0,12,8.37a.32.32,0,0,0-.32-.32.32.32,0,0,0-.33.32.31.31,0,0,0,.13.25.46.46,0,0,1-.17.28.66.66,0,0,1-.21-.27.31.31,0,0,0,.14-.26.32.32,0,0,0-.33-.32h0V6.91l.8-.8ZM16,10.36v6.58l-1.64,1.65v-.92a4.76,4.76,0,0,0,.95-.76V14.45l.08-.06,0-.13.08-.1V14l-.38-.21,0-2.84.11-.16V10.6a.58.58,0,0,1-.33-.3.34.34,0,0,0,.16-.29.35.35,0,0,0-.7,0,.37.37,0,0,0,.12.26.44.44,0,0,1-.13.21V8.75Zm3.31,3.27-1.56,1.56v-3.1Z"/><path class="cls-3" d="M11.17,18V16.37a.55.55,0,0,1,.53-.58.57.57,0,0,1,.52.59V18Z"/><path class="cls-3" d="M8.79,17.29V16.06c0-.26.07-.42.2-.37s.12.28.12.57v1.26Z"/><path class="cls-3" d="M14.55,17.33V16.06c0-.26,0-.45-.13-.41s-.15.28-.15.58v1.29Z"/><path class="cls-3" d="M9,12.5v-.62c0-.08,0-.11.05-.12s.06.05.06.12v.62Z"/><path class="cls-3" d="M11.79,11.55v-1c0-.13.05-.17.12-.18s.12.07.12.18v1Zm-.45,0v-1c0-.13,0-.17.11-.18s.13.07.13.18v1Z"/><path class="cls-3" d="M14.28,12.5v-.61c0-.08,0-.11.05-.12s.06,0,.06.12v.62Z"/><path class="cls-7" d="M12.54,12.78a0,0,0,0,0-.07,0v.06s.06.05.06,0Zm-.62.3a0,0,0,0,0,0,.07H12a0,0,0,0,0,0-.06Zm.26-.83a0,0,0,0,0,0,.06h.06a0,0,0,0,0,0-.06Zm-1.32.47a0,0,0,0,0-.06,0v0a0,0,0,1,0,.06,0Zm.63-.13s0,.07,0,.07h.28a0,0,0,1,0,0-.06h0c0-.11,0-.21,0-.32s-.06,0-.06,0a1.82,1.82,0,0,0,0,.33Zm.78.47a0,0,0,0,0-.06,0v.13s.07,0,.06,0Zm-1.16-.73h0s0-.07,0-.07H11a0,0,0,0,0,0,.06h.05v.08a0,0,0,0,0,.06,0Zm1.17-.48s0,0-.06,0v.05c-.25,0-.21,0-.23.18a0,0,0,0,0,.07,0V12h.18S12.28,11.87,12.28,11.85Zm.19.38s-.06.06,0,.06l.14,0s0-.07,0-.07h0c0-.09,0-.17,0-.23a0,0,0,1,0-.07,0,2,2,0,0,1,0,.23Zm-.9-.26a0,0,0,0,0,0-.06h0a0,0,0,1,0,0,.06Zm.47.24a0,0,0,0,0-.06,0v0h-.15a0,0,0,1,0,0,.06h.24s0-.07,0-.06h0Zm-.66.77a0,0,0,0,0,0-.07l-.45,0s0,.06,0,.06h.11a.28.28,0,0,0,0,.09s.06,0,.06,0,0-.06,0-.09Zm-.11-1.43H11a.16.16,0,0,0,.05.11,2.18,2.18,0,0,0,0,.27h-.09s-.05.07,0,.07h.41a.58.58,0,0,0,0,.19.12.12,0,0,0,0,.09h-.11a0,0,0,1,0,0,.06,1.2,1.2,0,0,0,.33,0s0-.07,0-.06h-.13s0,0-.05-.08a.65.65,0,0,1,.05-.21s0-.05,0-.05h-.31c0-.07,0-.15,0-.25h0l.07.12.49,0V12h0a.6.6,0,0,0,.08-.16.48.48,0,0,0,.21,0l.07,0s.06,0,.08-.08l.08,0,0-.11.11,0v-.05H12.1v-.25l.21,0,0,0v-.33s-.06-.05-.06,0l0,.3-.17,0v-.54c.1,0,.15-.09.15-.21a0,0,0,0,0,0,0s.07,0,.06,0a.31.31,0,0,1,0-.13l.31,0v.28h-.25s-.05.06,0,.06h.11a1,1,0,0,0,0,.24h-.05a0,0,0,1,0,0,.07h.13s0-.07,0-.07h0a1,1,0,0,1,0-.24h.07c0,.2,0,.39,0,.59h-.22s0,.07,0,.06h.06c0,.09,0,.17,0,.25s-.05.05,0,.06l.19,0v.27l-.29,0s0,.07,0,.07l.28,0v.63h-.05a0,0,0,0,0,0,.06h.05v.26l-.57,0v0s0,0-.05,0h0v-.2h.46s0-.06,0-.06h-.21l0-.19c0-.05-.07-.05-.07,0v.2h-.36s0,.07,0,.06H12v.2a0,0,0,0,0,0,0h0v0h-.14l-.07,0h-.31a0,0,0,1,0,0,.06h.15a.56.56,0,0,1,0,.17s.06.06.06,0a.68.68,0,0,0,0-.19h.07l.07,0h0l.77,0v.27H11.09v-.07s-.06,0-.06,0v.07h-.26v-.6l.17,0,.16,0h.2v.15c0,.05.06,0,.06,0v-.14h0s0-.05,0-.06l-.31,0-.16,0h-.16v-.26h.15a0,0,0,1,0,0-.06h-.07v0c0-.05-.06,0-.06,0v0h0V12h0v0s.07,0,.06,0v-.07s-.05,0-.09,0v-.62h0v.14s.07.05.07,0V11.3h.41Zm-.17-.61h.17v.29h-.53V9.59h.12l0,0V9.34h.5a1.08,1.08,0,0,1,0,.18h-.26c-.06,0-.06.2-.05.23s.06,0,.06,0a1,1,0,0,1,0-.17h.53a1.51,1.51,0,0,0,0,.3h0a0,0,0,0,0,0,.06,2.16,2.16,0,0,1,.3,0,.25.25,0,0,1,0,.09s.06,0,.06,0,0-.16,0-.16l-.23,0a1.22,1.22,0,0,1,0-.33,0,0,0,0,0,0,0h-.25a1.09,1.09,0,0,0,0-.18,2.87,2.87,0,0,1,.51,0v.19h-.09s0,.07,0,.06h.19a0,0,0,0,0,0-.06h0V9.34h.61v.52h-.25c-.05,0,0,.06,0,.06h.13s0,.08,0,.12,0,.06.06,0a.59.59,0,0,0,0-.14h.07v.28H12.3c-.05,0-.06.16-.06.2a.32.32,0,0,0-.29-.28.42.42,0,0,0-.27.09.33.33,0,0,0-.21-.09l0-.18h0s.06-.05,0-.06l-.18,0a0,0,0,0,0,0,.07h.09v.2a.31.31,0,0,0-.25.28.37.37,0,0,0,0,.11l-.33,0c-.05,0,0,.24,0,.28V11s0,0,.06,0v-.09h0a.51.51,0,0,1,0-.21,1.36,1.36,0,0,1,.3,0h0a.16.16,0,0,0,.1.08v.18H11A0,0,0,0,0,11,11h0c0,.05,0,.11,0,.18a0,0,0,0,0,.06,0A.9.9,0,0,1,11.1,10.94Zm1.27-1.43s0,.07,0,.07h.2s0-.06,0-.06Zm-.21,0s-.05.05,0,.06a.12.12,0,0,1,.09.06v.21a.11.11,0,0,1-.1,0s0,.06,0,.07a.18.18,0,0,0,.16-.09V9.62h0A.15.15,0,0,0,12.16,9.51ZM10.9,10a0,0,0,1,0-.06,0v.11a0,0,0,0,0,.06,0Zm.25-.11a0,0,0,0,0-.07,0v.09s.06,0,.06,0Zm1,.64c0,.1,0,.13-.08.14v-.08a.19.19,0,0,0-.19-.21.2.2,0,0,0-.19.22v1h-.07v-1a.19.19,0,0,0-.19-.21.2.2,0,0,0-.19.22v.08c-.06,0-.07-.08-.07-.19a.26.26,0,0,1,.2-.22s0,0,0,0h0c.14,0,.18.13.23.1a.31.31,0,0,1,.25-.09A.25.25,0,0,1,12.18,10.48Zm.47.79v.28h-.11a2.46,2.46,0,0,1,0-.26ZM10.74,9.34h.09v.19h-.09Z"/><path class="cls-7" d="M11.18,11.63c.29,0,.62,0,1,0v.1h-1Z"/><path class="cls-7" d="M9.78,13.71c1.29-.06,2.49-.06,3.61,0,0,0,0,.06,0,.07q-1.65,0-3.51,0A.1.1,0,0,1,9.78,13.71Zm-.12-.35,4.08,0a.4.4,0,0,1-.07.21c-.54,0-1.85,0-3.93,0A.3.3,0,0,1,9.66,13.36Zm5.56.89-1.57-.52a.3.3,0,0,1,0,.1l1.53.53A.09.09,0,0,0,15.22,14.25Zm.11-.23c-.36-.18-.87-.4-1.52-.66a.62.62,0,0,1-.07.23l1.52.56A.09.09,0,0,0,15.33,14Zm-7.16.17,1.44-.47a.28.28,0,0,0,0,.15l-1.4.43A.08.08,0,0,1,8.17,14.19ZM8.1,14c.36-.16.85-.36,1.49-.59a1,1,0,0,0,0,.2l-1.48.49C8.1,14.07,8.07,14,8.1,14Z"/><path class="cls-7" d="M13.53,10.61a15.36,15.36,0,0,1,1.54,0v.14H13.54Zm-5.2,0c.32,0,.87,0,1.53,0v.15H8.34Zm6.47-.28a.33.33,0,0,1-.22,0,.31.31,0,0,1-.07.14h.34A.25.25,0,0,1,14.8,10.33ZM14.49,10a.21.21,0,0,1,.21-.21.2.2,0,0,1,.2.21.2.2,0,0,1-.2.2A.21.21,0,0,1,14.49,10Zm.08,0h.06c0,.08,0,.12.12.12v.05A.15.15,0,0,1,14.57,10Zm-.62.36a.34.34,0,0,1-.22,0,.42.42,0,0,1-.06.14H14A.39.39,0,0,1,14,10.33Zm-.3-.32a.2.2,0,0,1,.2-.21.21.21,0,0,1,.21.21.2.2,0,0,1-.21.2A.2.2,0,0,1,13.65,10Zm.07,0h.06c0,.08.05.12.12.12v.05A.15.15,0,0,1,13.72,10ZM12.34,8.68a.33.33,0,0,0,.17,0,1,1,0,0,0,.1.21h-.37A.38.38,0,0,0,12.34,8.68Zm-.79,0a.33.33,0,0,0,.17,0,.67.67,0,0,0,.1.21h-.37A.38.38,0,0,0,11.55,8.68Zm-.74,0a.37.37,0,0,0,.18,0,1,1,0,0,0,.1.21h-.36A.42.42,0,0,0,10.81,8.68ZM9.42,10.33a.33.33,0,0,0,.22,0,.42.42,0,0,0,.06.14H9.37A.39.39,0,0,0,9.42,10.33Zm-.87,0a.33.33,0,0,0,.22,0,.42.42,0,0,0,.06.14H8.5A.39.39,0,0,0,8.55,10.33Zm3.69-2a.21.21,0,0,1,.21-.21.2.2,0,0,1,.2.21.2.2,0,0,1-.2.2A.2.2,0,0,1,12.24,8.37Zm.08,0h.06c0,.09,0,.13.12.13V8.5A.15.15,0,0,1,12.32,8.32Zm-.88,0a.2.2,0,0,1,.2-.21.21.21,0,0,1,.21.21.2.2,0,0,1-.21.2A.2.2,0,0,1,11.44,8.37Zm.07,0h.06a.11.11,0,0,0,.12.13V8.5A.15.15,0,0,1,11.51,8.32Zm-.83,0a.2.2,0,0,1,.2-.21.21.21,0,0,1,.21.21.2.2,0,0,1-.21.2A.2.2,0,0,1,10.68,8.37Zm.07,0h.06a.11.11,0,0,0,.12.13V8.5A.15.15,0,0,1,10.75,8.32ZM9.29,10A.21.21,0,0,1,9.5,9.8a.2.2,0,0,1,.2.21.2.2,0,0,1-.2.2A.2.2,0,0,1,9.29,10Zm.07,0h.06c0,.08.05.12.12.12v.05A.15.15,0,0,1,9.36,10Zm-.94,0a.21.21,0,0,1,.21-.21.2.2,0,0,1,.2.21.2.2,0,0,1-.2.2A.2.2,0,0,1,8.42,10Zm.08,0h.06c0,.08,0,.12.12.12v.05A.14.14,0,0,1,8.5,10Z"/><path class="cls-7" d="M14.16,11.8h.05a.1.1,0,0,1,.12-.1.1.1,0,0,1,.11.09h.05c0-.1-.08-.19-.18-.19S14.17,11.68,14.16,11.8Z"/><path class="cls-7" d="M14.73,11s-.06,0-.05,0v0s.07,0,.05,0Zm-.23,2.42s0,.06,0,.06h0a0,0,0,0,0,0-.06Zm-.56-2.33s-.06,0,0,0v0a0,0,0,0,0,.06,0Zm.08.17s-.06,0,0,0l0,0a0,0,0,1,0,0,0Zm.65,1.24v.07h.05l.06-.06v0Zm-.56.06,0,.1.15,0,.06,0h.21l.07-.08,0-.07h-.05v.08h-.35l0,0Zm0-.74a0,0,0,0,0,0,0v.06a0,0,0,0,0,0,0Zm-.13.23h.25v.2H14s0,.05,0,.05H14v0s.05,0,.05,0v0h.13v.23h.2l0-.66a.1.1,0,0,0,.07-.07.28.28,0,0,0-.09-.24h.24v.21h-.07a0,0,0,0,0,0,.06h.2s0-.06,0-.06h-.06v-.11l0-.09h0s0-.06,0-.05h-.53s0,0,0,0a.31.31,0,0,0-.11.28.21.21,0,0,0,.1.06V12H14l-.06,0s-.06.16-.05.2.06,0,.05,0a.61.61,0,0,1,0-.16Zm.61.19s0,.06,0,.06h.16s0-.05,0-.05Zm-.25.78h.28a0,0,0,0,0,0,0h-.42s0,0,0,0h.08v.08s.05,0,.05,0ZM14,12.54s0-.06,0,0-.1,0-.11.11.05,0,.05,0v-.06Zm0,.66s0,.05,0,.05a4.1,4.1,0,0,0,.49,0,0,0,0,1,0,0-.06A4,4,0,0,1,14,13.2Zm.67,0a0,0,0,0,0,0,0h.14v0a0,0,0,0,0,.06,0s0-.09,0-.09Zm-.16-2.12s.06,0,0,0l-.05,0h-.12a0,0,0,1,0,0,.06h.1Zm-.18,0s0,0,0,0v.09s.05,0,.06,0Zm-.07.14s0,.05,0,.06.06,0,.13,0h.1s0-.05,0-.06-.09,0-.16,0Zm.27.11s0,0-.05,0v.05a0,0,0,0,0,.06,0Zm.13-.1s0,.05,0,.05h.05s0-.05,0-.05Zm.21.12s-.06,0-.06,0l0,.13s.05,0,.05,0Zm-1.12-.5h.29V11s.06,0,0,0v-.14h.37V11s.05,0,.05,0v-.08h.28V11l.1.12v.18h-.09a0,0,0,0,0,0,.06h.08v.47h0s0,.06,0,.06h0v.05h0V12h0v.23h-.06l0,.09.08,0v.37l-.41,0h-.09s0,.05,0,.05l.1,0,.41,0V13h-.18s0,0,0,.06,0,0,0,0l0,0h.16v.71l-.75-.31v-.12a0,0,0,0,0-.06,0v.09l-.34-.14h-.14V13h.47s0,0,0,0h-.37v-.16H14v0s0,0,0,0v0h.22s0-.06,0-.06l-.26,0-.13,0v0a0,0,0,0,0-.06,0v0h-.23v-.23h.14s0,0,0,0h0v-.16h0s0-.06,0-.05h-.13v-.2h.12s0-.05,0-.05h-.12V11.9h.08a0,0,0,1,0,0-.05l-.09,0v-.26h.29s0,.08,0,.11a0,0,0,1,0,0,0,.43.43,0,0,0,0-.12h.19s0-.05,0-.05h-.4a1.41,1.41,0,0,0,0-.18s-.06,0-.05,0a1,1,0,0,1,0,.17h-.08v-.45l.1,0,.11,0a0,0,0,0,0,0-.06h-.09Zm-.13,1.6v-.16h0v.16Zm0,.49v-.14h0V13Zm0-2.09h.08V11l-.08,0Z"/><path class="cls-7" d="M8.9,11.81H9c0-.07,0-.12.12-.12a.13.13,0,0,1,.12.11l.06,0a.2.2,0,0,0-.19-.18A.2.2,0,0,0,8.9,11.81Zm-.45-.92h.09s0,.1,0,.16H8.45ZM9,12.5l-.11,0a.82.82,0,0,0,0-.14s-.07,0-.06,0,0,.09,0,.12H8.48l0,0v-.16H8.44v-.23h.18l0,.2h0s0,.06,0,.06l.16,0s0-.06,0-.06H8.69v-.19l.2,0s0-.06,0-.05h0v-.12l0,0,.09,0Zm.45-1.14s0-.07,0-.06H9.35s0,.07,0,.06Zm-.7-.21c0-.05-.06-.05-.06,0v.17a.05.05,0,0,0,0,0h.38s0-.06,0-.06H8.74Zm.62.26c0-.05-.07-.05-.07,0v.08s.06,0,.06,0Zm-.11,2-.13.05-.24,0v-.1s-.05,0-.05,0v.11H8.55s0,.05,0,.05h.06v.09s.06,0,.06,0V13.5H9l-.55.22v-.4l.26,0s0-.05,0-.05h0v-.19l.16,0,.1,0S9,13,9,13l-.08,0v-.12s-.06,0-.05,0V13l-.25,0s0,.05,0,.05h.05v.19l-.19,0v-.69h.2v.07s.07.05.07,0v-.08h.17a.28.28,0,0,1,0,.11l.07,0H9v.1H8.82a0,0,0,0,0,0,.05h.47a.57.57,0,0,0,0,.12s.06,0,.06,0a.74.74,0,0,1,0-.12h.3l0,.08a0,0,0,0,0,.05,0s0-.11-.05-.11a5.22,5.22,0,0,0-.56,0v-.1h.17s0,0,0-.1l-.09,0H8.94v-.06h.26v-.66a.12.12,0,0,0,.12-.1.27.27,0,0,0-.08-.18h.24v.16H9.43s0,.05,0,.05h.09c.06,0,0-.15,0-.22h.17s0-.06,0-.06l-.52,0-.1,0h-.2s0,0,0,0h0a.35.35,0,0,0-.07.15v.08s-.06,0-.06.05v.15H8.44V11.5h.09v-.11H8.45v-.26c.06,0,.12,0,.13,0a1.76,1.76,0,0,0,0-.19H9.73l0,0v.86H9.63s0,0,0,0h.15v1.4l-.22,0a1,1,0,0,1-.25.11v0s-.06,0-.05,0Zm-.7-1.52s-.05,0-.05,0V12s.06,0,.06,0Zm0-.1a0,0,0,1,0,0,.06h.2a0,0,0,1,0,0-.06H8.67v-.17h.06s0-.06,0,0H8.64c-.05,0,0,.16,0,.22Zm.56,1.3s0,0,0,0v.11s0,0,0,0Zm.46,0h0s0-.05,0-.05H9.36a0,0,0,0,0,0,.06h.15v0a0,0,0,0,0,.06,0Zm-.11-.71a0,0,0,0,0,0-.06c-.23,0-.19,0-.2.21,0,0,.06,0,.06,0v-.14Zm-.11-.45s-.06,0-.06,0v.16s0,0,0,0Zm-.83.89s0,0,0,0h.05a0,0,0,0,0,0-.06Zm1.21-.42s-.06,0-.05,0v0s.06,0,.05,0Zm-.16.22s-.05,0-.05,0v.07a0,0,0,1,0,.06,0Zm.13,0s0-.06,0-.06H9.57a0,0,0,1,0,0,.06Zm-.14-.42a0,0,0,0,0-.06,0v.06s0,.05,0,.05.07,0,.05,0l0,0ZM8.94,11s-.06,0,0,0v0s.06,0,0,0Zm.28,0s-.05,0,0,.06h.05s.05,0,0,0Z"/><path class="cls-7" d="M9.66,14.56l0-.31v0l0-.16.1.15c0,.95,0,2.18,0,3.7l-.09-.05,0-.12v-.37l.06-.59,0,0v-.67H9.61a0,0,0,0,0,0,0l-.1,0v-.31h.08l0,.09V16l.06,0,0-.25v-.39l0,0,0-.12V15l-.05-.16,0,0V14.7l.06-.16,0,0,0,.07Zm-.59.75.06,0h.19l0,.12,0,.18H9.15L9,15.55Zm-.65-.92.15-.05v.09l-.09.05H8.41Zm.2-.07.2-.06v.12l-.11,0H8.63Zm.25-.07.23-.07v.12L9,14.36H8.87Zm.28-.08.24-.06v.14l-.12.05H9.15Zm.29-.07.18,0,0,.16-.16,0Zm-1.17.84v-.18h.08V15Zm0-.24v-.14l.08,0h.12v.13l-.12,0ZM8.37,17l-.12-.1V16.7h0a.28.28,0,0,1,.14.12Zm-.12-.31v-.19l.14.05.14.12,0,.16h0c-.09-.08-.11-.11-.14-.12Zm0-.25v-.16l.07,0,.08.06v.14Zm0-.21V16l.14,0,.14.07v.17H8.45l-.1-.08h-.1Zm0-.22v-.18a.17.17,0,0,1,.14.07V16Zm0-.24v-.22h.08c.09,0,.11.06.14.06l0,.21,0,0Zm0-.27v-.2l.06,0v.11s0,0,0,0v-.11l.08,0,.1.05v.19l-.06,0-.14-.06Zm0-.26V15l.18,0v.11s.05,0,.05,0l0-.14.07,0,.11,0v.25h-.1l-.11-.06h0l-.11,0ZM9.12,15h.1l0,.3-.11,0Zm.25,0a.18.18,0,0,0,.07.05v.29l-.08,0-.11,0,0-.29ZM9.27,17l.05,0v.27H9.26Zm0,.35h.07l.16.11,0,.27a.63.63,0,0,1-.2-.13Zm-.64-.21L8.41,17l.06-.15h0c.07.07.05.06.12.06A.9.9,0,0,1,8.62,17.16Zm0-.32H8.59l0,0,0-.16h.08Zm0-.24H8.57l-.12-.11v-.15h.09l.11,0Zm0-.27-.07,0v-.15l.05,0Zm0-.21L8.44,16v-.15l.06,0,.16.05Zm.61-1.57-.16.06-.07,0,0-.19.11-.05h.14Zm-.8.41H8.41v-.2l.1,0h.05v.18l-.09,0Zm.66,0,0-.28.13,0,.05,0,0,.27-.11,0Zm-.51,0v-.18l.15,0h.06l0,.24-.13,0Zm-.08-.39.08,0H8.7v.06s.05,0,.05,0v-.08l.1-.05H9v.19l-.13,0H8.75l-.17,0h0Zm.85,1.93.07,0,.16.05v.31l-.2-.11,0-.06Zm.12-.07s-.05,0-.13,0l-.12-.1V16a.7.7,0,0,0-.06-.29h.14l.1.05V16l-.17,0V16l.27.08Zm-.08-2.09.17,0,0,.12,0,.17H9.41s0,0-.06,0l0,0v-.23Zm.15,1.38h-.1l-.09,0,0-.28h0l.16,0v0l0,0Zm0-.36H9.49V15h.12Zm0-.38H9.46l-.06,0v-.28l0,0h.15l0,0Zm0,2.89-.06,0,0-.27,0,0Zm0-.34-.22-.14v-.27l.2.09Zm-.07-.4L9.27,17l0-.58.07.06v.18h0l0,.08v0l.15.07Zm-.85-1.25-.15-.05v-.22h.05l.1,0s.05,0,0-.06l-.09,0v-.19H8.8a0,0,0,0,0,0-.06H8.73V15h.1l0,.42s0,0,0,0l0-.73.12,0h.1a6.89,6.89,0,0,0-.09.87C8.81,15.5,8.7,15.6,8.67,15.83Z"/><path class="cls-7" d="M10.71,15s-.05,0-.05,0v.28a0,0,0,0,0,.05,0ZM11,16.17l-.29-.09v-.34s-.06,0,0,0v.33l-.17,0-.07,0-.19,0,0-.35h.23a0,0,0,0,0,0-.06h0v-.27a0,0,0,0,0-.06,0v.27H9.9v-.32h.15l.13,0,.12,0s0-.06,0,0h-.2V15l.35-.06.42,0,.1,0,.13,0v.35H11s0,.06,0,0h.13l.24.3a1.11,1.11,0,0,0-.23.19l-.22-.16v-.36s0,0,0,0v.35h-.06s0,.06,0,.05h.06l.22.15A.56.56,0,0,0,11,16.17ZM13,17.26a0,0,0,0,0,0,.06h.18a0,0,0,0,0,0-.06Zm-.44.39s0,0,0,.05l.16,0a0,0,0,0,0,0-.06Zm.83-.73v.28h-.06l0-.18h0v.23h0v.07l.05,0h.1v.17h0l0-.1h0l0,.22H13s0,.05,0,.05h.27l0,.19h0l0-.06h0V18H13v-.31s0,0,0,0V18h-.5l0-.67.25,0,0,.19s.05,0,.05,0l0-.2h.18s.08,0,.08-.06v-.34Zm-1-.34.17,0,.06,0v.31h-.05a0,0,0,0,0,0,.06l.32,0v.32l-.05,0-.18,0-.25,0Zm0-.34.18,0,.1-.08.11,0h.15l0,.33-.23,0s-.07,0-.11,0l-.12,0,0-.16S12.4,16.28,12.39,16.24Zm-.14-.39.21-.15h0l.2,0v.32l-.13.09-.16.05a.93.93,0,0,0-.12-.33ZM12,15.63l.27-.31h.11l.08,0v.29l-.23.16A.69.69,0,0,0,12,15.63Zm-.14,0,.12-.7.24,0v.37l-.27.31Zm-.28,0,0-.53,0-.13,0-.38.24,0,.21,0v.3a0,0,0,0,0,0,.05l-.11.7Zm-.13,0-.26-.33V15l.26,0,0,.13,0,.53Zm-.45.86-.32.05-.19,0,0-.31.06,0h.18l.3.09a1,1,0,0,0,0,.17ZM11,18h-.51l0-.14,0-.18s-.06,0,0,0l0,.17,0,.14H9.94l0-.13V17.7H10l.13,0,.09,0h.11s0-.06,0-.05h-.1l0,0v-.28l.28,0,.21,0v.24h0l0,.06a0,0,0,0,0,.05,0l0-.06v-.25c0-.05-.15-.05-.22-.05v-.36s0,0,0,0h-.08a0,0,0,0,0,0,.05h.05v.33l-.3,0-.22,0V17l.07,0,0-.1,0,0v-.26h.21v.32a0,0,0,0,0,.05,0v-.32l.27,0h0l.19,0v.34a0,0,0,0,0,.06,0v-.34l.29,0v.29l0,0h-.16s0,.06,0,.06h.14l0,.18,0,.17,0,0,.07.05v.29h-.16s0,.05,0,.06H11Zm-.24-3.54v-.28l.26,0,.19,0,0,.25,0,0-.23,0Zm2,.79-.28.05a0,0,0,0,0,0,0l-.08,0h-.11v-.34l.23,0,.32,0Zm.56-1.05s-.06,0-.06,0v.17s.06,0,.06,0ZM12.06,14h.43c0,.09,0,.16,0,.16h.28v.27h0s0,.05,0,.05h.12s.05-.05,0-.06h0l0-.28h0s0-.05,0-.05h-.35l0-.11H13v.11H13s0,.06,0,.05.08,0,.08,0l0-.13h.35v.11h-.2s0,.05,0,.05h.2v.3h-.1v.11h0l0-.07h0v.37h-.06l0-.24h0l0,.24-.2,0v-.31l.06,0s0-.06,0-.05-.1,0-.1.06v.34l-.2,0h0l-.29,0,0-.34h.06s0-.06,0-.06h-.25v-.18l0-.09.14,0s0-.06,0-.05l-.15,0a0,0,0,0,0,0,0l-.12,0s0,.05,0,.05l.12,0,0,.1v.17H12.1s0,.06,0,.06h.33l0,.34-.27,0-.24,0,0-.32s0,0,0,0l-.2,0,0-.29H12s.08-.07.08-.07V14Zm-2.16.51v-.3h.15v.27Zm0,.4v-.35h.21l.29,0,0,.31-.35.07Zm0,.43V15L10,15v.33Zm0,.79v-.36h.27l0,.35Zm0,.4v-.35l.28,0,.21.05,0,.29-.27.05-.08,0Zm0,1.13v-.32l.2,0v.28l-.12,0Zm3.54-1.49v.33h0l0-.07h0v.06l0,0v0h0v.13h0l0-.12h0v.25h0l0,0h0v.13h-.06l0-.3s-.06,0-.05,0l0,.3-.3,0-.23,0v-.3l.25,0s0,0,0,0l0-.36h.32l0,.05h0v-.07Zm0-.41v.32h0l0-.14h0l0,.15h0v-.27a0,0,0,1,0-.06,0v.26h-.43l-.06,0h0v-.33s0-.05,0-.05l-.23,0v-.29l.29-.06.19,0v.3l-.11,0s0,.06,0,.05H13l.34,0v.12h0v-.13Zm-.11-.07-.31,0v-.31h.08a0,0,0,0,0,0-.06l-.09,0h0l-.17,0,0-.33.23,0,.2,0,0,.3,0,.09.07,0Zm.11-.32v.33h-.06v-.33Zm0-.43v.31h-.07l0-.32ZM11.52,14H12v.1l0,0h-.33s0,.05,0,.05h.07v.29l-.23,0-.11,0s-.05,0,0,.06h.08v.34l-.29,0-.16,0h-.11l-.37,0,0-.31.22,0,.27,0,.25,0s.07-.06.07-.08l0-.25.24,0,0,0ZM11,14h.45v.13l-.22,0-.23,0ZM9.9,14h.51v.15s0,0,.06,0V14H11v.13l-.32,0s0,.06,0,.06h0v.28l-.22,0-.32,0V14.2l.22,0s0-.06,0,0l-.24,0-.18,0Z"/><path class="cls-7" d="M12.05,15.83a.58.58,0,0,0-.4-.12.59.59,0,0,0-.55.59v1.61a.08.08,0,0,1-.08,0V16.35a.66.66,0,0,1,.61-.71.51.51,0,0,1,.43.17Z"/><path class="cls-7" d="M12.12,15.92a1,1,0,0,1,.16.57l0,1.43h.07l0-1.45a.81.81,0,0,0-.21-.57Z"/><path class="cls-7" d="M8.93,15.58a.26.26,0,0,0-.22.29l0,1.31.06,0V15.89a.26.26,0,0,1,.18-.28Z"/><path class="cls-7" d="M13.73,15.23l0,0v.05l.05,0,0-.05Zm1-.48-.05,0v0l.05,0,0,0Zm-.8.28v.06l0,0,0-.05L14,15Zm.05.25,0,.21,0,0,0,.05h0v-.06l0,0,0-.22Zm.87-.33s-.05,0-.05,0v.14s.05,0,.05,0ZM15,16A0,0,0,0,0,15,16v.07s0,0,0,0Zm0-.56s0,0,0,0v.08s0,0,0,0ZM14,14.33a0,0,0,0,0-.06,0v.06a0,0,0,0,0,.06,0Zm-.11,1a0,0,0,0,0-.06,0v.16s0,0,0,0ZM14,17.08h0S14,17,14,17l-.1,0a1.31,1.31,0,0,1,0-.28,0,0,0,0,0-.06,0,1.07,1.07,0,0,0,.06.32s0,0,.08,0v.27c0,.06.11,0,.11,0s0-.06,0-.06h0Zm.84-.41s-.06,0-.06,0v.12s.06,0,.06,0Zm.11.17s-.06,0-.06,0v.09s.06,0,.06,0ZM15,15a0,0,0,1,0,0,0h-.1s0,.05,0,.06h0v.12s0,0,0,0Zm-1.23-.84a0,0,0,1,0,0,.05l.41.11s.05-.05,0-.06Zm0,.33s0,.05,0,.05l.41,0s0-.06,0-.06Zm.53.07a0,0,0,0,0-.06,0l0,.41s.05,0,.05,0Zm-.13.39h.07s0-.05,0-.05h-.15s0,0,0,0h0v.2s.06,0,.05,0Zm-.08-.35s-.06,0-.06,0v.2s.05,0,.05,0Zm.42.21s.06,0,.06,0v-.12h.12a0,0,0,0,0,0,0h-.15S14.51,14.74,14.51,14.82Zm-.86,0a0,0,0,0,0,0,.05h0V15a0,0,0,0,0,.06,0c0-.06,0-.15,0-.15Zm1.13.44s-.06,0-.06,0l0,.23s0,0,0,0Zm.1.26s0,0,0,0h-.05s0,0,0,0v.15a0,0,0,0,0,0,0v-.12Zm-1,.55a0,0,0,0,0,0,0v.24a0,0,0,0,0,.06,0Zm0,.29a0,0,0,0,0,0,.06H14v.21l-.13.05a0,0,0,1,0,0,.05s.17,0,.17-.08v-.25S13.93,16.39,13.87,16.38Zm.1-.71s-.05,0-.05,0V16S14,16,14,16Zm-.11,1.84s0,0,0,0v.18s0,0,0,0Zm-.17-.35s-.06,0,0,0l0,.31s.05,0,.05,0Zm0-.72a0,0,0,0,0-.06,0v.16s.06,0,.06,0Zm.09-1.6s0,.05,0,.06l.11,0a0,0,0,1,0,0-.05Zm1.12,1.44s-.05,0-.05,0v0h-.06s0,.05,0,.05h.06v.08a0,0,0,0,0,.05,0v-.16Zm.11.25a0,0,0,0,0-.06,0v.12s0,0,0,0Zm.08-2.12v2l0,0v.17h0v.26l-.09,0v.06l-.31.25,0-1.25c0-.29-.12-.47-.26-.45s-.27.31-.28.75l0,1.37-.53.33,0-.05v-.26l.13-.05s0-.06,0,0l-.11,0V16.13l.22-.06a0,0,0,1,0,0-.05l-.2.05v-.33l.06-.05v0h0v-.29l.07-.06v0h-.06v-.74l0,0,0,0v-.26l.05,0v0h-.06V14l.71.21v.07s.06,0,.06,0v-.06l.14,0v.14h-.08l-.07,0s-.06,0,0,0l.09,0h.1l.27.07v.2s.06,0,.06,0v-.22a0,0,0,0,0,0,0l-.27-.07v-.13l.38.11v.05l0,.05s0,.06,0,0l.05-.06v-.06Z"/><polygon class="cls-7" points="14.59 15.85 14.6 17.25 14.67 17.22 14.64 15.86 14.59 15.85"/></g></g></svg>