<svg xmlns="http://www.w3.org/2000/svg" viewBox="0 0 85.76 91.39"><defs><style>.cls-1{fill:#457597;}</style></defs><title>Asset 1</title><g id="Layer_2" data-name="Layer 2"><g id="Layer_1-2" data-name="Layer 1"><path class="cls-1" d="M24.83,2.89H61.08V50.14h20L42.45,88.77,5.7,52H24.08S24.08,2.89,24.83,2.89Z"/><path class="cls-1" d="M22.33,2.81c.05-.23,0-.27.1-.63a2.75,2.75,0,0,0,.05-.31s0,0,0-.07.11-.22.17-.33A4.81,4.81,0,0,1,23.05,1c.55-.5.59-.5.64-.6a.6.6,0,0,1,.25-.17A2.59,2.59,0,0,1,24.83,0a3,3,0,0,0-1.94.75,3.17,3.17,0,0,0-.62.77l-.08.16v0l0,.05c0,.12-.08.23-.11.35a1.67,1.67,0,0,0-.07.29v.1a1.85,1.85,0,0,0,0,.29.22.22,0,0,0,.17.14C22.27,2.92,22.38,2.82,22.33,2.81Z"/><polygon class="cls-1" points="22.93 9.91 22.76 9.79 23.15 10.8 22.93 9.91"/><path class="cls-1" d="M22.8,16.26c.72-.59-.08-2.3.19-3.43l.17-.18-.56-.52A22.69,22.69,0,0,1,22.8,16.26Z"/><path class="cls-1" d="M21.21,19.61c.28-.2.23.74.1-.78,0,.07,0,.1-.07.14S21.23,19.29,21.21,19.61Z"/><path class="cls-1" d="M21.24,19c0-.67-.24.43,0,0Z"/><path class="cls-1" d="M21.36,22.05l-.24-.88c-.16.18-.21,1-.33.67C20.92,22.75,21.09,22.56,21.36,22.05Z"/><path class="cls-1" d="M21.87,22.89l-.1-.45C21.7,22.52,21.68,22.64,21.87,22.89Z"/><path class="cls-1" d="M21.56,21.47l.21,1c.12-.13.35-.14-.07-.45C21.91,22.07,21.71,21.88,21.56,21.47Z"/><path class="cls-1" d="M21.68,20.92c.16-.49.26-1.12.5-.24C22.1,19,21.59,19.24,21.68,20.92Z"/><path class="cls-1" d="M23.53,16.59l.22-.66-.23-.57C23.64,15.65,23.31,16.63,23.53,16.59Z"/><path class="cls-1" d="M20.94,27.53c.15,0,.41-.3.6-.36l-.17-.65C21.27,26.85,21.17,27.48,20.94,27.53Z"/><path class="cls-1" d="M21.54,27.17l.26,1C21.83,27.28,21.71,27.12,21.54,27.17Z"/><polygon class="cls-1" points="22.66 23.06 22.13 21.46 22.67 23.36 22.66 23.06"/><polygon class="cls-1" points="20.9 31.24 20.55 30.68 21.07 31.67 20.9 31.24"/><path class="cls-1" d="M20.94,33.7c-.28-.41-.49.55-.67.12a5.49,5.49,0,0,0,.52,1.76A3.49,3.49,0,0,1,20.94,33.7Z"/><path class="cls-1" d="M21.11,36.44a5.09,5.09,0,0,0-.32-.86A3.34,3.34,0,0,0,21.11,36.44Z"/><path class="cls-1" d="M21.71,29.8a1.05,1.05,0,0,0-.44.76l.43-.38Z"/><path class="cls-1" d="M21.72,30.17h0l0,.82Z"/><path class="cls-1" d="M21.71,29.7v.1S21.77,29.74,21.71,29.7Z"/><path class="cls-1" d="M22.25,25.6c.24.57.48,1.76.86.61C22.82,25.8,22.61,26.46,22.25,25.6Z"/><path class="cls-1" d="M22.25,29.23l.11-1c-.12,0-.28.2-.4-.08Z"/><polygon class="cls-1" points="22.38 29.73 22.25 29.23 22.21 29.61 22.38 29.73"/><path class="cls-1" d="M21.52,34.68a4.3,4.3,0,0,1,.23,1.48,13.44,13.44,0,0,0,.13-1.78C21.75,34.3,21.51,34,21.52,34.68Z"/><path class="cls-1" d="M21.65,32.48l0,.1C21.71,32.52,21.72,32.47,21.65,32.48Z"/><polygon class="cls-1" points="21.72 41.58 21.8 41.49 21.73 41.47 21.72 41.58"/><path class="cls-1" d="M22,34.28a1.26,1.26,0,0,0-.15-1,7.07,7.07,0,0,1,.07,1.06C21.94,34.42,22,34.43,22,34.28Z"/><path class="cls-1" d="M21.31,38a6.84,6.84,0,0,0,.23-.76C21.41,37.41,21.2,37.87,21.31,38Z"/><path class="cls-1" d="M21.56,32.73l0-.06C21.45,32.81,21.49,32.79,21.56,32.73Z"/><path class="cls-1" d="M21.56,32.73a2.91,2.91,0,0,0,.25.59,4.92,4.92,0,0,0-.13-.74A.61.61,0,0,1,21.56,32.73Z"/><path class="cls-1" d="M24.46,43.23c-.4-.08-.76-1.25-.33-2.25-.29-1-1.6-.35-2.33.51.17,0,.33,0,.56,1,.22-.35.52-2.26.87-1.4.2,1.35-.14,1.11-.35,1.76.49-.55.71,1.72,1.44,1.43l-.26-1.18C24.18,43.12,24.36,43.55,24.46,43.23Z"/><path class="cls-1" d="M21.85,39.55l-.05-.42a4.6,4.6,0,0,1-.54,1.45c.19.7.33.84.47.89l.06-2.06Z"/><path class="cls-1" d="M21.81,37.25c.43.33.6,1.33,1.07.72,0-1.23-.35-.86-.54-1.6.1,2-.23-.57-.48.86a6.07,6.07,0,0,1-.11-1.07,10.41,10.41,0,0,1-.21,1l0,0h0c.05-.08.08-.11.05,0s0,0,0,0a.37.37,0,0,1,.16.09c-.09.57-.11.09-.16-.09l-.06,0h0l.23,2A11,11,0,0,0,21.81,37.25Z"/><path class="cls-1" d="M24,27.28a.14.14,0,0,1-.1.07C24,27.47,24,27.52,24,27.28Z"/><path class="cls-1" d="M23.76,28.1a1,1,0,0,1-.18-.74c.13-.4.2,0,.35,0-.12-.29-.31-1-.52-.11l.06.14c-.16.8-.7,1.82-.76,1.68A3,3,0,0,0,23.76,28.1Z"/><path class="cls-1" d="M22.89,32.73l.2,1.66.38-.85-.23.05C23.34,32.65,23.06,32.85,22.89,32.73Z"/><polygon class="cls-1" points="21.51 41.77 21.05 41.54 21.69 42.5 21.51 41.77"/><polygon class="cls-1" points="21.55 43.92 21.16 43.84 21.4 44.41 21.55 43.92"/><path class="cls-1" d="M71.13,56.73l.27-.42A2.49,2.49,0,0,0,71.13,56.73Z"/><path class="cls-1" d="M68.62,59.2l.08.2C68.74,59.21,68.73,59.11,68.62,59.2Z"/><path class="cls-1" d="M22.58,72.41c.24.77.39,1.73.65,1.36l.15-.46A2.59,2.59,0,0,1,22.58,72.41Z"/><path class="cls-1" d="M49.85,81.23l-.24,0,0,.64Z"/><path class="cls-1" d="M48.93,79.61l.86-.47A4.57,4.57,0,0,0,48.93,79.61Z"/><path class="cls-1" d="M72.23,53a2.32,2.32,0,0,0-.28.44C72.08,53.42,72.13,53.19,72.23,53Z"/><path class="cls-1" d="M7.14,49.64a25.53,25.53,0,0,0-2.9-.26C5.91,49.63,7.29,50,7.14,49.64Z"/><path class="cls-1" d="M73.41,61c.15-.27.18-.42.1-.48C73.35,60.75,73.29,60.94,73.41,61Z"/><path class="cls-1" d="M1.27,49.38l.75.1a13.87,13.87,0,0,1,2.22-.1C3,49.19,1.66,49.08,1.27,49.38Z"/><path class="cls-1" d="M51.05,5.37l-.16,0S51,5.38,51.05,5.37Z"/><path class="cls-1" d="M30.74,1a6.71,6.71,0,0,1,.83,0A2.71,2.71,0,0,0,30.74,1Z"/><path class="cls-1" d="M21.19,49.29c.11,0,0,0,0,0Z"/><path class="cls-1" d="M23.07,49.78a.68.68,0,0,0,.21.27A.94.94,0,0,1,23.07,49.78Z"/><path class="cls-1" d="M8.22,54.44l0,0C8.3,54.41,8.29,54.42,8.22,54.44Z"/><path class="cls-1" d="M21.55,49.45h0l-.24-.1a1.23,1.23,0,0,0,.24.1S21.54,49.46,21.55,49.45Z"/><path class="cls-1" d="M21.35,49.28l0-.08C21.32,49.12,21.27,49.09,21.35,49.28Z"/><path class="cls-1" d="M21,49.32a.66.66,0,0,1,.26,0,.25.25,0,0,1-.09-.07Z"/><path class="cls-1" d="M59.76,30.23a.36.36,0,0,0,0-.09C59.62,29.68,59.65,29.88,59.76,30.23Z"/><path class="cls-1" d="M34.16,77.62l0,0,0,.06Z"/><path class="cls-1" d="M35.55,78.55a1.64,1.64,0,0,1-1.41-.89l-.5,1.27Z"/><path class="cls-1" d="M74.23,53.45c-.33.15-.64.27-.91.37-.83-.08-.52-.08-1.56.18,1.28-.31,1.17-.16,1.07,0s-.21.3.42.62a2.48,2.48,0,0,1-.45.05c.06,0,0-.09.06-.12-.46,0-.23.11-.15.46a1.83,1.83,0,0,1-.78,1.57c-.54.4-1,.58-.8.15L70.32,58c-.32.29-.41.05-.09-.24l-1.51,1.67,0,0a10.77,10.77,0,0,1-.51,1.48c-.54.26.1-.31-.12-.33l-.65,1.12c-.61.11-.12-.86.52-1.44-1.78-.13-.49,1-2.82,2.19l.71-1c-1.08,0-1.54.84-2.82,1.44.4,0,2.74-1,2,.17A2.39,2.39,0,0,0,64,64.3c-.35-.33-.77.26-1.38.91l-.41-.5c-.55.81-.26,1-.46,1.59a1.59,1.59,0,0,1-1.79.41c-1.28,1.14,1.41-.28.05,1.25a9.72,9.72,0,0,0-2.65,3.21c-.86.55-.15-.4-.54-.27l-.26,1c-.16.15-.23,0-.26-.09-.39.67.41.49-.3,1.45.28.72-2.43,1-2.9,2.57-.38.13-.15-.4-.4-.5a14.81,14.81,0,0,0-1.6,3.14l-1.29.69c1.07-.38.54,1,.06,2.09a9,9,0,0,0,1-.25L49.8,82.52c-.23.08-.26-.2-.24-.6a3.54,3.54,0,0,0-.12.34c-.64.3-.66-.2-.58-.79l.75-.19c0-.59,0-1.2-.29-1.39a1.77,1.77,0,0,1-.3.54c0-.15,0-.27-.09-.28s-.13.23-.23.56l-.79-.21.12.27-2,1.38c-.35.86-.6,1.74-1,2.67-.1.24-.2.47-.32.71a6.8,6.8,0,0,1-.32.68,10.43,10.43,0,0,1-1.07,1.56c.31-1-.15-1.06-.26-1.82.24.22.5-.14.7-.53.11-.2.16-.38.3-.6a4.24,4.24,0,0,1,.69-.78c-.56.48-.66.15-.6-.05l-.34.55a2.58,2.58,0,0,0-.16.37,7.87,7.87,0,0,1-.34.76c-.17-.54-.35-.19-.59-.24a1.33,1.33,0,0,1-.28,1.33,6,6,0,0,0-1-.67c.11-.37.33-.63.77-.08-.2-.73-.37-.48-.69-.37a.56.56,0,0,1-.87-.42c.15.13.2.26.36.17a.91.91,0,0,1-.4-.21,4.43,4.43,0,0,1-.51-.55c-.3-.38-.44-.71-.19-.67l.22.21c-1.35-1.51-4.36-4.36-5.17-4a4.34,4.34,0,0,1,1.12-.58l-4.58-.53c.74-.29,1.11-2.38,2.59-1.49a4.18,4.18,0,0,0-1.51-1.46c.16.31-.16,1.33-.53,1.06a10.32,10.32,0,0,0-.88-2.48c.23.46-1,.88-1.49.3.21,0,.76-.84,1-.72l-2.17-.58c.49.2.74-.61.66-1.15,0,.3-1.18-1.2-1.62-1.48l.4.76c-1.43-1.67-2.65-.41-4.15-2,.35,0,1.47-.55.79-1.43-.76,0-3.54.37-5.21-.67l0-.5-1.31-.77A29,29,0,0,1,24,67.55c-.39-.76.11-.44-.77-1.28-.09-.53.8.14,1.07.38l-1.88-2.16c-.39.56-2-1.07-2.34-.6l2.68,1.71c-.38.56-2.61.08-4-1.44-.18-.55,1.12-.57,1.24-.76a4,4,0,0,1-1.68-1.3l.86.36c-.62-1-1.93-.67-2.44-2.09-.3-.36-.37-1.59-.71-1.37,0,1.08-1.58,2.86-2.34,2.91A18.54,18.54,0,0,1,12.37,59c-.12-1,1.83-.19,1.73-1-.15.11-.61,0-.78-.11-.2-.42.43-.37-.07-.75-.65.32-.9-1-.72.09-.73-.45-.41-.61-1-1.17a2.67,2.67,0,0,1-1.61-.28,10.55,10.55,0,0,1-2.35-1.29,1,1,0,0,0,.67,0,20.15,20.15,0,0,1-1.69-2.08c.66.06,1.28.1,1.91.1.51.16,1.61.36,1.79.66,0-.12-.17-.35.31-.37,1.72.59-.88.09.87.8-.6-.4.26-.55.76-.8a1.63,1.63,0,0,0-1.31-.25,1.63,1.63,0,0,0-.82.38c-.71-.42-1.11-.85-.93-1.22s.93-.7,2.18-.89c2.09-.21,1.22.54,1.53.42A7.64,7.64,0,0,0,15,51,5.38,5.38,0,0,0,16,50.59a2.88,2.88,0,0,1,2.42-.26c1,.54,0,1.07.27,1.46-1.35.2-2.07-.35-3-.32l1.13.25a3.39,3.39,0,0,1-1.82.16,10.77,10.77,0,0,0,3.25.28,34.4,34.4,0,0,1,4.66.26c.37-.18.94-.37.41-.59l-.68.08c-.47-.22-.21-.37,0-.49s.32-.21-.13-.31a3.29,3.29,0,0,0,.39-.27,3.5,3.5,0,0,1-.27-2,4.08,4.08,0,0,0,.61,0c-.17,0-.36.57-.17,1-.14-.29.07-.57.21-1a1.81,1.81,0,0,0,.11-.65.84.84,0,0,0-.29-.64,4.81,4.81,0,0,1-.43.88c0-.09-.08-.14-.13-.27l-.15-.41c-.1-.29-.2-.58-.29-.88a4.43,4.43,0,0,1-.19-1.88c-.61.58.07.3-.64,1.2.44-.39.43.42.42,1.18a3.24,3.24,0,0,0,.06.88c.06.06.17.12.4-.06-.41.26-.49.33-.57.48s-.13.29-.48.19c.21.14.39.14.29.4a2.15,2.15,0,0,1,.18.24h0s0,0,0,0a.5.5,0,0,1,.3.06,1.86,1.86,0,0,1,.31.63c-.2.17-.71.21-.87.38-.42-.1,0-.23-.25-.45a2.34,2.34,0,0,1-.35.36c-.08-.22-.33-.41-.43-.57s-.08-.31.14-.44h-.89A5.11,5.11,0,0,0,17,49.24c-.63-.1-1.6.5-1,.14l-.53.07-.26,0-.34,0-1.69.14-.07-.11c-1.73,0-3.37.16-5,.25A27.39,27.39,0,0,1,2,49.48a15.53,15.53,0,0,1-2,.18A15.68,15.68,0,0,1,1.17,50.9l-.57,0a20.31,20.31,0,0,1,1.94,2.07,7.44,7.44,0,0,0,1.84,1.69c-.25.49,1.17,2,2.76,3.5l2.37,2.22.82.77a6.32,6.32,0,0,1,.45.49l.4-.31a19.54,19.54,0,0,0,2.69,2.23l.26-.37c1.08.56,1.89,2.34,3.22,3.61-.21,0-.51-.33-.67-.64.84,2.27,3.8,2.76,4.69,4.69a1.8,1.8,0,0,1,.85.86.3.3,0,0,0-.1-.07l.14.15c.1.21.2.43.32.65a3.17,3.17,0,0,0-.24-.58,8.64,8.64,0,0,0,1.21,1l-.17.52.1.08c.27.52.48.16.53-.31a3.53,3.53,0,0,0,.73.33c-.22.87,1.25.87,1.1,1.89.56,0,2.24,1.81,3.06,1.43-.07.09,0,.25-.21,0A3.37,3.37,0,0,0,30,78l-.24.63,1.57.39c.33.86.42,1.27-.5,1,1.94.91,1.35,1,3.07,1.67l-.34.22c.45.42,1.52.74,1.55,1.24a10.5,10.5,0,0,0,2.34,2.93L39.7,88.4c.93,1,1.85,1.95,2.75,3,.44-.37.87-.72,1.3-1-.47-.35,0-.6.53-.94s1.37-.86,1.19-1.31c.34,0,1-.4.51.44.23-.29.46-.54.67-.77l.25-.26.2-.18c.27-.25.52-.44.75-.64a2.66,2.66,0,0,0,1-1.5c.34,0,0,.56.26.55.06-.15.23-.57.48-.59s0,.35-.14.64c1.27-1.34.8-2.07.33-2.73.93-.39,1.22-.76,1.32-1.6.42,0,1-.24.25.64.48-.43,3-2.51,2.64-3,.26,0,.67-.6.74-.77a26.32,26.32,0,0,0,2.13-2.09l-.35.21c-.15-.94.71-1,1.46-1.83l0,.08c2.24-1.46.61-1,2.88-2.37l-.43-.24c-.56-.9,2-1.19,2.83-2.52l-.58.18c.33-.82,2.61-.62,3.28-1.11.19-.07-.1.3-.23.52,2-1.09-.24-.64.79-1.88.45,0,.34.88,1.15.16.57-.18,1.43-3,2.93-3.57-.41,0-.82.09-.43-.58.74-.87,2.88-1.48,3-2.79.16-.06.24-.05.29,0,.47-.77,1.76-2.26,1.82-3,1,.22,2.34-1.46,3.29-2.71s1.6-2.24,2.92-2.48l2.65-2.76.26-.05a13.7,13.7,0,0,0,1.31-1.34,22.14,22.14,0,0,0-3.69.61c-.33-.1.33-.24.54-.32A17.35,17.35,0,0,0,75.3,49c0-.16,0-.33,0-.49A15.3,15.3,0,0,1,72,48.3l-1-.11c-.31,0-.62,0-.94,0a7.12,7.12,0,0,0-1.91.17c0-.06.07-.15.27-.22a7.41,7.41,0,0,1-2.06.07L65.33,48l-.26,0-.13,0-.06,0-.21-.08c-.56-.19-.71-.3-1.64.31l-.33.18a5.62,5.62,0,0,1-.44-.86c-.07.85-.27,1-.48.91s-.45-.36-.6.2a3.13,3.13,0,0,1,.24-1.44c.16-.35.35-.42.39,0l-.09.18c.47,0,.56-.57.6-1.09,0-.77.06-1.6.38-1.57-.05-4.65.47-9.18.51-13.53l-.73.5,0-1.52c.17-.4.57-.54.54.55.42-.57-.34-1.82-.5-1.85.29-2.12.85.83.87.18l-.06-.89-.08.2a3.21,3.21,0,0,1-.58-2.08c.15-.82.45-.42.48-.75.05,0,.07-.11,0-.5l.06-1.91-.58.77c-.28-.85,0-1.8-.62-.92,1-1.3.36-7.14.68-7.94a9.77,9.77,0,0,1-.37-3.81c-.12.36-.77.58-.69-.68,1.34.46.58-2.29,1.55-3.3-.32.4-.36-.27-.43-1.62s-.18-2.15-.64-1c.06-.69.18-.79.33-.85s.33-.09.49-.78a15,15,0,0,1-.16-1.85c-1.63.05-3.21-.07-5-.18l-2-.14a17,17,0,0,0-1.89,0c0,.17.47.44-.19.71L52.05.65c-.61.08-.56,1-1.67.4.15.15.39.37,0,.43-6-.86-12.31.7-18.43-.91.82.34.27.37-.36.39.41.08,0,.43.07.67L29.08,1c-.47.66-2.75,0-3,.67l.82-.11c-1.08.75,1.51,1.66,1.35,2.62,1.21-.85,3.18,1.26,5.17,0,.43.2-.38.31-.14.53a2.54,2.54,0,0,1,2.23-.31l-.13.1c3.16-.1,4.52.31,8.07.57l-.27-.47a3.43,3.43,0,0,1,1.28.33c.88-.72-2.14,0-1.34-.83,1,1,5.38,0,6.06,1.11,1.17,0-.34-.55.83-.54L50.3,5l.3-.38c.77.06,1.15.44,1.18.69a3.83,3.83,0,0,0-.73.09c1,.35,2.81-.12,3.16,0l-1.13-.18c1.24-.11,2.58-.11,4-.12h1c.3,0,.62,0,1-.09a3.61,3.61,0,0,0,.27.91l.22-.24c.42,1.28-.24,1.19,0,3.72l-.05-.09a4.72,4.72,0,0,1,.31,1.92c-.27-.66-.51,1.23-.8.37.44,2.56.35,1.27,1.18,3l-.37.39a3,3,0,0,1,.61,1.92c-.32-1.06-.57.83-1-.36-.81,2.71.82,4-.37,5.28,1,1.25.57-2.35.79-1.65.34-.59.77,1,.67,1.88s-1.32,1.48-1.3,3.66c0-.22-.07-.23-.07-.45-.26.82.36,1.6-.07,2.61.62.56,0,1.3.76,1.46l-.18-2c.2,1.13,1.13,2.2.68,4.07a3.5,3.5,0,0,1-.49-1.09c-.23.55.16,1.06-.08,1.62-.79-.16-.17-2.43-.78-3.65-.33.59.58,2.3-.28,1.69,1.09.88-.14,2.15.69,3.63l-.47-.09a3.69,3.69,0,0,1,.29,1.15l-.62-.78c.52,1.19-.46,2.3-.17,3.45,0-2.4.57-.54.91-1.55.64,3-1.24,1.7-1,5-.07-.45.29-1.68.51-1a5.8,5.8,0,0,1-.53,1.85c.1,2.2.49-.33.78.6-.58.75.23,1.08.42,2.05h-.49c-.15,1.26.1,1.42.34,1.56s.48.07.3,1.71c-.23-.37-.45-.88-.67-1.3L59.07,48c-.18-.07-.37-.15-.55-.24a13.27,13.27,0,0,1,.15,4.73c.15-.37.35-.5.51-.41a5.66,5.66,0,0,1,2.07-.38c.9.29-.93.46,1.45.39a2.55,2.55,0,0,1-2.32.24c-.22.15-.79.3-1.05.45a19.55,19.55,0,0,0,4.37.08,4.78,4.78,0,0,1-1-.12l1.91-.33a4.29,4.29,0,0,0,.69-.17l.57-.17c.36.19.08.33-.21.47a14,14,0,0,1,1.47-.31c-.18.39-.14.79-1.1,1l2.17-.44c.15.17,1.12.47.84.62a5.81,5.81,0,0,0,2.13-.26l.59-.13a.76.76,0,0,1,.18-.09.33.33,0,0,1,.35,0,.58.58,0,0,1,.3-.2,1.11,1.11,0,0,1,.45.25c.14.06.29.05,1.06-.22a8.58,8.58,0,0,1-1.13.7,6.94,6.94,0,0,0,1.16-.54,4.58,4.58,0,0,1,1.67-.61l.22,0c-.2.31-1.62.7-2.15,1,.34-.08.79-.15.9,0s-.1.36-.75.61C73.93,53.68,74.2,53.56,74.23,53.45Zm-9.16,9.61c.16-.31.41-1,.78-1C66,62.75,65.58,62.77,65.07,63.06ZM47.4,82.36c.07-.28.39-.5.83-.68A2.51,2.51,0,0,1,47.4,82.36ZM18.52,49.69a.05.05,0,0,0,0,0C17.74,49.52,18,49.6,18.52,49.69Zm1.54.2c.16-.06.14-.13.08-.2-.11.13-.46.13-.85.1C19.4,49.92,19.6,50,20.06,49.89ZM63,25.36l-.13.3C62.75,25,62.87,25.17,63,25.36Z"/><path class="cls-1" d="M49,79.8a.44.44,0,0,1,.29.09C49.35,79.74,49.29,79.67,49,79.8Z"/><path class="cls-1" d="M72.3,52.9h0l-.06.09Z"/><path class="cls-1" d="M13.85,57.38a1.52,1.52,0,0,1,.25.61C14.2,57.92,14.17,57.74,13.85,57.38Z"/><path class="cls-1" d="M21.14,47.85a1,1,0,0,0,.12.49c0-.16.09-.08.16-.39C21.31,48,21.15,48.16,21.14,47.85Z"/><path class="cls-1" d="M24.15,39.28c-.06-.15,0-.31-.07-.45l-.22,0C23.87,39.48,24.05,39.91,24.15,39.28Z"/><path class="cls-1" d="M22.74,46.94c.41-.08.27-.7.2-1.39v.12C22.37,45.47,22.56,46.2,22.74,46.94Z"/><path class="cls-1" d="M22.93,45.39a3.43,3.43,0,0,1,0-.64C22.69,44.67,22.87,45,22.93,45.39Z"/><path class="cls-1" d="M20.91,49.63c.18.1-.2-.52-.06-.36-.1-.26-.13-.1-.18.09S20.6,49.76,20.91,49.63Z"/><polygon class="cls-1" points="24.08 46.38 23.58 46.63 23.98 47.02 24.08 46.38"/><path class="cls-1" d="M23.71,51.49l.14-.9c-.09,0-.14-.21-.17-.38C23.66,50.82,23.56,51.37,23.71,51.49Z"/><path class="cls-1" d="M23.68,50.21a2.09,2.09,0,0,0-.09-.83A6.25,6.25,0,0,0,23.68,50.21Z"/><polygon class="cls-1" points="24.23 47.89 24.13 48.22 24.09 49 24.23 47.89"/><path class="cls-1" d="M12,51.55l-1.21.14c0,.18.49.28.88.21C11.9,51.78,12.35,51.72,12,51.55Z"/><path class="cls-1" d="M16,52.92c-.32-.1-.34-.21-.53-.38l0,.62Z"/><path class="cls-1" d="M13.17,53.07c0,.17-.74.49.17.45C13.26,53.35,14.05,53.21,13.17,53.07Z"/><polygon class="cls-1" points="13.96 59.9 13.74 59.69 13.05 60.44 13.96 59.9"/><path class="cls-1" d="M27,69.52c-.84-1.18-.69.2-1.39-.93-.41-.06.57.93.18.83C26.61,69.85,26.83,70.27,27,69.52Z"/><path class="cls-1" d="M25.82,69.42a2.75,2.75,0,0,0-.42-.2A1.71,1.71,0,0,0,25.82,69.42Z"/><polygon class="cls-1" points="27.36 0.44 26.44 0.23 27.04 0.57 27.36 0.44"/><path class="cls-1" d="M25.6,1.2,25.38.55l-.55.59C25,1.11,25.44,1.05,25.6,1.2Z"/><path class="cls-1" d="M62.33,63.94l.06.16c.22,0,.39-.12.71-.41Z"/><polygon class="cls-1" points="71.5 55.46 71.34 55.6 72.04 55.74 71.5 55.46"/><path class="cls-1" d="M72,53.9c-.06,0,.23-.07.15,0C71.91,54,73.76,53.18,72,53.9Z"/></g></g></svg>