<svg xmlns="http://www.w3.org/2000/svg" viewBox="0 0 30.79 38.45"><defs><style>.cls-1,.cls-5{fill:#a3c03e;}.cls-2,.cls-3{font-size:4.61px;}.cls-2,.cls-3,.cls-4{fill:#fff;font-family:Arial-BoldMT, Arial;font-weight:700;}.cls-2{letter-spacing:-0.04em;}.cls-4{font-size:4.58px;}.cls-5{font-size:2.07px;font-family:Arial-Black, Arial;}.cls-6{letter-spacing:-0.02em;}.cls-7{letter-spacing:-0.05em;}</style></defs><title>Asset 1</title><g id="Layer_2" data-name="Layer 2"><g id="Capa_1" data-name="Capa 1"><path class="cls-1" d="M13.74,22.48c-1-4.85-5.06-4.33-5.06-4.33L8.27,15c5.9-4.59,4.2-15,1.76-15S5.21,5,6.3,11.51l0,.24C4,13.46-.57,17.58.06,22.69a8.5,8.5,0,0,0,4.53,6.52,6.62,6.62,0,0,0,4.1.51c2.22,9.17-3.25,7-3.25,7,3.9-1.66.36-7-2.42-4.13-2.59,2.63.25,6.15,3.6,5.86s3.81-2.28,4-3.25a9.9,9.9,0,0,0,0-2.71l-.45-3.15A5.69,5.69,0,0,0,13.74,22.48ZM9,4.65c.4-.58.8-.65,1.12-.59a.65.65,0,0,1,.46.39c1.08,2.94-3,6.27-3,6.27A8.28,8.28,0,0,1,9,4.65Zm-6.7,19.6C1.51,19.81,7,16.1,7,16.1l.27,2.39c-4.63,2-3.45,7-1.53,8.11,1.22.72,1.53.43,1.59.11a.63.63,0,0,0-.15-.54c-2.22-2.71.58-4.07.58-4.07l.8,6.18C8.09,28.41,3.05,28.69,2.28,24.25Zm7.64,3.22L9.2,21.92C13.27,23.49,9.92,27.47,9.92,27.47Z"/><circle class="cls-1" cx="15.44" cy="21.08" r="1.14"/><circle class="cls-1" cx="15.4" cy="26.39" r="1.18"/><rect class="cls-1" x="17.43" y="6.02" width="12.87" height="4.4"/><rect class="cls-1" x="17.43" y="11.21" width="12.87" height="4.4"/><rect class="cls-1" x="17.43" y="16.41" width="12.87" height="4.4"/><rect class="cls-1" x="17.43" y="21.6" width="12.87" height="4.4"/><rect class="cls-1" x="17.43" y="26.79" width="12.87" height="4.4"/><text></text><text class="cls-2" transform="translate(22.25 25.37) rotate(-90)">A</text><text class="cls-3" transform="translate(22.25 20.23) rotate(-90) scale(0.99 1)">N</text><text class="cls-4" transform="translate(22.24 15.15) rotate(-90)">D</text><text class="cls-2" transform="translate(22.24 9.99) rotate(-90)">A</text><text class="cls-3" transform="translate(26.75 9.88)">U</text><text class="cls-3" transform="translate(27.32 20.32)">J</text><text class="cls-3" transform="translate(28.62 30.76)">I</text><text class="cls-3" transform="translate(22.24 30.66) rotate(-90)">B</text><text class="cls-5" transform="translate(17.33 33.86) scale(0.93 1)">ASSOCI<tspan class="cls-6" x="8.74" y="0">A</tspan><tspan x="10.31" y="0">CIÓ</tspan><tspan x="2.02" y="2.48">CU</tspan><tspan class="cls-7" x="5.36" y="2.48">L</tspan><tspan x="6.63" y="2.48">TURAL</tspan></text></g></g></svg>