<svg xmlns="http://www.w3.org/2000/svg" viewBox="0 0 82.3 27.89"><defs><style>.cls-1{fill:#a32035;}.cls-2,.cls-4,.cls-6{fill:none;stroke-miterlimit:3.86;}.cls-2,.cls-4{stroke:#a32035;}.cls-2{stroke-width:0.01px;}.cls-3{fill:#1f140f;}.cls-3,.cls-5,.cls-6{fill-rule:evenodd;}.cls-4,.cls-6{stroke-width:0.05px;}.cls-5{fill:#fff;}.cls-6{stroke:#fff;}</style></defs><title>Asset 3</title><g id="Layer_2" data-name="Layer 2"><g id="Capa_1" data-name="Capa 1"><polygon class="cls-1" points="80.92 2.31 82.29 2.31 82.29 27.7 80.92 27.7 80.92 2.31 80.92 2.31"/><polygon class="cls-2" points="80.92 2.31 82.29 2.31 82.29 27.7 80.92 27.7 80.92 2.31 80.92 2.31"/><path class="cls-3" d="M31.46,21.52a5.49,5.49,0,0,0,.6.15.48.48,0,0,0,.26-.07.39.39,0,0,0,.16-.23h.2l.09,2.12h-.22a3,3,0,0,0-.49-1,1.89,1.89,0,0,0-1.57-.73,2,2,0,0,0-1.62.79,3.35,3.35,0,0,0-.63,2.16,3,3,0,0,0,.66,2,2.15,2.15,0,0,0,1.68.76,2.62,2.62,0,0,0,1.35-.36,4,4,0,0,0,.79-.6l.17.18a3.3,3.3,0,0,1-.78.7,3.19,3.19,0,0,1-1.72.5,3.11,3.11,0,0,1-2.42-1,3.16,3.16,0,0,1-.83-2.25A3.28,3.28,0,0,1,28,22.35a3.1,3.1,0,0,1,2.39-1A3.93,3.93,0,0,1,31.46,21.52Z"/><path class="cls-3" d="M38,25.31,36.93,22.7l-1.08,2.61Zm-4.08,2.43v-.17a.75.75,0,0,0,.54-.28A6.56,6.56,0,0,0,35.11,26l2-4.64h.19l2.36,5.36a2.35,2.35,0,0,0,.37.67,1,1,0,0,0,.48.17v.17H38.07v-.17a2.82,2.82,0,0,0,.54-.09.27.27,0,0,0,.12-.26,1.32,1.32,0,0,0,0-.25,2.05,2.05,0,0,0-.13-.37l-.39-.91H35.68c-.25.62-.39,1-.44,1.14a.93.93,0,0,0-.07.32.33.33,0,0,0,.19.33,1.43,1.43,0,0,0,.45.09v.17Z"/><path class="cls-3" d="M41.83,25.83a3.46,3.46,0,0,0,.56,1,1.79,1.79,0,0,0,1.4.66,1.1,1.1,0,0,0,.78-.29,1,1,0,0,0,.34-.8,1.1,1.1,0,0,0-.34-.8,6.18,6.18,0,0,0-.91-.65l-.81-.5a2.94,2.94,0,0,1-.58-.47,1.44,1.44,0,0,1-.4-1,1.64,1.64,0,0,1,.47-1.19,1.7,1.7,0,0,1,1.26-.48,2.57,2.57,0,0,1,.78.16,3.23,3.23,0,0,0,.52.16.3.3,0,0,0,.24-.08.67.67,0,0,0,.11-.24h.19l.21,2h-.23a2.1,2.1,0,0,0-.74-1.27,1.73,1.73,0,0,0-1-.36A1,1,0,0,0,43,22a.75.75,0,0,0-.28.63.91.91,0,0,0,.22.62,2.81,2.81,0,0,0,.69.55l.83.52a4.22,4.22,0,0,1,1.1.88,1.51,1.51,0,0,1,.31,1,1.56,1.56,0,0,1-.56,1.24,2.08,2.08,0,0,1-1.43.5,2.57,2.57,0,0,1-.92-.17,3.11,3.11,0,0,0-.55-.16.23.23,0,0,0-.22.1.58.58,0,0,0-.08.22h-.21l-.28-2Z"/><path class="cls-3" d="M47.25,21.47H52.6l0,1.61h-.23a1.92,1.92,0,0,0-.42-1,1.75,1.75,0,0,0-1.08-.23H50.4v4.84c0,.37.05.6.17.69a1.67,1.67,0,0,0,.74.17v.17H48.56v-.17a1.25,1.25,0,0,0,.74-.2,1.26,1.26,0,0,0,.15-.77V21.87h-.52a1.76,1.76,0,0,0-1.08.23,1.69,1.69,0,0,0-.42,1H47.2Z"/><path class="cls-3" d="M53.54,27.57a1.42,1.42,0,0,0,.68-.19c.1-.09.15-.31.15-.67V22.5a1,1,0,0,0-.15-.65,1.11,1.11,0,0,0-.68-.2v-.18h5l0,1.36h-.24A1.36,1.36,0,0,0,58,22a2,2,0,0,0-1.07-.18H55.64c-.14,0-.22,0-.26.07a.47.47,0,0,0,0,.25v2.11h1.45a1.09,1.09,0,0,0,.77-.18,1.42,1.42,0,0,0,.27-.73h.23v2.19h-.23a1.58,1.58,0,0,0-.27-.73,1.11,1.11,0,0,0-.77-.18H55.34V27c0,.19.06.3.17.34a6.59,6.59,0,0,0,1.07.05A3.62,3.62,0,0,0,58,27.16a1.93,1.93,0,0,0,.82-1h.27l-.43,1.6H53.54Z"/><path class="cls-3" d="M59.91,27.57a1.37,1.37,0,0,0,.67-.19c.11-.09.16-.31.16-.67V22.5a1,1,0,0,0-.15-.65,1.13,1.13,0,0,0-.68-.2v-.18h2.67v.18a1.37,1.37,0,0,0-.7.17.79.79,0,0,0-.18.62V27a.44.44,0,0,0,.06.25.27.27,0,0,0,.23.11l.22,0h.45a4.53,4.53,0,0,0,1.7-.21,2.16,2.16,0,0,0,.86-1.06h.24L65,27.74H59.91Z"/><path class="cls-3" d="M66.27,27.57a1.38,1.38,0,0,0,.68-.19c.1-.09.15-.31.15-.67V22.5a1,1,0,0,0-.15-.65,1.11,1.11,0,0,0-.68-.2v-.18H69v.18a1.37,1.37,0,0,0-.7.17.79.79,0,0,0-.18.62V27a.55.55,0,0,0,.05.25.3.3,0,0,0,.24.11l.22,0H69a4.63,4.63,0,0,0,1.71-.21,2.21,2.21,0,0,0,.86-1.06h.24l-.47,1.64H66.27Z"/><path class="cls-3" d="M74.47,26.82a1.83,1.83,0,0,0,1.45.71,1.81,1.81,0,0,0,1.42-.69,3.4,3.4,0,0,0,.6-2.23,3.39,3.39,0,0,0-.6-2.24,1.81,1.81,0,0,0-2.87,0,3.44,3.44,0,0,0-.58,2.21A3.48,3.48,0,0,0,74.47,26.82Zm-.7-4.64a3.17,3.17,0,0,1,4.3,0,3.23,3.23,0,0,1,1,2.43,3.19,3.19,0,0,1-1,2.45,3,3,0,0,1-2.12.81,3,3,0,0,1-2.21-.9,3.23,3.23,0,0,1-.9-2.36A3.2,3.2,0,0,1,73.77,22.18Zm3.53-2.4a.85.85,0,0,1-.22.18l-1.45.92h-.38l1.39-1.4.18-.15a.41.41,0,0,1,.24-.08.29.29,0,0,1,.21.09.27.27,0,0,1,.11.22A.33.33,0,0,1,77.3,19.78Z"/><path class="cls-3" d="M29,17.69a1,1,0,0,0,.47.07,3.34,3.34,0,0,0,1.82-.44,2.46,2.46,0,0,0,1.1-2.3,2.66,2.66,0,0,0-.9-2.19,3.17,3.17,0,0,0-2.06-.63.88.88,0,0,0-.43.07.34.34,0,0,0-.11.3v4.81A.36.36,0,0,0,29,17.69Zm-1.9.25a1.52,1.52,0,0,0,.67-.18,1,1,0,0,0,.16-.67V12.88a.94.94,0,0,0-.16-.67,1.09,1.09,0,0,0-.67-.18v-.18h2.55a5,5,0,0,1,2.18.43A2.74,2.74,0,0,1,33.39,15a3.15,3.15,0,0,1-.29,1.35,2.72,2.72,0,0,1-.87,1.07,2.9,2.9,0,0,1-.76.43,5.46,5.46,0,0,1-1.79.26H27.06Z"/><path class="cls-3" d="M73.69,17.94a1.53,1.53,0,0,0,.68-.18,1,1,0,0,0,.16-.67V12.88a1,1,0,0,0-.16-.66,1.12,1.12,0,0,0-.68-.19v-.18h5l0,1.36h-.24a1.33,1.33,0,0,0-.36-.81,1.92,1.92,0,0,0-1.07-.19H75.79c-.13,0-.22,0-.25.07a.47.47,0,0,0-.05.25v2.11H77a1.11,1.11,0,0,0,.77-.18,1.58,1.58,0,0,0,.27-.73h.22v2.19H78a1.62,1.62,0,0,0-.28-.72A1.08,1.08,0,0,0,77,15H75.49v2.34q0,.29.18.33a5.33,5.33,0,0,0,1.06,0,3.82,3.82,0,0,0,1.42-.2,2,2,0,0,0,.82-1h.27l-.43,1.6H73.69Z"/><path class="cls-3" d="M29,8.06a1,1,0,0,0,.47.08,3.43,3.43,0,0,0,1.82-.44,2.48,2.48,0,0,0,1.1-2.31,2.66,2.66,0,0,0-.9-2.19,3.17,3.17,0,0,0-2.06-.63,1,1,0,0,0-.43.07.36.36,0,0,0-.11.31V7.76A.35.35,0,0,0,29,8.06Zm-1.9.26a1.37,1.37,0,0,0,.67-.19,1,1,0,0,0,.16-.67V3.25a.93.93,0,0,0-.16-.66,1.15,1.15,0,0,0-.67-.19V2.23h2.55a5.11,5.11,0,0,1,2.18.42,2.76,2.76,0,0,1,1.6,2.73,3.08,3.08,0,0,1-.29,1.34,2.68,2.68,0,0,1-.87,1.08,2.6,2.6,0,0,1-.76.42,5.19,5.19,0,0,1-1.79.27H27.06Z"/><path class="cls-3" d="M34.17,8.32a1.77,1.77,0,0,0,.75-.17c.11-.09.17-.32.17-.69V3.25a1,1,0,0,0-.17-.67,1.39,1.39,0,0,0-.75-.18V2.23H37V2.4a1.33,1.33,0,0,0-.75.18c-.12.1-.17.33-.17.67V7.46c0,.37.05.6.17.69a1.69,1.69,0,0,0,.75.17v.17h-2.8Z"/><path class="cls-3" d="M40.79,2.76a2.52,2.52,0,0,0-1-.18.67.67,0,0,0-.36.06.36.36,0,0,0-.06.25V5.36l.33,0h.15a2.41,2.41,0,0,0,1-.18A1.29,1.29,0,0,0,41.54,4,1.18,1.18,0,0,0,40.79,2.76ZM37.6,8.32a1.06,1.06,0,0,0,.67-.22,1.33,1.33,0,0,0,.14-.75V3.25a.93.93,0,0,0-.16-.65,1.09,1.09,0,0,0-.65-.2V2.23h2.49a3.09,3.09,0,0,1,1.84.46,1.45,1.45,0,0,1,.64,1.23,1.52,1.52,0,0,1-.71,1.4,3.32,3.32,0,0,1-1.77.44h-.74V7.46c0,.36,0,.58.16.68a1.51,1.51,0,0,0,.74.18v.17H37.6Z"/><path class="cls-3" d="M45.8,2.23V2.4a1.32,1.32,0,0,0-.71.19,1,1,0,0,0-.16.66v3a2.78,2.78,0,0,0,.2,1.16,1.48,1.48,0,0,0,1.44.76,1.58,1.58,0,0,0,1.56-.78,3.06,3.06,0,0,0,.22-1.34V3.62a1.63,1.63,0,0,0-.18-1,1.19,1.19,0,0,0-.71-.25V2.23h2.19V2.4a1.11,1.11,0,0,0-.72.27,1.75,1.75,0,0,0-.16,1V6.08a3.25,3.25,0,0,1-.3,1.53,2.18,2.18,0,0,1-2.11,1,2.17,2.17,0,0,1-2.09-1A2.84,2.84,0,0,1,44,6.21v-3a.93.93,0,0,0-.16-.66,1.26,1.26,0,0,0-.69-.19V2.23Z"/><path class="cls-3" d="M50.28,2.23h5.35l0,1.61h-.23a1.92,1.92,0,0,0-.42-1A1.75,1.75,0,0,0,54,2.62h-.53V7.46q0,.56.18.69a1.67,1.67,0,0,0,.74.17v.17H51.59V8.32a1.32,1.32,0,0,0,.75-.2,1.34,1.34,0,0,0,.14-.77V2.62H52a1.83,1.83,0,0,0-1.08.23,1.7,1.7,0,0,0-.42,1h-.23Z"/><path class="cls-3" d="M59.62,6.06,58.53,3.45,57.45,6.06ZM55.54,8.49V8.32A.75.75,0,0,0,56.08,8a6.56,6.56,0,0,0,.63-1.28l2-4.64h.19l2.36,5.36a2.35,2.35,0,0,0,.37.67,1,1,0,0,0,.48.17v.17H59.67V8.32a2.82,2.82,0,0,0,.54-.09A.28.28,0,0,0,60.33,8a1.32,1.32,0,0,0,0-.25,2.05,2.05,0,0,0-.13-.37l-.39-.91H57.28c-.25.62-.39,1-.44,1.14a.93.93,0,0,0-.07.32.33.33,0,0,0,.19.33,1.43,1.43,0,0,0,.45.09v.17Z"/><path class="cls-3" d="M67.07,2.27a5.49,5.49,0,0,0,.6.15.48.48,0,0,0,.26-.07.39.39,0,0,0,.16-.23h.2l.09,2.12h-.22a3,3,0,0,0-.49-1,1.92,1.92,0,0,0-1.57-.73,2,2,0,0,0-1.62.79,3.35,3.35,0,0,0-.63,2.16,3,3,0,0,0,.66,2,2.15,2.15,0,0,0,1.68.76,2.62,2.62,0,0,0,1.35-.36,4,4,0,0,0,.79-.6l.17.18a3.3,3.3,0,0,1-.78.7A3.2,3.2,0,0,1,66,8.65a3.11,3.11,0,0,1-2.42-1,3.16,3.16,0,0,1-.83-2.25,3.29,3.29,0,0,1,.87-2.32,3.11,3.11,0,0,1,2.4-1A3.92,3.92,0,0,1,67.07,2.27Z"/><path class="cls-3" d="M69.25,8.32A1.69,1.69,0,0,0,70,8.15c.12-.09.17-.32.17-.69V3.25c0-.34,0-.57-.17-.67a1.33,1.33,0,0,0-.75-.18V2.23h2.8V2.4a1.32,1.32,0,0,0-.74.18c-.12.1-.17.33-.17.67V7.46c0,.37,0,.6.17.69a1.67,1.67,0,0,0,.74.17v.17h-2.8Z"/><path class="cls-3" d="M74.47,7.57a1.83,1.83,0,0,0,1.45.71,1.81,1.81,0,0,0,1.42-.69,3.4,3.4,0,0,0,.6-2.23,3.39,3.39,0,0,0-.6-2.24,1.83,1.83,0,0,0-2.87,0,3.46,3.46,0,0,0-.58,2.21A3.48,3.48,0,0,0,74.47,7.57Zm-.7-4.64a3.17,3.17,0,0,1,4.3,0,3.23,3.23,0,0,1,1,2.43,3.19,3.19,0,0,1-1,2.45,3,3,0,0,1-2.12.81,3,3,0,0,1-2.21-.9,3.23,3.23,0,0,1-.9-2.36A3.2,3.2,0,0,1,73.77,2.93ZM77.3.53a.85.85,0,0,1-.22.18l-1.45.92h-.38L76.64.23l.18-.15A.41.41,0,0,1,77.06,0a.29.29,0,0,1,.21.09.27.27,0,0,1,.11.22A.33.33,0,0,1,77.3.53Z"/><polygon class="cls-1" points="0.03 2.32 25.38 2.32 25.38 27.67 0.03 27.67 0.03 2.32 0.03 2.32"/><polygon class="cls-4" points="0.03 2.32 25.38 2.32 25.38 27.67 0.03 27.67 0.03 2.32 0.03 2.32"/><polygon class="cls-5" points="16.91 11.95 16.38 11.03 19.19 9.4 20.82 12.21 18 13.84 17.46 12.9 18.86 12.08 18.32 11.14 16.91 11.95"/><polygon class="cls-6" points="16.91 11.95 16.38 11.03 19.19 9.4 20.82 12.21 18 13.84 17.46 12.9 18.86 12.08 18.32 11.14 16.91 11.95"/><polygon class="cls-5" points="19.59 9.17 21.71 9.82 21.21 11.98 19.59 9.17"/><polygon class="cls-6" points="19.59 9.17 21.71 9.82 21.21 11.98 19.59 9.17"/><polygon class="cls-5" points="8.52 11.94 9.05 11.02 6.24 9.39 4.62 12.21 7.43 13.83 7.97 12.88 6.57 12.07 7.11 11.13 8.52 11.94"/><polygon class="cls-6" points="8.52 11.94 9.05 11.02 6.24 9.39 4.62 12.21 7.43 13.83 7.97 12.88 6.57 12.07 7.11 11.13 8.52 11.94"/><polygon class="cls-5" points="5.84 9.16 3.72 9.81 4.22 11.97 5.84 9.16"/><polygon class="cls-6" points="5.84 9.16 3.72 9.81 4.22 11.97 5.84 9.16"/><polygon class="cls-5" points="16.91 18.04 16.37 18.97 19.18 20.59 20.81 17.78 18 16.16 17.45 17.1 18.86 17.91 18.31 18.85 16.91 18.04"/><polygon class="cls-6" points="16.91 18.04 16.37 18.97 19.18 20.59 20.81 17.78 18 16.16 17.45 17.1 18.86 17.91 18.31 18.85 16.91 18.04"/><polygon class="cls-5" points="19.58 20.82 21.7 20.17 21.2 18.01 19.58 20.82"/><polygon class="cls-6" points="19.58 20.82 21.7 20.17 21.2 18.01 19.58 20.82"/><polygon class="cls-5" points="8.52 18.07 9.05 19 6.24 20.62 4.62 17.81 7.43 16.18 7.97 17.13 6.57 17.94 7.11 18.88 8.52 18.07"/><polygon class="cls-6" points="8.52 18.07 9.05 19 6.24 20.62 4.62 17.81 7.43 16.18 7.97 17.13 6.57 17.94 7.11 18.88 8.52 18.07"/><polygon class="cls-5" points="5.84 20.85 3.72 20.2 4.22 18.04 5.84 20.85"/><polygon class="cls-6" points="5.84 20.85 3.72 20.2 4.22 18.04 5.84 20.85"/><path class="cls-5" d="M6.54,8.55A.39.39,0,0,1,6.68,8a.38.38,0,0,1,.52.14.38.38,0,1,1-.66.38Z"/><path class="cls-6" d="M6.54,8.55A.39.39,0,0,1,6.68,8a.38.38,0,0,1,.52.14.38.38,0,1,1-.66.38Z"/><path class="cls-5" d="M8,7.52a.38.38,0,1,1,.66-.38.39.39,0,0,1-.14.52A.38.38,0,0,1,8,7.52Z"/><path class="cls-6" d="M8,7.52a.38.38,0,1,1,.66-.38.39.39,0,0,1-.14.52A.38.38,0,0,1,8,7.52Z"/><path class="cls-5" d="M9.55,6.8a.37.37,0,0,1,.14-.52.37.37,0,0,1,.52.14.39.39,0,0,1-.14.52A.38.38,0,0,1,9.55,6.8Z"/><path class="cls-6" d="M9.55,6.8a.37.37,0,0,1,.14-.52.37.37,0,0,1,.52.14.39.39,0,0,1-.14.52A.38.38,0,0,1,9.55,6.8Z"/><path class="cls-5" d="M18.9,8.53A.37.37,0,0,0,18.76,8a.38.38,0,0,0-.38.66A.37.37,0,0,0,18.9,8.53Z"/><path class="cls-6" d="M18.9,8.53A.37.37,0,0,0,18.76,8a.38.38,0,0,0-.38.66A.37.37,0,0,0,18.9,8.53Z"/><path class="cls-5" d="M17.49,7.52A.38.38,0,0,0,17.35,7a.39.39,0,0,0-.52.14.38.38,0,0,0,.14.52A.37.37,0,0,0,17.49,7.52Z"/><path class="cls-6" d="M17.49,7.52A.38.38,0,0,0,17.35,7a.39.39,0,0,0-.52.14.38.38,0,0,0,.14.52A.37.37,0,0,0,17.49,7.52Z"/><path class="cls-5" d="M15.9,6.8a.38.38,0,0,0-.14-.52.37.37,0,0,0-.52.14.38.38,0,0,0,.14.52A.39.39,0,0,0,15.9,6.8Z"/><path class="cls-6" d="M15.9,6.8a.38.38,0,0,0-.14-.52.37.37,0,0,0-.52.14.38.38,0,0,0,.14.52A.39.39,0,0,0,15.9,6.8Z"/><path class="cls-5" d="M18.92,21.46a.38.38,0,0,1-.14.52.37.37,0,0,1-.52-.14.37.37,0,0,1,.14-.52A.39.39,0,0,1,18.92,21.46Z"/><path class="cls-6" d="M18.92,21.46a.38.38,0,0,1-.14.52.37.37,0,0,1-.52-.14.37.37,0,0,1,.14-.52A.39.39,0,0,1,18.92,21.46Z"/><path class="cls-5" d="M17.5,22.48a.39.39,0,1,1-.53-.14A.39.39,0,0,1,17.5,22.48Z"/><path class="cls-6" d="M17.5,22.48a.39.39,0,1,1-.53-.14A.39.39,0,0,1,17.5,22.48Z"/><path class="cls-5" d="M15.91,23.2a.38.38,0,0,1-.13.52.4.4,0,0,1-.53-.14.38.38,0,0,1,.14-.52A.37.37,0,0,1,15.91,23.2Z"/><path class="cls-6" d="M15.91,23.2a.38.38,0,0,1-.13.52.4.4,0,0,1-.53-.14.38.38,0,0,1,.14-.52A.37.37,0,0,1,15.91,23.2Z"/><path class="cls-5" d="M6.54,21.47a.38.38,0,1,0,.52-.14A.37.37,0,0,0,6.54,21.47Z"/><path class="cls-6" d="M6.54,21.47a.38.38,0,1,0,.52-.14A.37.37,0,0,0,6.54,21.47Z"/><path class="cls-5" d="M8,22.48a.39.39,0,0,0,.14.53.39.39,0,0,0,.38-.67A.39.39,0,0,0,8,22.48Z"/><path class="cls-6" d="M8,22.48a.39.39,0,0,0,.14.53.39.39,0,0,0,.38-.67A.39.39,0,0,0,8,22.48Z"/><path class="cls-5" d="M9.55,23.2a.38.38,0,0,0,.14.52.37.37,0,0,0,.52-.14.38.38,0,0,0-.66-.38Z"/><path class="cls-6" d="M9.55,23.2a.38.38,0,0,0,.14.52.37.37,0,0,0,.52-.14.38.38,0,0,0-.66-.38Z"/><path class="cls-5" d="M4,17.12a.38.38,0,0,1-.38-.38.39.39,0,1,1,.77,0A.38.38,0,0,1,4,17.12Z"/><path class="cls-6" d="M4,17.12a.38.38,0,0,1-.38-.38.39.39,0,1,1,.77,0A.38.38,0,0,1,4,17.12Z"/><path class="cls-5" d="M3.82,15.39A.4.4,0,0,1,3.43,15a.39.39,0,0,1,.39-.38A.38.38,0,0,1,4.2,15,.39.39,0,0,1,3.82,15.39Z"/><path class="cls-6" d="M3.82,15.39A.4.4,0,0,1,3.43,15a.39.39,0,0,1,.39-.38A.38.38,0,0,1,4.2,15,.39.39,0,0,1,3.82,15.39Z"/><path class="cls-5" d="M4,13.65a.38.38,0,0,1,0-.76.38.38,0,1,1,0,.76Z"/><path class="cls-6" d="M4,13.65a.38.38,0,0,1,0-.76.38.38,0,1,1,0,.76Z"/><path class="cls-5" d="M21.41,17.12a.38.38,0,0,0,.39-.38.39.39,0,1,0-.77,0A.38.38,0,0,0,21.41,17.12Z"/><path class="cls-6" d="M21.41,17.12a.38.38,0,0,0,.39-.38.39.39,0,1,0-.77,0A.38.38,0,0,0,21.41,17.12Z"/><path class="cls-5" d="M21.59,15.39A.39.39,0,0,0,22,15a.38.38,0,0,0-.76,0A.39.39,0,0,0,21.59,15.39Z"/><path class="cls-6" d="M21.59,15.39A.39.39,0,0,0,22,15a.38.38,0,0,0-.76,0A.39.39,0,0,0,21.59,15.39Z"/><path class="cls-5" d="M21.41,13.66a.39.39,0,1,0-.38-.38A.38.38,0,0,0,21.41,13.66Z"/><path class="cls-6" d="M21.41,13.66a.39.39,0,1,0-.38-.38A.38.38,0,0,0,21.41,13.66Z"/><polygon class="cls-5" points="12.18 9.83 11.11 9.83 11.11 6.58 14.35 6.58 14.35 9.83 13.26 9.83 13.26 8.21 12.18 8.21 12.18 9.83"/><polygon class="cls-6" points="12.18 9.83 11.11 9.83 11.11 6.58 14.35 6.58 14.35 9.83 13.26 9.83 13.26 8.21 12.18 8.21 12.18 9.83"/><polygon class="cls-5" points="11.11 6.12 12.73 4.61 14.35 6.12 11.11 6.12"/><polygon class="cls-6" points="11.11 6.12 12.73 4.61 14.35 6.12 11.11 6.12"/><polygon class="cls-5" points="12.18 20.15 11.11 20.15 11.11 23.4 14.35 23.4 14.35 20.15 13.26 20.15 13.26 21.78 12.18 21.78 12.18 20.15"/><polygon class="cls-6" points="12.18 20.15 11.11 20.15 11.11 23.4 14.35 23.4 14.35 20.15 13.26 20.15 13.26 21.78 12.18 21.78 12.18 20.15"/><polygon class="cls-5" points="11.11 23.86 12.73 25.37 14.35 23.86 11.11 23.86"/><polygon class="cls-6" points="11.11 23.86 12.73 25.37 14.35 23.86 11.11 23.86"/></g></g></svg>