<svg xmlns="http://www.w3.org/2000/svg" viewBox="0 0 595.28 187.39"><defs><style>.cls-1{fill:#f9dbcf;}</style></defs><title>Asset 2</title><g id="Layer_2" data-name="Layer 2"><g id="Layer_1-2" data-name="Layer 1"><path class="cls-1" d="M595.28,33.57V187.39H0V72.62A40.51,40.51,0,0,1,44.72,57.44a47.09,47.09,0,0,1,81-18.13A55.69,55.69,0,0,1,234.67,55.69a27.35,27.35,0,0,1,25.89,18.62A28,28,0,0,1,298,76.37a30.49,30.49,0,0,1,45,9,39.69,39.69,0,0,1,66.86-.45,36.28,36.28,0,0,1,36.84-20.08,35.78,35.78,0,0,1,9.81,2.61,36.38,36.38,0,0,1,15.57,12.62,30.5,30.5,0,0,1,46.1-10.75,35.57,35.57,0,0,1,55.3-20,35.64,35.64,0,0,1,20-15.3C594.08,33.88,594.67,33.71,595.28,33.57Z"/></g></g></svg>