<svg xmlns="http://www.w3.org/2000/svg" viewBox="0 0 595.28 269.74"><defs><style>.cls-1{fill:#f9b1a3;}</style></defs><title>Asset 5</title><g id="Layer_2" data-name="Layer 2"><g id="Layer_1-2" data-name="Layer 1"><path class="cls-1" d="M595.28,238.58a38.45,38.45,0,0,1-1.8,11.67,39.27,39.27,0,0,1-11.35,17.41l.2.1.34.17,1.16.58h-2.69c-.51.42-1,.84-1.56,1.23H530.76c-.54-.4-1-.81-1.56-1.23H0V4.28A37.6,37.6,0,0,1,17.49,0c18.61,0,34,13.38,36.77,30.85h.44A28.11,28.11,0,0,1,82.05,51.69a40.78,40.78,0,0,1,20-5.17,41.8,41.8,0,0,1,10.63,1.39,28.47,28.47,0,0,1,49.53-4.76,42.61,42.61,0,0,1,29.44-11.7c21.55,0,39.32,15.77,41.95,36.18a33.54,33.54,0,0,1,4.73-.34A32.72,32.72,0,0,1,264.1,79.77a37.6,37.6,0,0,1,46.4-7.46,36.82,36.82,0,0,1,13.67,13.53,35.2,35.2,0,0,1,4.76,15.85,31.21,31.21,0,0,1,12.37-2.56c16.83,0,30.47,13.37,30.47,29.87a29,29,0,0,1-.21,3.5,38,38,0,0,1,31.6,4.76,32.22,32.22,0,0,1,47.63,2,30.67,30.67,0,0,1,5.73,10.57,30.35,30.35,0,0,1,1.37,9,29.9,29.9,0,0,1-.33,4.48,28.29,28.29,0,0,1,19.36,21.59,37.54,37.54,0,0,1,24.42-9,37.1,37.1,0,0,1,36.06,27.41,40.61,40.61,0,0,1,17.77-4.07,40.06,40.06,0,0,1,38.31,27.6A38.56,38.56,0,0,1,595.28,238.58Z"/></g></g></svg>