<svg xmlns="http://www.w3.org/2000/svg" viewBox="0 0 434.66 295.56"><defs><style>.cls-1{fill:#55c4c6;}</style></defs><title>Asset 3</title><g id="Layer_2" data-name="Layer 2"><g id="Layer_1-2" data-name="Layer 1"><path class="cls-1" d="M399.89,0a45.83,45.83,0,0,0-45.84,45.83c0,.47,0,.93,0,1.41a28.15,28.15,0,0,0-8.86-1.41A28.6,28.6,0,0,0,320.9,59.35a50,50,0,0,0-89,17.24,32.07,32.07,0,0,0-43.4,28,39.34,39.34,0,0,0-59,34.12v.3a34.79,34.79,0,0,0-29.86,29.17,34.06,34.06,0,0,0-.42,5.27v.07a34.57,34.57,0,0,0,1.25,9.2,43.12,43.12,0,0,0-5.71-.38A44.49,44.49,0,0,0,50.3,226.84a43.35,43.35,0,0,0,.31,5.13A33,33,0,1,0,33,292.75l400.62,2.81.91-215.09c.59-.56-.5-.45.07-1V15.16C426.22,6.71,412.69,0,399.89,0Zm-334,261.63c0-.33,0-.66,0-1,.18.15.34.31.52.45Z"/></g></g></svg>