<svg xmlns="http://www.w3.org/2000/svg" xmlns:xlink="http://www.w3.org/1999/xlink" viewBox="0 0 256.35 256.35"><defs><style>.cls-1{fill:#fff;}.cls-2{mask:url(#mask);}.cls-3{fill:url(#Degradado_sin_nombre_2);}.cls-4{fill:#020002;}</style><mask id="mask" x="13.77" y="13.76" width="228.82" height="228.84" maskUnits="userSpaceOnUse"><g id="gmask"><path class="cls-1" d="M63.72,16.37v3.57H69V16.37a2.62,2.62,0,0,0-5.23,0Z"/><path class="cls-1" d="M72.52,14.23a2.62,2.62,0,1,1-2.62,2.62A2.62,2.62,0,0,1,72.52,14.23Z"/><path class="cls-1" d="M78.7,14.23a2.62,2.62,0,1,1-2.61,2.62A2.62,2.62,0,0,1,78.7,14.23Z"/><path class="cls-1" d="M91.07,14.23a2.62,2.62,0,1,1-2.62,2.62A2.62,2.62,0,0,1,91.07,14.23Z"/><path class="cls-1" d="M97.26,14.23a2.62,2.62,0,1,1-2.62,2.62A2.62,2.62,0,0,1,97.26,14.23Z"/><path class="cls-1" d="M109.62,14.23A2.62,2.62,0,1,1,107,16.85,2.62,2.62,0,0,1,109.62,14.23Z"/><path class="cls-1" d="M113.19,16.37v3.57h5.23V16.37a2.62,2.62,0,0,0-5.23,0Z"/><path class="cls-1" d="M144.11,16.37v3.57h5.24V16.37a2.62,2.62,0,0,0-5.24,0Z"/><path class="cls-1" d="M177.65,14.23A2.62,2.62,0,1,1,175,16.85,2.62,2.62,0,0,1,177.65,14.23Z"/><path class="cls-1" d="M190,14.23a2.62,2.62,0,1,1-2.61,2.62A2.62,2.62,0,0,1,190,14.23Z"/><path class="cls-1" d="M69,23.51V19.94H63.72v3.57a2.62,2.62,0,1,0,5.23,0Z"/><polygon class="cls-1" points="113.19 23.04 113.19 26.13 118.42 26.13 118.42 23.04 118.42 19.94 113.19 19.94 113.19 23.04"/><path class="cls-1" d="M149.35,23.51V19.94h-5.24v3.57a2.62,2.62,0,0,0,5.24,0Z"/><path class="cls-1" d="M76.09,28.74v3.57h5.23V28.74a2.62,2.62,0,0,0-5.23,0Z"/><path class="cls-1" d="M103.44,26.6a2.62,2.62,0,1,1-2.62,2.62A2.63,2.63,0,0,1,103.44,26.6Z"/><path class="cls-1" d="M118.42,29.7V26.13h-5.23V29.7a2.62,2.62,0,0,0,5.23,0Z"/><path class="cls-1" d="M134.36,26.6a2.62,2.62,0,1,1-2.61,2.62A2.62,2.62,0,0,1,134.36,26.6Z"/><path class="cls-1" d="M152.91,26.6a2.62,2.62,0,1,1-2.61,2.62A2.62,2.62,0,0,1,152.91,26.6Z"/><path class="cls-1" d="M156.48,28.74v3.57h5.24V28.74a2.62,2.62,0,0,0-5.24,0Z"/><path class="cls-1" d="M162.67,28.74v3.57h5.23V28.74a2.62,2.62,0,0,0-5.23,0Z"/><path class="cls-1" d="M168.85,28.74v3.57h5.23V28.74a2.62,2.62,0,0,0-5.23,0Z"/><path class="cls-1" d="M175,28.74v3.57h5.23V28.74a2.62,2.62,0,0,0-5.23,0Z"/><path class="cls-1" d="M190,26.6a2.62,2.62,0,1,1-2.61,2.62A2.62,2.62,0,0,1,190,26.6Z"/><path class="cls-1" d="M66.33,32.79a2.62,2.62,0,1,1-2.61,2.61A2.61,2.61,0,0,1,66.33,32.79Z"/><path class="cls-1" d="M81.32,35.88V32.31H76.09v3.57a2.62,2.62,0,1,0,5.23,0Z"/><path class="cls-1" d="M84.89,32.79a2.62,2.62,0,1,1-2.62,2.61A2.61,2.61,0,0,1,84.89,32.79Z"/><path class="cls-1" d="M94.64,34.93V38.5h5.23V34.93a2.62,2.62,0,1,0-5.23,0Z"/><path class="cls-1" d="M109.62,32.79A2.62,2.62,0,1,1,107,35.4,2.61,2.61,0,0,1,109.62,32.79Z"/><path class="cls-1" d="M122,32.79a2.62,2.62,0,1,1-2.61,2.61A2.61,2.61,0,0,1,122,32.79Z"/><path class="cls-1" d="M140.55,32.79a2.62,2.62,0,1,1-2.62,2.61A2.61,2.61,0,0,1,140.55,32.79Z"/><path class="cls-1" d="M161.72,35.88V32.31h-5.24v3.57a2.62,2.62,0,0,0,5.24,0Z"/><polygon class="cls-1" points="162.67 35.41 162.67 38.5 167.9 38.5 167.9 35.41 167.9 32.31 162.67 32.31 162.67 35.41"/><path class="cls-1" d="M174.08,35.88V32.31h-5.23v3.57a2.62,2.62,0,1,0,5.23,0Z"/><polygon class="cls-1" points="175.04 35.41 175.04 38.5 180.27 38.5 180.27 35.41 180.27 32.31 175.04 32.31 175.04 35.41"/><path class="cls-1" d="M91.07,39a2.62,2.62,0,1,1-2.62,2.62A2.62,2.62,0,0,1,91.07,39Z"/><polygon class="cls-1" points="94.64 41.59 94.64 44.68 99.87 44.68 99.87 41.59 99.87 38.5 94.64 38.5 94.64 41.59"/><path class="cls-1" d="M103.44,39a2.62,2.62,0,1,1-2.62,2.62A2.62,2.62,0,0,1,103.44,39Z"/><path class="cls-1" d="M113.19,41.11v3.57h5.23V41.11a2.62,2.62,0,0,0-5.23,0Z"/><path class="cls-1" d="M131.75,41.11v3.57H137V41.11a2.62,2.62,0,0,0-5.23,0Z"/><polygon class="cls-1" points="162.67 41.59 162.67 44.68 167.9 44.68 167.9 41.59 167.9 38.5 162.67 38.5 162.67 41.59"/><polygon class="cls-1" points="175.04 41.59 175.04 44.68 180.27 44.68 180.27 41.59 180.27 38.5 175.04 38.5 175.04 41.59"/><path class="cls-1" d="M183.84,39a2.62,2.62,0,1,1-2.62,2.62A2.61,2.61,0,0,1,183.84,39Z"/><path class="cls-1" d="M190,39a2.62,2.62,0,1,1-2.61,2.62A2.62,2.62,0,0,1,190,39Z"/><path class="cls-1" d="M76.09,47.3v3.57h5.23V47.3a2.62,2.62,0,1,0-5.23,0Z"/><path class="cls-1" d="M99.87,48.25V44.68H94.64v3.57a2.62,2.62,0,1,0,5.23,0Z"/><path class="cls-1" d="M109.62,45.16A2.62,2.62,0,1,1,107,47.77,2.61,2.61,0,0,1,109.62,45.16Z"/><polygon class="cls-1" points="113.19 47.77 113.19 50.87 118.42 50.87 118.42 47.77 118.42 44.68 113.19 44.68 113.19 47.77"/><path class="cls-1" d="M122,45.16a2.62,2.62,0,1,1-2.61,2.61A2.61,2.61,0,0,1,122,45.16Z"/><path class="cls-1" d="M125.56,47.3v3.57h5.23V47.3a2.62,2.62,0,1,0-5.23,0Z"/><path class="cls-1" d="M137,48.25V44.68h-5.23v3.57a2.62,2.62,0,1,0,5.23,0Z"/><path class="cls-1" d="M137.93,47.3v3.57h5.23V47.3a2.62,2.62,0,1,0-5.23,0Z"/><path class="cls-1" d="M150.3,47.3v3.57h5.23V47.3a2.62,2.62,0,1,0-5.23,0Z"/><polygon class="cls-1" points="162.67 47.77 162.67 50.87 167.9 50.87 167.9 47.77 167.9 44.68 162.67 44.68 162.67 47.77"/><path class="cls-1" d="M171.47,45.16a2.62,2.62,0,1,1-2.62,2.61A2.61,2.61,0,0,1,171.47,45.16Z"/><polygon class="cls-1" points="175.04 47.77 175.04 50.87 180.27 50.87 180.27 47.77 180.27 44.68 175.04 44.68 175.04 47.77"/><path class="cls-1" d="M63.72,53.48v3.57H69V53.48a2.62,2.62,0,0,0-5.23,0Z"/><path class="cls-1" d="M81.32,54.44V50.87H76.09v3.57a2.62,2.62,0,0,0,5.23,0Z"/><path class="cls-1" d="M91.07,51.34A2.62,2.62,0,1,1,88.45,54,2.62,2.62,0,0,1,91.07,51.34Z"/><path class="cls-1" d="M100.82,53.48v3.57h5.24V53.48a2.62,2.62,0,0,0-5.24,0Z"/><path class="cls-1" d="M118.42,54.44V50.87h-5.23v3.57a2.62,2.62,0,0,0,5.23,0Z"/><path class="cls-1" d="M130.79,54.44V50.87h-5.23v3.57a2.62,2.62,0,0,0,5.23,0Z"/><path class="cls-1" d="M143.16,54.44V50.87h-5.23v3.57a2.62,2.62,0,0,0,5.23,0Z"/><polygon class="cls-1" points="150.3 53.96 150.3 57.05 155.53 57.05 155.53 53.96 155.53 50.87 150.3 50.87 150.3 53.96"/><polygon class="cls-1" points="162.67 53.96 162.67 57.05 167.9 57.05 167.9 53.96 167.9 50.87 162.67 50.87 162.67 53.96"/><path class="cls-1" d="M180.27,54.44V50.87H175v3.57a2.62,2.62,0,0,0,5.23,0Z"/><path class="cls-1" d="M190,51.34A2.62,2.62,0,1,1,187.41,54,2.62,2.62,0,0,1,190,51.34Z"/><path class="cls-1" d="M69,60.62V57.05H63.72v3.57a2.62,2.62,0,1,0,5.23,0Z"/><path class="cls-1" d="M69.9,59.67v3.57h5.23V59.67a2.62,2.62,0,1,0-5.23,0Z"/><path class="cls-1" d="M84.89,57.53a2.62,2.62,0,1,1-2.62,2.61A2.61,2.61,0,0,1,84.89,57.53Z"/><path class="cls-1" d="M97.26,57.53a2.62,2.62,0,1,1-2.62,2.61A2.61,2.61,0,0,1,97.26,57.53Z"/><polygon class="cls-1" points="100.82 60.14 100.82 63.24 106.06 63.24 106.06 60.14 106.06 57.05 100.82 57.05 100.82 60.14"/><path class="cls-1" d="M131.75,59.67v3.57H137V59.67a2.62,2.62,0,1,0-5.23,0Z"/><polygon class="cls-1" points="150.3 60.14 150.3 63.24 155.53 63.24 155.53 60.14 155.53 57.05 150.3 57.05 150.3 60.14"/><path class="cls-1" d="M159.1,57.53a2.62,2.62,0,1,1-2.62,2.61A2.62,2.62,0,0,1,159.1,57.53Z"/><polygon class="cls-1" points="162.67 60.14 162.67 63.24 167.9 63.24 167.9 60.14 167.9 57.05 162.67 57.05 162.67 60.14"/><path class="cls-1" d="M183.84,57.53a2.62,2.62,0,1,1-2.62,2.61A2.61,2.61,0,0,1,183.84,57.53Z"/><path class="cls-1" d="M16.86,63.71a2.62,2.62,0,1,1-2.62,2.62A2.61,2.61,0,0,1,16.86,63.71Z"/><path class="cls-1" d="M29.23,63.71a2.62,2.62,0,1,1-2.62,2.62A2.61,2.61,0,0,1,29.23,63.71Z"/><path class="cls-1" d="M35.41,63.71a2.62,2.62,0,1,1-2.61,2.62A2.62,2.62,0,0,1,35.41,63.71Z"/><path class="cls-1" d="M45.16,65.85v3.57H50.4V65.85a2.62,2.62,0,0,0-5.24,0Z"/><path class="cls-1" d="M54,63.71a2.62,2.62,0,1,1-2.61,2.62A2.62,2.62,0,0,1,54,63.71Z"/><path class="cls-1" d="M60.15,63.71a2.62,2.62,0,1,1-2.62,2.62A2.61,2.61,0,0,1,60.15,63.71Z"/><path class="cls-1" d="M75.13,66.81V63.24H69.9v3.57a2.62,2.62,0,0,0,5.23,0Z"/><path class="cls-1" d="M78.7,63.71a2.62,2.62,0,1,1-2.61,2.62A2.62,2.62,0,0,1,78.7,63.71Z"/><path class="cls-1" d="M106.06,66.81V63.24h-5.24v3.57a2.62,2.62,0,0,0,5.24,0Z"/><path class="cls-1" d="M107,65.85v3.57h5.23V65.85a2.62,2.62,0,0,0-5.23,0Z"/><path class="cls-1" d="M125.56,65.85v3.57h5.23V65.85a2.62,2.62,0,0,0-5.23,0Z"/><path class="cls-1" d="M137,66.81V63.24h-5.23v3.57a2.62,2.62,0,0,0,5.23,0Z"/><polygon class="cls-1" points="150.3 66.33 150.3 69.42 155.53 69.42 155.53 66.33 155.53 63.24 150.3 63.24 150.3 66.33"/><polygon class="cls-1" points="162.67 66.33 162.67 69.42 167.9 69.42 167.9 66.33 167.9 63.24 162.67 63.24 162.67 66.33"/><path class="cls-1" d="M177.65,63.71A2.62,2.62,0,1,1,175,66.33,2.62,2.62,0,0,1,177.65,63.71Z"/><path class="cls-1" d="M187.41,65.85v3.57h5.23V65.85a2.62,2.62,0,0,0-5.23,0Z"/><path class="cls-1" d="M202.39,63.71a2.62,2.62,0,1,1-2.62,2.62A2.62,2.62,0,0,1,202.39,63.71Z"/><path class="cls-1" d="M220.94,63.71a2.62,2.62,0,1,1-2.61,2.62A2.62,2.62,0,0,1,220.94,63.71Z"/><path class="cls-1" d="M230.7,65.85v3.57h5.23V65.85a2.62,2.62,0,0,0-5.23,0Z"/><path class="cls-1" d="M239.5,63.71a2.62,2.62,0,1,1-2.62,2.62A2.61,2.61,0,0,1,239.5,63.71Z"/><path class="cls-1" d="M20.43,72v3.57h5.23V72a2.62,2.62,0,1,0-5.23,0Z"/><path class="cls-1" d="M50.4,73V69.42H45.16V73a2.62,2.62,0,0,0,5.24,0Z"/><path class="cls-1" d="M66.33,69.9a2.62,2.62,0,1,1-2.61,2.61A2.61,2.61,0,0,1,66.33,69.9Z"/><path class="cls-1" d="M82.27,72v3.57H87.5V72a2.62,2.62,0,1,0-5.23,0Z"/><path class="cls-1" d="M91.07,69.9a2.62,2.62,0,1,1-2.62,2.61A2.61,2.61,0,0,1,91.07,69.9Z"/><path class="cls-1" d="M112.24,73V69.42H107V73a2.62,2.62,0,1,0,5.23,0Z"/><path class="cls-1" d="M130.79,73V69.42h-5.23V73a2.62,2.62,0,1,0,5.23,0Z"/><path class="cls-1" d="M137.93,72v3.57h5.23V72a2.62,2.62,0,1,0-5.23,0Z"/><polygon class="cls-1" points="150.3 72.51 150.3 75.61 155.53 75.61 155.53 72.51 155.53 69.42 150.3 69.42 150.3 72.51"/><polygon class="cls-1" points="162.67 72.51 162.67 75.61 167.9 75.61 167.9 72.51 167.9 69.42 162.67 69.42 162.67 72.51"/><path class="cls-1" d="M168.85,72v3.57h5.23V72a2.62,2.62,0,1,0-5.23,0Z"/><path class="cls-1" d="M192.64,73V69.42h-5.23V73a2.62,2.62,0,1,0,5.23,0Z"/><path class="cls-1" d="M193.59,72v3.57h5.23V72a2.62,2.62,0,1,0-5.23,0Z"/><path class="cls-1" d="M206,72v3.57h5.23V72A2.62,2.62,0,1,0,206,72Z"/><path class="cls-1" d="M227.13,69.9a2.62,2.62,0,1,1-2.62,2.61A2.61,2.61,0,0,1,227.13,69.9Z"/><path class="cls-1" d="M235.93,73V69.42H230.7V73a2.62,2.62,0,1,0,5.23,0Z"/><path class="cls-1" d="M14.24,78.22v3.57h5.23V78.22a2.62,2.62,0,0,0-5.23,0Z"/><polygon class="cls-1" points="20.43 78.7 20.43 81.79 25.66 81.79 25.66 78.7 25.66 75.61 20.43 75.61 20.43 78.7"/><path class="cls-1" d="M35.41,76.08A2.62,2.62,0,1,1,32.8,78.7,2.62,2.62,0,0,1,35.41,76.08Z"/><path class="cls-1" d="M54,76.08a2.62,2.62,0,1,1-2.61,2.62A2.62,2.62,0,0,1,54,76.08Z"/><path class="cls-1" d="M72.52,76.08A2.62,2.62,0,1,1,69.9,78.7,2.61,2.61,0,0,1,72.52,76.08Z"/><path class="cls-1" d="M78.7,76.08a2.62,2.62,0,1,1-2.61,2.62A2.62,2.62,0,0,1,78.7,76.08Z"/><polygon class="cls-1" points="82.27 78.7 82.27 81.79 87.5 81.79 87.5 78.7 87.5 75.61 82.27 75.61 82.27 78.7"/><path class="cls-1" d="M103.44,76.08a2.62,2.62,0,1,1-2.62,2.62A2.62,2.62,0,0,1,103.44,76.08Z"/><path class="cls-1" d="M113.19,78.22v3.57h5.23V78.22a2.62,2.62,0,0,0-5.23,0Z"/><path class="cls-1" d="M122,76.08a2.62,2.62,0,1,1-2.61,2.62A2.62,2.62,0,0,1,122,76.08Z"/><path class="cls-1" d="M134.36,76.08a2.62,2.62,0,1,1-2.61,2.62A2.62,2.62,0,0,1,134.36,76.08Z"/><polygon class="cls-1" points="137.93 78.7 137.93 81.79 143.16 81.79 143.16 78.7 143.16 75.61 137.93 75.61 137.93 78.7"/><path class="cls-1" d="M146.73,76.08a2.62,2.62,0,1,1-2.62,2.62A2.62,2.62,0,0,1,146.73,76.08Z"/><polygon class="cls-1" points="150.3 78.7 150.3 81.79 155.53 81.79 155.53 78.7 155.53 75.61 150.3 75.61 150.3 78.7"/><path class="cls-1" d="M159.1,76.08a2.62,2.62,0,1,1-2.62,2.62A2.62,2.62,0,0,1,159.1,76.08Z"/><path class="cls-1" d="M167.9,79.17V75.61h-5.23v3.56a2.62,2.62,0,1,0,5.23,0Z"/><polygon class="cls-1" points="168.85 78.7 168.85 81.79 174.08 81.79 174.08 78.7 174.08 75.61 168.85 75.61 168.85 78.7"/><path class="cls-1" d="M198.82,79.17V75.61h-5.23v3.56a2.62,2.62,0,1,0,5.23,0Z"/><path class="cls-1" d="M199.77,78.22v3.57H205V78.22a2.62,2.62,0,0,0-5.24,0Z"/><path class="cls-1" d="M211.19,79.17V75.61H206v3.56a2.62,2.62,0,1,0,5.23,0Z"/><path class="cls-1" d="M212.14,78.22v3.57h5.23V78.22a2.62,2.62,0,0,0-5.23,0Z"/><path class="cls-1" d="M218.33,78.22v3.57h5.23V78.22a2.62,2.62,0,0,0-5.23,0Z"/><path class="cls-1" d="M19.47,85.36V81.79H14.24v3.57a2.62,2.62,0,1,0,5.23,0Z"/><path class="cls-1" d="M25.66,85.36V81.79H20.43v3.57a2.62,2.62,0,1,0,5.23,0Z"/><path class="cls-1" d="M29.23,82.27a2.62,2.62,0,1,1-2.62,2.61A2.61,2.61,0,0,1,29.23,82.27Z"/><path class="cls-1" d="M41.6,82.27A2.62,2.62,0,1,1,39,84.88,2.61,2.61,0,0,1,41.6,82.27Z"/><polygon class="cls-1" points="82.27 84.88 82.27 87.98 87.5 87.98 87.5 84.88 87.5 81.79 82.27 81.79 82.27 84.88"/><path class="cls-1" d="M91.07,82.27a2.62,2.62,0,1,1-2.62,2.61A2.61,2.61,0,0,1,91.07,82.27Z"/><polygon class="cls-1" points="113.19 84.88 113.19 87.98 118.42 87.98 118.42 84.88 118.42 81.79 113.19 81.79 113.19 84.88"/><path class="cls-1" d="M128.18,82.27a2.62,2.62,0,1,1-2.62,2.61A2.61,2.61,0,0,1,128.18,82.27Z"/><path class="cls-1" d="M143.16,85.36V81.79h-5.23v3.57a2.62,2.62,0,1,0,5.23,0Z"/><polygon class="cls-1" points="150.3 84.88 150.3 87.98 155.53 87.98 155.53 84.88 155.53 81.79 150.3 81.79 150.3 84.88"/><polygon class="cls-1" points="168.85 84.88 168.85 87.98 174.08 87.98 174.08 84.88 174.08 81.79 168.85 81.79 168.85 84.88"/><polygon class="cls-1" points="199.77 84.88 199.77 87.98 205.01 87.98 205.01 84.88 205.01 81.79 199.77 81.79 199.77 84.88"/><polygon class="cls-1" points="212.14 84.88 212.14 87.98 217.38 87.98 217.38 84.88 217.38 81.79 212.14 81.79 212.14 84.88"/><path class="cls-1" d="M223.56,85.36V81.79h-5.23v3.57a2.62,2.62,0,1,0,5.23,0Z"/><path class="cls-1" d="M224.51,84.41V88h5.23V84.41a2.62,2.62,0,1,0-5.23,0Z"/><path class="cls-1" d="M32.8,90.59v3.57H38V90.59a2.62,2.62,0,0,0-5.23,0Z"/><path class="cls-1" d="M54,88.45a2.62,2.62,0,1,1-2.61,2.62A2.62,2.62,0,0,1,54,88.45Z"/><path class="cls-1" d="M66.33,88.45a2.62,2.62,0,1,1-2.61,2.62A2.62,2.62,0,0,1,66.33,88.45Z"/><path class="cls-1" d="M69.9,90.59v3.57h5.23V90.59a2.62,2.62,0,0,0-5.23,0Z"/><path class="cls-1" d="M76.09,90.59v3.57h5.23V90.59a2.62,2.62,0,0,0-5.23,0Z"/><polygon class="cls-1" points="82.27 91.07 82.27 94.16 87.5 94.16 87.5 91.07 87.5 87.98 82.27 87.98 82.27 91.07"/><path class="cls-1" d="M97.26,88.45a2.62,2.62,0,1,1-2.62,2.62A2.61,2.61,0,0,1,97.26,88.45Z"/><path class="cls-1" d="M107,90.59v3.57h5.23V90.59a2.62,2.62,0,0,0-5.23,0Z"/><polygon class="cls-1" points="113.19 91.07 113.19 94.16 118.42 94.16 118.42 91.07 118.42 87.98 113.19 87.98 113.19 91.07"/><path class="cls-1" d="M119.38,90.59v3.57h5.23V90.59a2.62,2.62,0,0,0-5.23,0Z"/><path class="cls-1" d="M131.75,90.59v3.57H137V90.59a2.62,2.62,0,0,0-5.23,0Z"/><path class="cls-1" d="M155.53,91.54V88H150.3v3.56a2.62,2.62,0,1,0,5.23,0Z"/><path class="cls-1" d="M174.08,91.54V88h-5.23v3.56a2.62,2.62,0,1,0,5.23,0Z"/><path class="cls-1" d="M177.65,88.45A2.62,2.62,0,1,1,175,91.07,2.62,2.62,0,0,1,177.65,88.45Z"/><path class="cls-1" d="M181.22,90.59v3.57h5.23V90.59a2.62,2.62,0,0,0-5.23,0Z"/><path class="cls-1" d="M193.59,90.59v3.57h5.23V90.59a2.62,2.62,0,0,0-5.23,0Z"/><polygon class="cls-1" points="199.77 91.07 199.77 94.16 205.01 94.16 205.01 91.07 205.01 87.98 199.77 87.98 199.77 91.07"/><polygon class="cls-1" points="212.14 91.07 212.14 94.16 217.38 94.16 217.38 91.07 217.38 87.98 212.14 87.98 212.14 91.07"/><path class="cls-1" d="M229.74,91.54V88h-5.23v3.56a2.62,2.62,0,1,0,5.23,0Z"/><path class="cls-1" d="M230.7,90.59v3.57h5.23V90.59a2.62,2.62,0,0,0-5.23,0Z"/><path class="cls-1" d="M236.88,90.59v3.57h5.23V90.59a2.62,2.62,0,0,0-5.23,0Z"/><path class="cls-1" d="M26.61,96.78v3.57h5.23V96.78a2.62,2.62,0,1,0-5.23,0Z"/><path class="cls-1" d="M38,97.73V94.16H32.8v3.57a2.62,2.62,0,1,0,5.23,0Z"/><path class="cls-1" d="M39,96.78v3.57h5.23V96.78a2.62,2.62,0,1,0-5.23,0Z"/><path class="cls-1" d="M45.16,96.78v3.57H50.4V96.78a2.62,2.62,0,1,0-5.24,0Z"/><path class="cls-1" d="M57.53,96.78v3.57h5.23V96.78a2.62,2.62,0,1,0-5.23,0Z"/><polygon class="cls-1" points="69.9 97.25 69.9 100.34 75.13 100.34 75.13 97.25 75.13 94.16 69.9 94.16 69.9 97.25"/><polygon class="cls-1" points="76.09 97.25 76.09 100.34 81.32 100.34 81.32 97.25 81.32 94.16 76.09 94.16 76.09 97.25"/><polygon class="cls-1" points="82.27 97.25 82.27 100.34 87.5 100.34 87.5 97.25 87.5 94.16 82.27 94.16 82.27 97.25"/><path class="cls-1" d="M112.24,97.73V94.16H107v3.57a2.62,2.62,0,1,0,5.23,0Z"/><polygon class="cls-1" points="113.19 97.25 113.19 100.34 118.42 100.34 118.42 97.25 118.42 94.16 113.19 94.16 113.19 97.25"/><path class="cls-1" d="M124.61,97.73V94.16h-5.23v3.57a2.62,2.62,0,1,0,5.23,0Z"/><polygon class="cls-1" points="131.75 97.25 131.75 100.34 136.98 100.34 136.98 97.25 136.98 94.16 131.75 94.16 131.75 97.25"/><path class="cls-1" d="M144.11,96.78v3.57h5.24V96.78a2.62,2.62,0,1,0-5.24,0Z"/><path class="cls-1" d="M165.28,94.64a2.62,2.62,0,1,1-2.61,2.61A2.61,2.61,0,0,1,165.28,94.64Z"/><path class="cls-1" d="M186.45,97.73V94.16h-5.23v3.57a2.62,2.62,0,1,0,5.23,0Z"/><path class="cls-1" d="M190,94.64a2.62,2.62,0,1,1-2.61,2.61A2.61,2.61,0,0,1,190,94.64Z"/><polygon class="cls-1" points="193.59 97.25 193.59 100.34 198.82 100.34 198.82 97.25 198.82 94.16 193.59 94.16 193.59 97.25"/><path class="cls-1" d="M205,97.73V94.16h-5.24v3.57a2.62,2.62,0,0,0,5.24,0Z"/><path class="cls-1" d="M208.57,94.64A2.62,2.62,0,1,1,206,97.25,2.61,2.61,0,0,1,208.57,94.64Z"/><polygon class="cls-1" points="212.14 97.25 212.14 100.34 217.38 100.34 217.38 97.25 217.38 94.16 212.14 94.16 212.14 97.25"/><path class="cls-1" d="M220.94,94.64a2.62,2.62,0,1,1-2.61,2.61A2.61,2.61,0,0,1,220.94,94.64Z"/><path class="cls-1" d="M235.93,97.73V94.16H230.7v3.57a2.62,2.62,0,1,0,5.23,0Z"/><path class="cls-1" d="M242.11,97.73V94.16h-5.23v3.57a2.62,2.62,0,1,0,5.23,0Z"/><polygon class="cls-1" points="26.61 103.44 26.61 106.53 31.84 106.53 31.84 103.44 31.84 100.34 26.61 100.34 26.61 103.44"/><polygon class="cls-1" points="38.98 103.44 38.98 106.53 44.21 106.53 44.21 103.44 44.21 100.34 38.98 100.34 38.98 103.44"/><polygon class="cls-1" points="45.16 103.44 45.16 106.53 50.4 106.53 50.4 103.44 50.4 100.34 45.16 100.34 45.16 103.44"/><path class="cls-1" d="M54,100.82a2.62,2.62,0,1,1-2.61,2.62A2.62,2.62,0,0,1,54,100.82Z"/><path class="cls-1" d="M62.76,103.91v-3.56H57.53v3.56a2.62,2.62,0,1,0,5.23,0Z"/><path class="cls-1" d="M63.72,103v3.57H69V103a2.62,2.62,0,0,0-5.23,0Z"/><path class="cls-1" d="M75.13,103.91v-3.56H69.9v3.56a2.62,2.62,0,1,0,5.23,0Z"/><path class="cls-1" d="M81.32,103.91v-3.56H76.09v3.56a2.62,2.62,0,1,0,5.23,0Z"/><polygon class="cls-1" points="82.27 103.44 82.27 106.53 87.5 106.53 87.5 103.44 87.5 100.34 82.27 100.34 82.27 103.44"/><path class="cls-1" d="M94.64,103v3.57h5.23V103a2.62,2.62,0,0,0-5.23,0Z"/><path class="cls-1" d="M103.44,100.82a2.62,2.62,0,1,1-2.62,2.62A2.62,2.62,0,0,1,103.44,100.82Z"/><polygon class="cls-1" points="113.19 103.44 113.19 106.53 118.42 106.53 118.42 103.44 118.42 100.34 113.19 100.34 113.19 103.44"/><polygon class="cls-1" points="131.75 103.44 131.75 106.53 136.98 106.53 136.98 103.44 136.98 100.34 131.75 100.34 131.75 103.44"/><path class="cls-1" d="M137.93,103v3.57h5.23V103a2.62,2.62,0,0,0-5.23,0Z"/><path class="cls-1" d="M149.35,103.91v-3.56h-5.24v3.56a2.62,2.62,0,0,0,5.24,0Z"/><path class="cls-1" d="M198.82,103.91v-3.56h-5.23v3.56a2.62,2.62,0,1,0,5.23,0Z"/><polygon class="cls-1" points="212.14 103.44 212.14 106.53 217.38 106.53 217.38 103.44 217.38 100.34 212.14 100.34 212.14 103.44"/><path class="cls-1" d="M227.13,100.82a2.62,2.62,0,1,1-2.62,2.62A2.61,2.61,0,0,1,227.13,100.82Z"/><path class="cls-1" d="M14.24,109.15v3.57h5.23v-3.57a2.62,2.62,0,1,0-5.23,0Z"/><path class="cls-1" d="M20.43,109.15v3.57h5.23v-3.57a2.62,2.62,0,1,0-5.23,0Z"/><path class="cls-1" d="M31.84,110.1v-3.57H26.61v3.57a2.62,2.62,0,1,0,5.23,0Z"/><polygon class="cls-1" points="38.98 109.62 38.98 112.72 44.21 112.72 44.21 109.62 44.21 106.53 38.98 106.53 38.98 109.62"/><polygon class="cls-1" points="45.16 109.62 45.16 112.72 50.4 112.72 50.4 109.62 50.4 106.53 45.16 106.53 45.16 109.62"/><polygon class="cls-1" points="63.72 109.62 63.72 112.72 68.95 112.72 68.95 109.62 68.95 106.53 63.72 106.53 63.72 109.62"/><path class="cls-1" d="M87.5,110.1v-3.57H82.27v3.57a2.62,2.62,0,1,0,5.23,0Z"/><path class="cls-1" d="M99.87,110.1v-3.57H94.64v3.57a2.62,2.62,0,1,0,5.23,0Z"/><path class="cls-1" d="M118.42,110.1v-3.57h-5.23v3.57a2.62,2.62,0,1,0,5.23,0Z"/><polygon class="cls-1" points="131.75 109.62 131.75 112.72 136.98 112.72 136.98 109.62 136.98 106.53 131.75 106.53 131.75 109.62"/><path class="cls-1" d="M143.16,110.1v-3.57h-5.23v3.57a2.62,2.62,0,1,0,5.23,0Z"/><path class="cls-1" d="M165.28,107a2.62,2.62,0,1,1-2.61,2.61A2.61,2.61,0,0,1,165.28,107Z"/><path class="cls-1" d="M181.22,109.15v3.57h5.23v-3.57a2.62,2.62,0,1,0-5.23,0Z"/><path class="cls-1" d="M202.39,107a2.62,2.62,0,1,1-2.62,2.61A2.62,2.62,0,0,1,202.39,107Z"/><path class="cls-1" d="M208.57,107a2.62,2.62,0,1,1-2.61,2.61A2.61,2.61,0,0,1,208.57,107Z"/><path class="cls-1" d="M217.37,110.1v-3.57h-5.23v3.57a2.62,2.62,0,1,0,5.23,0Z"/><path class="cls-1" d="M233.31,107a2.62,2.62,0,1,1-2.61,2.61A2.61,2.61,0,0,1,233.31,107Z"/><path class="cls-1" d="M236.88,109.15v3.57h5.23v-3.57a2.62,2.62,0,1,0-5.23,0Z"/><path class="cls-1" d="M19.47,116.28v-3.56H14.24v3.56a2.62,2.62,0,1,0,5.23,0Z"/><path class="cls-1" d="M25.66,116.28v-3.56H20.43v3.56a2.62,2.62,0,1,0,5.23,0Z"/><path class="cls-1" d="M32.8,115.33v3.57H38v-3.57a2.62,2.62,0,0,0-5.23,0Z"/><polygon class="cls-1" points="38.98 115.81 38.98 118.9 44.21 118.9 44.21 115.81 44.21 112.72 38.98 112.72 38.98 115.81"/><path class="cls-1" d="M50.4,116.28v-3.56H45.16v3.56a2.62,2.62,0,1,0,5.24,0Z"/><path class="cls-1" d="M54,113.19a2.62,2.62,0,1,1-2.61,2.62A2.62,2.62,0,0,1,54,113.19Z"/><path class="cls-1" d="M69,116.28v-3.56H63.72v3.56a2.62,2.62,0,1,0,5.23,0Z"/><path class="cls-1" d="M109.62,113.19a2.62,2.62,0,1,1-2.61,2.62A2.62,2.62,0,0,1,109.62,113.19Z"/><path class="cls-1" d="M119.38,115.33v3.57h5.23v-3.57a2.62,2.62,0,0,0-5.23,0Z"/><polygon class="cls-1" points="131.75 115.81 131.75 118.9 136.98 118.9 136.98 115.81 136.98 112.72 131.75 112.72 131.75 115.81"/><path class="cls-1" d="M150.3,115.33v3.57h5.23v-3.57a2.62,2.62,0,0,0-5.23,0Z"/><path class="cls-1" d="M168.85,115.33v3.57h5.23v-3.57a2.62,2.62,0,0,0-5.23,0Z"/><path class="cls-1" d="M177.65,113.19a2.62,2.62,0,1,1-2.61,2.62A2.62,2.62,0,0,1,177.65,113.19Z"/><polygon class="cls-1" points="181.22 115.81 181.22 118.9 186.45 118.9 186.45 115.81 186.45 112.72 181.22 112.72 181.22 115.81"/><path class="cls-1" d="M190,113.19a2.62,2.62,0,1,1-2.61,2.62A2.62,2.62,0,0,1,190,113.19Z"/><path class="cls-1" d="M218.33,115.33v3.57h5.23v-3.57a2.62,2.62,0,0,0-5.23,0Z"/><path class="cls-1" d="M224.51,115.33v3.57h5.23v-3.57a2.62,2.62,0,0,0-5.23,0Z"/><polygon class="cls-1" points="236.88 115.81 236.88 118.9 242.11 118.9 242.11 115.81 242.11 112.72 236.88 112.72 236.88 115.81"/><path class="cls-1" d="M29.23,119.38A2.62,2.62,0,1,1,26.61,122,2.61,2.61,0,0,1,29.23,119.38Z"/><polygon class="cls-1" points="32.8 121.99 32.8 125.08 38.03 125.08 38.03 121.99 38.03 118.9 32.8 118.9 32.8 121.99"/><path class="cls-1" d="M44.21,122.47V118.9H39v3.57a2.62,2.62,0,0,0,5.23,0Z"/><path class="cls-1" d="M57.53,121.52v3.56h5.23v-3.56a2.62,2.62,0,1,0-5.23,0Z"/><path class="cls-1" d="M82.27,121.52v3.56H87.5v-3.56a2.62,2.62,0,1,0-5.23,0Z"/><path class="cls-1" d="M100.82,121.52v3.56h5.24v-3.56a2.62,2.62,0,0,0-5.24,0Z"/><path class="cls-1" d="M124.61,122.47V118.9h-5.23v3.57a2.62,2.62,0,0,0,5.23,0Z"/><path class="cls-1" d="M128.18,119.38a2.62,2.62,0,1,1-2.62,2.61A2.61,2.61,0,0,1,128.18,119.38Z"/><path class="cls-1" d="M137,122.47V118.9h-5.23v3.57a2.62,2.62,0,0,0,5.23,0Z"/><path class="cls-1" d="M144.11,121.52v3.56h5.24v-3.56a2.62,2.62,0,0,0-5.24,0Z"/><path class="cls-1" d="M155.53,122.47V118.9H150.3v3.57a2.62,2.62,0,0,0,5.23,0Z"/><path class="cls-1" d="M162.67,121.52v3.56h5.23v-3.56a2.62,2.62,0,1,0-5.23,0Z"/><polygon class="cls-1" points="168.85 121.99 168.85 125.08 174.08 125.08 174.08 121.99 174.08 118.9 168.85 118.9 168.85 121.99"/><polygon class="cls-1" points="181.22 121.99 181.22 125.08 186.45 125.08 186.45 121.99 186.45 118.9 181.22 118.9 181.22 121.99"/><path class="cls-1" d="M202.39,119.38a2.62,2.62,0,1,1-2.62,2.61A2.62,2.62,0,0,1,202.39,119.38Z"/><path class="cls-1" d="M223.56,122.47V118.9h-5.23v3.57a2.62,2.62,0,0,0,5.23,0Z"/><path class="cls-1" d="M229.74,122.47V118.9h-5.23v3.57a2.62,2.62,0,0,0,5.23,0Z"/><path class="cls-1" d="M230.7,121.52v3.56h5.23v-3.56a2.62,2.62,0,1,0-5.23,0Z"/><polygon class="cls-1" points="236.88 121.99 236.88 125.08 242.11 125.08 242.11 121.99 242.11 118.9 236.88 118.9 236.88 121.99"/><path class="cls-1" d="M16.86,125.56a2.62,2.62,0,1,1-2.62,2.62A2.61,2.61,0,0,1,16.86,125.56Z"/><path class="cls-1" d="M20.43,127.7v3.57h5.23V127.7a2.62,2.62,0,1,0-5.23,0Z"/><path class="cls-1" d="M38,128.65v-3.57H32.8v3.57a2.62,2.62,0,1,0,5.23,0Z"/><path class="cls-1" d="M54,125.56a2.62,2.62,0,1,1-2.61,2.62A2.62,2.62,0,0,1,54,125.56Z"/><polygon class="cls-1" points="57.53 128.18 57.53 131.27 62.77 131.27 62.77 128.18 62.77 125.08 57.53 125.08 57.53 128.18"/><path class="cls-1" d="M76.09,127.7v3.57h5.23V127.7a2.62,2.62,0,1,0-5.23,0Z"/><path class="cls-1" d="M87.5,128.65v-3.57H82.27v3.57a2.62,2.62,0,1,0,5.23,0Z"/><polygon class="cls-1" points="100.82 128.18 100.82 131.27 106.06 131.27 106.06 128.18 106.06 125.08 100.82 125.08 100.82 128.18"/><path class="cls-1" d="M137.93,127.7v3.57h5.23V127.7a2.62,2.62,0,1,0-5.23,0Z"/><path class="cls-1" d="M149.35,128.65v-3.57h-5.24v3.57a2.62,2.62,0,0,0,5.24,0Z"/><path class="cls-1" d="M159.1,125.56a2.62,2.62,0,1,1-2.62,2.62A2.62,2.62,0,0,1,159.1,125.56Z"/><polygon class="cls-1" points="162.67 128.18 162.67 131.27 167.9 131.27 167.9 128.18 167.9 125.08 162.67 125.08 162.67 128.18"/><path class="cls-1" d="M174.08,128.65v-3.57h-5.23v3.57a2.62,2.62,0,1,0,5.23,0Z"/><path class="cls-1" d="M186.45,128.65v-3.57h-5.23v3.57a2.62,2.62,0,1,0,5.23,0Z"/><path class="cls-1" d="M190,125.56a2.62,2.62,0,1,1-2.61,2.62A2.62,2.62,0,0,1,190,125.56Z"/><path class="cls-1" d="M196.21,125.56a2.62,2.62,0,1,1-2.62,2.62A2.61,2.61,0,0,1,196.21,125.56Z"/><path class="cls-1" d="M206,127.7v3.57h5.23V127.7a2.62,2.62,0,1,0-5.23,0Z"/><path class="cls-1" d="M214.76,125.56a2.62,2.62,0,1,1-2.62,2.62A2.61,2.61,0,0,1,214.76,125.56Z"/><polygon class="cls-1" points="230.7 128.18 230.7 131.27 235.93 131.27 235.93 128.18 235.93 125.08 230.7 125.08 230.7 128.18"/><path class="cls-1" d="M242.11,128.65v-3.57h-5.23v3.57a2.62,2.62,0,1,0,5.23,0Z"/><polygon class="cls-1" points="20.43 134.36 20.43 137.45 25.66 137.45 25.66 134.36 25.66 131.27 20.43 131.27 20.43 134.36"/><path class="cls-1" d="M26.61,133.89v3.56h5.23v-3.56a2.62,2.62,0,1,0-5.23,0Z"/><path class="cls-1" d="M47.78,131.75a2.62,2.62,0,1,1-2.62,2.61A2.62,2.62,0,0,1,47.78,131.75Z"/><polygon class="cls-1" points="57.53 134.36 57.53 137.45 62.77 137.45 62.77 134.36 62.77 131.27 57.53 131.27 57.53 134.36"/><path class="cls-1" d="M66.33,131.75a2.62,2.62,0,1,1-2.61,2.61A2.61,2.61,0,0,1,66.33,131.75Z"/><path class="cls-1" d="M69.9,133.89v3.56h5.23v-3.56a2.62,2.62,0,1,0-5.23,0Z"/><path class="cls-1" d="M81.32,134.84v-3.57H76.09v3.57a2.62,2.62,0,0,0,5.23,0Z"/><path class="cls-1" d="M94.64,133.89v3.56h5.23v-3.56a2.62,2.62,0,1,0-5.23,0Z"/><polygon class="cls-1" points="100.82 134.36 100.82 137.45 106.06 137.45 106.06 134.36 106.06 131.27 100.82 131.27 100.82 134.36"/><path class="cls-1" d="M107,133.89v3.56h5.23v-3.56a2.62,2.62,0,1,0-5.23,0Z"/><path class="cls-1" d="M113.19,133.89v3.56h5.23v-3.56a2.62,2.62,0,1,0-5.23,0Z"/><path class="cls-1" d="M119.38,133.89v3.56h5.23v-3.56a2.62,2.62,0,1,0-5.23,0Z"/><path class="cls-1" d="M125.56,133.89v3.56h5.23v-3.56a2.62,2.62,0,1,0-5.23,0Z"/><path class="cls-1" d="M143.16,134.84v-3.57h-5.23v3.57a2.62,2.62,0,0,0,5.23,0Z"/><path class="cls-1" d="M152.91,131.75a2.62,2.62,0,1,1-2.61,2.61A2.61,2.61,0,0,1,152.91,131.75Z"/><path class="cls-1" d="M167.9,134.84v-3.57h-5.23v3.57a2.62,2.62,0,0,0,5.23,0Z"/><path class="cls-1" d="M202.39,131.75a2.62,2.62,0,1,1-2.62,2.61A2.62,2.62,0,0,1,202.39,131.75Z"/><polygon class="cls-1" points="205.96 134.36 205.96 137.45 211.19 137.45 211.19 134.36 211.19 131.27 205.96 131.27 205.96 134.36"/><path class="cls-1" d="M220.94,131.75a2.62,2.62,0,1,1-2.61,2.61A2.61,2.61,0,0,1,220.94,131.75Z"/><path class="cls-1" d="M235.93,134.84v-3.57H230.7v3.57a2.62,2.62,0,0,0,5.23,0Z"/><path class="cls-1" d="M25.66,141v-3.57H20.43V141a2.62,2.62,0,1,0,5.23,0Z"/><polygon class="cls-1" points="26.61 140.55 26.61 143.64 31.84 143.64 31.84 140.55 31.84 137.45 26.61 137.45 26.61 140.55"/><path class="cls-1" d="M54,137.93a2.62,2.62,0,1,1-2.61,2.62A2.62,2.62,0,0,1,54,137.93Z"/><polygon class="cls-1" points="57.53 140.55 57.53 143.64 62.77 143.64 62.77 140.55 62.77 137.45 57.53 137.45 57.53 140.55"/><polygon class="cls-1" points="69.9 140.55 69.9 143.64 75.13 143.64 75.13 140.55 75.13 137.45 69.9 137.45 69.9 140.55"/><path class="cls-1" d="M99.87,141v-3.57H94.64V141a2.62,2.62,0,1,0,5.23,0Z"/><polygon class="cls-1" points="100.82 140.55 100.82 143.64 106.06 143.64 106.06 140.55 106.06 137.45 100.82 137.45 100.82 140.55"/><path class="cls-1" d="M112.24,141v-3.57H107V141a2.62,2.62,0,1,0,5.23,0Z"/><polygon class="cls-1" points="113.19 140.55 113.19 143.64 118.42 143.64 118.42 140.55 118.42 137.45 113.19 137.45 113.19 140.55"/><polygon class="cls-1" points="119.38 140.55 119.38 143.64 124.61 143.64 124.61 140.55 124.61 137.45 119.38 137.45 119.38 140.55"/><polygon class="cls-1" points="125.56 140.55 125.56 143.64 130.79 143.64 130.79 140.55 130.79 137.45 125.56 137.45 125.56 140.55"/><path class="cls-1" d="M131.75,140.07v3.57H137v-3.57a2.62,2.62,0,1,0-5.23,0Z"/><path class="cls-1" d="M144.11,140.07v3.57h5.24v-3.57a2.62,2.62,0,1,0-5.24,0Z"/><path class="cls-1" d="M156.48,140.07v3.57h5.24v-3.57a2.62,2.62,0,0,0-5.24,0Z"/><path class="cls-1" d="M183.84,137.93a2.62,2.62,0,1,1-2.62,2.62A2.61,2.61,0,0,1,183.84,137.93Z"/><path class="cls-1" d="M187.41,140.07v3.57h5.23v-3.57a2.62,2.62,0,1,0-5.23,0Z"/><path class="cls-1" d="M196.21,137.93a2.62,2.62,0,1,1-2.62,2.62A2.61,2.61,0,0,1,196.21,137.93Z"/><path class="cls-1" d="M211.19,141v-3.57H206V141a2.62,2.62,0,1,0,5.23,0Z"/><path class="cls-1" d="M214.76,137.93a2.62,2.62,0,1,1-2.62,2.62A2.61,2.61,0,0,1,214.76,137.93Z"/><path class="cls-1" d="M239.5,137.93a2.62,2.62,0,1,1-2.62,2.62A2.61,2.61,0,0,1,239.5,137.93Z"/><path class="cls-1" d="M16.86,144.12a2.62,2.62,0,1,1-2.62,2.61A2.61,2.61,0,0,1,16.86,144.12Z"/><polygon class="cls-1" points="26.61 146.73 26.61 149.82 31.84 149.82 31.84 146.73 31.84 143.64 26.61 143.64 26.61 146.73"/><path class="cls-1" d="M35.41,144.12a2.62,2.62,0,1,1-2.61,2.61A2.61,2.61,0,0,1,35.41,144.12Z"/><path class="cls-1" d="M45.16,146.26v3.56H50.4v-3.56a2.62,2.62,0,1,0-5.24,0Z"/><path class="cls-1" d="M62.76,147.21v-3.57H57.53v3.57a2.62,2.62,0,0,0,5.23,0Z"/><path class="cls-1" d="M75.13,147.21v-3.57H69.9v3.57a2.62,2.62,0,0,0,5.23,0Z"/><path class="cls-1" d="M84.89,144.12a2.62,2.62,0,1,1-2.62,2.61A2.61,2.61,0,0,1,84.89,144.12Z"/><polygon class="cls-1" points="100.82 146.73 100.82 149.82 106.06 149.82 106.06 146.73 106.06 143.64 100.82 143.64 100.82 146.73"/><polygon class="cls-1" points="113.19 146.73 113.19 149.82 118.42 149.82 118.42 146.73 118.42 143.64 113.19 143.64 113.19 146.73"/><path class="cls-1" d="M124.61,147.21v-3.57h-5.23v3.57a2.62,2.62,0,0,0,5.23,0Z"/><polygon class="cls-1" points="125.56 146.73 125.56 149.82 130.79 149.82 130.79 146.73 130.79 143.64 125.56 143.64 125.56 146.73"/><path class="cls-1" d="M137,147.21v-3.57h-5.23v3.57a2.62,2.62,0,0,0,5.23,0Z"/><path class="cls-1" d="M137.93,146.26v3.56h5.23v-3.56a2.62,2.62,0,1,0-5.23,0Z"/><path class="cls-1" d="M149.35,147.21v-3.57h-5.24v3.57a2.62,2.62,0,0,0,5.24,0Z"/><polygon class="cls-1" points="156.48 146.73 156.48 149.82 161.72 149.82 161.72 146.73 161.72 143.64 156.48 143.64 156.48 146.73"/><path class="cls-1" d="M168.85,146.26v3.56h5.23v-3.56a2.62,2.62,0,1,0-5.23,0Z"/><path class="cls-1" d="M192.64,147.21v-3.57h-5.23v3.57a2.62,2.62,0,0,0,5.23,0Z"/><path class="cls-1" d="M220.94,144.12a2.62,2.62,0,1,1-2.61,2.61A2.61,2.61,0,0,1,220.94,144.12Z"/><path class="cls-1" d="M20.43,152.44V156h5.23v-3.57a2.62,2.62,0,1,0-5.23,0Z"/><polygon class="cls-1" points="26.61 152.92 26.61 156.01 31.84 156.01 31.84 152.92 31.84 149.82 26.61 149.82 26.61 152.92"/><path class="cls-1" d="M39,152.44V156h5.23v-3.57a2.62,2.62,0,1,0-5.23,0Z"/><path class="cls-1" d="M50.4,153.39v-3.57H45.16v3.57a2.62,2.62,0,1,0,5.24,0Z"/><path class="cls-1" d="M54,150.3a2.62,2.62,0,1,1-2.61,2.62A2.62,2.62,0,0,1,54,150.3Z"/><path class="cls-1" d="M91.07,150.3a2.62,2.62,0,1,1-2.62,2.62A2.62,2.62,0,0,1,91.07,150.3Z"/><path class="cls-1" d="M97.26,150.3a2.62,2.62,0,1,1-2.62,2.62A2.61,2.61,0,0,1,97.26,150.3Z"/><path class="cls-1" d="M106.06,153.39v-3.57h-5.24v3.57a2.62,2.62,0,0,0,5.24,0Z"/><path class="cls-1" d="M118.42,153.39v-3.57h-5.23v3.57a2.62,2.62,0,1,0,5.23,0Z"/><path class="cls-1" d="M130.79,153.39v-3.57h-5.23v3.57a2.62,2.62,0,1,0,5.23,0Z"/><path class="cls-1" d="M143.16,153.39v-3.57h-5.23v3.57a2.62,2.62,0,1,0,5.23,0Z"/><path class="cls-1" d="M161.72,153.39v-3.57h-5.24v3.57a2.62,2.62,0,0,0,5.24,0Z"/><polygon class="cls-1" points="168.85 152.92 168.85 156.01 174.08 156.01 174.08 152.92 174.08 149.82 168.85 149.82 168.85 152.92"/><path class="cls-1" d="M208.57,150.3a2.62,2.62,0,1,1-2.61,2.62A2.62,2.62,0,0,1,208.57,150.3Z"/><path class="cls-1" d="M25.66,159.58V156H20.43v3.57a2.62,2.62,0,0,0,5.23,0Z"/><polygon class="cls-1" points="26.61 159.1 26.61 162.19 31.84 162.19 31.84 159.1 31.84 156.01 26.61 156.01 26.61 159.1"/><path class="cls-1" d="M32.8,158.63v3.56H38v-3.56a2.62,2.62,0,1,0-5.23,0Z"/><path class="cls-1" d="M44.21,159.58V156H39v3.57a2.62,2.62,0,0,0,5.23,0Z"/><path class="cls-1" d="M76.09,158.63v3.56h5.23v-3.56a2.62,2.62,0,1,0-5.23,0Z"/><path class="cls-1" d="M84.89,156.49a2.62,2.62,0,1,1-2.62,2.61A2.61,2.61,0,0,1,84.89,156.49Z"/><path class="cls-1" d="M109.62,156.49A2.62,2.62,0,1,1,107,159.1,2.61,2.61,0,0,1,109.62,156.49Z"/><path class="cls-1" d="M122,156.49a2.62,2.62,0,1,1-2.61,2.61A2.61,2.61,0,0,1,122,156.49Z"/><path class="cls-1" d="M162.67,158.63v3.56h5.23v-3.56a2.62,2.62,0,1,0-5.23,0Z"/><polygon class="cls-1" points="168.85 159.1 168.85 162.19 174.08 162.19 174.08 159.1 174.08 156.01 168.85 156.01 168.85 159.1"/><path class="cls-1" d="M181.22,158.63v3.56h5.23v-3.56a2.62,2.62,0,1,0-5.23,0Z"/><path class="cls-1" d="M196.21,156.49a2.62,2.62,0,1,1-2.62,2.61A2.61,2.61,0,0,1,196.21,156.49Z"/><path class="cls-1" d="M212.14,158.63v3.56h5.23v-3.56a2.62,2.62,0,1,0-5.23,0Z"/><path class="cls-1" d="M220.94,156.49a2.62,2.62,0,1,1-2.61,2.61A2.61,2.61,0,0,1,220.94,156.49Z"/><path class="cls-1" d="M224.51,158.63v3.56h5.23v-3.56a2.62,2.62,0,1,0-5.23,0Z"/><path class="cls-1" d="M233.31,156.49a2.62,2.62,0,1,1-2.61,2.61A2.61,2.61,0,0,1,233.31,156.49Z"/><path class="cls-1" d="M16.86,162.67a2.62,2.62,0,1,1-2.62,2.62A2.61,2.61,0,0,1,16.86,162.67Z"/><polygon class="cls-1" points="26.61 165.29 26.61 168.38 31.84 168.38 31.84 165.29 31.84 162.19 26.61 162.19 26.61 165.29"/><path class="cls-1" d="M38,165.76v-3.57H32.8v3.57a2.62,2.62,0,1,0,5.23,0Z"/><path class="cls-1" d="M54,162.67a2.62,2.62,0,1,1-2.61,2.62A2.62,2.62,0,0,1,54,162.67Z"/><path class="cls-1" d="M57.53,164.81v3.57h5.23v-3.57a2.62,2.62,0,1,0-5.23,0Z"/><path class="cls-1" d="M63.72,164.81v3.57H69v-3.57a2.62,2.62,0,1,0-5.23,0Z"/><polygon class="cls-1" points="76.09 165.29 76.09 168.38 81.32 168.38 81.32 165.29 81.32 162.19 76.09 162.19 76.09 165.29"/><path class="cls-1" d="M88.45,164.81v3.57h5.24v-3.57a2.62,2.62,0,0,0-5.24,0Z"/><path class="cls-1" d="M115.81,162.67a2.62,2.62,0,1,1-2.62,2.62A2.61,2.61,0,0,1,115.81,162.67Z"/><path class="cls-1" d="M144.11,164.81v3.57h5.24v-3.57a2.62,2.62,0,0,0-5.24,0Z"/><path class="cls-1" d="M167.9,165.76v-3.57h-5.23v3.57a2.62,2.62,0,1,0,5.23,0Z"/><polygon class="cls-1" points="168.85 165.29 168.85 168.38 174.08 168.38 174.08 165.29 174.08 162.19 168.85 162.19 168.85 165.29"/><path class="cls-1" d="M175,164.81v3.57h5.23v-3.57a2.62,2.62,0,1,0-5.23,0Z"/><polygon class="cls-1" points="181.22 165.29 181.22 168.38 186.45 168.38 186.45 165.29 186.45 162.19 181.22 162.19 181.22 165.29"/><path class="cls-1" d="M199.77,164.81v3.57H205v-3.57a2.62,2.62,0,1,0-5.24,0Z"/><polygon class="cls-1" points="212.14 165.29 212.14 168.38 217.38 168.38 217.38 165.29 217.38 162.19 212.14 162.19 212.14 165.29"/><polygon class="cls-1" points="224.51 165.29 224.51 168.38 229.74 168.38 229.74 165.29 229.74 162.19 224.51 162.19 224.51 165.29"/><path class="cls-1" d="M236.88,164.81v3.57h5.23v-3.57a2.62,2.62,0,1,0-5.23,0Z"/><polygon class="cls-1" points="26.61 171.47 26.61 174.56 31.84 174.56 31.84 171.47 31.84 168.38 26.61 168.38 26.61 171.47"/><path class="cls-1" d="M45.16,171v3.57H50.4V171a2.62,2.62,0,0,0-5.24,0Z"/><path class="cls-1" d="M62.76,172v-3.57H57.53V172a2.62,2.62,0,0,0,5.23,0Z"/><polygon class="cls-1" points="63.72 171.47 63.72 174.56 68.95 174.56 68.95 171.47 68.95 168.38 63.72 168.38 63.72 171.47"/><path class="cls-1" d="M72.52,168.85a2.62,2.62,0,1,1-2.62,2.62A2.62,2.62,0,0,1,72.52,168.85Z"/><path class="cls-1" d="M81.32,172v-3.57H76.09V172a2.62,2.62,0,0,0,5.23,0Z"/><path class="cls-1" d="M84.89,168.85a2.62,2.62,0,1,1-2.62,2.62A2.62,2.62,0,0,1,84.89,168.85Z"/><path class="cls-1" d="M93.69,172v-3.57H88.45V172a2.62,2.62,0,0,0,5.24,0Z"/><path class="cls-1" d="M97.26,168.85a2.62,2.62,0,1,1-2.62,2.62A2.62,2.62,0,0,1,97.26,168.85Z"/><path class="cls-1" d="M103.44,168.85a2.62,2.62,0,1,1-2.62,2.62A2.63,2.63,0,0,1,103.44,168.85Z"/><path class="cls-1" d="M122,168.85a2.62,2.62,0,1,1-2.61,2.62A2.62,2.62,0,0,1,122,168.85Z"/><polygon class="cls-1" points="144.11 171.47 144.11 174.56 149.35 174.56 149.35 171.47 149.35 168.38 144.11 168.38 144.11 171.47"/><path class="cls-1" d="M152.91,168.85a2.62,2.62,0,1,1-2.61,2.62A2.62,2.62,0,0,1,152.91,168.85Z"/><path class="cls-1" d="M159.1,168.85a2.62,2.62,0,1,1-2.62,2.62A2.63,2.63,0,0,1,159.1,168.85Z"/><path class="cls-1" d="M174.08,172v-3.57h-5.23V172a2.62,2.62,0,0,0,5.23,0Z"/><polygon class="cls-1" points="175.04 171.47 175.04 174.56 180.27 174.56 180.27 171.47 180.27 168.38 175.04 168.38 175.04 171.47"/><path class="cls-1" d="M186.45,172v-3.57h-5.23V172a2.62,2.62,0,0,0,5.23,0Z"/><path class="cls-1" d="M190,168.85a2.62,2.62,0,1,1-2.61,2.62A2.62,2.62,0,0,1,190,168.85Z"/><path class="cls-1" d="M196.21,168.85a2.62,2.62,0,1,1-2.62,2.62A2.62,2.62,0,0,1,196.21,168.85Z"/><path class="cls-1" d="M205,172v-3.57h-5.24V172a2.62,2.62,0,0,0,5.24,0Z"/><path class="cls-1" d="M208.57,168.85a2.62,2.62,0,1,1-2.61,2.62A2.62,2.62,0,0,1,208.57,168.85Z"/><polygon class="cls-1" points="212.14 171.47 212.14 174.56 217.38 174.56 217.38 171.47 217.38 168.38 212.14 168.38 212.14 171.47"/><path class="cls-1" d="M220.94,168.85a2.62,2.62,0,1,1-2.61,2.62A2.62,2.62,0,0,1,220.94,168.85Z"/><path class="cls-1" d="M229.74,172v-3.57h-5.23V172a2.62,2.62,0,0,0,5.23,0Z"/><path class="cls-1" d="M230.7,171v3.57h5.23V171a2.62,2.62,0,0,0-5.23,0Z"/><path class="cls-1" d="M242.11,172v-3.57h-5.23V172a2.62,2.62,0,0,0,5.23,0Z"/><path class="cls-1" d="M23,175a2.62,2.62,0,1,1-2.61,2.62A2.62,2.62,0,0,1,23,175Z"/><path class="cls-1" d="M31.84,178.13v-3.57H26.61v3.57a2.62,2.62,0,1,0,5.23,0Z"/><polygon class="cls-1" points="45.16 177.66 45.16 180.75 50.4 180.75 50.4 177.66 50.4 174.56 45.16 174.56 45.16 177.66"/><path class="cls-1" d="M54,175a2.62,2.62,0,1,1-2.61,2.62A2.62,2.62,0,0,1,54,175Z"/><path class="cls-1" d="M69,178.13v-3.57H63.72v3.57a2.62,2.62,0,1,0,5.23,0Z"/><polygon class="cls-1" points="144.11 177.66 144.11 180.75 149.35 180.75 149.35 177.66 149.35 174.56 144.11 174.56 144.11 177.66"/><path class="cls-1" d="M165.28,175a2.62,2.62,0,1,1-2.61,2.62A2.62,2.62,0,0,1,165.28,175Z"/><path class="cls-1" d="M180.27,178.13v-3.57H175v3.57a2.62,2.62,0,1,0,5.23,0Z"/><path class="cls-1" d="M217.37,178.13v-3.57h-5.23v3.57a2.62,2.62,0,1,0,5.23,0Z"/><path class="cls-1" d="M235.93,178.13v-3.57H230.7v3.57a2.62,2.62,0,1,0,5.23,0Z"/><path class="cls-1" d="M16.86,181.22a2.62,2.62,0,1,1-2.62,2.62A2.62,2.62,0,0,1,16.86,181.22Z"/><path class="cls-1" d="M35.41,181.22a2.62,2.62,0,1,1-2.61,2.62A2.62,2.62,0,0,1,35.41,181.22Z"/><path class="cls-1" d="M41.6,181.22A2.62,2.62,0,1,1,39,183.84,2.62,2.62,0,0,1,41.6,181.22Z"/><path class="cls-1" d="M50.4,184.32v-3.57H45.16v3.57a2.62,2.62,0,0,0,5.24,0Z"/><path class="cls-1" d="M72.52,181.22a2.62,2.62,0,1,1-2.62,2.62A2.62,2.62,0,0,1,72.52,181.22Z"/><path class="cls-1" d="M76.09,183.36v3.57h5.23v-3.57a2.62,2.62,0,0,0-5.23,0Z"/><path class="cls-1" d="M84.89,181.22a2.62,2.62,0,1,1-2.62,2.62A2.62,2.62,0,0,1,84.89,181.22Z"/><path class="cls-1" d="M103.44,181.22a2.62,2.62,0,1,1-2.62,2.62A2.63,2.63,0,0,1,103.44,181.22Z"/><path class="cls-1" d="M109.62,181.22a2.62,2.62,0,1,1-2.61,2.62A2.62,2.62,0,0,1,109.62,181.22Z"/><path class="cls-1" d="M131.75,183.36v3.57H137v-3.57a2.62,2.62,0,0,0-5.23,0Z"/><path class="cls-1" d="M140.55,181.22a2.62,2.62,0,1,1-2.62,2.62A2.62,2.62,0,0,1,140.55,181.22Z"/><polygon class="cls-1" points="144.11 183.84 144.11 186.93 149.35 186.93 149.35 183.84 149.35 180.75 144.11 180.75 144.11 183.84"/><path class="cls-1" d="M152.91,181.22a2.62,2.62,0,1,1-2.61,2.62A2.62,2.62,0,0,1,152.91,181.22Z"/><path class="cls-1" d="M159.1,181.22a2.62,2.62,0,1,1-2.62,2.62A2.63,2.63,0,0,1,159.1,181.22Z"/><path class="cls-1" d="M187.41,183.36v3.57h5.23v-3.57a2.62,2.62,0,0,0-5.23,0Z"/><path class="cls-1" d="M193.59,183.36v3.57h5.23v-3.57a2.62,2.62,0,0,0-5.23,0Z"/><path class="cls-1" d="M199.77,183.36v3.57H205v-3.57a2.62,2.62,0,0,0-5.24,0Z"/><path class="cls-1" d="M220.94,181.22a2.62,2.62,0,1,1-2.61,2.62A2.62,2.62,0,0,1,220.94,181.22Z"/><path class="cls-1" d="M239.5,181.22a2.62,2.62,0,1,1-2.62,2.62A2.62,2.62,0,0,1,239.5,181.22Z"/><path class="cls-1" d="M29.23,187.41A2.62,2.62,0,1,1,26.61,190,2.61,2.61,0,0,1,29.23,187.41Z"/><path class="cls-1" d="M54,187.41A2.62,2.62,0,1,1,51.35,190,2.62,2.62,0,0,1,54,187.41Z"/><path class="cls-1" d="M63.72,189.55v3.57H69v-3.57a2.62,2.62,0,1,0-5.23,0Z"/><polygon class="cls-1" points="76.09 190.03 76.09 193.12 81.32 193.12 81.32 190.03 81.32 186.93 76.09 186.93 76.09 190.03"/><path class="cls-1" d="M88.45,189.55v3.57h5.24v-3.57a2.62,2.62,0,0,0-5.24,0Z"/><path class="cls-1" d="M137,190.5v-3.57h-5.23v3.57a2.62,2.62,0,1,0,5.23,0Z"/><polygon class="cls-1" points="144.11 190.03 144.11 193.12 149.35 193.12 149.35 190.03 149.35 186.93 144.11 186.93 144.11 190.03"/><path class="cls-1" d="M162.67,189.55v3.57h5.23v-3.57a2.62,2.62,0,1,0-5.23,0Z"/><path class="cls-1" d="M171.47,187.41a2.62,2.62,0,1,1-2.62,2.62A2.61,2.61,0,0,1,171.47,187.41Z"/><polygon class="cls-1" points="187.41 190.03 187.41 193.12 192.64 193.12 192.64 190.03 192.64 186.93 187.41 186.93 187.41 190.03"/><path class="cls-1" d="M198.82,190.5v-3.57h-5.23v3.57a2.62,2.62,0,1,0,5.23,0Z"/><path class="cls-1" d="M205,190.5v-3.57h-5.24v3.57a2.62,2.62,0,0,0,5.24,0Z"/><path class="cls-1" d="M208.57,187.41A2.62,2.62,0,1,1,206,190,2.62,2.62,0,0,1,208.57,187.41Z"/><path class="cls-1" d="M212.14,189.55v3.57h5.23v-3.57a2.62,2.62,0,1,0-5.23,0Z"/><path class="cls-1" d="M224.51,189.55v3.57h5.23v-3.57a2.62,2.62,0,1,0-5.23,0Z"/><path class="cls-1" d="M233.31,187.41A2.62,2.62,0,1,1,230.7,190,2.62,2.62,0,0,1,233.31,187.41Z"/><polygon class="cls-1" points="63.72 196.21 63.72 199.3 68.95 199.3 68.95 196.21 68.95 193.12 63.72 193.12 63.72 196.21"/><path class="cls-1" d="M69.9,195.73v3.57h5.23v-3.57a2.62,2.62,0,0,0-5.23,0Z"/><polygon class="cls-1" points="76.09 196.21 76.09 199.3 81.32 199.3 81.32 196.21 81.32 193.12 76.09 193.12 76.09 196.21"/><path class="cls-1" d="M93.69,196.69v-3.57H88.45v3.57a2.62,2.62,0,0,0,5.24,0Z"/><path class="cls-1" d="M97.26,193.59a2.62,2.62,0,1,1-2.62,2.62A2.62,2.62,0,0,1,97.26,193.59Z"/><path class="cls-1" d="M107,195.73v3.57h5.23v-3.57a2.62,2.62,0,0,0-5.23,0Z"/><path class="cls-1" d="M140.55,193.59a2.62,2.62,0,1,1-2.62,2.62A2.62,2.62,0,0,1,140.55,193.59Z"/><path class="cls-1" d="M149.35,196.69v-3.57h-5.24v3.57a2.62,2.62,0,0,0,5.24,0Z"/><path class="cls-1" d="M150.3,195.73v3.57h5.23v-3.57a2.62,2.62,0,0,0-5.23,0Z"/><path class="cls-1" d="M159.1,193.59a2.62,2.62,0,1,1-2.62,2.62A2.63,2.63,0,0,1,159.1,193.59Z"/><path class="cls-1" d="M167.9,196.69v-3.57h-5.23v3.57a2.62,2.62,0,0,0,5.23,0Z"/><path class="cls-1" d="M183.84,193.59a2.62,2.62,0,1,1-2.62,2.62A2.62,2.62,0,0,1,183.84,193.59Z"/><polygon class="cls-1" points="187.41 196.21 187.41 199.3 192.64 199.3 192.64 196.21 192.64 193.12 187.41 193.12 187.41 196.21"/><polygon class="cls-1" points="212.14 196.21 212.14 199.3 217.38 199.3 217.38 196.21 217.38 193.12 212.14 193.12 212.14 196.21"/><polygon class="cls-1" points="224.51 196.21 224.51 199.3 229.74 199.3 229.74 196.21 229.74 193.12 224.51 193.12 224.51 196.21"/><path class="cls-1" d="M236.88,195.73v3.57h5.23v-3.57a2.62,2.62,0,0,0-5.23,0Z"/><polygon class="cls-1" points="63.72 202.4 63.72 205.49 68.95 205.49 68.95 202.4 68.95 199.3 63.72 199.3 63.72 202.4"/><polygon class="cls-1" points="69.9 202.4 69.9 205.49 75.13 205.49 75.13 202.4 75.13 199.3 69.9 199.3 69.9 202.4"/><polygon class="cls-1" points="76.09 202.4 76.09 205.49 81.32 205.49 81.32 202.4 81.32 199.3 76.09 199.3 76.09 202.4"/><path class="cls-1" d="M84.89,199.78a2.62,2.62,0,1,1-2.62,2.62A2.61,2.61,0,0,1,84.89,199.78Z"/><polygon class="cls-1" points="107.01 202.4 107.01 205.49 112.24 205.49 112.24 202.4 112.24 199.3 107.01 199.3 107.01 202.4"/><path class="cls-1" d="M115.81,199.78a2.62,2.62,0,1,1-2.62,2.62A2.61,2.61,0,0,1,115.81,199.78Z"/><path class="cls-1" d="M125.56,201.92v3.57h5.23v-3.57a2.62,2.62,0,1,0-5.23,0Z"/><path class="cls-1" d="M155.53,202.87V199.3H150.3v3.57a2.62,2.62,0,1,0,5.23,0Z"/><polygon class="cls-1" points="187.41 202.4 187.41 205.49 192.64 205.49 192.64 202.4 192.64 199.3 187.41 199.3 187.41 202.4"/><path class="cls-1" d="M202.39,199.78a2.62,2.62,0,1,1-2.62,2.62A2.62,2.62,0,0,1,202.39,199.78Z"/><polygon class="cls-1" points="212.14 202.4 212.14 205.49 217.38 205.49 217.38 202.4 217.38 199.3 212.14 199.3 212.14 202.4"/><path class="cls-1" d="M229.74,202.87V199.3h-5.23v3.57a2.62,2.62,0,1,0,5.23,0Z"/><path class="cls-1" d="M230.7,201.92v3.57h5.23v-3.57a2.62,2.62,0,1,0-5.23,0Z"/><path class="cls-1" d="M242.11,202.87V199.3h-5.23v3.57a2.62,2.62,0,1,0,5.23,0Z"/><path class="cls-1" d="M69,209.06v-3.57H63.72v3.57a2.62,2.62,0,0,0,5.23,0Z"/><polygon class="cls-1" points="69.9 208.58 69.9 211.67 75.13 211.67 75.13 208.58 75.13 205.49 69.9 205.49 69.9 208.58"/><polygon class="cls-1" points="76.09 208.58 76.09 211.67 81.32 211.67 81.32 208.58 81.32 205.49 76.09 205.49 76.09 208.58"/><path class="cls-1" d="M100.82,208.1v3.57h5.24V208.1a2.62,2.62,0,0,0-5.24,0Z"/><path class="cls-1" d="M112.24,209.06v-3.57H107v3.57a2.62,2.62,0,0,0,5.23,0Z"/><path class="cls-1" d="M122,206a2.62,2.62,0,1,1-2.61,2.62A2.62,2.62,0,0,1,122,206Z"/><path class="cls-1" d="M130.79,209.06v-3.57h-5.23v3.57a2.62,2.62,0,0,0,5.23,0Z"/><path class="cls-1" d="M137.93,208.1v3.57h5.23V208.1a2.62,2.62,0,0,0-5.23,0Z"/><path class="cls-1" d="M146.73,206a2.62,2.62,0,1,1-2.62,2.62A2.62,2.62,0,0,1,146.73,206Z"/><path class="cls-1" d="M156.48,208.1v3.57h5.24V208.1a2.62,2.62,0,0,0-5.24,0Z"/><path class="cls-1" d="M183.84,206a2.62,2.62,0,1,1-2.62,2.62A2.62,2.62,0,0,1,183.84,206Z"/><polygon class="cls-1" points="187.41 208.58 187.41 211.67 192.64 211.67 192.64 208.58 192.64 205.49 187.41 205.49 187.41 208.58"/><polygon class="cls-1" points="212.14 208.58 212.14 211.67 217.38 211.67 217.38 208.58 217.38 205.49 212.14 205.49 212.14 208.58"/><polygon class="cls-1" points="230.7 208.58 230.7 211.67 235.93 211.67 235.93 208.58 235.93 205.49 230.7 205.49 230.7 208.58"/><polygon class="cls-1" points="69.9 214.76 69.9 217.86 75.13 217.86 75.13 214.76 75.13 211.67 69.9 211.67 69.9 214.76"/><polygon class="cls-1" points="76.09 214.76 76.09 217.86 81.32 217.86 81.32 214.76 81.32 211.67 76.09 211.67 76.09 214.76"/><path class="cls-1" d="M82.27,214.29v3.57H87.5v-3.57a2.62,2.62,0,1,0-5.23,0Z"/><path class="cls-1" d="M91.07,212.15a2.62,2.62,0,1,1-2.62,2.61A2.61,2.61,0,0,1,91.07,212.15Z"/><polygon class="cls-1" points="100.82 214.76 100.82 217.86 106.06 217.86 106.06 214.76 106.06 211.67 100.82 211.67 100.82 214.76"/><path class="cls-1" d="M113.19,214.29v3.57h5.23v-3.57a2.62,2.62,0,1,0-5.23,0Z"/><path class="cls-1" d="M134.36,212.15a2.62,2.62,0,1,1-2.61,2.61A2.61,2.61,0,0,1,134.36,212.15Z"/><path class="cls-1" d="M143.16,215.24v-3.57h-5.23v3.57a2.62,2.62,0,1,0,5.23,0Z"/><polygon class="cls-1" points="156.48 214.76 156.48 217.86 161.72 217.86 161.72 214.76 161.72 211.67 156.48 211.67 156.48 214.76"/><path class="cls-1" d="M177.65,212.15a2.62,2.62,0,1,1-2.61,2.61A2.61,2.61,0,0,1,177.65,212.15Z"/><polygon class="cls-1" points="187.41 214.76 187.41 217.86 192.64 217.86 192.64 214.76 192.64 211.67 187.41 211.67 187.41 214.76"/><path class="cls-1" d="M193.59,214.29v3.57h5.23v-3.57a2.62,2.62,0,1,0-5.23,0Z"/><path class="cls-1" d="M199.77,214.29v3.57H205v-3.57a2.62,2.62,0,0,0-5.24,0Z"/><path class="cls-1" d="M208.57,212.15a2.62,2.62,0,1,1-2.61,2.61A2.61,2.61,0,0,1,208.57,212.15Z"/><polygon class="cls-1" points="212.14 214.76 212.14 217.86 217.38 217.86 217.38 214.76 217.38 211.67 212.14 211.67 212.14 214.76"/><path class="cls-1" d="M220.94,212.15a2.62,2.62,0,1,1-2.61,2.61A2.61,2.61,0,0,1,220.94,212.15Z"/><path class="cls-1" d="M235.93,215.24v-3.57H230.7v3.57a2.62,2.62,0,1,0,5.23,0Z"/><path class="cls-1" d="M63.72,220.47V224H69v-3.57a2.62,2.62,0,0,0-5.23,0Z"/><polygon class="cls-1" points="69.9 220.95 69.9 224.04 75.13 224.04 75.13 220.95 75.13 217.86 69.9 217.86 69.9 220.95"/><polygon class="cls-1" points="76.09 220.95 76.09 224.04 81.32 224.04 81.32 220.95 81.32 217.86 76.09 217.86 76.09 220.95"/><path class="cls-1" d="M87.5,221.43v-3.57H82.27v3.57a2.62,2.62,0,0,0,5.23,0Z"/><path class="cls-1" d="M97.26,218.33A2.62,2.62,0,1,1,94.64,221,2.61,2.61,0,0,1,97.26,218.33Z"/><path class="cls-1" d="M106.06,221.43v-3.57h-5.24v3.57a2.62,2.62,0,0,0,5.24,0Z"/><path class="cls-1" d="M107,220.47V224h5.23v-3.57a2.62,2.62,0,0,0-5.23,0Z"/><path class="cls-1" d="M118.42,221.43v-3.57h-5.23v3.57a2.62,2.62,0,0,0,5.23,0Z"/><path class="cls-1" d="M119.38,220.47V224h5.23v-3.57a2.62,2.62,0,0,0-5.23,0Z"/><polygon class="cls-1" points="156.48 220.95 156.48 224.04 161.72 224.04 161.72 220.95 161.72 217.86 156.48 217.86 156.48 220.95"/><path class="cls-1" d="M162.67,220.47V224h5.23v-3.57a2.62,2.62,0,0,0-5.23,0Z"/><path class="cls-1" d="M181.22,220.47V224h5.23v-3.57a2.62,2.62,0,0,0-5.23,0Z"/><polygon class="cls-1" points="187.41 220.95 187.41 224.04 192.64 224.04 192.64 220.95 192.64 217.86 187.41 217.86 187.41 220.95"/><polygon class="cls-1" points="193.59 220.95 193.59 224.04 198.82 224.04 198.82 220.95 198.82 217.86 193.59 217.86 193.59 220.95"/><polygon class="cls-1" points="199.77 220.95 199.77 224.04 205.01 224.04 205.01 220.95 205.01 217.86 199.77 217.86 199.77 220.95"/><polygon class="cls-1" points="212.14 220.95 212.14 224.04 217.38 224.04 217.38 220.95 217.38 217.86 212.14 217.86 212.14 220.95"/><path class="cls-1" d="M227.13,218.33a2.62,2.62,0,1,1-2.62,2.62A2.61,2.61,0,0,1,227.13,218.33Z"/><path class="cls-1" d="M239.5,218.33a2.62,2.62,0,1,1-2.62,2.62A2.61,2.61,0,0,1,239.5,218.33Z"/><path class="cls-1" d="M69,227.61V224H63.72v3.57a2.62,2.62,0,1,0,5.23,0Z"/><polygon class="cls-1" points="69.9 227.13 69.9 230.23 75.13 230.23 75.13 227.13 75.13 224.04 69.9 224.04 69.9 227.13"/><polygon class="cls-1" points="76.09 227.13 76.09 230.23 81.32 230.23 81.32 227.13 81.32 224.04 76.09 224.04 76.09 227.13"/><path class="cls-1" d="M91.07,224.52a2.62,2.62,0,1,1-2.62,2.61A2.61,2.61,0,0,1,91.07,224.52Z"/><polygon class="cls-1" points="107.01 227.13 107.01 230.23 112.24 230.23 112.24 227.13 112.24 224.04 107.01 224.04 107.01 227.13"/><path class="cls-1" d="M124.61,227.61V224h-5.23v3.57a2.62,2.62,0,1,0,5.23,0Z"/><path class="cls-1" d="M125.56,226.66v3.57h5.23v-3.57a2.62,2.62,0,1,0-5.23,0Z"/><path class="cls-1" d="M146.73,224.52a2.62,2.62,0,1,1-2.62,2.61A2.61,2.61,0,0,1,146.73,224.52Z"/><path class="cls-1" d="M152.91,224.52a2.62,2.62,0,1,1-2.61,2.61A2.61,2.61,0,0,1,152.91,224.52Z"/><polygon class="cls-1" points="156.48 227.13 156.48 230.23 161.72 230.23 161.72 227.13 161.72 224.04 156.48 224.04 156.48 227.13"/><polygon class="cls-1" points="162.67 227.13 162.67 230.23 167.9 230.23 167.9 227.13 167.9 224.04 162.67 224.04 162.67 227.13"/><path class="cls-1" d="M168.85,226.66v3.57h5.23v-3.57a2.62,2.62,0,1,0-5.23,0Z"/><path class="cls-1" d="M186.45,227.61V224h-5.23v3.57a2.62,2.62,0,1,0,5.23,0Z"/><path class="cls-1" d="M192.64,227.61V224h-5.23v3.57a2.62,2.62,0,1,0,5.23,0Z"/><polygon class="cls-1" points="193.59 227.13 193.59 230.23 198.82 230.23 198.82 227.13 198.82 224.04 193.59 224.04 193.59 227.13"/><polygon class="cls-1" points="199.77 227.13 199.77 230.23 205.01 230.23 205.01 227.13 205.01 224.04 199.77 224.04 199.77 227.13"/><polygon class="cls-1" points="212.14 227.13 212.14 230.23 217.38 230.23 217.38 227.13 217.38 224.04 212.14 224.04 212.14 227.13"/><path class="cls-1" d="M218.33,226.66v3.57h5.23v-3.57a2.62,2.62,0,1,0-5.23,0Z"/><polygon class="cls-1" points="69.9 233.32 69.9 236.41 75.13 236.41 75.13 233.32 75.13 230.23 69.9 230.23 69.9 233.32"/><polygon class="cls-1" points="76.09 233.32 76.09 236.41 81.32 236.41 81.32 233.32 81.32 230.23 76.09 230.23 76.09 233.32"/><path class="cls-1" d="M94.64,232.84v3.57h5.23v-3.57a2.62,2.62,0,0,0-5.23,0Z"/><path class="cls-1" d="M112.24,233.8v-3.57H107v3.57a2.62,2.62,0,0,0,5.23,0Z"/><path class="cls-1" d="M130.79,233.8v-3.57h-5.23v3.57a2.62,2.62,0,0,0,5.23,0Z"/><path class="cls-1" d="M134.36,230.7a2.62,2.62,0,1,1-2.61,2.62A2.62,2.62,0,0,1,134.36,230.7Z"/><polygon class="cls-1" points="156.48 233.32 156.48 236.41 161.72 236.41 161.72 233.32 161.72 230.23 156.48 230.23 156.48 233.32"/><polygon class="cls-1" points="162.67 233.32 162.67 236.41 167.9 236.41 167.9 233.32 167.9 230.23 162.67 230.23 162.67 233.32"/><polygon class="cls-1" points="168.85 233.32 168.85 236.41 174.08 236.41 174.08 233.32 174.08 230.23 168.85 230.23 168.85 233.32"/><path class="cls-1" d="M175,232.84v3.57h5.23v-3.57a2.62,2.62,0,0,0-5.23,0Z"/><path class="cls-1" d="M198.82,233.8v-3.57h-5.23v3.57a2.62,2.62,0,0,0,5.23,0Z"/><path class="cls-1" d="M205,233.8v-3.57h-5.24v3.57a2.62,2.62,0,0,0,5.24,0Z"/><path class="cls-1" d="M208.57,230.7a2.62,2.62,0,1,1-2.61,2.62A2.62,2.62,0,0,1,208.57,230.7Z"/><polygon class="cls-1" points="212.14 233.32 212.14 236.41 217.38 236.41 217.38 233.32 217.38 230.23 212.14 230.23 212.14 233.32"/><polygon class="cls-1" points="218.33 233.32 218.33 236.41 223.56 236.41 223.56 233.32 223.56 230.23 218.33 230.23 218.33 233.32"/><path class="cls-1" d="M224.51,232.84v3.57h5.23v-3.57a2.62,2.62,0,0,0-5.23,0Z"/><path class="cls-1" d="M66.33,236.89a2.62,2.62,0,1,1-2.61,2.61A2.61,2.61,0,0,1,66.33,236.89Z"/><path class="cls-1" d="M75.13,240v-3.57H69.9V240a2.62,2.62,0,1,0,5.23,0Z"/><path class="cls-1" d="M81.32,240v-3.57H76.09V240a2.62,2.62,0,1,0,5.23,0Z"/><path class="cls-1" d="M84.89,236.89a2.62,2.62,0,1,1-2.62,2.61A2.61,2.61,0,0,1,84.89,236.89Z"/><path class="cls-1" d="M99.87,240v-3.57H94.64V240a2.62,2.62,0,1,0,5.23,0Z"/><path class="cls-1" d="M122,236.89a2.62,2.62,0,1,1-2.61,2.61A2.61,2.61,0,0,1,122,236.89Z"/><path class="cls-1" d="M140.55,236.89a2.62,2.62,0,1,1-2.62,2.61A2.61,2.61,0,0,1,140.55,236.89Z"/><path class="cls-1" d="M152.91,236.89a2.62,2.62,0,1,1-2.61,2.61A2.61,2.61,0,0,1,152.91,236.89Z"/><path class="cls-1" d="M161.72,240v-3.57h-5.24V240a2.62,2.62,0,0,0,5.24,0Z"/><path class="cls-1" d="M167.9,240v-3.57h-5.23V240a2.62,2.62,0,1,0,5.23,0Z"/><path class="cls-1" d="M174.08,240v-3.57h-5.23V240a2.62,2.62,0,1,0,5.23,0Z"/><path class="cls-1" d="M180.27,240v-3.57H175V240a2.62,2.62,0,1,0,5.23,0Z"/><path class="cls-1" d="M217.37,240v-3.57h-5.23V240a2.62,2.62,0,1,0,5.23,0Z"/><path class="cls-1" d="M223.56,240v-3.57h-5.23V240a2.62,2.62,0,1,0,5.23,0Z"/><path class="cls-1" d="M229.74,240v-3.57h-5.23V240a2.62,2.62,0,1,0,5.23,0Z"/><path class="cls-1" d="M233.31,236.89a2.62,2.62,0,1,1-2.61,2.61A2.61,2.61,0,0,1,233.31,236.89Z"/><path class="cls-1" d="M239.5,236.89a2.62,2.62,0,1,1-2.62,2.61A2.61,2.61,0,0,1,239.5,236.89Z"/></g></mask><linearGradient id="Degradado_sin_nombre_2" x1="-168.2" y1="526.89" x2="-167.98" y2="526.89" gradientTransform="matrix(0, 1036, 1036, 0, -545734.38, 174265.99)" gradientUnits="userSpaceOnUse"><stop offset="0.05" stop-color="#020002"/><stop offset="0.95" stop-color="#1270b0"/></linearGradient></defs><title>QR-programa-ma</title><g id="Capa_2" data-name="Capa 2"><g id="Capa_1-2" data-name="Capa 1"><rect class="cls-1" width="256.35" height="256.35" rx="11.33"/><g class="cls-2"><rect class="cls-3" x="13.77" y="13.76" width="228.82" height="228.84"/></g><path class="cls-4" d="M40.26,57h15a5,5,0,0,0,1.28,0c.27-.07.35-.31.35-.57a12.35,12.35,0,0,0-.33-1.88c-.23-1.38-.38-2.77-.51-4.17-.26-2.83-.49-5.66-.58-8.5a61,61,0,0,1,.29-8.44,40.94,40.94,0,0,1,.62-4.12A26.39,26.39,0,0,0,57,25.55a11.73,11.73,0,0,0-1.69-6.86,9.69,9.69,0,0,0-5.08-4c-2.59-.94-5.32-.89-8-.88s-5.71,0-8.57,0-5.71,0-8.57.1a13,13,0,0,0-6.17,1.51,9.5,9.5,0,0,0-4.28,5.15c-.85,2.5-.79,5.31-.8,7.92,0,5.65-.18,11.31,0,17a13.27,13.27,0,0,0,1.62,6.3A10.35,10.35,0,0,0,20.7,56a20.67,20.67,0,0,0,7.89,1c2.81-.05,5.62,0,8.43,0ZM39,50.83s-7.73,0-8.46,0a19.31,19.31,0,0,1-4.09-.26,9,9,0,0,1-3.23-1.42,7.07,7.07,0,0,1-3-4.7,23.86,23.86,0,0,1-.15-3.78c0-1.44,0-2.88,0-4.32s0-2.88,0-4.32,0-2.74,0-4.11A8.61,8.61,0,0,1,22.47,22a5.68,5.68,0,0,1,2.34-1.38,15.14,15.14,0,0,1,3.62-.37C31.29,20.1,34.15,20,37,20c1.43,0,2.86,0,4.29.11a24.94,24.94,0,0,1,3.86.34,7,7,0,0,1,4.5,3.2c1.28,2.12,1.05,4.48.64,6.83a46.88,46.88,0,0,0-.59,8.37A58.78,58.78,0,0,0,50,45.07c.11,1,.24,2,.37,3,.06.5.13,1,.2,1.5a1.63,1.63,0,0,1,0,.93c-.28.55-1.34.34-1.81.34l-3.29,0Z"/><path class="cls-4" d="M216.1,57h-15a5.06,5.06,0,0,1-1.29,0c-.27-.07-.35-.31-.35-.57a13.72,13.72,0,0,1,.33-1.88c.24-1.38.39-2.77.52-4.17.25-2.83.49-5.66.58-8.5a62.61,62.61,0,0,0-.29-8.44c-.15-1.38-.35-2.76-.63-4.12a25,25,0,0,1-.64-3.76A11.72,11.72,0,0,1,201,18.69a9.76,9.76,0,0,1,5.08-4c2.59-.94,5.32-.89,8-.88,2.86,0,5.72,0,8.57,0s5.71,0,8.57.1a13,13,0,0,1,6.17,1.51,9.47,9.47,0,0,1,4.29,5.15c.85,2.5.79,5.31.79,7.92,0,5.65.19,11.31,0,17a13.15,13.15,0,0,1-1.61,6.3A10.35,10.35,0,0,1,235.66,56a20.7,20.7,0,0,1-7.9,1c-2.81-.05-5.62,0-8.43,0Zm1.23-6.2s7.73,0,8.47,0a19.22,19.22,0,0,0,4.08-.26,9,9,0,0,0,3.24-1.42,7.11,7.11,0,0,0,3-4.7,25.11,25.11,0,0,0,.15-3.78c0-1.44,0-2.88,0-4.32s0-2.88,0-4.32,0-2.74,0-4.11A8.6,8.6,0,0,0,233.89,22a5.72,5.72,0,0,0-2.35-1.38,15.14,15.14,0,0,0-3.62-.37c-2.85-.16-5.71-.28-8.57-.27-1.43,0-2.86,0-4.29.11a25,25,0,0,0-3.87.34,7,7,0,0,0-4.5,3.2c-1.28,2.12-1.05,4.48-.64,6.83a47.84,47.84,0,0,1,.6,8.37,58.79,58.79,0,0,1-.28,6.23q-.17,1.5-.36,3c-.07.5-.14,1-.2,1.5a1.63,1.63,0,0,0,0,.93c.29.55,1.35.34,1.82.34l3.28,0Z"/><path class="cls-4" d="M40.26,199.33h15a5,5,0,0,1,1.28,0,.52.52,0,0,1,.35.57,12.14,12.14,0,0,1-.33,1.88c-.23,1.38-.38,2.78-.51,4.18-.26,2.82-.49,5.65-.58,8.49a61,61,0,0,0,.29,8.44,40.94,40.94,0,0,0,.62,4.12A26.63,26.63,0,0,1,57,230.8a11.76,11.76,0,0,1-1.69,6.87,9.67,9.67,0,0,1-5.08,4c-2.59.94-5.32.89-8,.88s-5.71,0-8.57,0-5.71,0-8.57-.09A13.12,13.12,0,0,1,18.91,241a9.52,9.52,0,0,1-4.28-5.16c-.85-2.5-.79-5.31-.8-7.92,0-5.64-.18-11.31,0-16.95a13.26,13.26,0,0,1,1.62-6.29,10.37,10.37,0,0,1,5.24-4.35,20.87,20.87,0,0,1,7.89-1c2.81.05,5.62,0,8.43,0ZM39,205.53s-7.73,0-8.46,0a19.31,19.31,0,0,0-4.09.26,9,9,0,0,0-3.23,1.41,7.12,7.12,0,0,0-3,4.71,23.69,23.69,0,0,0-.15,3.77c0,1.44,0,2.88,0,4.32s0,2.88,0,4.32,0,2.74,0,4.11a8.57,8.57,0,0,0,2.29,5.89,5.82,5.82,0,0,0,2.34,1.39,16.24,16.24,0,0,0,3.62.37c2.86.16,5.72.27,8.58.27,1.43,0,2.86,0,4.29-.11a25,25,0,0,0,3.86-.35,7,7,0,0,0,4.5-3.19c1.28-2.13,1.05-4.49.64-6.83a47,47,0,0,1-.59-8.38,58.71,58.71,0,0,1,.27-6.22c.11-1,.24-2,.37-3,.06-.5.13-1,.2-1.5a1.63,1.63,0,0,0,0-.93c-.28-.55-1.34-.34-1.81-.33H39Z"/><path class="cls-4" d="M44.5,29.22a2.83,2.83,0,0,1-2.74,2.91H29.06a2.83,2.83,0,0,1-2.74-2.91h0a2.84,2.84,0,0,1,2.74-2.91h12.7a2.84,2.84,0,0,1,2.74,2.91Z"/><path class="cls-4" d="M44.5,41.59a2.84,2.84,0,0,1-2.74,2.91H29.06a2.84,2.84,0,0,1-2.74-2.91h0a2.83,2.83,0,0,1,2.74-2.91h12.7a2.83,2.83,0,0,1,2.74,2.91Z"/><path class="cls-4" d="M44.5,35.4a2.83,2.83,0,0,1-2.74,2.91H29.06a2.83,2.83,0,0,1-2.74-2.91h0a2.83,2.83,0,0,1,2.74-2.9h12.7a2.83,2.83,0,0,1,2.74,2.9Z"/><path class="cls-4" d="M230,29.22a2.82,2.82,0,0,1-2.74,2.91h-12.7a2.83,2.83,0,0,1-2.74-2.91h0a2.84,2.84,0,0,1,2.74-2.91h12.7A2.83,2.83,0,0,1,230,29.22Z"/><path class="cls-4" d="M230,41.59a2.83,2.83,0,0,1-2.74,2.91h-12.7a2.84,2.84,0,0,1-2.74-2.91h0a2.83,2.83,0,0,1,2.74-2.91h12.7A2.82,2.82,0,0,1,230,41.59Z"/><path class="cls-4" d="M230,35.4a2.82,2.82,0,0,1-2.74,2.91h-12.7a2.83,2.83,0,0,1-2.74-2.91h0a2.83,2.83,0,0,1,2.74-2.9h12.7A2.82,2.82,0,0,1,230,35.4Z"/><path class="cls-4" d="M44.5,214.77a2.84,2.84,0,0,1-2.74,2.91H29.06a2.84,2.84,0,0,1-2.74-2.91h0a2.83,2.83,0,0,1,2.74-2.91h12.7a2.83,2.83,0,0,1,2.74,2.91Z"/><path class="cls-4" d="M44.5,227.13A2.83,2.83,0,0,1,41.76,230H29.06a2.83,2.83,0,0,1-2.74-2.91h0a2.84,2.84,0,0,1,2.74-2.91h12.7a2.84,2.84,0,0,1,2.74,2.91Z"/><path class="cls-4" d="M44.5,221a2.83,2.83,0,0,1-2.74,2.91H29.06A2.83,2.83,0,0,1,26.32,221h0A2.83,2.83,0,0,1,29.06,218h12.7A2.83,2.83,0,0,1,44.5,221Z"/></g></g></svg>