<svg xmlns="http://www.w3.org/2000/svg" viewBox="0 0 256.35 256.35"><defs><style>.cls-1{fill:#fff;}.cls-2{fill:#020002;}.cls-3{fill:none;}</style></defs><title>QR-programa-ma</title><g id="Capa_2" data-name="Capa 2"><g id="Capa_1-2" data-name="Capa 1"><rect class="cls-1" width="256.35" height="256.35" rx="11.33"/><rect class="cls-2" x="60.84" y="10.53" width="6.41" height="6.41"/><rect class="cls-2" x="67.25" y="10.53" width="6.41" height="6.41"/><rect class="cls-2" x="73.67" y="10.53" width="6.41" height="6.41"/><rect class="cls-2" x="86.49" y="10.53" width="6.41" height="6.41"/><rect class="cls-2" x="92.91" y="10.53" width="6.41" height="6.41"/><rect class="cls-2" x="105.73" y="10.53" width="6.41" height="6.41"/><rect class="cls-2" x="112.14" y="10.53" width="6.41" height="6.41"/><rect class="cls-2" x="144.21" y="10.53" width="6.41" height="6.41"/><rect class="cls-2" x="176.27" y="10.53" width="6.41" height="6.41"/><rect class="cls-2" x="189.1" y="10.53" width="6.41" height="6.41"/><rect class="cls-2" x="60.84" y="16.94" width="6.41" height="6.41"/><rect class="cls-2" x="112.14" y="16.94" width="6.41" height="6.41"/><rect class="cls-2" x="144.21" y="16.94" width="6.41" height="6.41"/><rect class="cls-2" x="73.67" y="23.35" width="6.41" height="6.41"/><rect class="cls-2" x="99.32" y="23.35" width="6.41" height="6.41"/><rect class="cls-2" x="112.14" y="23.35" width="6.41" height="6.41"/><rect class="cls-2" x="131.38" y="23.35" width="6.41" height="6.41"/><rect class="cls-2" x="150.62" y="23.35" width="6.41" height="6.41"/><rect class="cls-2" x="157.04" y="23.35" width="6.41" height="6.41"/><rect class="cls-2" x="163.45" y="23.35" width="6.41" height="6.41"/><rect class="cls-2" x="169.86" y="23.35" width="6.41" height="6.41"/><rect class="cls-2" x="176.27" y="23.35" width="6.41" height="6.41"/><rect class="cls-2" x="189.1" y="23.35" width="6.41" height="6.41"/><rect class="cls-2" x="60.84" y="29.76" width="6.41" height="6.41"/><rect class="cls-2" x="73.67" y="29.76" width="6.41" height="6.41"/><rect class="cls-2" x="80.08" y="29.76" width="6.41" height="6.41"/><rect class="cls-2" x="92.91" y="29.76" width="6.41" height="6.41"/><rect class="cls-2" x="105.73" y="29.76" width="6.41" height="6.41"/><rect class="cls-2" x="118.56" y="29.76" width="6.41" height="6.41"/><rect class="cls-2" x="137.8" y="29.76" width="6.41" height="6.41"/><rect class="cls-2" x="157.04" y="29.76" width="6.41" height="6.41"/><rect class="cls-2" x="163.45" y="29.76" width="6.41" height="6.41"/><rect class="cls-2" x="169.86" y="29.76" width="6.41" height="6.41"/><rect class="cls-2" x="176.27" y="29.76" width="6.41" height="6.41"/><rect class="cls-2" x="86.49" y="36.18" width="6.41" height="6.41"/><rect class="cls-2" x="92.91" y="36.18" width="6.41" height="6.41"/><rect class="cls-2" x="99.32" y="36.18" width="6.41" height="6.41"/><rect class="cls-2" x="112.14" y="36.18" width="6.41" height="6.41"/><rect class="cls-2" x="131.38" y="36.18" width="6.41" height="6.41"/><rect class="cls-2" x="163.45" y="36.18" width="6.41" height="6.41"/><rect class="cls-2" x="176.27" y="36.18" width="6.41" height="6.41"/><rect class="cls-2" x="182.69" y="36.18" width="6.41" height="6.41"/><rect class="cls-2" x="189.1" y="36.18" width="6.41" height="6.41"/><rect class="cls-2" x="73.67" y="42.59" width="6.41" height="6.41"/><rect class="cls-2" x="92.91" y="42.59" width="6.41" height="6.41"/><rect class="cls-2" x="105.73" y="42.59" width="6.41" height="6.41"/><rect class="cls-2" x="112.14" y="42.59" width="6.41" height="6.41"/><rect class="cls-2" x="118.56" y="42.59" width="6.41" height="6.41"/><rect class="cls-2" x="124.97" y="42.59" width="6.41" height="6.41"/><rect class="cls-2" x="131.38" y="42.59" width="6.41" height="6.41"/><rect class="cls-2" x="137.8" y="42.59" width="6.41" height="6.41"/><rect class="cls-2" x="150.62" y="42.59" width="6.41" height="6.41"/><rect class="cls-2" x="163.45" y="42.59" width="6.41" height="6.41"/><rect class="cls-2" x="169.86" y="42.59" width="6.41" height="6.41"/><rect class="cls-2" x="176.27" y="42.59" width="6.41" height="6.41"/><rect class="cls-2" x="60.84" y="49" width="6.41" height="6.41"/><rect class="cls-2" x="73.67" y="49" width="6.41" height="6.41"/><rect class="cls-2" x="86.49" y="49" width="6.41" height="6.41"/><rect class="cls-2" x="99.32" y="49" width="6.41" height="6.41"/><rect class="cls-2" x="112.14" y="49" width="6.41" height="6.41"/><rect class="cls-2" x="124.97" y="49" width="6.41" height="6.41"/><rect class="cls-2" x="137.8" y="49" width="6.41" height="6.41"/><rect class="cls-2" x="150.62" y="49" width="6.41" height="6.41"/><rect class="cls-2" x="163.45" y="49" width="6.41" height="6.41"/><rect class="cls-2" x="176.27" y="49" width="6.41" height="6.41"/><rect class="cls-2" x="189.1" y="49" width="6.41" height="6.41"/><rect class="cls-2" x="60.84" y="55.42" width="6.41" height="6.41"/><rect class="cls-2" x="67.25" y="55.42" width="6.41" height="6.41"/><rect class="cls-2" x="80.08" y="55.42" width="6.41" height="6.41"/><rect class="cls-2" x="92.91" y="55.42" width="6.41" height="6.41"/><rect class="cls-2" x="99.32" y="55.42" width="6.41" height="6.41"/><rect class="cls-2" x="131.38" y="55.42" width="6.41" height="6.41"/><rect class="cls-2" x="150.62" y="55.42" width="6.41" height="6.41"/><rect class="cls-2" x="157.04" y="55.42" width="6.41" height="6.41"/><rect class="cls-2" x="163.45" y="55.42" width="6.41" height="6.41"/><rect class="cls-2" x="182.69" y="55.42" width="6.41" height="6.41"/><rect class="cls-2" x="9.54" y="61.83" width="6.41" height="6.41"/><rect class="cls-2" x="22.36" y="61.83" width="6.41" height="6.41"/><rect class="cls-2" x="28.78" y="61.83" width="6.41" height="6.41"/><rect class="cls-2" x="41.6" y="61.83" width="6.41" height="6.41"/><rect class="cls-2" x="48.01" y="61.83" width="6.41" height="6.41"/><rect class="cls-2" x="54.43" y="61.83" width="6.41" height="6.41"/><rect class="cls-2" x="67.25" y="61.83" width="6.41" height="6.41"/><rect class="cls-2" x="73.67" y="61.83" width="6.41" height="6.41"/><rect class="cls-2" x="99.32" y="61.83" width="6.41" height="6.41"/><rect class="cls-2" x="105.73" y="61.83" width="6.41" height="6.41"/><rect class="cls-2" x="124.97" y="61.83" width="6.41" height="6.41"/><rect class="cls-2" x="131.38" y="61.83" width="6.41" height="6.41"/><rect class="cls-2" x="150.62" y="61.83" width="6.41" height="6.41"/><rect class="cls-2" x="163.45" y="61.83" width="6.41" height="6.41"/><rect class="cls-2" x="176.27" y="61.83" width="6.41" height="6.41"/><rect class="cls-2" x="189.1" y="61.83" width="6.41" height="6.41"/><rect class="cls-2" x="201.93" y="61.83" width="6.41" height="6.41"/><rect class="cls-2" x="221.17" y="61.83" width="6.41" height="6.41"/><rect class="cls-2" x="233.99" y="61.83" width="6.41" height="6.41"/><rect class="cls-2" x="240.4" y="61.83" width="6.41" height="6.41"/><rect class="cls-2" x="15.95" y="68.24" width="6.41" height="6.41"/><rect class="cls-2" x="41.6" y="68.24" width="6.41" height="6.41"/><rect class="cls-2" x="60.84" y="68.24" width="6.41" height="6.41"/><rect class="cls-2" x="80.08" y="68.24" width="6.41" height="6.41"/><rect class="cls-2" x="86.49" y="68.24" width="6.41" height="6.41"/><rect class="cls-2" x="105.73" y="68.24" width="6.41" height="6.41"/><rect class="cls-2" x="124.97" y="68.24" width="6.41" height="6.41"/><rect class="cls-2" x="137.8" y="68.24" width="6.41" height="6.41"/><rect class="cls-2" x="150.62" y="68.24" width="6.41" height="6.41"/><rect class="cls-2" x="163.45" y="68.24" width="6.41" height="6.41"/><rect class="cls-2" x="169.86" y="68.24" width="6.41" height="6.41"/><rect class="cls-2" x="189.1" y="68.24" width="6.41" height="6.41"/><rect class="cls-2" x="195.51" y="68.24" width="6.41" height="6.41"/><rect class="cls-2" x="208.34" y="68.24" width="6.41" height="6.41"/><rect class="cls-2" x="227.58" y="68.24" width="6.41" height="6.41"/><rect class="cls-2" x="233.99" y="68.24" width="6.41" height="6.41"/><rect class="cls-2" x="9.54" y="74.65" width="6.41" height="6.41"/><rect class="cls-2" x="15.95" y="74.65" width="6.41" height="6.41"/><rect class="cls-2" x="28.78" y="74.65" width="6.41" height="6.41"/><rect class="cls-2" x="48.01" y="74.65" width="6.41" height="6.41"/><rect class="cls-2" x="67.25" y="74.65" width="6.41" height="6.41"/><rect class="cls-2" x="73.67" y="74.65" width="6.41" height="6.41"/><rect class="cls-2" x="80.08" y="74.65" width="6.41" height="6.41"/><rect class="cls-2" x="99.32" y="74.65" width="6.41" height="6.41"/><rect class="cls-2" x="112.14" y="74.65" width="6.41" height="6.41"/><rect class="cls-2" x="118.56" y="74.65" width="6.41" height="6.41"/><rect class="cls-2" x="131.38" y="74.65" width="6.41" height="6.41"/><rect class="cls-2" x="137.8" y="74.65" width="6.41" height="6.41"/><rect class="cls-2" x="144.21" y="74.65" width="6.41" height="6.41"/><rect class="cls-2" x="150.62" y="74.65" width="6.41" height="6.41"/><rect class="cls-2" x="157.04" y="74.65" width="6.41" height="6.41"/><rect class="cls-2" x="163.45" y="74.65" width="6.41" height="6.41"/><rect class="cls-2" x="169.86" y="74.65" width="6.41" height="6.41"/><rect class="cls-2" x="195.51" y="74.65" width="6.41" height="6.41"/><rect class="cls-2" x="201.93" y="74.65" width="6.41" height="6.41"/><rect class="cls-2" x="208.34" y="74.65" width="6.41" height="6.41"/><rect class="cls-2" x="214.75" y="74.65" width="6.41" height="6.41"/><rect class="cls-2" x="221.17" y="74.65" width="6.41" height="6.41"/><rect class="cls-2" x="9.54" y="81.07" width="6.41" height="6.41"/><rect class="cls-2" x="15.95" y="81.07" width="6.41" height="6.41"/><rect class="cls-2" x="22.36" y="81.07" width="6.41" height="6.41"/><rect class="cls-2" x="35.19" y="81.07" width="6.41" height="6.41"/><rect class="cls-2" x="80.08" y="81.07" width="6.41" height="6.41"/><rect class="cls-2" x="86.49" y="81.07" width="6.41" height="6.41"/><rect class="cls-2" x="112.14" y="81.07" width="6.41" height="6.41"/><rect class="cls-2" x="124.97" y="81.07" width="6.41" height="6.41"/><rect class="cls-2" x="137.8" y="81.07" width="6.41" height="6.41"/><rect class="cls-2" x="150.62" y="81.07" width="6.41" height="6.41"/><rect class="cls-2" x="169.86" y="81.07" width="6.41" height="6.41"/><rect class="cls-2" x="201.93" y="81.07" width="6.41" height="6.41"/><rect class="cls-2" x="214.75" y="81.07" width="6.41" height="6.41"/><rect class="cls-2" x="221.17" y="81.07" width="6.41" height="6.41"/><rect class="cls-2" x="227.58" y="81.07" width="6.41" height="6.41"/><rect class="cls-2" x="28.78" y="87.48" width="6.41" height="6.41"/><rect class="cls-2" x="48.01" y="87.48" width="6.41" height="6.41"/><rect class="cls-2" x="60.84" y="87.48" width="6.41" height="6.41"/><rect class="cls-2" x="67.25" y="87.48" width="6.41" height="6.41"/><rect class="cls-2" x="73.67" y="87.48" width="6.41" height="6.41"/><rect class="cls-2" x="80.08" y="87.48" width="6.41" height="6.41"/><rect class="cls-2" x="92.91" y="87.48" width="6.41" height="6.41"/><rect class="cls-2" x="105.73" y="87.48" width="6.41" height="6.41"/><rect class="cls-2" x="112.14" y="87.48" width="6.41" height="6.41"/><rect class="cls-2" x="118.56" y="87.48" width="6.41" height="6.41"/><rect class="cls-2" x="131.38" y="87.48" width="6.41" height="6.41"/><rect class="cls-2" x="150.62" y="87.48" width="6.41" height="6.41"/><rect class="cls-2" x="169.86" y="87.48" width="6.41" height="6.41"/><rect class="cls-2" x="176.27" y="87.48" width="6.41" height="6.41"/><rect class="cls-2" x="182.69" y="87.48" width="6.41" height="6.41"/><rect class="cls-2" x="195.51" y="87.48" width="6.41" height="6.41"/><rect class="cls-2" x="201.93" y="87.48" width="6.41" height="6.41"/><rect class="cls-2" x="214.75" y="87.48" width="6.41" height="6.41"/><rect class="cls-2" x="227.58" y="87.48" width="6.41" height="6.41"/><rect class="cls-2" x="233.99" y="87.48" width="6.41" height="6.41"/><rect class="cls-2" x="240.4" y="87.48" width="6.41" height="6.41"/><rect class="cls-2" x="22.36" y="93.89" width="6.41" height="6.41"/><rect class="cls-2" x="28.78" y="93.89" width="6.41" height="6.41"/><rect class="cls-2" x="35.19" y="93.89" width="6.41" height="6.41"/><rect class="cls-2" x="41.6" y="93.89" width="6.41" height="6.41"/><rect class="cls-2" x="54.43" y="93.89" width="6.41" height="6.41"/><rect class="cls-2" x="67.25" y="93.89" width="6.41" height="6.41"/><rect class="cls-2" x="73.67" y="93.89" width="6.41" height="6.41"/><rect class="cls-2" x="80.08" y="93.89" width="6.41" height="6.41"/><rect class="cls-2" x="105.73" y="93.89" width="6.41" height="6.41"/><rect class="cls-2" x="112.14" y="93.89" width="6.41" height="6.41"/><rect class="cls-2" x="118.56" y="93.89" width="6.41" height="6.41"/><rect class="cls-2" x="131.38" y="93.89" width="6.41" height="6.41"/><rect class="cls-2" x="144.21" y="93.89" width="6.41" height="6.41"/><rect class="cls-2" x="163.45" y="93.89" width="6.41" height="6.41"/><rect class="cls-2" x="182.69" y="93.89" width="6.41" height="6.41"/><rect class="cls-2" x="189.1" y="93.89" width="6.41" height="6.41"/><rect class="cls-2" x="195.51" y="93.89" width="6.41" height="6.41"/><rect class="cls-2" x="201.93" y="93.89" width="6.41" height="6.41"/><rect class="cls-2" x="208.34" y="93.89" width="6.41" height="6.41"/><rect class="cls-2" x="214.75" y="93.89" width="6.41" height="6.41"/><rect class="cls-2" x="221.17" y="93.89" width="6.41" height="6.41"/><rect class="cls-2" x="233.99" y="93.89" width="6.41" height="6.41"/><rect class="cls-2" x="240.4" y="93.89" width="6.41" height="6.41"/><rect class="cls-2" x="22.36" y="100.31" width="6.41" height="6.41"/><rect class="cls-2" x="35.19" y="100.31" width="6.41" height="6.41"/><rect class="cls-2" x="41.6" y="100.31" width="6.41" height="6.41"/><rect class="cls-2" x="48.01" y="100.31" width="6.41" height="6.41"/><rect class="cls-2" x="54.43" y="100.31" width="6.41" height="6.41"/><rect class="cls-2" x="60.84" y="100.31" width="6.41" height="6.41"/><rect class="cls-2" x="67.25" y="100.31" width="6.41" height="6.41"/><rect class="cls-2" x="73.67" y="100.31" width="6.41" height="6.41"/><rect class="cls-2" x="80.08" y="100.31" width="6.41" height="6.41"/><rect class="cls-2" x="92.91" y="100.31" width="6.41" height="6.41"/><rect class="cls-2" x="99.32" y="100.31" width="6.41" height="6.41"/><rect class="cls-2" x="112.14" y="100.31" width="6.41" height="6.41"/><rect class="cls-2" x="131.38" y="100.31" width="6.41" height="6.41"/><rect class="cls-2" x="137.8" y="100.31" width="6.41" height="6.41"/><rect class="cls-2" x="144.21" y="100.31" width="6.41" height="6.41"/><rect class="cls-2" x="195.51" y="100.31" width="6.41" height="6.41"/><rect class="cls-2" x="214.75" y="100.31" width="6.41" height="6.41"/><rect class="cls-2" x="227.58" y="100.31" width="6.41" height="6.41"/><rect class="cls-2" x="9.54" y="106.72" width="6.41" height="6.41"/><rect class="cls-2" x="15.95" y="106.72" width="6.41" height="6.41"/><rect class="cls-2" x="22.36" y="106.72" width="6.41" height="6.41"/><rect class="cls-2" x="35.19" y="106.72" width="6.41" height="6.41"/><rect class="cls-2" x="41.6" y="106.72" width="6.41" height="6.41"/><rect class="cls-2" x="60.84" y="106.72" width="6.41" height="6.41"/><rect class="cls-2" x="80.08" y="106.72" width="6.41" height="6.41"/><rect class="cls-2" x="92.91" y="106.72" width="6.41" height="6.41"/><rect class="cls-2" x="112.14" y="106.72" width="6.41" height="6.41"/><rect class="cls-2" x="131.38" y="106.72" width="6.41" height="6.41"/><rect class="cls-2" x="137.8" y="106.72" width="6.41" height="6.41"/><rect class="cls-2" x="163.45" y="106.72" width="6.41" height="6.41"/><rect class="cls-2" x="182.69" y="106.72" width="6.41" height="6.41"/><rect class="cls-2" x="201.93" y="106.72" width="6.41" height="6.41"/><rect class="cls-2" x="208.34" y="106.72" width="6.41" height="6.41"/><rect class="cls-2" x="214.75" y="106.72" width="6.41" height="6.41"/><rect class="cls-2" x="233.99" y="106.72" width="6.41" height="6.41"/><rect class="cls-2" x="240.4" y="106.72" width="6.41" height="6.41"/><rect class="cls-2" x="9.54" y="113.13" width="6.41" height="6.41"/><rect class="cls-2" x="15.95" y="113.13" width="6.41" height="6.41"/><rect class="cls-2" x="28.78" y="113.13" width="6.41" height="6.41"/><rect class="cls-2" x="35.19" y="113.13" width="6.41" height="6.41"/><rect class="cls-2" x="41.6" y="113.13" width="6.41" height="6.41"/><rect class="cls-2" x="48.01" y="113.13" width="6.41" height="6.41"/><rect class="cls-2" x="60.84" y="113.13" width="6.41" height="6.41"/><rect class="cls-2" x="105.73" y="113.13" width="6.41" height="6.41"/><rect class="cls-2" x="118.56" y="113.13" width="6.41" height="6.41"/><rect class="cls-2" x="131.38" y="113.13" width="6.41" height="6.41"/><rect class="cls-2" x="150.62" y="113.13" width="6.41" height="6.41"/><rect class="cls-2" x="169.86" y="113.13" width="6.41" height="6.41"/><rect class="cls-2" x="176.27" y="113.13" width="6.41" height="6.41"/><rect class="cls-2" x="182.69" y="113.13" width="6.41" height="6.41"/><rect class="cls-2" x="189.1" y="113.13" width="6.41" height="6.41"/><rect class="cls-2" x="221.17" y="113.13" width="6.41" height="6.41"/><rect class="cls-2" x="227.58" y="113.13" width="6.41" height="6.41"/><rect class="cls-2" x="240.4" y="113.13" width="6.41" height="6.41"/><rect class="cls-2" x="22.36" y="119.55" width="6.41" height="6.41"/><rect class="cls-2" x="28.78" y="119.55" width="6.41" height="6.41"/><rect class="cls-2" x="35.19" y="119.55" width="6.41" height="6.41"/><rect class="cls-2" x="54.43" y="119.55" width="6.41" height="6.41"/><rect class="cls-2" x="80.08" y="119.55" width="6.41" height="6.41"/><rect class="cls-2" x="99.32" y="119.55" width="6.41" height="6.41"/><rect class="cls-2" x="118.56" y="119.55" width="6.41" height="6.41"/><rect class="cls-2" x="124.97" y="119.55" width="6.41" height="6.41"/><rect class="cls-2" x="131.38" y="119.55" width="6.41" height="6.41"/><rect class="cls-2" x="144.21" y="119.55" width="6.41" height="6.41"/><rect class="cls-2" x="150.62" y="119.55" width="6.41" height="6.41"/><rect class="cls-2" x="163.45" y="119.55" width="6.41" height="6.41"/><rect class="cls-2" x="169.86" y="119.55" width="6.41" height="6.41"/><rect class="cls-2" x="182.69" y="119.55" width="6.41" height="6.41"/><rect class="cls-2" x="201.93" y="119.55" width="6.41" height="6.41"/><rect class="cls-2" x="221.17" y="119.55" width="6.41" height="6.41"/><rect class="cls-2" x="227.58" y="119.55" width="6.41" height="6.41"/><rect class="cls-2" x="233.99" y="119.55" width="6.41" height="6.41"/><rect class="cls-2" x="240.4" y="119.55" width="6.41" height="6.41"/><rect class="cls-2" x="9.54" y="125.96" width="6.41" height="6.41"/><rect class="cls-2" x="15.95" y="125.96" width="6.41" height="6.41"/><rect class="cls-2" x="28.78" y="125.96" width="6.41" height="6.41"/><rect class="cls-2" x="48.01" y="125.96" width="6.41" height="6.41"/><rect class="cls-2" x="54.43" y="125.96" width="6.41" height="6.41"/><rect class="cls-2" x="73.67" y="125.96" width="6.41" height="6.41"/><rect class="cls-2" x="80.08" y="125.96" width="6.41" height="6.41"/><rect class="cls-2" x="99.32" y="125.96" width="6.41" height="6.41"/><rect class="cls-2" x="137.8" y="125.96" width="6.41" height="6.41"/><rect class="cls-2" x="144.21" y="125.96" width="6.41" height="6.41"/><rect class="cls-2" x="157.04" y="125.96" width="6.41" height="6.41"/><rect class="cls-2" x="163.45" y="125.96" width="6.41" height="6.41"/><rect class="cls-2" x="169.86" y="125.96" width="6.41" height="6.41"/><rect class="cls-2" x="182.69" y="125.96" width="6.41" height="6.41"/><rect class="cls-2" x="189.1" y="125.96" width="6.41" height="6.41"/><rect class="cls-2" x="195.51" y="125.96" width="6.41" height="6.41"/><rect class="cls-2" x="208.34" y="125.96" width="6.41" height="6.41"/><rect class="cls-2" x="214.75" y="125.96" width="6.41" height="6.41"/><rect class="cls-2" x="233.99" y="125.96" width="6.41" height="6.41"/><rect class="cls-2" x="240.4" y="125.96" width="6.41" height="6.41"/><rect class="cls-2" x="15.95" y="132.37" width="6.41" height="6.41"/><rect class="cls-2" x="22.36" y="132.37" width="6.41" height="6.41"/><rect class="cls-2" x="41.6" y="132.37" width="6.41" height="6.41"/><rect class="cls-2" x="54.43" y="132.37" width="6.41" height="6.41"/><rect class="cls-2" x="60.84" y="132.37" width="6.41" height="6.41"/><rect class="cls-2" x="67.25" y="132.37" width="6.41" height="6.41"/><rect class="cls-2" x="73.67" y="132.37" width="6.41" height="6.41"/><rect class="cls-2" x="92.91" y="132.37" width="6.41" height="6.41"/><rect class="cls-2" x="99.32" y="132.37" width="6.41" height="6.41"/><rect class="cls-2" x="105.73" y="132.37" width="6.41" height="6.41"/><rect class="cls-2" x="112.14" y="132.37" width="6.41" height="6.41"/><rect class="cls-2" x="118.56" y="132.37" width="6.41" height="6.41"/><rect class="cls-2" x="124.97" y="132.37" width="6.41" height="6.41"/><rect class="cls-2" x="137.8" y="132.37" width="6.41" height="6.41"/><rect class="cls-2" x="150.62" y="132.37" width="6.41" height="6.41"/><rect class="cls-2" x="163.45" y="132.37" width="6.41" height="6.41"/><rect class="cls-2" x="201.93" y="132.37" width="6.41" height="6.41"/><rect class="cls-2" x="208.34" y="132.37" width="6.41" height="6.41"/><rect class="cls-2" x="221.17" y="132.37" width="6.41" height="6.41"/><rect class="cls-2" x="233.99" y="132.37" width="6.41" height="6.41"/><rect class="cls-2" x="15.95" y="138.78" width="6.41" height="6.41"/><rect class="cls-2" x="22.36" y="138.78" width="6.41" height="6.41"/><rect class="cls-2" x="48.01" y="138.78" width="6.41" height="6.41"/><rect class="cls-2" x="54.43" y="138.78" width="6.41" height="6.41"/><rect class="cls-2" x="67.25" y="138.78" width="6.41" height="6.41"/><rect class="cls-2" x="92.91" y="138.78" width="6.41" height="6.41"/><rect class="cls-2" x="99.32" y="138.78" width="6.41" height="6.41"/><rect class="cls-2" x="105.73" y="138.78" width="6.41" height="6.41"/><rect class="cls-2" x="112.14" y="138.78" width="6.41" height="6.41"/><rect class="cls-2" x="118.56" y="138.78" width="6.41" height="6.41"/><rect class="cls-2" x="124.97" y="138.78" width="6.41" height="6.41"/><rect class="cls-2" x="131.38" y="138.78" width="6.41" height="6.41"/><rect class="cls-2" x="144.21" y="138.78" width="6.41" height="6.41"/><rect class="cls-2" x="157.04" y="138.78" width="6.41" height="6.41"/><rect class="cls-2" x="182.69" y="138.78" width="6.41" height="6.41"/><rect class="cls-2" x="189.1" y="138.78" width="6.41" height="6.41"/><rect class="cls-2" x="195.51" y="138.78" width="6.41" height="6.41"/><rect class="cls-2" x="208.34" y="138.78" width="6.41" height="6.41"/><rect class="cls-2" x="214.75" y="138.78" width="6.41" height="6.41"/><rect class="cls-2" x="240.4" y="138.78" width="6.41" height="6.41"/><rect class="cls-2" x="9.54" y="145.2" width="6.41" height="6.41"/><rect class="cls-2" x="22.36" y="145.2" width="6.41" height="6.41"/><rect class="cls-2" x="28.78" y="145.2" width="6.41" height="6.41"/><rect class="cls-2" x="41.6" y="145.2" width="6.41" height="6.41"/><rect class="cls-2" x="54.43" y="145.2" width="6.41" height="6.41"/><rect class="cls-2" x="67.25" y="145.2" width="6.41" height="6.41"/><rect class="cls-2" x="80.08" y="145.2" width="6.41" height="6.41"/><rect class="cls-2" x="99.32" y="145.2" width="6.41" height="6.41"/><rect class="cls-2" x="112.14" y="145.2" width="6.41" height="6.41"/><rect class="cls-2" x="118.56" y="145.2" width="6.41" height="6.41"/><rect class="cls-2" x="124.97" y="145.2" width="6.41" height="6.41"/><rect class="cls-2" x="131.38" y="145.2" width="6.41" height="6.41"/><rect class="cls-2" x="137.8" y="145.2" width="6.41" height="6.41"/><rect class="cls-2" x="144.21" y="145.2" width="6.41" height="6.41"/><rect class="cls-2" x="157.04" y="145.2" width="6.41" height="6.41"/><rect class="cls-2" x="169.86" y="145.2" width="6.41" height="6.41"/><rect class="cls-2" x="189.1" y="145.2" width="6.41" height="6.41"/><rect class="cls-2" x="221.17" y="145.2" width="6.41" height="6.41"/><rect class="cls-2" x="15.95" y="151.61" width="6.41" height="6.41"/><rect class="cls-2" x="22.36" y="151.61" width="6.41" height="6.41"/><rect class="cls-2" x="35.19" y="151.61" width="6.41" height="6.41"/><rect class="cls-2" x="41.6" y="151.61" width="6.41" height="6.41"/><rect class="cls-2" x="48.01" y="151.61" width="6.41" height="6.41"/><rect class="cls-2" x="86.49" y="151.61" width="6.41" height="6.41"/><rect class="cls-2" x="92.91" y="151.61" width="6.41" height="6.41"/><rect class="cls-2" x="99.32" y="151.61" width="6.41" height="6.41"/><rect class="cls-2" x="112.14" y="151.61" width="6.41" height="6.41"/><rect class="cls-2" x="124.97" y="151.61" width="6.41" height="6.41"/><rect class="cls-2" x="137.8" y="151.61" width="6.41" height="6.41"/><rect class="cls-2" x="157.04" y="151.61" width="6.41" height="6.41"/><rect class="cls-2" x="169.86" y="151.61" width="6.41" height="6.41"/><rect class="cls-2" x="208.34" y="151.61" width="6.41" height="6.41"/><rect class="cls-2" x="15.95" y="158.02" width="6.41" height="6.41"/><rect class="cls-2" x="22.36" y="158.02" width="6.41" height="6.41"/><rect class="cls-2" x="28.78" y="158.02" width="6.41" height="6.41"/><rect class="cls-2" x="35.19" y="158.02" width="6.41" height="6.41"/><rect class="cls-2" x="73.67" y="158.02" width="6.41" height="6.41"/><rect class="cls-2" x="80.08" y="158.02" width="6.41" height="6.41"/><rect class="cls-2" x="105.73" y="158.02" width="6.41" height="6.41"/><rect class="cls-2" x="118.56" y="158.02" width="6.41" height="6.41"/><rect class="cls-2" x="163.45" y="158.02" width="6.41" height="6.41"/><rect class="cls-2" x="169.86" y="158.02" width="6.41" height="6.41"/><rect class="cls-2" x="182.69" y="158.02" width="6.41" height="6.41"/><rect class="cls-2" x="195.51" y="158.02" width="6.41" height="6.41"/><rect class="cls-2" x="214.75" y="158.02" width="6.41" height="6.41"/><rect class="cls-2" x="221.17" y="158.02" width="6.41" height="6.41"/><rect class="cls-2" x="227.58" y="158.02" width="6.41" height="6.41"/><rect class="cls-2" x="233.99" y="158.02" width="6.41" height="6.41"/><rect class="cls-2" x="9.54" y="164.44" width="6.41" height="6.41"/><rect class="cls-2" x="22.36" y="164.44" width="6.41" height="6.41"/><rect class="cls-2" x="28.78" y="164.44" width="6.41" height="6.41"/><rect class="cls-2" x="48.01" y="164.44" width="6.41" height="6.41"/><rect class="cls-2" x="54.43" y="164.44" width="6.41" height="6.41"/><rect class="cls-2" x="60.84" y="164.44" width="6.41" height="6.41"/><rect class="cls-2" x="73.67" y="164.44" width="6.41" height="6.41"/><rect class="cls-2" x="86.49" y="164.44" width="6.41" height="6.41"/><rect class="cls-2" x="112.14" y="164.44" width="6.41" height="6.41"/><rect class="cls-2" x="144.21" y="164.44" width="6.41" height="6.41"/><rect class="cls-2" x="163.45" y="164.44" width="6.41" height="6.41"/><rect class="cls-2" x="169.86" y="164.44" width="6.41" height="6.41"/><rect class="cls-2" x="176.27" y="164.44" width="6.41" height="6.41"/><rect class="cls-2" x="182.69" y="164.44" width="6.41" height="6.41"/><rect class="cls-2" x="201.93" y="164.44" width="6.41" height="6.41"/><rect class="cls-2" x="214.75" y="164.44" width="6.41" height="6.41"/><rect class="cls-2" x="227.58" y="164.44" width="6.41" height="6.41"/><rect class="cls-2" x="240.4" y="164.44" width="6.41" height="6.41"/><rect class="cls-2" x="22.36" y="170.85" width="6.41" height="6.41"/><rect class="cls-2" x="41.6" y="170.85" width="6.41" height="6.41"/><rect class="cls-2" x="54.43" y="170.85" width="6.41" height="6.41"/><rect class="cls-2" x="60.84" y="170.85" width="6.41" height="6.41"/><rect class="cls-2" x="67.25" y="170.85" width="6.41" height="6.41"/><rect class="cls-2" x="73.67" y="170.85" width="6.41" height="6.41"/><rect class="cls-2" x="80.08" y="170.85" width="6.41" height="6.41"/><rect class="cls-2" x="86.49" y="170.85" width="6.41" height="6.41"/><rect class="cls-2" x="92.91" y="170.85" width="6.41" height="6.41"/><rect class="cls-2" x="99.32" y="170.85" width="6.41" height="6.41"/><rect class="cls-2" x="118.56" y="170.85" width="6.41" height="6.41"/><rect class="cls-2" x="144.21" y="170.85" width="6.41" height="6.41"/><rect class="cls-2" x="150.62" y="170.85" width="6.41" height="6.41"/><rect class="cls-2" x="157.04" y="170.85" width="6.41" height="6.41"/><rect class="cls-2" x="169.86" y="170.85" width="6.41" height="6.41"/><rect class="cls-2" x="176.27" y="170.85" width="6.41" height="6.41"/><rect class="cls-2" x="182.69" y="170.85" width="6.41" height="6.41"/><rect class="cls-2" x="189.1" y="170.85" width="6.41" height="6.41"/><rect class="cls-2" x="195.51" y="170.85" width="6.41" height="6.41"/><rect class="cls-2" x="201.93" y="170.85" width="6.41" height="6.41"/><rect class="cls-2" x="208.34" y="170.85" width="6.41" height="6.41"/><rect class="cls-2" x="214.75" y="170.85" width="6.41" height="6.41"/><rect class="cls-2" x="221.17" y="170.85" width="6.41" height="6.41"/><rect class="cls-2" x="227.58" y="170.85" width="6.41" height="6.41"/><rect class="cls-2" x="233.99" y="170.85" width="6.41" height="6.41"/><rect class="cls-2" x="240.4" y="170.85" width="6.41" height="6.41"/><rect class="cls-2" x="15.95" y="177.26" width="6.41" height="6.41"/><rect class="cls-2" x="22.36" y="177.26" width="6.41" height="6.41"/><rect class="cls-2" x="41.6" y="177.26" width="6.41" height="6.41"/><rect class="cls-2" x="48.01" y="177.26" width="6.41" height="6.41"/><rect class="cls-2" x="60.84" y="177.26" width="6.41" height="6.41"/><rect class="cls-2" x="144.21" y="177.26" width="6.41" height="6.41"/><rect class="cls-2" x="163.45" y="177.26" width="6.41" height="6.41"/><rect class="cls-2" x="176.27" y="177.26" width="6.41" height="6.41"/><rect class="cls-2" x="214.75" y="177.26" width="6.41" height="6.41"/><rect class="cls-2" x="233.99" y="177.26" width="6.41" height="6.41"/><rect class="cls-2" x="9.54" y="183.68" width="6.41" height="6.41"/><rect class="cls-2" x="28.78" y="183.68" width="6.41" height="6.41"/><rect class="cls-2" x="35.19" y="183.68" width="6.41" height="6.41"/><rect class="cls-2" x="41.6" y="183.68" width="6.41" height="6.41"/><rect class="cls-2" x="67.25" y="183.68" width="6.41" height="6.41"/><rect class="cls-2" x="73.67" y="183.68" width="6.41" height="6.41"/><rect class="cls-2" x="80.08" y="183.68" width="6.41" height="6.41"/><rect class="cls-2" x="99.32" y="183.68" width="6.41" height="6.41"/><rect class="cls-2" x="105.73" y="183.68" width="6.41" height="6.41"/><rect class="cls-2" x="131.38" y="183.68" width="6.41" height="6.41"/><rect class="cls-2" x="137.8" y="183.68" width="6.41" height="6.41"/><rect class="cls-2" x="144.21" y="183.68" width="6.41" height="6.41"/><rect class="cls-2" x="150.62" y="183.68" width="6.41" height="6.41"/><rect class="cls-2" x="157.04" y="183.68" width="6.41" height="6.41"/><rect class="cls-2" x="189.1" y="183.68" width="6.41" height="6.41"/><rect class="cls-2" x="195.51" y="183.68" width="6.41" height="6.41"/><rect class="cls-2" x="201.93" y="183.68" width="6.41" height="6.41"/><rect class="cls-2" x="221.17" y="183.68" width="6.41" height="6.41"/><rect class="cls-2" x="240.4" y="183.68" width="6.41" height="6.41"/><rect class="cls-2" x="22.36" y="190.09" width="6.41" height="6.41"/><rect class="cls-2" x="48.01" y="190.09" width="6.41" height="6.41"/><rect class="cls-2" x="60.84" y="190.09" width="6.41" height="6.41"/><rect class="cls-2" x="73.67" y="190.09" width="6.41" height="6.41"/><rect class="cls-2" x="86.49" y="190.09" width="6.41" height="6.41"/><rect class="cls-2" x="131.38" y="190.09" width="6.41" height="6.41"/><rect class="cls-2" x="144.21" y="190.09" width="6.41" height="6.41"/><rect class="cls-2" x="163.45" y="190.09" width="6.41" height="6.41"/><rect class="cls-2" x="169.86" y="190.09" width="6.41" height="6.41"/><rect class="cls-2" x="189.1" y="190.09" width="6.41" height="6.41"/><rect class="cls-2" x="195.51" y="190.09" width="6.41" height="6.41"/><rect class="cls-2" x="201.93" y="190.09" width="6.41" height="6.41"/><rect class="cls-2" x="208.34" y="190.09" width="6.41" height="6.41"/><rect class="cls-2" x="214.75" y="190.09" width="6.41" height="6.41"/><rect class="cls-2" x="227.58" y="190.09" width="6.41" height="6.41"/><rect class="cls-2" x="233.99" y="190.09" width="6.41" height="6.41"/><rect class="cls-2" x="60.84" y="196.5" width="6.41" height="6.41"/><rect class="cls-2" x="67.25" y="196.5" width="6.41" height="6.41"/><rect class="cls-2" x="73.67" y="196.5" width="6.41" height="6.41"/><rect class="cls-2" x="86.49" y="196.5" width="6.41" height="6.41"/><rect class="cls-2" x="92.91" y="196.5" width="6.41" height="6.41"/><rect class="cls-2" x="105.73" y="196.5" width="6.41" height="6.41"/><rect class="cls-2" x="137.8" y="196.5" width="6.41" height="6.41"/><rect class="cls-2" x="144.21" y="196.5" width="6.41" height="6.41"/><rect class="cls-2" x="150.62" y="196.5" width="6.41" height="6.41"/><rect class="cls-2" x="157.04" y="196.5" width="6.41" height="6.41"/><rect class="cls-2" x="163.45" y="196.5" width="6.41" height="6.41"/><rect class="cls-2" x="182.69" y="196.5" width="6.41" height="6.41"/><rect class="cls-2" x="189.1" y="196.5" width="6.41" height="6.41"/><rect class="cls-2" x="214.75" y="196.5" width="6.41" height="6.41"/><rect class="cls-2" x="227.58" y="196.5" width="6.41" height="6.41"/><rect class="cls-2" x="240.4" y="196.5" width="6.41" height="6.41"/><rect class="cls-2" x="60.84" y="202.91" width="6.41" height="6.41"/><rect class="cls-2" x="67.25" y="202.91" width="6.41" height="6.41"/><rect class="cls-2" x="73.67" y="202.91" width="6.41" height="6.41"/><rect class="cls-2" x="80.08" y="202.91" width="6.41" height="6.41"/><rect class="cls-2" x="105.73" y="202.91" width="6.41" height="6.41"/><rect class="cls-2" x="112.14" y="202.91" width="6.41" height="6.41"/><rect class="cls-2" x="124.97" y="202.91" width="6.41" height="6.41"/><rect class="cls-2" x="150.62" y="202.91" width="6.41" height="6.41"/><rect class="cls-2" x="189.1" y="202.91" width="6.41" height="6.41"/><rect class="cls-2" x="201.93" y="202.91" width="6.41" height="6.41"/><rect class="cls-2" x="214.75" y="202.91" width="6.41" height="6.41"/><rect class="cls-2" x="227.58" y="202.91" width="6.41" height="6.41"/><rect class="cls-2" x="233.99" y="202.91" width="6.41" height="6.41"/><rect class="cls-2" x="240.4" y="202.91" width="6.41" height="6.41"/><rect class="cls-2" x="60.84" y="209.33" width="6.41" height="6.41"/><rect class="cls-2" x="67.25" y="209.33" width="6.41" height="6.41"/><rect class="cls-2" x="73.67" y="209.33" width="6.41" height="6.41"/><rect class="cls-2" x="99.32" y="209.33" width="6.41" height="6.41"/><rect class="cls-2" x="105.73" y="209.33" width="6.41" height="6.41"/><rect class="cls-2" x="118.56" y="209.33" width="6.41" height="6.41"/><rect class="cls-2" x="124.97" y="209.33" width="6.41" height="6.41"/><rect class="cls-2" x="137.8" y="209.33" width="6.41" height="6.41"/><rect class="cls-2" x="144.21" y="209.33" width="6.41" height="6.41"/><rect class="cls-2" x="157.04" y="209.33" width="6.41" height="6.41"/><rect class="cls-2" x="182.69" y="209.33" width="6.41" height="6.41"/><rect class="cls-2" x="189.1" y="209.33" width="6.41" height="6.41"/><rect class="cls-2" x="214.75" y="209.33" width="6.41" height="6.41"/><rect class="cls-2" x="233.99" y="209.33" width="6.41" height="6.41"/><rect class="cls-2" x="67.25" y="215.74" width="6.41" height="6.41"/><rect class="cls-2" x="73.67" y="215.74" width="6.41" height="6.41"/><rect class="cls-2" x="80.08" y="215.74" width="6.41" height="6.41"/><rect class="cls-2" x="86.49" y="215.74" width="6.41" height="6.41"/><rect class="cls-2" x="99.32" y="215.74" width="6.41" height="6.41"/><rect class="cls-2" x="112.14" y="215.74" width="6.41" height="6.41"/><rect class="cls-2" x="131.38" y="215.74" width="6.41" height="6.41"/><rect class="cls-2" x="137.8" y="215.74" width="6.41" height="6.41"/><rect class="cls-2" x="157.04" y="215.74" width="6.41" height="6.41"/><rect class="cls-2" x="176.27" y="215.74" width="6.41" height="6.41"/><rect class="cls-2" x="189.1" y="215.74" width="6.41" height="6.41"/><rect class="cls-2" x="195.51" y="215.74" width="6.41" height="6.41"/><rect class="cls-2" x="201.93" y="215.74" width="6.41" height="6.41"/><rect class="cls-2" x="208.34" y="215.74" width="6.41" height="6.41"/><rect class="cls-2" x="214.75" y="215.74" width="6.41" height="6.41"/><rect class="cls-2" x="221.17" y="215.74" width="6.41" height="6.41"/><rect class="cls-2" x="233.99" y="215.74" width="6.41" height="6.41"/><rect class="cls-2" x="60.84" y="222.15" width="6.41" height="6.41"/><rect class="cls-2" x="67.25" y="222.15" width="6.41" height="6.41"/><rect class="cls-2" x="73.67" y="222.15" width="6.41" height="6.41"/><rect class="cls-2" x="80.08" y="222.15" width="6.41" height="6.41"/><rect class="cls-2" x="92.91" y="222.15" width="6.41" height="6.41"/><rect class="cls-2" x="99.32" y="222.15" width="6.41" height="6.41"/><rect class="cls-2" x="105.73" y="222.15" width="6.41" height="6.41"/><rect class="cls-2" x="112.14" y="222.15" width="6.41" height="6.41"/><rect class="cls-2" x="118.56" y="222.15" width="6.41" height="6.41"/><rect class="cls-2" x="157.04" y="222.15" width="6.41" height="6.41"/><rect class="cls-2" x="163.45" y="222.15" width="6.41" height="6.41"/><rect class="cls-2" x="182.69" y="222.15" width="6.41" height="6.41"/><rect class="cls-2" x="189.1" y="222.15" width="6.41" height="6.41"/><rect class="cls-2" x="195.51" y="222.15" width="6.41" height="6.41"/><rect class="cls-2" x="201.93" y="222.15" width="6.41" height="6.41"/><rect class="cls-2" x="214.75" y="222.15" width="6.41" height="6.41"/><rect class="cls-2" x="227.58" y="222.15" width="6.41" height="6.41"/><rect class="cls-2" x="240.4" y="222.15" width="6.41" height="6.41"/><rect class="cls-2" x="60.84" y="228.57" width="6.41" height="6.41"/><rect class="cls-2" x="67.25" y="228.57" width="6.41" height="6.41"/><rect class="cls-2" x="73.67" y="228.57" width="6.41" height="6.41"/><rect class="cls-2" x="86.49" y="228.57" width="6.41" height="6.41"/><rect class="cls-2" x="105.73" y="228.57" width="6.41" height="6.41"/><rect class="cls-2" x="118.56" y="228.57" width="6.41" height="6.41"/><rect class="cls-2" x="124.97" y="228.57" width="6.41" height="6.41"/><rect class="cls-2" x="144.21" y="228.57" width="6.41" height="6.41"/><rect class="cls-2" x="150.62" y="228.57" width="6.41" height="6.41"/><rect class="cls-2" x="157.04" y="228.57" width="6.41" height="6.41"/><rect class="cls-2" x="163.45" y="228.57" width="6.41" height="6.41"/><rect class="cls-2" x="169.86" y="228.57" width="6.41" height="6.41"/><rect class="cls-2" x="182.69" y="228.57" width="6.41" height="6.41"/><rect class="cls-2" x="189.1" y="228.57" width="6.41" height="6.41"/><rect class="cls-2" x="195.51" y="228.57" width="6.41" height="6.41"/><rect class="cls-2" x="201.93" y="228.57" width="6.41" height="6.41"/><rect class="cls-2" x="214.75" y="228.57" width="6.41" height="6.41"/><rect class="cls-2" x="221.17" y="228.57" width="6.41" height="6.41"/><rect class="cls-2" x="67.25" y="234.98" width="6.41" height="6.41"/><rect class="cls-2" x="73.67" y="234.98" width="6.41" height="6.41"/><rect class="cls-2" x="92.91" y="234.98" width="6.41" height="6.41"/><rect class="cls-2" x="105.73" y="234.98" width="6.41" height="6.41"/><rect class="cls-2" x="124.97" y="234.98" width="6.41" height="6.41"/><rect class="cls-2" x="131.38" y="234.98" width="6.41" height="6.41"/><rect class="cls-2" x="157.04" y="234.98" width="6.41" height="6.41"/><rect class="cls-2" x="163.45" y="234.98" width="6.41" height="6.41"/><rect class="cls-2" x="169.86" y="234.98" width="6.41" height="6.41"/><rect class="cls-2" x="176.27" y="234.98" width="6.41" height="6.41"/><rect class="cls-2" x="195.51" y="234.98" width="6.41" height="6.41"/><rect class="cls-2" x="201.93" y="234.98" width="6.41" height="6.41"/><rect class="cls-2" x="208.34" y="234.98" width="6.41" height="6.41"/><rect class="cls-2" x="214.75" y="234.98" width="6.41" height="6.41"/><rect class="cls-2" x="221.17" y="234.98" width="6.41" height="6.41"/><rect class="cls-2" x="227.58" y="234.98" width="6.41" height="6.41"/><rect class="cls-2" x="60.84" y="241.39" width="6.41" height="6.41"/><rect class="cls-2" x="67.25" y="241.39" width="6.41" height="6.41"/><rect class="cls-2" x="73.67" y="241.39" width="6.41" height="6.41"/><rect class="cls-2" x="80.08" y="241.39" width="6.41" height="6.41"/><rect class="cls-2" x="92.91" y="241.39" width="6.41" height="6.41"/><rect class="cls-2" x="118.56" y="241.39" width="6.41" height="6.41"/><rect class="cls-2" x="137.8" y="241.39" width="6.41" height="6.41"/><rect class="cls-2" x="150.62" y="241.39" width="6.41" height="6.41"/><rect class="cls-2" x="157.04" y="241.39" width="6.41" height="6.41"/><rect class="cls-2" x="163.45" y="241.39" width="6.41" height="6.41"/><rect class="cls-2" x="169.86" y="241.39" width="6.41" height="6.41"/><rect class="cls-2" x="176.27" y="241.39" width="6.41" height="6.41"/><rect class="cls-2" x="214.75" y="241.39" width="6.41" height="6.41"/><rect class="cls-2" x="221.17" y="241.39" width="6.41" height="6.41"/><rect class="cls-2" x="227.58" y="241.39" width="6.41" height="6.41"/><rect class="cls-2" x="233.99" y="241.39" width="6.41" height="6.41"/><rect class="cls-2" x="240.4" y="241.39" width="6.41" height="6.41"/><rect class="cls-3" x="16.27" y="17.26" width="31.42" height="31.42"/><path class="cls-2" d="M47.69,10.53H9.54V55.42H54.43V10.53Zm0,38.15H16.27V17.26H47.69Z"/><rect class="cls-3" x="208.66" y="17.26" width="31.42" height="31.42"/><path class="cls-2" d="M240.08,10.53H201.93V55.42h44.89V10.53Zm0,38.15H208.66V17.26h31.42Z"/><rect class="cls-3" x="16.27" y="209.65" width="31.42" height="31.42"/><path class="cls-2" d="M47.69,202.91H9.54v44.9H54.43v-44.9Zm0,38.16H16.27V209.65H47.69Z"/><rect class="cls-2" x="22.36" y="23.35" width="19.24" height="19.24"/><rect class="cls-2" x="214.75" y="23.35" width="19.24" height="19.24"/><rect class="cls-2" x="22.36" y="215.74" width="19.24" height="19.24"/></g></g></svg>