<svg xmlns="http://www.w3.org/2000/svg" viewBox="0 0 145.64 91.56"><defs><style>.cls-1{fill:#457597;}.cls-2{fill:#55c4c6;}.cls-3{fill:#90a0a5;}.cls-4{fill:#abc0c9;}</style></defs><title>Asset 9</title><g id="Layer_2" data-name="Layer 2"><g id="Layer_1-2" data-name="Layer 1"><g id="_Group_" data-name="&lt;Group&gt;"><polygon class="cls-1" points="145.64 0 140.95 7.98 139.88 6.19 145.64 0"/><path class="cls-1" d="M141,8l.11.19-.19.11c-.19.08,0-.12.07-.28Z"/><path class="cls-1" d="M126.71,17a10.54,10.54,0,0,1,1.88-1.68c.34,0,2.07-1.23,1.14-.14a10.44,10.44,0,0,0,1.1-.86c.33-.39-.13-.67.7-1.34l.51-.05c0-.47.85-.92,1.34-1.48h0a8.34,8.34,0,0,0,1.6-.83l.07,0a.77.77,0,0,0-.13.12c.11-.07.13-.1.13-.12a11.8,11.8,0,0,1,1.23-.86.32.32,0,0,1,.14,0s0-.1.11-.19c.47-.31,1-.66,1.56-1.08l-.37.48L138,9c0,.07,0,.09.2,0a1.42,1.42,0,0,1,.08-.18c.77-.43.29-.78,1.3-1.25,0,.23.43,0,.88-.2l.09-.06.33.56,0,0C140.32,9,138,9.82,137.1,11.3l.38-.6-.89.52c-.05.2.17.11-.16.49-.83.56-1.06.54-1.67,1-.06-.15.15-.61-.68.18l.52.2c-1.06.53-1.93,1.89-2.95,2.1.17-.14.28-.19.22-.22-.28-.18-.88.64-1.45.89l.29.05c-.72.63-.62.1-1.23.55l.17.23c-.11-.07-.44.07-.67.17l-1,1,.11-.17c-.39.36-.9.28-1.28,1,.11-.06.39-.24.17,0-.73.26-.77.71-1.06.41-.54,1.09-2.71,2.6-4.32,3.74v-.24c.94-.72-.07-.51.2-.93-1.49,1.33-.77.94-1.65,1.94-2.24,1.12-4.76,3.93-6.34,4.51.5-.52,0-.44-.46-.16-.43.56.34.09,0,.69-1.68.86-3.67,2.95-5.12,3.83.22-.33.55-.72.38-.83-.5.52-.76,1.31-1.66,1.71,0-.09,0-.12,0-.21-.75,1.42-3.19,1.48-4.5,3.63l-.35-.21.68-.3c-.74,0-.29-.18-1-.24-.11.29-1.15,1.42-.54,1.21l.22-.34c-.14,1-2.23,1.47-2.55,2.34-1.45,1.12-3.52,2.21-4.52,3,.06-.09.17-.26,0-.21-.43.92-2.66,2.14-3.34,2.32-.17.25-.5.64-.72,1l.22-.34c-3.18,2.19-6.3,4.4-9.15,6.79-.56.36.73-.62.1-.41-.49.76-1,.88-1.72,1.54.22-.58-.67.41-.8.1l-.94,1-.34-.09-.5.63c-.28.19-.12-.19-.57.13a2.07,2.07,0,0,1-.85.9c.72-.74.89-1.58,2-1.83.28-.42-.22,0-.68,0,.67-.65,1-.59,2-1.51l-.16.61c1.46-1.23-.16.26.74-.13L81,51.38l.17,0a7.38,7.38,0,0,0,1.94-2v.24a4.63,4.63,0,0,0,.55-.61l.06.16,1-1-.06.09,1.34-.95-.16.25c1.28-1,1.71-1.9,2.88-2.59.07.15-.49.76-.09.64l.21-.33c.12-.05.18,0,.29-.07.78-.58-.18-.34.15-.61.62-.45,1.48-.16,2.69-1.3-.82,1,.12.19.24.26-.13-.67,2.21-2.19,2.42-2.89,1-.12,1-1,2-1.72a.94.94,0,0,0-.08,1.12c.66-.77,2.1-1.89,3.1-2.94,2.54-1.36,3-2.59,5.54-3.95a2.76,2.76,0,0,1-.52.88c1.3-.51.83-.91,1.9-1.32.6-.81-.45.08-1,.12l.49-.76.12.31c1.06-.65.71-.86,1-1.28.78-.59.18.22.63,0,2.35-1.28,2.71-2.59,4.71-4l-.22.34a13.86,13.86,0,0,0,3-2.51c.06,0,.07-.19,0-.28.5-.24,1.22-.86,1.05-.49.45-.94,2.07-1.82,3.13-2.86-.33.35-.5.62,0,.51,1.17-.82,2.66-2.16,3.78-2.77-.27.54-.38.71,0,.8a4.91,4.91,0,0,1,1.68-2.39l.12.19c1.12-.74,1.7-1.9,2.49-1.9C126.64,16.54,127,16.51,126.71,17Z"/><path class="cls-1" d="M139.94,6.34l.57,1-.09.06L140.17,7c-.41.31-.8.6-.7.24a12,12,0,0,0-1.23,1.62L138,9c0-.26.83-1.12.12-.71l-.76.82L137,9c0,.11-.31.42-.49.63l-.25.16c-.28-.05-.63,0-.69-.14A.86.86,0,0,0,136,9c-.32.4-.4.6-.35.71-.52.48-1.46.87-1.8,1.4l-.12-.07a1.42,1.42,0,0,1-.29.46h0a3.25,3.25,0,0,0-1.14.74c0-.17.84-.58.08-.47.06.31-1.41.9-1.21,1-.23,0-1.09.4-1,.08-.57.3-.3.41-.08.48-.8-.06-.87.7-1.6.58,0,0,.26-.17.45-.27a1.09,1.09,0,0,0-.89.14l.09.49c-1.43.6-1,.45-2.61,1.15.65-.49-.22-.07.06-.35-1.16.71-.23.33-1.34,1.09l.29-.69c-1.21.67,0,.8-1.62,1.38.3-.41-.91-.42-.27-.79-.69,0-2.75,1.3-2.33.86-2,.79-1.51,1.76-3.26,2.21h-.57a1.35,1.35,0,0,1-.51.57c.12-.11.15-.22,0-.34-1.25.75-1.55.86-2,1.4.19-.29.46-.72-.21-.52-.28,0-.68.33-1,.45-.4.32.15.42-.62.94-.81.35-1.53,1.19-2.13,1l.85-.3.27-.57a13.33,13.33,0,0,0-2.68,1.52l-.16,0c-1.09,1.05-.78-.16-2.33.87-.47.39-1.2.95-1.41,1.17l.72-.84-1.53.91.24.23A41.29,41.29,0,0,0,99.52,27a7.88,7.88,0,0,0-2.36,1.67c-1.74.45.88-1.1-.58-.94a10.33,10.33,0,0,1-3.64,2.13c0,.16.66.19-.17.66a6.14,6.14,0,0,0-2.32,1.11s0,0,0-.08c-.73,1-2.13,1.06-2.76,1.71.07-.07,0,0,0-.12l-1.55,1-.8,0c-.49.51-.63.37-1.22.79.16-.26,1-.85.28-.69.15.39-1.79,1-1.43,1l-1.08.67-.35-.32-2,1.26c.6-.13.27.11.68.08-.27.37-1.82.57-2.56,1.21l.21-.22a8.52,8.52,0,0,0-3.36,1.57l.72-.16c-1.5.4-1.77,1-3.17,1.47.21-.22.42-.44.13-.43a16.13,16.13,0,0,1-3.44,1.94s0,0,0,0c-.66.21-.88.15-.89-.14.66-.21.87-.43.84-.59-2.48.75-.16.95-2,1.56.32-.25.11-.31-.13-.26l-.43.56.14-.55c-.34,0-.76.41-1.13.62l0,0c-.32-.06-.6-.12,0-.54-.45.39-1.09.37-1.33.83l.58,0c-.46.39-.65.09-1.06.54-.22-.07.6-.55,0-.41-.8.37-.92.8-.89,1,.31-.13.26-.18.39-.32.34.43-.47.51-.92,1.19l.26-.58-1.5.83c.43-.57-.16-.42,0-.92-.56.51-1.22,1.16-1.95,1.77-.37.31-.73.61-1.1.87a9,9,0,0,1-1.13.69c.2-.32.45-.63.68-.94a6.21,6.21,0,0,0-.78.43,5.39,5.39,0,0,0-.54.5,3.45,3.45,0,0,0-.63,1,.93.93,0,0,1-.15-.61,5.12,5.12,0,0,1,.34-1,4.34,4.34,0,0,1-1,.82c-.35.25-.58.47-.39.61l.11.06c-.21.11-.51.7-.72,1a3.73,3.73,0,0,1,.07-.56c0-.18.06-.38.12-.57a7,7,0,0,0-.46.75,4.2,4.2,0,0,0-.28.82c-.06.51,0,.75.25.47a3.2,3.2,0,0,0-.06.44.58.58,0,0,1-.07.25.24.24,0,0,1-.23.16c-.18,0-.41-.1-.47.27a1.68,1.68,0,0,0,.06.37,2.56,2.56,0,0,0,.07.27.66.66,0,0,0,.13.28c.08.09.13,0,.17,0s.18-.26.52.57l-.06-.07A13.42,13.42,0,0,1,54,56.15a.84.84,0,0,0-.26-.27,7,7,0,0,0,.56,1.75l-.23.15c-.06-.1-.18-.16-.43-.17,0,.23-.25.63-.49.36l.15.3c-.09.1-.17.12-.23.1h0a15.8,15.8,0,0,1-1.8-3l.05,0a19.78,19.78,0,0,1-.8-3.48,1.08,1.08,0,0,1,.25-.52,4.08,4.08,0,0,0,.33-.69c-.13-.07-.14-.23-.07-.47a3.52,3.52,0,0,1,.16-.38c.08-.13.17-.26.27-.4l.3-.43a4.08,4.08,0,0,0,.31-.39,4.25,4.25,0,0,0,.25-.39,2,2,0,0,0,.15-.38l.66-.36c.22-.11.44-.19.66-.28a1.21,1.21,0,0,1,.26-.4,4.63,4.63,0,0,1,.51-.44l.58-.44.5-.33c-.28.31.72-.1,1.41-.47-.36.08,1.49-.73,2.09-1.28l0,.17c.92-.41,2.29-1.49,2.77-1.2a3.5,3.5,0,0,0,1.42-1l1.15-.33-.19.1c.16.42,1.06-.54,1.71-.63l-.41,0c.21-.14.4-.39.6-.55l-.11.32a2.68,2.68,0,0,0,.75-.69c0,.24.7-.05,1.19-.28-.42.16,0-.12,0-.12,0-.24,2.08-.43,3.27-1.39.14-.15.28-.3.18-.39,1.06-.13,2.34-1.28,2.87-1.34-.52.35-.35.36-.44.55a3.61,3.61,0,0,0,1.53-.92c.86-.31-.06.36.4.36,1.31-.58-.23-.34.76-.8,3.69-1.41,7.33-4,10.24-4.84-.14.14.15.13.13.25.86-.31,1.09-1,1.9-1-.15.15-.48.39-.31.41.27-.57,2.43-1.46,2.7-2l.15.13A12.31,12.31,0,0,1,94.74,27c-.19.11-.07.08,0,.12.7-.72,1.59-.87,2.74-1.58.69.35,2.59-1.33,3.22-1,2.92-1.29,3.68-2.36,5.89-3.2-.46.38.49.17.89-.15l-.22-.06A23.68,23.68,0,0,0,111.63,19c.36-.08.13.25.56.1l.25-.45a4.29,4.29,0,0,0,.77-.12,10.7,10.7,0,0,1,2.31-1.43c.22.07.3.28.87,0a29.93,29.93,0,0,1,4.91-2.46l-.21.21a8,8,0,0,0,2.06-1c-.14.15.09.21.06.33.63-.65,1.92-1.11,2.29-1.59l1.86-.75-.1-.1c2.64-1,5.15-2.5,7.58-3.27,1.5-.34,3.2-1.86,4.94-2.44l.1.18h0C139.77,6.3,139.73,6.38,139.94,6.34Z"/><path class="cls-1" d="M140.17,7l.25.41c-.45.21-.92.43-.88.2-1,.47-.53.82-1.3,1.25a12,12,0,0,1,1.23-1.62C139.37,7.56,139.76,7.27,140.17,7Z"/><path class="cls-1" d="M138.08,8.25c.71-.41-.1.45-.12.71l-.23.09.37-.48c-.55.42-1.09.77-1.56,1.08.18-.21.53-.52.49-.63l.29.05Z"/><path class="cls-1" d="M136,9a.86.86,0,0,1-.35.71C135.55,9.56,135.63,9.36,136,9Z"/><path class="cls-1" d="M135.6,9.67c.06.15.41.09.69.14a11.8,11.8,0,0,0-1.23.86l-.07,0a8.34,8.34,0,0,1-1.6.83,1.42,1.42,0,0,0,.29-.46l.12.07C134.14,10.54,135.08,10.15,135.6,9.67Z"/><path class="cls-1" d="M135.06,10.67s0,.05-.13.12A.77.77,0,0,1,135.06,10.67Z"/><path class="cls-2" d="M54.08,49.26l.11.05C54.18,49.23,54.14,49.22,54.08,49.26ZM115.6,19.83c-.43.23-1.1.46-1.26.8A10.53,10.53,0,0,1,115.6,19.83ZM69.47,59.52h0Zm0,0s0,0,0,.05A17.53,17.53,0,0,1,66.56,62l-1.71,0c.08-.18.16-.33.1-.41s-.33,0-1,.16a2.86,2.86,0,0,1-.83.67,2.63,2.63,0,0,1-.51.21.42.42,0,0,1-.36,0l0,.32a4.62,4.62,0,0,1-.49.18,1,1,0,0,1-.3,0,.33.33,0,0,1-.23-.2.45.45,0,0,0-.29-.21,2.74,2.74,0,0,0-.32-.07,3.79,3.79,0,0,1-.53,0l.18.08.19,0c-.18,0-.33.06-.49.08l-.26,0a.7.7,0,0,1-.26-.1c-.08-.12.16-.09.31-.13h-.57l-.19,0-.4-.06-.4-.13c0-.19.16-.24.49-.2-.59-.35-.61-.24-.67-.11s-.06.12-.17.07a1.88,1.88,0,0,1-.63-.56c-.15-.35.23-.05.48,0A3,3,0,0,0,57.4,61a2.62,2.62,0,0,0-.39-.42l-.44-.41c-.16-.14-.33-.29-.5-.47.23-.17.56.37.27-.39,0,.21-.19.45-.56-.06.41.1-.12-.48-.38-1.05a.73.73,0,0,0-.13-.43,1.31,1.31,0,0,0,.13.43c0,.16-.16.19-.33,0s-.23-.52-.46-.88l.14.8a2.37,2.37,0,0,1-.41-.53,7,7,0,0,1-.56-1.75.84.84,0,0,1,.26.27,3.55,3.55,0,0,0,.28.63,1.8,1.8,0,0,0-.28-.63,13.42,13.42,0,0,0-.94-2.46l.06.07c-.34-.83-.41-.7-.52-.57s-.09.11-.17,0a.66.66,0,0,1-.13-.28,2.56,2.56,0,0,1-.07-.27,1.68,1.68,0,0,1-.06-.37c.06-.37.29-.25.47-.27a.24.24,0,0,0,.23-.16.58.58,0,0,0,.07-.25,3.2,3.2,0,0,1,.06-.44c-.25.28-.31,0-.25-.47a4.2,4.2,0,0,1,.28-.82,7,7,0,0,1,.46-.75c-.06.19-.08.39-.12.57a3.73,3.73,0,0,0-.07.56c.21-.3.51-.89.72-1L54,49.2c-.19-.14,0-.36.39-.61a4.34,4.34,0,0,0,1-.82,5.12,5.12,0,0,0-.34,1,.93.93,0,0,0,.15.61,3.45,3.45,0,0,1,.63-1,5.39,5.39,0,0,1,.54-.5,6.21,6.21,0,0,1,.78-.43c-.23.31-.48.62-.68.94a9,9,0,0,0,1.13-.69c.37-.26.73-.56,1.1-.87.73-.61,1.39-1.26,1.95-1.77-.18.5.41.35,0,.92l1.5-.83-.26.58c.45-.68,1.26-.76.92-1.19-.13.14-.08.19-.39.32,0-.16.09-.59.89-1,.6-.14-.22.34,0,.41.41-.45.6-.15,1.06-.54l-.58,0c.24-.46.88-.44,1.33-.83-.57.42-.29.48,0,.54l.44.14c0-.09-.25-.12-.44-.14l0,0c.37-.21.79-.65,1.13-.62l-.14.55.43-.56c.24,0,.45,0,.13.26,1.87-.61-.45-.81,2-1.56,0,.16-.18.38-.84.59,0,.29.23.35.89.14,0,0,0,0,0,0a9.61,9.61,0,0,0-1.4.73c.2,0,1.55-.51,1.4-.73a16.13,16.13,0,0,0,3.44-1.94c.29,0,.08.21-.13.43,1.4-.49,1.67-1.07,3.17-1.47l-.72.16a8.52,8.52,0,0,1,3.36-1.57l-.21.22a1.47,1.47,0,0,0-.21.22l.21-.22c.74-.64,2.29-.84,2.56-1.21-.41,0-.08-.21-.68-.08l2-1.26.35.32L83,35.19h.12l0,0-.07,0c-.36,0,1.58-.6,1.43-1,.72-.16-.12.43-.28.69.59-.42.73-.28,1.22-.79l.8,0,1.55-1c-.07.07,0,0,0,.12.63-.65,2-.74,2.76-1.71,0,.05,0,.05,0,.08l-.07.11c.06-.06.07-.09.07-.11a6.14,6.14,0,0,1,2.32-1.11c.83-.47.2-.5.17-.66a10.33,10.33,0,0,0,3.64-2.13c1.46-.16-1.16,1.39.58.94A7.88,7.88,0,0,1,99.52,27,41.29,41.29,0,0,1,104,25.58l-.24-.23,1.53-.91-.72.84c.21-.22.94-.78,1.41-1.17,1.55-1,1.24.18,2.33-.87l.16,0a.51.51,0,0,0-.08.17c.16-.1.15-.15.08-.17a13.33,13.33,0,0,1,2.68-1.52l-.27.57-.85.3c.6.15,1.32-.69,2.13-1,.77-.52.22-.62.62-.94.31-.12.71-.44,1-.45.67-.2.4.23.21.52a.8.8,0,0,0-.09.14.8.8,0,0,0,.09-.14c.41-.54.71-.65,2-1.4.14.12.11.23,0,.34a1.35,1.35,0,0,0,.51-.57H117c1.75-.45,1.28-1.42,3.26-2.21-.42.44,1.64-.82,2.33-.86-.64.37.57.38.27.79,1.6-.58.41-.71,1.62-1.38l-.29.69c1.11-.76.18-.38,1.34-1.09-.28.28.59-.14-.06.35,1.61-.7,1.18-.55,2.61-1.15l-.09-.49a1.09,1.09,0,0,1,.89-.14c-.19.1-.5.22-.45.27.73.12.8-.64,1.6-.58-.22-.07-.49-.18.08-.48,0,.32.81-.07,1-.08-.2-.09,1.27-.68,1.21-1,.76-.11-.08.3-.08.47a3.25,3.25,0,0,1,1.14-.74c-.49.56-1.36,1-1.34,1.48l-.51.05c-.83.67-.37.95-.7,1.34a10.44,10.44,0,0,1-1.1.86c.93-1.09-.8.11-1.14.14A10.54,10.54,0,0,0,126.71,17c.28-.5-.07-.47.81-1.15-.79,0-1.37,1.16-2.49,1.9l-.12-.19A4.91,4.91,0,0,0,123.23,20c-.35-.09-.24-.26,0-.8-1.12.61-2.61,1.95-3.78,2.77-.48.11-.31-.16,0-.51-1.06,1-2.68,1.92-3.13,2.86.17-.37-.55.25-1.05.49,0-.06-.14-.07-.29.1a.59.59,0,0,0,.29-.1c.06.09.05.25,0,.28a13.86,13.86,0,0,1-3,2.51l.22-.34c-2,1.37-2.36,2.68-4.71,4-.45.2.15-.61-.63,0-.27.42.08.63-1,1.28l-.12-.31-.49.76c.51,0,1.56-.93,1-.12-1.07.41-.6.81-1.9,1.32a2.76,2.76,0,0,0,.52-.88l.08-.05c0-.18,0-.11-.08.05-2.5,1.36-3,2.59-5.54,3.95-1,1.05-2.44,2.17-3.1,2.94A.94.94,0,0,1,96.57,39c-1,.68-1,1.6-2,1.72-.21.7-2.55,2.22-2.42,2.89-.12-.07-1.06.77-.24-.26-1.21,1.14-2.07.85-2.69,1.3-.33.27.63,0-.15.61-.11,0-.17,0-.29.07l-.21.33c-.4.12.16-.49.09-.64-1.17.69-1.6,1.61-2.88,2.59l.16-.25-1.34.95.06-.09-1,1L83.65,49a4.63,4.63,0,0,1-.55.61v-.24a7.38,7.38,0,0,1-1.94,2l-.17,0-1.22,1.38c-.9.39.72-1.1-.74.13l.16-.61c-1,.92-1.29.86-2,1.51.46-.08,1-.47.68,0-1.13.25-1.3,1.09-2,1.83-.19.15-.41.31-.65.53L75.06,56c.69-.7,1.5-1.5,1.32-1.8l-1.22,1.38c-.4-.13-1.35.58-2.14,1.27l1-.7c-.23.21.06.27-.17.49-1.57.91-1.68,1.56-3.26,2.23l.06-.08-1,.94c-.37.2-.32,0-.25-.15Zm60.87-45.29.05-.32-.27.43ZM113.93,26.09c.22-.1.88-.76.6-.69A4.86,4.86,0,0,1,113.93,26.09Zm-4.17,3.24.32-.51-.38.48Z"/><polygon class="cls-1" points="130.37 13.93 130.32 14.25 130.1 14.36 130.37 13.93"/><path class="cls-1" d="M121.59,22.51v.11C121.49,22.67,121.54,22.59,121.59,22.51Z"/><path class="cls-1" d="M115,24.87c.15-.17.24-.16.29-.1A.59.59,0,0,1,115,24.87Z"/><path class="cls-1" d="M114.53,25.4c.28-.07-.38.59-.6.69A4.86,4.86,0,0,0,114.53,25.4Z"/><path class="cls-1" d="M115.6,19.83a10.53,10.53,0,0,0-1.26.8C114.5,20.29,115.17,20.06,115.6,19.83Z"/><path class="cls-1" d="M113.93,20.72a.8.8,0,0,1-.09.14A.8.8,0,0,1,113.93,20.72Z"/><polygon class="cls-1" points="110.08 28.82 109.76 29.33 109.7 29.3 110.08 28.82"/><path class="cls-1" d="M108.42,23.28c.07,0,.08.07-.08.17A.51.51,0,0,1,108.42,23.28Z"/><path class="cls-1" d="M105.13,33.21c.07-.16.1-.23.08-.05Z"/><path class="cls-1" d="M90.38,31.71l.07-.11S90.44,31.65,90.38,31.71Z"/><path class="cls-1" d="M83.13,35.18H83l.07,0Z"/><path class="cls-1" d="M77.65,38.09l-.21.22A1.47,1.47,0,0,1,77.65,38.09Z"/><path class="cls-1" d="M76.38,54.21c.18.3-.63,1.1-1.32,1.8-.21.21-.4.41-.56.59-1.18,1-2.88,1.76-4,2.85l0-.09a4.53,4.53,0,0,0-2,1.31,4.26,4.26,0,0,1-2,1.3,17.53,17.53,0,0,0,2.84-2.38c-.07.12-.12.35.25.15l1-.94-.06.08c1.58-.67,1.69-1.32,3.26-2.23.23-.22-.06-.28.17-.49l-1,.7c.79-.69,1.74-1.4,2.14-1.27Z"/><path class="cls-1" d="M75.88,55.57a3.19,3.19,0,0,1-.65.53C75.47,55.88,75.69,55.72,75.88,55.57Z"/><path class="cls-1" d="M69.48,59.51h0Z"/><path class="cls-1" d="M69.45,59.54l0,.05S69.44,59.54,69.45,59.54Z"/><path class="cls-1" d="M68.74,42.26c.15.22-1.2.73-1.4.73A9.61,9.61,0,0,1,68.74,42.26Z"/><polygon class="cls-1" points="66.27 62.02 65.49 62.86 65.21 62.79 66.27 62.02"/><path class="cls-1" d="M65.23,41l.41,0A.38.38,0,0,1,65.23,41Z"/><path class="cls-1" d="M65.57,43.58l-.44-.14C65.32,43.46,65.52,43.49,65.57,43.58Z"/><path class="cls-1" d="M65,61.53c.06.08,0,.23-.1.41l-.06.14c.38,0,0,.7-.57,1.38a9.29,9.29,0,0,1-.92.88,5.54,5.54,0,0,1-.49.35c0-.12.2-.24,0-.28l-.66.29-.7.2a3.46,3.46,0,0,1-.74.14,3.74,3.74,0,0,1-.75,0,4.4,4.4,0,0,1-2.81-1c-.26-.4.11-.2.46,0s.74.26.38-.13a3.63,3.63,0,0,1-1.48-.66c-.44-.31-.85-.66-1.35-1-.15-.26-.33-.62-.55-1a7.63,7.63,0,0,0-.59-.89c.09.1.15.14.13,0a1,1,0,0,0-.18-.29l.24-.32c.08.06.07.15.11.25s.26-1.51-.14-1.82a1.07,1.07,0,0,0-.1-.41l.23-.15a2.37,2.37,0,0,0,.41.53l-.14-.8c.23.36.26.64.46.88s.31.15.33,0c.26.57.79,1.15.38,1.05.37.51.52.27.56.06.29.76,0,.22-.27.39.17.18.34.33.5.47l.44.41a2.62,2.62,0,0,1,.39.42,3,3,0,0,1,.34.51c-.25-.1-.63-.4-.48,0a1.88,1.88,0,0,0,.63.56c.11.05.15,0,.17-.07s.08-.24.67.11c-.33,0-.45,0-.49.2l.4.13.4.06.19,0h.57c-.15,0-.39,0-.31.13a.7.7,0,0,0,.26.1l.26,0c.16,0,.31,0,.49-.08l-.19,0-.18-.08a3.79,3.79,0,0,0,.53,0,2.74,2.74,0,0,1,.32.07.45.45,0,0,1,.29.21.33.33,0,0,0,.23.2,1,1,0,0,0,.3,0,4.62,4.62,0,0,0,.49-.18l0-.32a.42.42,0,0,0,.36,0,2.63,2.63,0,0,0,.51-.21,2.86,2.86,0,0,0,.83-.67C64.62,61.49,64.89,61.43,65,61.53Z"/><path class="cls-1" d="M55.27,57.8a.73.73,0,0,1,.13.43A1.31,1.31,0,0,1,55.27,57.8Z"/><path class="cls-1" d="M54.21,58.19c.4.31.14,1.82.14,1.82s0-.19-.11-.25l-.24.32c-.27-.39-.61-.45-1-1l.24-.49-.16-.26c.06,0,.14,0,.23-.1l-.15-.3c.24.27.47-.13.49-.36.25,0,.37.07.43.17A1.07,1.07,0,0,1,54.21,58.19Z"/><path class="cls-1" d="M54.19,49.31l-.11-.05C54.14,49.22,54.18,49.23,54.19,49.31Z"/><path class="cls-1" d="M54.32,56.78a3.55,3.55,0,0,1-.28-.63A1.8,1.8,0,0,1,54.32,56.78Z"/><path class="cls-1" d="M53.91,60.2a1.06,1.06,0,0,1-.77.47c-.38-.24.27-.35-.16-.59,0,.47-.32.48-.42.94a.69.69,0,0,0-.62.2s.06-.09,0-.13c-.23,0-.08.37-.23.54l-.33-.38c-.34.25-.48.7-.76.81l0-.05c-.29.1-.57.21-.66.63.1-.44.18-.89.26-1.34l0,.06a5.53,5.53,0,0,0-.21-.62,3,3,0,0,0,.31-.7.27.27,0,0,0,.35-.21l-.27-.1a.17.17,0,0,0,0-.07c.08,0,.15,0,.19-.07a.26.26,0,0,0-.11-.28c.2,0,.34-.28.41,0,.15-.12,0-.33-.13-.44.31,0,.12.11.28.36.16-.31.2-.63.6-.54,0,.14-.12.27.05.34.61-.21-.23-.41.21-.68a.53.53,0,0,0,.13.44l.25-.68c0,.09-.06.18,0,.24s.15-.22.25-.3l-.18,0c.43-.27.54.22.73.3h0l.16.26-.24.49c.36.51.7.57,1,1A.62.62,0,0,1,53.91,60.2Z"/><path class="cls-1" d="M51.94,61.23a.36.36,0,0,0,0,.09A.18.18,0,0,1,51.94,61.23Z"/><path class="cls-1" d="M26.5,36c0,.12-.6.15-.62.31l-.14-.22-.71.26c-.69-.07.71-.5.2-.7a1.9,1.9,0,0,1-.6.44c-.23.13-.49.24-.73.39.17-.25-.14-.23-.46-.17s-.68.12-.62-.1c-.86.15-.31.8-1.33.89l.27-.36q-.69.42-1.23.69a4.78,4.78,0,0,0-.85.57l-.05-.06a2.29,2.29,0,0,1-.9.42c-.38.14-.75.33-.85.58-.05-.16.52-.42,0-.44.08.3-.9.67-.68.78-.15-.05-.72.24-.75-.07-.34.23-.12.36,0,.45-.58-.13-.46.57-1,.4-.05-.05.13-.15.25-.23a.55.55,0,0,0-.61.07l.2.47a8,8,0,0,0-.73.44l-.78.52c.3-.44-.19-.06-.09-.33-.58.66,0,.32-.56,1l-.05-.63c-.63.62.3.72-.61,1.29.05-.38-.84-.33-.53-.69-.26,0-.61.39-.89.66s-.47.52-.43.3a1.7,1.7,0,0,0-.49.66,2.92,2.92,0,0,0-.11.61,1.62,1.62,0,0,1-.1.54,1.12,1.12,0,0,1-.44.51l-.4.12a.69.69,0,0,1,0,.51c0-.09-.06-.17-.21-.23-.43.92-.54,1-.41,1.63-.07-.22-.14-.82-.52-.44-.2.08-.26.42-.38.6,0,.34.4.25.24.83s-.13,1.25-.61,1.36c.1-.16.2-.33.31-.48L7.3,48.7c-.16.42-.32.8-.44,1.12a1.11,1.11,0,0,0-.11.76l-.13,0c.14,1-.62.2-.73,1.42.06.41.1,1,.17,1.21-.11-.25-.2-.49-.29-.74l-.07.57,0,.57H6A5.4,5.4,0,0,0,5.34,55c-.09.26-.16.52-.24.77s-.14.47-.2.67A5.2,5.2,0,0,0,5,57.62a1.14,1.14,0,0,0,.3.63c-.17.55-.33.36-.52.13s-.38-.51-.64-.06c.25.77.37,1,.45,1.26a9.73,9.73,0,0,1,.11,1.47c.17,0,.44-.39.58.2,0,.34-.1,1.31.3,1.61h0a1.1,1.1,0,0,1,.34.45,2.35,2.35,0,0,1,.17.51,1.36,1.36,0,0,0,.36.89c-.06,0-.06,0-.11,0,.2.34.41.67.64,1l-.22.55c.39.29.24.4.54.76-.23-.07-.65-.59-.62-.11.2-.07.35.21.46.48s.22.52.25.39c.17.22.32.44.5.64l-.35.32c.33.4.66.8,1,1.17-.08-.39.13-.22.12-.51.17,0,.27.33.39.65a1.64,1.64,0,0,0,.59.81l-.19-.07a2.82,2.82,0,0,0,1.43,1.82l-.17-.45a1.85,1.85,0,0,0,.32.53,2.83,2.83,0,0,0,.37.33,3.63,3.63,0,0,1,.78.73c-.21,0-.41-.08-.38.12a8.41,8.41,0,0,1,2,1.4s0,0,0,0c.27.35.28.53.06.72-.3-.34-.5-.37-.63-.25.26.34.45.47.59.5a.32.32,0,0,0,.31-.12c.16-.16.29-.36.72.1-.26-.07-.26.12-.16.25l.51-.06-.44.25c.06.26.49.27.73.39v0c.05.25.08.49-.38.38.41.06.58.5,1,.35l-.18-.38c.41,0,.25.39.68.35,0,.19-.56,0-.28.28a.68.68,0,0,0,.93-.09c-.18-.11-.2,0-.34,0,.18-.5.45-.1,1-.24l0,0-.37.22c.34.11.68.25,1,.35-.49.16-.21.42-.57.69h.2c-.17.32,0,.63-.05,1-.2-.21-.19-.31-.21-.64-.41,0-.82.51-1.2.7a.25.25,0,0,1-.13-.4,1.45,1.45,0,0,1-.41.37.39.39,0,0,1-.14-.3,2,2,0,0,0-1.22-.29c-.21-.2-.42-.39-.61-.6l.13.07c.27-.39-.72-.42-1-.84l.14.28a5.4,5.4,0,0,0-.58-.11l.27-.11a1.57,1.57,0,0,0-.74-.14c.2-.11-.21-.49-.5-.73.22.23-.11,0-.11,0s-.31-.27-.6-.67a4.58,4.58,0,0,0-.51-.61,2,2,0,0,0-.66-.48c-.15,0-.29-.07-.36,0a2.23,2.23,0,0,0-.81-1c-.33-.28-.64-.52-.69-.71.36.27.36.13.54.12-.39-.48-.45-.64-.94-.84-.31-.56.34-.08.33-.44-.57-.8-.33.3-.76-.32-.69-1.2-1.52-2.38-2.21-3.58A8.88,8.88,0,0,1,3.88,65.3c.11.1.17-.11.28-.1-.09-.62-.75-.83-.48-1.4.1.11.26.36.32.24-.26-.11-.43-.58-.6-1s-.32-1-.56-1.09L3,61.83a11,11,0,0,1-.38-1.47,2,2,0,0,1,0-1.08c0,.15,0,.06.1,0a2,2,0,0,1-.24-1,7.39,7.39,0,0,0,0-1.23c.33-.15.35-.66.35-1.17s.06-1,.36-1.12a15.08,15.08,0,0,0,.29-2.56,9,9,0,0,1,.12-1A4.22,4.22,0,0,1,4,50.14c0,.45.45-.11.46-.47l-.19,0A11.66,11.66,0,0,1,5,48.3a6.68,6.68,0,0,0,.7-1.72c.2-.18.27.14.46-.11L6,46.05a2.67,2.67,0,0,0,.48-.32A4.28,4.28,0,0,1,7.3,44c.2,0,.38.15.63-.23a5.4,5.4,0,0,1,.94-1.43c.23-.26.49-.54.76-.8s.54-.49.8-.71l-.07.22c.37-.12.76-.64,1.19-1.06-.05.14.14.19.17.3a2.88,2.88,0,0,1,.65-.85,2.11,2.11,0,0,0,.59-.7c.4-.25.82-.46,1.23-.68l-.1-.09c.45-.22.91-.43,1.34-.67s.89-.46,1.33-.66a12,12,0,0,1,1.35-.55l.67-.2a5.65,5.65,0,0,1,.68-.11,5.41,5.41,0,0,0,1.85-.55c.33-.12.67-.26,1-.35a3.64,3.64,0,0,1,1-.1c.26,0-.5.32-.07.39a2.11,2.11,0,0,1,1.56-.43,7.93,7.93,0,0,0,1-.07,2.15,2.15,0,0,0,.91-.31l-.46.27c.24,0,.48.07.71.12.12-.14-.05-.2.3-.31.71.07.82.24,1.35.28-.05.17-.37.4.43.31l-.16-.5a4.14,4.14,0,0,0,1.33.1,1.63,1.63,0,0,1,1.18.33c-.15,0-.23-.06-.22,0,0,.33.74.17,1.12.4l-.08-.25c.67.08.3.4.82.53l.07-.29c0,.14.22.29.36.39.34,0,.69,0,1,.05l-.14,0c.36.07.48.51,1.08.35-.07,0-.29-.15-.07-.12.41.4.73.17.6.58.93-.26,2.61.66,3.76,1.47l-.19.12c-.71-.41-.41.3-.77.3,1.26.57.85.16,1.77.44a7.06,7.06,0,0,0,1.05,1c.39.32.82.62,1.21.94a8.53,8.53,0,0,1,1.08.93,2.3,2.3,0,0,1,.61.92c-.42-.29-.39.07-.19.42.46.22.12-.31.62-.13a11.07,11.07,0,0,0,1.37,1.84c.27.3.51.63.73.93a3.73,3.73,0,0,1,.51.89c-.26-.16-.53-.4-.68-.25a7.78,7.78,0,0,0,.67.49,1.11,1.11,0,0,1,.48.75c-.07,0-.12,0-.18,0a1.25,1.25,0,0,1,.56.66,5.1,5.1,0,0,1,.22,1,3.21,3.21,0,0,0,1,2l-.34.22V51c-.29.54-.29.19-.64.67.24.1.8,1,.88.56L49.31,52c.41.13.51.6.56,1.07s.07,1,.37,1.19a7.57,7.57,0,0,1,.13,1c0,.35,0,.71,0,1.05,0,.68-.06,1.31,0,1.76,0-.07-.12-.2-.15-.11a1.29,1.29,0,0,1,.25.64,3.49,3.49,0,0,1,0,.72s-.11,0-.15,0a.31.31,0,0,0,.15,0s0,.07,0,.1a2.21,2.21,0,0,1,0,.25.12.12,0,0,0-.09,0l.08,0a2.81,2.81,0,0,1-.08.31L49.93,60c0-.07,0-.12.07-.13l-.07,0a.43.43,0,0,0,.17,0,.15.15,0,0,0-.19,0,1.89,1.89,0,0,1-.41-1.14c-.1-.54-.17-1.11-.42-1.29.46-.59-.32-.92-.37-1.71a1,1,0,0,0,.95.39c-.31-.64-.54-1.86-1-2.72a4.79,4.79,0,0,0-.18-1.24,7.11,7.11,0,0,0-.39-1A8.36,8.36,0,0,1,47.28,49a1.67,1.67,0,0,1,.64.41c0-1-.56-.64-.61-1.45-.57-.44-.07.35-.19.73l-.55-.35.32-.1c-.13-.4-.28-.53-.43-.57a2,2,0,0,1-.47-.12c-.32-.55.26-.15.2-.48A3.43,3.43,0,0,0,45,45.37c-.23-.2-.48-.38-.73-.59a5.34,5.34,0,0,1-.73-.76l.28.09a4.55,4.55,0,0,0-1.92-1.73s-.16,0-.24.09c-.18-.32-.7-.67-.38-.67-.79,0-1.52-1-2.43-1.3.29.1.52.11.4-.22a10.88,10.88,0,0,0-1.33-.81,8.65,8.65,0,0,1-1.28-.76c.45-.1.6-.11.6-.44a2.88,2.88,0,0,1-2.06.1l.1-.21a3.17,3.17,0,0,0-1.16-.26c-.36,0-.64-.1-.75-.4.73.22.55-.08,1-.17a4.61,4.61,0,0,1-1.72-.25,3.45,3.45,0,0,0-.65-.43c-.23-.13-.33-.26.17-.31a3.84,3.84,0,0,0-.92-.18c-.35.05-.32.6-1,.52L30,36.36c-.29.48-1.19,0-1.66.43l0-.13c-.39.19-1-.08-1.46,0C26.91,36.44,26.63,36.26,26.5,36Z"/><path class="cls-1" d="M50.46,59.31h0S50.46,59.3,50.46,59.31Z"/><path class="cls-1" d="M50.44,59.29h0a.31.31,0,0,1-.15,0S50.39,59.26,50.44,59.29Z"/><path class="cls-1" d="M50.38,59.66a.17.17,0,0,1,0,.07l-.08,0A.12.12,0,0,1,50.38,59.66Z"/><path class="cls-1" d="M50.19,61.36l0-.06c-.08.45-.16.9-.26,1.34-.18,0-.21-.17-.44-.15.31.56-.55.12-.44.75l-.38-.12a2.57,2.57,0,0,1,.11-.94c.17,0,.24.62.43.39l-.1-.28c0-.07.1-.08.15-.15.09-.65-.39-.1-.37-.39.06-.49.9-.75.77-1.9.22.68.24.34.3.13l.36.06a3,3,0,0,1-.31.7A5.53,5.53,0,0,1,50.19,61.36Z"/><path class="cls-1" d="M49.91,59.8a.15.15,0,0,1,.19,0,.43.43,0,0,1-.17,0Z"/><path class="cls-1" d="M47.44,61.59c-.09-.23-.16-.5-.23-.66a.16.16,0,0,0,0-.07,2.46,2.46,0,0,1,.27,1.1c0-.38.69-.11.42-.52l-.08-.11c.08,0,.19-.23.3-.29l0,.67c.21-.26.54-.88.19-1,.29-.59.46.39.69.32.47-.61-.32-.37,0-.94v0c.14-.39.5-.31.78-.34a.2.2,0,0,0,0,.15h.08c-.06.21-.08.55-.3-.13.13,1.15-.71,1.41-.77,1.9,0,.29.46-.26.37.39,0,.07-.11.08-.15.15l.1.28c-.19.23-.26-.34-.43-.39a2.57,2.57,0,0,0-.11.94l-.14,0c.06.28-.27.47-.39.65,0-.18-.3-.12-.5,0,.14,0-.43.23-.51.55L47,64.13a1.83,1.83,0,0,0-.36.29,27.21,27.21,0,0,0,.69-3Z"/><path class="cls-1" d="M49.93,59.81h0l0,0Z"/><path class="cls-3" d="M5.64,62.87l.07,0S5.66,62.87,5.64,62.87ZM19.68,38a.47.47,0,0,0-.1.1C19.66,38.06,19.68,38,19.68,38ZM9,46.12l-.25.36a.62.62,0,0,0-.1.53A2.75,2.75,0,0,1,9,46.12Zm38.81,15.2-.06-.07S47.83,61.32,47.85,61.32Zm-9.77-19.9c.06,0,.12,0,.07-.06l.17-.1a8.14,8.14,0,0,0-.81-.54q-.45-.24-.9-.45a4.42,4.42,0,0,0-.84-.29,1.72,1.72,0,0,0-.72,0c.11-.36-.17-.15-.52-.51-.19,0,0,.05.06.11-.53.13-.61-.28-.94-.32l.13,0-.9,0c-.12-.09-.31-.22-.31-.34l-.06.25a.4.4,0,0,1-.31-.25c0-.1-.11-.19-.4-.21l.07.21c-.33-.19-1,0-1-.33,0-.06.06,0,.19,0a1.43,1.43,0,0,0-1-.31,3,3,0,0,1-1.16-.07l.14.44c-.69.06-.41-.13-.37-.27a2.16,2.16,0,0,1-.53-.13,2.92,2.92,0,0,0-.64-.12c-.31.11-.16.15-.26.28l-.62-.11L27,38a1.83,1.83,0,0,1-.79.25,6.09,6.09,0,0,1-.85.07c-.56,0-1.09,0-1.36.37-.37-.05.28-.31.06-.34a4.67,4.67,0,0,0-1.77.39,4.31,4.31,0,0,1-1.61.48,4.22,4.22,0,0,0-.59.09c-.19,0-.38.12-.58.19-.39.13-.78.29-1.17.46s-.76.4-1.15.59l-.58.29-.3.13-.29.15.09.08-1.07.6c-.06.2-.29.37-.52.6a2.64,2.64,0,0,0-.55.75c0-.1-.19-.14-.14-.26a4.67,4.67,0,0,1-1,.91l0-.2c-.43.39-.93.86-1.35,1.32a4.89,4.89,0,0,0-.8,1.25c-.23.32-.39.19-.56.18a4,4,0,0,0-.69,1.54,2.13,2.13,0,0,1-.43.27l.12.37c-.16.22-.23-.06-.39.1a5.16,5.16,0,0,1-.62,1.49c-.23.47-.48.9-.61,1.24l.17,0c0,.32-.41.79-.41.41a5.09,5.09,0,0,0-.42,1.82c0,.3,0,.63-.05,1a8.41,8.41,0,0,1-.2,1.23c-.26.1-.27.54-.29,1s-.05.88-.33,1c.13.84-.1,1.38.23,1.94-.06,0-.08.1-.09,0a4.45,4.45,0,0,0,.3,2.23L6.27,62c.42.23.55,1.65,1,1.84,0,.11-.2-.11-.28-.21-.23.5.36.68.44,1.22-.1,0-.15.17-.25.08a4.78,4.78,0,0,0,.11.73,6.09,6.09,0,0,0,.26.75c.11.25.22.51.34.77a5.37,5.37,0,0,0,.42.78c.32.51.64,1,.95,1.56a11.37,11.37,0,0,1,1,1.55c.38.55.16-.41.67.28,0,.31-.57-.1-.28.38.43.16.49.3.81.73-.15,0-.16.13-.46-.11,0,.17.3.38.58.63a1.86,1.86,0,0,1,.72.81c.06-.1.19-.07.31,0a1.89,1.89,0,0,1,.57.44,5.3,5.3,0,0,1,.45.51,5.21,5.21,0,0,0,.42.54.13.13,0,0,0-.16,0,8.41,8.41,0,0,0-2-1.4c0-.2.17-.16.38-.12A3.63,3.63,0,0,0,11.4,73a2.83,2.83,0,0,1-.37-.33,1.85,1.85,0,0,1-.32-.53l.17.45a2.82,2.82,0,0,1-1.43-1.82l.19.07a.46.46,0,0,0,.19.08l-.19-.08A1.64,1.64,0,0,1,9.05,70c-.12-.32-.22-.6-.39-.65,0,.29-.2.12-.12.51-.35-.37-.68-.77-1-1.17l.35-.32c-.18-.2-.33-.42-.5-.64a.17.17,0,0,0,0-.09l-.05,0,0,0c0,.13-.12-.12-.25-.39s-.26-.55-.46-.48c0-.48.39,0,.62.11-.3-.36-.15-.47-.54-.76L7,65.68c-.23-.32-.44-.65-.64-1,0,0,0,0,.11,0a1.36,1.36,0,0,1-.36-.89,2.35,2.35,0,0,0-.17-.51,1.1,1.1,0,0,0-.34-.45h0c-.4-.3-.32-1.27-.3-1.61-.14-.59-.41-.2-.58-.2a9.73,9.73,0,0,0-.11-1.47c-.08-.27-.2-.49-.45-1.26.26-.45.45-.18.64.06s.35.42.52-.13a1.14,1.14,0,0,1-.3-.63,5.2,5.2,0,0,1-.14-1.2c.06-.2.12-.43.2-.67s.15-.51.24-.77A5.4,5.4,0,0,1,6,53.64H5.66l0-.57.07-.57c.09.25.18.49.29.74C6,53.05,6,52.45,5.89,52c.11-1.22.87-.4.73-1.42l.13,0a.39.39,0,0,0,.08.14c0-.13,0-.15-.08-.14a1.11,1.11,0,0,1,.11-.76c.12-.32.28-.7.44-1.12l.24.46c-.11.15-.21.32-.31.48.48-.11.33-.88.61-1.36s-.28-.49-.24-.83c.12-.18.18-.52.38-.6.38-.38.45.22.52.44-.13-.59,0-.71.41-1.63.15.06.21.14.21.23a.69.69,0,0,0,0-.51l.4-.12a1.12,1.12,0,0,0,.44-.51,1.62,1.62,0,0,0,.1-.54,2.92,2.92,0,0,1,.11-.61,1.7,1.7,0,0,1,.49-.66c0,.22.15,0,.43-.3S11.72,42,12,42c-.31.36.58.31.53.69.91-.57,0-.67.61-1.29l.05.63c.52-.69,0-.35.56-1-.1.27.39-.11.09.33l.78-.52a8,8,0,0,1,.73-.44l-.2-.47a.55.55,0,0,1,.61-.07c-.12.08-.3.18-.25.23.54.17.42-.53,1-.4-.17-.09-.39-.22,0-.45,0,.31.6,0,.75.07-.22-.11.76-.48.68-.78.53,0,0,.28,0,.44.1-.25.47-.44.85-.58a2.29,2.29,0,0,0,.9-.42l.05.06a4.78,4.78,0,0,1,.85-.57q.54-.27,1.23-.69l-.27.36c1-.09.47-.74,1.33-.89-.06.22.29.15.62.1s.63-.08.46.17c.24-.15.5-.26.73-.39a1.9,1.9,0,0,0,.6-.44c.51.2-.89.63-.2.7l.71-.26.14.22c0-.16.62-.19.62-.31.13.26.41.44.37.65a.54.54,0,0,0-.45.38c.31-.15.43-.27.45-.38.46-.07,1.07.2,1.46,0l0,.13c.47-.48,1.37.05,1.66-.43l.24.32c.69.08.66-.47,1-.52a3.84,3.84,0,0,1,.92.18c-.5,0-.4.18-.17.31a3.45,3.45,0,0,1,.65.43,4.61,4.61,0,0,0,1.72.25c-.5.09-.32.39-1,.17.11.3.39.36.75.4a3.17,3.17,0,0,1,1.16.26l-.1.21a2.88,2.88,0,0,0,2.06-.1c0,.33-.15.34-.6.44a8.65,8.65,0,0,0,1.28.76,10.88,10.88,0,0,1,1.33.81c.12.33-.11.32-.4.22.91.34,1.64,1.29,2.43,1.3-.32,0,.2.35.38.67-.06.06-.07.14.07.2a.29.29,0,0,0-.07-.2c.08-.08.22-.13.24-.09a4.55,4.55,0,0,1,1.92,1.73L43.51,44a5.34,5.34,0,0,0,.73.76c.25.21.5.39.73.59a3.43,3.43,0,0,1,1.22,1.71c.06.33-.52-.07-.2.48a2,2,0,0,0,.47.12c.15,0,.3.17.43.57l-.32.1.55.35c.12-.38-.38-1.17.19-.73,0,.81.59.46.61,1.45a1.67,1.67,0,0,0-.64-.41s0,0,0-.06-.11,0,0,.06a8.36,8.36,0,0,0,.79,2.12,7.11,7.11,0,0,1,.39,1,4.79,4.79,0,0,1,.18,1.24c.48.86.71,2.08,1,2.72a1,1,0,0,1-.95-.39c0,.79.83,1.12.37,1.71.25.18.32.75.42,1.29a1.89,1.89,0,0,0,.41,1.14l0,0c-.28,0-.64,0-.78.34v0c-.37.57.42.33,0,.94-.23.07-.4-.91-.69-.32.35.09,0,.71-.19,1l0-.67c-.11.06-.22.31-.3.29l.08.11c.27.41-.38.14-.42.52a2.46,2.46,0,0,0-.27-1.1,1.5,1.5,0,0,0,.18-.38,2.48,2.48,0,0,0,.17-.7,1.86,1.86,0,0,0-.19-1.29c0-.07.09,0,.12.1,0-.39,0-.93,0-1.53,0-.3,0-.6,0-.91a5.87,5.87,0,0,0-.13-.87c-.28-.19-.28-.61-.31-1s-.14-.81-.5-.93l.19.19c-.06.4-.57-.4-.76-.49.3-.42.29-.12.55-.59v.47l.3-.2A2.8,2.8,0,0,1,46,50.93a6.18,6.18,0,0,0-.18-.84,1.1,1.1,0,0,0-.5-.56s.1,0,.15,0c-.1-.61-.68-.77-1-1.08.13-.13.36.08.59.22A5.92,5.92,0,0,0,44,47.12a11.77,11.77,0,0,1-1.19-1.6c-.43-.16-.14.32-.53.11-.17-.3-.2-.62.17-.37a1.55,1.55,0,0,0-.19-.39c-.1-.13-.22-.26-.35-.4s-.59-.53-.93-.82c-.16-.14-.35-.27-.53-.4s-.36-.26-.53-.4a4,4,0,0,1-.49-.42l-.21-.22L39,42c-.8-.23-.46.13-1.53-.38.31,0,0-.64.66-.26Zm6.84,4.38,0,0-.4-.17Zm-2.79-2.91a1.91,1.91,0,0,1,.55.28C42.61,43,42.09,42.68,42.13,42.89Zm-10.9-6.1.34-.11-.15-.09Z"/><path class="cls-1" d="M49.46,62.49c.23,0,.26.12.44.15A46.76,46.76,0,0,1,48,68.93c-.24.4.23-.63-.15-.33,0,.67-.33.9-.53,1.53-.13-.49-.32.45-.58.22l-.3.9-.32,0c0,.19-.07.38-.11.57s-.18-.14-.41.16c.07.35-.08.54-.3.83a5.75,5.75,0,0,0,.22-1,.94.94,0,0,1,.6-.72c0-.38-.18,0-.53.12a2.36,2.36,0,0,1,.37-.62,2.54,2.54,0,0,0,.44-.83l.2.5c.51-1.21,0,.23.52-.24l.12-.64.09-.64.13,0a3.88,3.88,0,0,0,.32-1,1.63,1.63,0,0,0,0-.92l.16.17c.08-.28,0-.36,0-.57l.15.08c0-.3.06-.61.08-.91l0,.07c.12-.34.24-.69.34-1l.06.21a4.1,4.1,0,0,0,.1-.73c0-.23,0-.44,0-.65a2.62,2.62,0,0,1,0-.28l.38.12C48.91,62.61,49.77,63.05,49.46,62.49Z"/><path class="cls-3" d="M48.11,63.73c.12-.18.45-.37.39-.65l.14,0a2.62,2.62,0,0,0,0,.28c0,.21,0,.42,0,.65a4.1,4.1,0,0,1-.1.73l-.06-.21c-.1.35-.22.7-.34,1l0-.07c0,.3,0,.61-.08.91l-.15-.08c0,.21,0,.29,0,.57l-.16-.17a1.63,1.63,0,0,1,0,.92,3.88,3.88,0,0,1-.32,1l-.13,0-.09.64L47.1,70c-.51.47,0-1-.52.24l-.2-.5a2.54,2.54,0,0,1-.44.83,2.36,2.36,0,0,0-.37.62c.35-.1.54-.5.53-.12a.94.94,0,0,0-.6.72,5.75,5.75,0,0,1-.22,1,4.26,4.26,0,0,0-.31.47s0,0,0,0l-.18-.08s0,0,0,0c.09-.21.19-.42.26-.63.16-.4.22-.76,0-.9-.11.41-.26.8-.4,1.22-.19,0-.4.09-.62.3a7.08,7.08,0,0,0-.64.82c.18-.19.35-.4.52-.61-.1.19.15.24,0,.43a5,5,0,0,0-.92,1,2.39,2.39,0,0,1-1,.81l0-.06-.52.75c-.26.15-.28-.06-.25-.16l.05-.06s0,0-.05.06c-.25.32-.47.61-.74.91a5.53,5.53,0,0,1-1.06.86h-.23l-.7.51-.38,0c.12-.35.14-.64-.06-.7.07-.42.24-.73-.69-.5a2.29,2.29,0,0,1-.51.55c-.22.16-.47.24-.62.12l.1.32c-.52.35-.62.2-.75,0a.45.45,0,0,0-.45-.17,6.65,6.65,0,0,0,.9-.63c.12,0,0,.14,0,.24a10,10,0,0,0,.6-1l.12-.23.42-.18.21.1.41-.57h.18a1.06,1.06,0,0,0,.65-.22,2.58,2.58,0,0,0,.56-.54c.34-.42.67-.83,1.14-.85l0,.06a8,8,0,0,1,1.06-1,4,4,0,0,0,1-1.07c0-.14.12-.3.2-.47l.15.07a1.17,1.17,0,0,0,.28-.4s0,0,0,0c.19-.24.33-.41.27-.71.18-.27.22,0,.35-.14l.08-.51.29,0,.27-.77c.23.19.37-.63.5-.2.15-.55.49-.74.46-1.32.34-.26-.09.62.13.28.43-1.19.84-2.39,1.19-3.62h0a1.83,1.83,0,0,1,.36-.29l.07.15c.08-.32.65-.54.51-.55C47.81,63.61,48.12,63.55,48.11,63.73Z"/><path class="cls-1" d="M47.79,61.25l.06.07S47.8,61.3,47.79,61.25Z"/><path class="cls-1" d="M37.49,41.62c1.07.51.73.15,1.53.38l.21.21.21.22a4,4,0,0,0,.49.42c.17.14.35.27.53.4s.37.26.53.4c.34.29.66.56.93.82s.25.27.35.4a1.55,1.55,0,0,1,.19.39c-.37-.25-.34.07-.17.37.39.21.1-.27.53-.11A11.77,11.77,0,0,0,44,47.12,5.92,5.92,0,0,1,45.1,48.7c-.23-.14-.46-.35-.59-.22.3.31.88.47,1,1.08-.05,0-.1,0-.15,0a1.1,1.1,0,0,1,.5.56,6.18,6.18,0,0,1,.18.84,2.8,2.8,0,0,0,.87,1.77l-.3.2v-.47c-.26.47-.25.17-.55.59.19.09.7.89.76.49l-.19-.19c.36.12.47.52.5.93s0,.84.31,1a5.87,5.87,0,0,1,.13.87c0,.31,0,.61,0,.91,0,.6,0,1.14,0,1.53,0-.06-.1-.17-.12-.1a1.86,1.86,0,0,1,.19,1.29,2.48,2.48,0,0,1-.17.7,1.5,1.5,0,0,1-.18.38l-.06-.13c0,.43,0,.85-.42,1l0-.61a.51.51,0,0,0-.16.09,1.43,1.43,0,0,0,.29-1c.23.77.2,0,.31,0-.54-.21-.38-1.84-.79-2.16.38-.51-.31-.8-.33-1.48a.87.87,0,0,0,.82.33c-.23-.56-.5-1.6-.88-2.36a4.75,4.75,0,0,0-.49-1.91,6.06,6.06,0,0,1-.69-1.84,1.42,1.42,0,0,1,.55.36.88.88,0,0,0-.24-.7.67.67,0,0,1-.29-.56c-.51-.38,0,.3-.16.63l-.49-.3.29-.09c-.26-.68-.52-.44-.78-.6-.27-.48.22-.13.18-.42a1.9,1.9,0,0,0-.22-.5,3.77,3.77,0,0,0-.26-.39,5.47,5.47,0,0,0-.59-.59l-.3-.26-.33-.25a3.67,3.67,0,0,1-.64-.66l.24.08a3.11,3.11,0,0,0-.29-.46l-.2-.23-.24-.21a4.87,4.87,0,0,0-.94-.61s-.14,0-.2.08a2.64,2.64,0,0,0-.32-.41c-.09-.09-.14-.16,0-.18a1.79,1.79,0,0,1-1-.44c-.17-.13-.34-.27-.52-.39a3.43,3.43,0,0,0-.58-.28c.26.08.46.08.35-.2a10.91,10.91,0,0,0-1.15-.71,6.26,6.26,0,0,1-1.11-.65c.39-.09.52-.09.52-.38-.3,0-.49.15-.73.19a2.75,2.75,0,0,1-1.06-.1l.09-.19a3.35,3.35,0,0,0-1-.24c-.31,0-.55-.07-.66-.33.65.18.49-.08.92-.16a3.8,3.8,0,0,1-1.49-.21,2.23,2.23,0,0,0-.57-.38c-.2-.11-.28-.22.15-.28a3.81,3.81,0,0,0-.8-.13c-.31,0-.28.52-.88.44l-.2-.29c-.26.42-1,0-1.45.39l0-.12c-.34.15-.87-.06-1.27,0,0-.17-.21-.33-.32-.57,0,.11-.52.12-.54.26l-.12-.19-.62.24c-.59,0,.62-.45.18-.61a3.92,3.92,0,0,1-1.16.71c.15-.2-.12-.21-.4-.15s-.59.12-.54-.07c-.74.14-.27.69-1.15.76a3.55,3.55,0,0,1,.23-.31c-.2.11-.39.23-.56.34l-.51.28a4.15,4.15,0,0,0-.74.47s0,0,0,0c-.22.29-1.35.43-1.52.87,0-.14.46-.35,0-.38,0,.15-.18.27-.36.41s-.3.21-.24.26c-.14,0-.6.22-.63,0-.3.19-.11.31,0,.39a.39.39,0,0,0-.46.17.35.35,0,0,1-.42.16s.11-.14.22-.2a.46.46,0,0,0-.52.07l.17.41c-.73.43-.51.31-1.32.82.26-.38-.16,0-.08-.28-.49.59,0,.27-.47.89l-.05-.55c-.53.55.27.63-.53,1.11,0-.32-.75-.3-.47-.6-.44.06-1.21,1.22-1.13.84a1.49,1.49,0,0,0-.44.56,2.89,2.89,0,0,0-.09.54,1,1,0,0,1-.47.91l-.35.1a.66.66,0,0,1,0,.44c0-.07-.05-.14-.18-.19-.35.81-.47.9-.36,1.42-.06-.2-.1-.71-.45-.39a.4.4,0,0,0-.2.22,1.18,1.18,0,0,1-.13.3c0,.3.35.22.22.73s-.14,1.07-.54,1.17a3.62,3.62,0,0,1,.27-.41l-.2-.4c-.16.35-.29.69-.39,1a1.12,1.12,0,0,0-.09.66l-.12,0c.06.44-.08.48-.24.55s-.35.15-.38.68a7.09,7.09,0,0,0,.13,1c-.1-.22-.17-.43-.25-.64l-.06.49,0,.5H9a6.06,6.06,0,0,0-.59,1.17c-.15.44-.25.9-.37,1.25,0,.19,0,.38,0,.55a2.89,2.89,0,0,0,.1.48,1,1,0,0,0,.27.55c-.15.48-.3.32-.45.11s-.34-.44-.56,0c.2.66.31.86.38,1.09a5.86,5.86,0,0,1,.1,1.27c.15,0,.38-.33.5.18,0,.3-.06,1.13.27,1.39,0,0,0,0-.06,0a.94.94,0,0,1,.3.4,1.76,1.76,0,0,1,.15.44,1.32,1.32,0,0,0,.32.77c-.05,0-.05,0-.1,0l.26.45c.08.14.2.28.3.42l-.18.47c.34.25.2.35.45.67-.19-.07-.55-.53-.53-.1.18-.07.3.18.39.42s.2.45.23.34l.44.55-.31.27.42.53a5.25,5.25,0,0,0,.46.49c-.08-.34.1-.19.1-.43.28.07.36,1,.84,1.27L12,69.64a1.54,1.54,0,0,0,.45.9,2.82,2.82,0,0,0,.78.68l-.13-.39a1.71,1.71,0,0,0,.27.47,2,2,0,0,0,.32.27,2.48,2.48,0,0,1,.68.64c-.17,0-.35-.07-.32.1a7.59,7.59,0,0,1,1.77,1.23l0,0c.23.32.25.46,0,.62-.26-.29-.43-.32-.54-.22a2.09,2.09,0,0,0,.29.33.64.64,0,0,0,.22.11.27.27,0,0,0,.27-.11c.14-.14.25-.31.63.08-.22-.06-.22.11-.14.22l.44,0-.37.22c.05.23.41.24.62.35,0,.2,0,.38-.33.28.35.06.51.42.85.29l-.16-.32c.36,0,.22.32.6.3,0,.16-.49,0-.25.24.44.25.72.06.8-.06-.16-.1-.17,0-.29,0,.16-.47.41,0,.93-.23l-.4.24.9.29c-.44.13-.17.37-.51.6l.75,0,.4,0,.42,0a4.85,4.85,0,0,1,.76,0s0,0,0,0c-.14.18-.53.11-.56.4l-.08-.1c.09.53-.49.41-.31.91l-.26-.18c-.25.21.07.63,0,.81l-.15.14h0l-.15,0c0-.29-.44-.1-.59-.2l-.06,0a2.3,2.3,0,0,0-.32,0l.08-.13a11.21,11.21,0,0,1-1.45-.56L18,77.6l-.11,0a.34.34,0,0,1-.14-.28,1.55,1.55,0,0,0-1.06-.25,5,5,0,0,1-.52-.51l.11.06c.23-.34-.62-.38-.84-.74l.12.23c-.13-.06-.36,0-.51-.09l.24-.1a1.38,1.38,0,0,0-.65-.1.08.08,0,0,0,0-.08h0a.09.09,0,0,0,0,0,.46.46,0,0,0-.09-.14,3.32,3.32,0,0,0-.37-.38c.1.11.07.12,0,.1h0l0,0,0,0a.18.18,0,0,0-.09,0h0a5.21,5.21,0,0,1-.42-.54,5.3,5.3,0,0,0-.45-.51,1.89,1.89,0,0,0-.57-.44c-.12,0-.25-.06-.31,0a1.86,1.86,0,0,0-.72-.81c-.28-.25-.54-.46-.58-.63.3.24.31.12.46.11-.32-.43-.38-.57-.81-.73-.29-.48.29-.07.28-.38-.51-.69-.29.27-.67-.28a11.37,11.37,0,0,0-1-1.55c-.31-.52-.63-1-.95-1.56a5.37,5.37,0,0,1-.42-.78c-.12-.26-.23-.52-.34-.77a6.09,6.09,0,0,1-.26-.75,4.78,4.78,0,0,1-.11-.73c.1.09.15-.09.25-.08-.08-.54-.67-.72-.44-1.22.08.1.23.32.28.21-.45-.19-.58-1.61-1-1.84l.16-.07a4.45,4.45,0,0,1-.3-2.23c0,.14,0,.06.09,0-.33-.56-.1-1.1-.23-1.94.28-.13.31-.56.33-1s0-.88.29-1a8.41,8.41,0,0,0,.2-1.23c0-.36,0-.69.05-1a5.09,5.09,0,0,1,.42-1.82c0,.38.39-.09.41-.41l-.17,0c.13-.34.38-.77.61-1.24a5.16,5.16,0,0,0,.62-1.49c.16-.16.23.12.39-.1L9,48.17a2.13,2.13,0,0,0,.43-.27,4,4,0,0,1,.69-1.54c.17,0,.33.14.56-.18a4.89,4.89,0,0,1,.8-1.25c.42-.46.92-.93,1.35-1.32l0,.2a4.67,4.67,0,0,0,1-.91c0,.12.12.16.14.26a2.64,2.64,0,0,1,.55-.75c.23-.23.46-.4.52-.6l1.07-.6L16,41.13l.29-.15.3-.13.58-.29c.39-.19.76-.42,1.15-.59s.78-.33,1.17-.46c.2-.07.39-.14.58-.19a4.22,4.22,0,0,1,.59-.09,4.31,4.31,0,0,0,1.61-.48,4.67,4.67,0,0,1,1.77-.39c.22,0-.43.29-.06.34.27-.34.8-.33,1.36-.37a6.09,6.09,0,0,0,.85-.07A1.83,1.83,0,0,0,27,38l-.4.23.62.11c.1-.13,0-.17.26-.28a2.92,2.92,0,0,1,.64.12,2.16,2.16,0,0,0,.53.13c0,.14-.32.33.37.27l-.14-.44a3,3,0,0,0,1.16.07,1.43,1.43,0,0,1,1,.31c-.13,0-.2-.05-.19,0,0,.29.65.14,1,.33l-.07-.21c.29,0,.36.11.4.21a.4.4,0,0,0,.31.25l.06-.25c0,.12.19.25.31.34l.9,0-.13,0c.33,0,.41.45.94.32-.06-.06-.25-.15-.06-.11.35.36.63.15.52.51a1.72,1.72,0,0,1,.72,0,4.42,4.42,0,0,1,.84.29q.45.21.9.45a8.14,8.14,0,0,1,.81.54l-.17.1C37.53,41,37.8,41.62,37.49,41.62ZM20.27,78.19l-.07-.25,0,.24Z"/><path class="cls-1" d="M47.44,61.59l-.08-.17a27.21,27.21,0,0,1-.69,3h0c-.16.13-.31.23-.49,0-.23.06-.26.3-.28.53h-.2l.24-.72.05.18a2.94,2.94,0,0,0,.1-.63c0-.2,0-.38,0-.56a3.18,3.18,0,0,1,0-.69.28.28,0,0,1,0-.09,1.21,1.21,0,0,1,0-.18l0-.1c.14,0,.19.53.36.33l-.08-.23c0-.07.09-.07.13-.14.09-.55-.31-.11-.31-.31v0a2,2,0,0,1,.08-.22l0-.06c.07-.1.17-.21.25-.33h0a.51.51,0,0,1,.16-.09l0,.61c.38-.14.42-.56.42-1l.06.13a.16.16,0,0,1,0,.07C47.28,61.09,47.35,61.36,47.44,61.59Z"/><path class="cls-1" d="M47.26,49s0,0,0,.06S47.1,48.94,47.26,49Z"/><path class="cls-4" d="M8.71,62.78l0,0S8.72,62.78,8.71,62.78Zm2.95-14.56c-.12.24-.41.54-.31.79A5,5,0,0,1,11.66,48.22Zm10.07,14.3c.05.19.11.39,0,.42.4.5-.11-.53.29,0l0,0c-.06-.25.24,0,.22-.14A2.58,2.58,0,0,0,22,62l.15.4c-.21-.29-.25-.24-.23-.11l0-.05c0,.05.14.23.15.28-.18-.1.06.33-.22.05l0,0,.07.24A1,1,0,0,1,21.73,62.52Zm-.84-21.33-.08.08C20.87,41.23,20.89,41.21,20.89,41.19ZM17.28,75.08v-.36A.62.62,0,0,0,17.28,75.08ZM23.23,56A.59.59,0,0,0,23,56Zm-.18.06h0Zm.18,3.34s0,0-.15,0A.54.54,0,0,1,23.23,59.41Zm-.87,3.34a.06.06,0,0,0,0,0S22.37,62.79,22.36,62.75Zm1.21-2.45,0,.05,0,0Zm3.11,2.17s-.06,0-.19.09c.05-.06.16-.12.17-.14l-.17.09.2-.15-.2.08v0c-.15.09-.3.14-.18.12l-.36.21c.17,0,0,.09.12,0s.13-.14.27-.21C26,62.83,26.49,62.57,26.68,62.47Zm0,0h.06S26.75,62.44,26.7,62.46Zm-1-6.43-.08,0Zm.5,6.89,0,0c.05,0,.21-.15.26-.17-.11.15.3-.11,0,.16l.18-.08a.87.87,0,0,1-.22.17c.18-.07.35-.16.37-.11.49-.41-.48.2,0-.21l0,0c-.23.09.08-.2-.1-.14a4.43,4.43,0,0,0-.78.4l.37-.17C26.08,62.92,26.11,63,26.22,62.92Zm.27-5.45,0-.08A.18.18,0,0,0,26.49,57.47Zm3.33-2-.05,0Zm.25,15.88c.12-.1.34-.15.28-.4C30.31,71.14,30.17,71.23,30.07,71.36ZM23.61,57a1.7,1.7,0,0,0-.26,0c.23,0-.14,0,0,0Zm3.05.3v0Zm17.6,5.55a.81.81,0,0,0,.16.16ZM23.53,56.56h.13c.33,0,.19,0,.15.06s0,0,.08,0c-.68-.08-.55-.07-1.22-.12.36.05.7.11.63.16l-.52-.08c-.12.08.64.21,1.08.28-.39,0-.52,0-.85,0l.07.07-.28,0a1.45,1.45,0,0,0,.53.07c-.06,0-.1,0-.1,0,.17,0,.5,0,.5.07h-.08c.24,0,0,0,.13.07a2.29,2.29,0,0,0-.47,0s.24,0,.06.06h-.14a.93.93,0,0,1-.29,0c-.21.06.52,0,.63.08s0,0-.07,0-.29,0-.19,0a1.8,1.8,0,0,0-.53,0h-.05s0-.06-.06-.07-.22.07.06.07c0,.05,0,.13.27.16a1,1,0,0,1-.34,0c-.15.06.15.08,0,.14l.09,0c.25,0,.3.12,0,.17h-.11c.2,0,0,.07-.05.11h.05c.15,0,.23,0,.37,0l.27.09-.44,0,.15,0h0c.19,0-.14.08.3.06a2.25,2.25,0,0,1-.52,0c.11,0-.06,0,.19.05l-.39,0,.29.06h-.1c.33,0-.16.1.32.11h.06c.23,0,0,.08,0,.11a2.39,2.39,0,0,0,.56,0c-.09.12-.07.09.41.12-.49.12-.81,0-1.15.14a1.32,1.32,0,0,1,.54.05,2.67,2.67,0,0,1-.62.28l.33,0,.18,0-.41,0h.43c.21,0-.26.09-.34.13h.14l-.1,0c.24,0,.18,0,.26.08l-.41,0,.08,0c-.4.09.08,0,.07.09a3.92,3.92,0,0,0,.61-.07s.11,0,0,0a2.59,2.59,0,0,1-.59.11,1,1,0,0,1,.49,0l-.22,0h.16l-.18.06c-.23.1.22,0,.49,0a.06.06,0,0,0,0,0,0,0,0,0,0,0,0,.22.22,0,0,1,0,.1h0c-.07,0-.6.14-.85.18s.4-.05.57-.05l-.49.1a4.37,4.37,0,0,1,.45,0,2.27,2.27,0,0,1-.3.06c0,.08,0,0,0,.13l.49-.11h0a2.07,2.07,0,0,1-.24.09s0,0-.06,0c-.39.12.15,0-.06.09a1,1,0,0,1,.26-.06.86.86,0,0,0-.28.12c.15,0,.1,0,.39,0a.73.73,0,0,1-.25.07.47.47,0,0,0-.15,0l.15,0c.13,0,0,.09.11.09h.15c0,.08.08.3.1.42l-.14,0c-.09-.11-.18-.34-.22-.3s.12.23.16.32h0l-.11-.17.08.18.06.13c.17.23.18.1.31.39-.22-.23.12.3-.14,0a2.59,2.59,0,0,0-.19-.38h0s0,0,0,0a0,0,0,0,1,0,0c-.34-.26,0,.39-.36.11.08.27,0,.37.11.61-.17-.29-.34-.54-.45-.78-.08,0,.31.65,0,.26.22.4,0,.35.32.87-.05-.05-.06,0-.18-.27,0,.22-.4-.42-.43-.39s.24.33.2.37l-.08-.09.07.13a3.31,3.31,0,0,1-.24-.42c-.14-.08.09.38,0,.46l0-.1-.09,0,0,0,.07.23-.09-.14a1.42,1.42,0,0,1,.05.16l-.1-.17c.15.28.17.48.14.5l-.05,0,.14.38c-.13-.12-.18-.32-.21-.31a.07.07,0,0,0,0,0l-.2-.37c0,.18-.11,0-.07.14s.15.13.22.29c-.29-.36,0,.16.06.36,0,0,0,0-.08-.25,0,0,.13.19.15.19l-.08-.21.16.22-.07-.23c.18.29.08,0,.25.32,0-.15.12,0,0-.27.14.15.08.24.13.25,0-.34.23-.41.47-.43,0-.08-.06-.14-.08-.21.17.2.45.41.24,0l.06.12c0-.09.32.14.38,0-.24-.43.22.11,0-.3h0a3,3,0,0,1-.3-.59c.27.38.19.3.45.65l-.1-.09.19.28c-.41-.88.45.26.13-.37,0,0,.05.08.06.11s0-.1-.05-.27h0c.06.1.09.19.14.29s0-.44.24-.26a.31.31,0,0,0,0-.1h0a.05.05,0,0,0,0,0h0s0,0,0,0l.06.06h0s0,0,.07,0h.05c.2,0,.58-.16.36,0s-.36.16-.36.19c.18-.06.53-.23.45-.15l-.3.15.32-.12c.23-.14.14-.14.41-.23,0,0-.05,0-.05.05s.29-.12.05,0c0,0-.26.1-.39.14h0c-.31.28.37,0,0,.28.27-.08.34,0,.58-.13a8.57,8.57,0,0,1-.81.4c0,.07.62-.26.29,0,.35-.17.3,0,.8-.29,0,0,0,0-.24.14.08,0-.36.28-.44.37a2.08,2.08,0,0,1,.33-.17l-.08,0,.12,0a4,4,0,0,1-.41.22c-.09.12.36-.11.43-.08l-.1,0v.06l0,0,.2-.07-.07,0,.08,0-.07.05a1,1,0,0,1,.39-.14l-.05,0,.35-.15-.07.07c.21-.15,0,0,.28-.21-.12,0,0-.08-.18,0,.12-.08.16-.07.18-.1-.3,0-.33-.1-.29-.27l-.22.09c.23-.15.49-.39,0-.17l.12-.07c-.07,0,.2-.24.13-.27-.46.22.19-.19-.31,0h0a3.63,3.63,0,0,1-.5.22l.58-.31,0,0,.3-.16c-.9.36.25-.27-.25-.08l.05,0c.19-.12-.27.08-.4.11a4.49,4.49,0,0,1,.43-.18c.12-.11-.4,0-.14-.16l-.41.16v0a1.53,1.53,0,0,1,.27-.11c.43-.24-.36,0,0-.29l-.16,0a.11.11,0,0,1,0-.05l.1,0,.09,0h0a.05.05,0,0,0,0,0c.1.09.11,0,.1-.09l.07,0s0-.09-.08-.09,0-.15.12,0c.3.22.25-.15.51,0l-.08-.11.15,0c-.13-.26,0-.19-.13-.49l.17.28c0-.06,0-.21.1-.07l0,.1c.13,0,.26-.06.17-.3,0,0,.14.16.23.29s0-.16-.05-.36l.16.17-.15-.27s.14.21.2.27c-.13-.37.15-.14.19-.2l-.09-.13c0-.12.12,0,.18.2s-.11-.53.08-.55c.33.48,0-.23.41.3,0-.18.15,0,0-.33,0,0,.05.07.05.09.16.19.14,0,.11-.2l.11.17c-.21-.37,0-.34-.23-.7a1.13,1.13,0,0,1,.11.22c.25.31-.05-.2,0-.15s.13.18.16.25c.39.3.17-.48.52-.33.06,0-.26-.37-.18-.38.14.17.21.38.3.43-.12-.24-.08-.2,0-.2a1.34,1.34,0,0,1,.15.29c.12.14-.09-.34.15-.08a2.36,2.36,0,0,1-.14-.24c-.13-.36.36.21.26,0a.14.14,0,0,0-.06-.09s.1,0,.21.2a1.28,1.28,0,0,1-.13-.28l.12.2a1.67,1.67,0,0,0-.08-.2l0,0s0-.07-.06-.06l-.1-.11c.14.15-.07-.3.18.1h0l.16.13c-.07-.17-.15-.33-.08-.3.27.4.15,0,.22,0l.09.14c-.09-.23.06-.19,0-.25s.15,0,.21.18a.6.6,0,0,0-.1-.38l.28.31c-.29-.53.23.11-.11-.43.09.06.15.18.24.26-.13-.29-.05-.27,0-.26l0,.06c.07,0,0-.29,0-.36l.27.4c0-.08-.19-.4-.11-.34a.27.27,0,0,1,.06.09c0-.07.1,0,.18.08-.14-.32,0-.24-.2-.58.27.33,0,.19.3.51.19.15.13-.1.1-.32.05.06.07.13.13.21A9.68,9.68,0,0,0,31,56a2,2,0,0,0-.44-.64c.08.17.13.39,0,.15l.16.25c0,.19-.38-.58-.48-.5l.08.08s.09.22,0,.14a.35.35,0,0,1-.06-.09l.11.33a2.55,2.55,0,0,1-.22-.37c0,.08.34.5.18.45a1,1,0,0,1-.15-.28c-.19-.21-.1,0-.05.19-.15-.24-.1-.23-.24-.36a1.46,1.46,0,0,1,.22.38c-.14-.24-.12-.14-.17-.15a1.17,1.17,0,0,1,.15.25s-.07-.05-.08,0l.2.23c.1.27-.16-.08-.27-.17a.19.19,0,0,1,0-.1l.06,0c0-.06-.07-.06-.06,0s-.27-.25-.2,0,.3.4.34.69c-.07,0-.52-.84-.41-.49a1.59,1.59,0,0,1,.3.69l-.27-.51s0,.12,0,.12l.06.1c.26.38-.05,0,0,.2-.3-.53-.24-.46-.58-1,.16.33.31.64.21.62l-.23-.47c-.15,0,.17.67.34,1.08-.19-.34-.29-.44-.44-.73l0,.11-.13-.23a1.12,1.12,0,0,0,.23.47c0-.06-.06-.1,0-.1s.26.45.21.45-.1-.18-.19-.3c.07.17-.11-.11-.05,0l.16.19c.13.24,0,.1,0,.15a2.08,2.08,0,0,0-.24-.37s.09.24,0,.09l-.19-.31.11.22a.77.77,0,0,1-.16-.25c-.24-.18.52.81.18.53-.09-.14-.14-.24-.05-.18a1.92,1.92,0,0,0-.32-.43l0,0s.06,0,0-.09-.19-.14,0,.09c-.07,0-.16.07,0,.35a1.39,1.39,0,0,1-.18-.31c-.14-.09,0,.24-.15.1l.1.1c.08.23,0,.33-.19.08l-.05-.1c.11.26-.23-.12-.13.08s.13.2.23.3l0,.31-.25-.38,0,.16c.12.15-.15-.07.08.3a2.28,2.28,0,0,1-.26-.46c0,.13-.07,0,0,.2l-.23-.3.07.29-.05-.07c.12.26-.17-.08,0,.34,0,0,0,0,0,0h0a0,0,0,0,1,0,0c.08.19-.08.07-.14,0s.19.34.28.48c-.18,0-.12,0,0,.46-.34-.38-.37-.73-.64-1a1,1,0,0,1,.16.53,2.6,2.6,0,0,1-.55-.4l.17.26,0,.21-.16-.32.13.34c.07.3-.43-.55-.24-.12l0,0c.09.21,0,.16,0,.28l-.2-.37.09,0c-.25-.33,0,.11-.09.11s.25.43.29.55,0,.11-.06,0a2.11,2.11,0,0,1-.23-.35.74.74,0,0,1,.06.31,1.6,1.6,0,0,1-.17-.29,1.16,1.16,0,0,0,.13.29l-.14-.18c-.27-.24.34.71.17.66-.1-.2-.06.1-.23-.11,0-.07-.35-.51-.47-.73s.24.44.23.56l-.25-.43a2.37,2.37,0,0,1,.16.4c-.06-.11-.09-.11-.12-.19a.2.2,0,0,1,0-.08c-.11,0-.06,0-.17,0l0,.05c-.19,0-.2-.05-.42-.05h.13c.39-.06-.2,0-.11-.07l.3,0c.44-.13-.31-.23,0-.38-.06,0-.43,0-.4,0a3.57,3.57,0,0,0,.52,0c-.26,0-.21,0-.18-.05a1.7,1.7,0,0,1,.33,0c.17,0-.31-.06,0-.1h-.25c-.37-.05.37-.12.16-.12a.15.15,0,0,0-.1,0s.06,0,.23,0l-.14,0h.1l-.17,0h-.19c.2,0-.29-.07.18-.06h0l.21,0c-.19,0-.38,0-.31-.06.48,0,.11-.06.16-.1h.16c-.21,0-.13-.09-.19-.09a.31.31,0,0,1,.24,0,.74.74,0,0,0-.35-.1h.38c-.54-.07.24-.06-.39-.11.11,0,.25,0,.36,0-.31-.06-.26-.09-.2-.11h.07c.05,0-.27-.1-.3-.15l.49,0c-.07,0-.44-.08-.33-.09l.12,0c-.09,0,0,0,.16,0-.34-.08-.23-.09-.57-.17.4,0,.18.07.57.1.23,0,0-.1-.2-.19h.07l-.43-.11a8.88,8.88,0,0,0-1-.2,2.8,2.8,0,0,0-.77-.11c.16.05.36.12.13.11l.25,0c.14.09-.57-.07-.68,0h.1s.23.06.12.07l-.11,0,.34.11a3.91,3.91,0,0,1-.45-.07c0,.07.62.07.47.13a1.34,1.34,0,0,1-.31-.05c-.29,0,0,.06.14.13h-.12l.11,0c-.3,0-.16,0-.24,0a1.21,1.21,0,0,1,.3,0s-.08,0-.06,0h.3c.28.08-.16,0-.29.08l-.11,0,.06,0c-.07,0-.09,0-.06,0-.12,0-.35,0-.15.1h0c.28.09.48,0,.74.13-.06,0-1-.1-.63,0a1.73,1.73,0,0,1,.69.13l-.54-.07S23.59,56.55,23.53,56.56Zm2.12,17.29c.11.13-.33.29-.19.57-.31-.08-.06-.24-.14-.39.05.43-.63.44-.66.72l-.05-.06s0,0,0-.09,0,.07,0,.09c-.08.33-.38.58-.6,1.12l0-.34c-.46.14.07.68-.26.87-.15-.4-.54.36-.63-.12a2.12,2.12,0,0,0-.18.87l-.06,0h0c-.18-.15.11-.67-.18-.62l-.14.27-.19-.06h0a2.52,2.52,0,0,0-.56-.09c.05-.07.06-.2,0-.42a.55.55,0,0,0,0,.41,4.85,4.85,0,0,0-.76,0l-.42,0-.4,0-.75,0c.34-.23.07-.47.51-.6l-.9-.29.4-.24c-.52.22-.77-.24-.93.23.12,0,.13-.06.29,0-.08.12-.36.31-.8.06-.24-.27.27-.08.25-.24-.38,0-.24-.27-.6-.3l.16.32c-.34.13-.5-.23-.85-.29.37.1.37-.08.33-.28-.21-.11-.57-.12-.62-.35l.37-.22-.44,0c-.08-.11-.08-.28.14-.22-.38-.39-.49-.22-.63-.08a.27.27,0,0,1-.27.11.64.64,0,0,1-.22-.11,2.09,2.09,0,0,1-.29-.33c.11-.1.28-.07.54.22.2-.16.18-.3,0-.62l0,0a4.23,4.23,0,0,0,.42.3,1.7,1.7,0,0,0,.32.15,1.15,1.15,0,0,0-.34-.33c-.17-.12-.32-.23-.4-.12a7.59,7.59,0,0,0-1.77-1.23c0-.17.15-.13.32-.1a2.48,2.48,0,0,0-.68-.64,2,2,0,0,1-.32-.27,1.71,1.71,0,0,1-.27-.47l.13.39a2.82,2.82,0,0,1-.78-.68,1.54,1.54,0,0,1-.45-.9l.16.07a.32.32,0,0,0,.17.06.85.85,0,0,1-.17-.06c-.48-.29-.56-1.2-.84-1.27,0,.24-.18.09-.1.43a5.25,5.25,0,0,1-.46-.49l-.42-.53.31-.27L10.22,67s0,0,0-.08l-.05,0,0,0c0,.11-.12-.11-.23-.34s-.21-.49-.39-.42c0-.43.34,0,.53.1-.25-.32-.11-.42-.45-.67l.18-.47c-.1-.14-.22-.28-.3-.42l-.26-.45s0,0,.1,0a1.32,1.32,0,0,1-.32-.77,1.76,1.76,0,0,0-.15-.44.94.94,0,0,0-.3-.4s0,0,.06,0c-.33-.26-.29-1.09-.27-1.39-.12-.51-.35-.17-.5-.18a5.86,5.86,0,0,0-.1-1.27c-.07-.23-.18-.43-.38-1.09.22-.4.4-.16.56,0s.3.37.45-.11a1,1,0,0,1-.27-.55,2.89,2.89,0,0,1-.1-.48c0-.17,0-.36,0-.55.12-.35.22-.81.37-1.25A6.06,6.06,0,0,1,9,54.77H8.73l0-.5.06-.49c.08.21.15.42.25.64a7.09,7.09,0,0,1-.13-1c0-.53.22-.62.38-.68s.3-.11.24-.55l.12,0a.24.24,0,0,0,.07.12c0-.1,0-.12-.07-.12a1.12,1.12,0,0,1,.09-.66c.1-.28.23-.62.39-1l.2.4a3.62,3.62,0,0,0-.27.41c.4-.1.3-.75.54-1.17s-.25-.43-.22-.73a1.18,1.18,0,0,0,.13-.3.4.4,0,0,1,.2-.22c.35-.32.39.19.45.39-.11-.52,0-.61.36-1.42.13,0,.18.12.18.19a.66.66,0,0,0,0-.44l.35-.1a1,1,0,0,0,.47-.91,2.89,2.89,0,0,1,.09-.54,1.49,1.49,0,0,1,.44-.56c-.08.38.69-.78,1.13-.84-.28.3.51.28.47.6.8-.48,0-.56.53-1.11l.05.55c.44-.62,0-.3.47-.89-.08.23.34-.1.08.28.81-.51.59-.39,1.32-.82L17,42.84a.46.46,0,0,1,.52-.07c-.11.06-.26.16-.22.2a.35.35,0,0,0,.42-.16.39.39,0,0,1,.46-.17c-.15-.08-.34-.2,0-.39,0,.26.49,0,.63,0-.06,0,.08-.14.24-.26s.4-.26.36-.41c.47,0,0,.24,0,.38.17-.44,1.3-.58,1.52-.87,0,0,0,0,0,0a4.15,4.15,0,0,1,.74-.47l.51-.28c.17-.11.36-.23.56-.34a3.55,3.55,0,0,0-.23.31c.88-.07.41-.62,1.15-.76-.05.19.26.13.54.07s.55-.05.4.15a3.92,3.92,0,0,0,1.16-.71c.44.16-.77.56-.18.61l.62-.24.12.19c0-.14.54-.15.54-.26.11.24.35.4.32.57a.48.48,0,0,0-.39.33c.27-.12.38-.23.39-.33.4-.06.93.15,1.27,0l0,.12c.41-.39,1.19,0,1.45-.39l.2.29c.6.08.57-.4.88-.44a3.81,3.81,0,0,1,.8.13c-.43.06-.35.17-.15.28a2.23,2.23,0,0,1,.57.38,3.8,3.8,0,0,0,1.49.21c-.43.08-.27.34-.92.16.11.26.35.3.66.33a3.35,3.35,0,0,1,1,.24l-.09.19a2.75,2.75,0,0,0,1.06.1c.24,0,.43-.14.73-.19,0,.29-.13.29-.52.38a6.26,6.26,0,0,0,1.11.65,10.91,10.91,0,0,1,1.15.71c.11.28-.09.28-.35.2a3.43,3.43,0,0,1,.58.28c.18.12.35.26.52.39a1.79,1.79,0,0,0,1,.44c-.1,0-.05.09,0,.18a2.64,2.64,0,0,1,.32.41c-.05,0-.06.12.06.18a.32.32,0,0,0-.06-.18c.06-.07.19-.12.2-.08a4.87,4.87,0,0,1,.94.61l.24.21.2.23a3.11,3.11,0,0,1,.29.46l-.24-.08a3.67,3.67,0,0,0,.64.66l.33.25.3.26a5.47,5.47,0,0,1,.59.59,3.77,3.77,0,0,1,.26.39,1.9,1.9,0,0,1,.22.5c0,.29-.45-.06-.18.42.26.16.52-.08.78.6l-.29.09.49.3c.11-.33-.35-1,.16-.63a.67.67,0,0,0,.29.56.88.88,0,0,1,.24.7,1.42,1.42,0,0,0-.55-.36s0,0,0-.06-.1,0,0,.06a6.06,6.06,0,0,0,.69,1.84,4.75,4.75,0,0,1,.49,1.91c.38.76.65,1.8.88,2.36a.87.87,0,0,1-.82-.33c0,.68.71,1,.33,1.48.41.32.25,2,.79,2.16-.11,0-.08.77-.31,0a1.43,1.43,0,0,1-.29,1h0a.87.87,0,0,0-.25.33l0,.06a.58.58,0,0,0-.08.22v0a1.4,1.4,0,0,0-.1.35l0,.1a1.21,1.21,0,0,0,0,.18.28.28,0,0,0,0,.09c0,.11-.06.21-.08.3-.1-.4-.33-.42-.33-.8l-.4.32L45.16,62c0,.48-.31.34,0,.8,0-.09,0-.14.06-.18.08.15.18.5-.06.61s0-.24-.14-.35c0,.28-.23,0-.3.2l.26.13c0,.3-.18.19-.28.33,0-.18-.08-.29-.21-.39-.1.08-.13.36-.3.24l-.14-.43v.37a.19.19,0,0,1-.15-.26c-.65.07.5.83-.36.86-.08-.15-.07-.29.16-.31-.11-.25-.23-.36-.46-.34l0,0c.19-.1.34-.19.38-.29s-.53.06-.38.29c-.34.2-.8.44-.87.84-.13-.07-.11-.21-.1-.35-.45.09-.37.51-.88.5l.24,0a.82.82,0,0,1-1,.54l0-.14c-.1.38-.74.17-.73.43.18.07.12.21.34.23l-.47.61-.28-.37-.24.33,0,0,0,0,0,0c.17.11-.51.13-.3.51-.26,0-.1-.35-.12-.54-.12.22-.24.06-.27.39L38.22,66l-.33.53s0,0,0-.1c0,.42-.65.16-.62.83a.14.14,0,0,0,0-.06c0,.35-.48.38-.65.4-.21.21.09.39.17.54-.76.33-.52.22-.87,1-.62-.22,0-.94-.63-1,.06.25-.15.6-.46.9a4.91,4.91,0,0,1-1.51.14l.2.26-.36.43v-.57a5.23,5.23,0,0,1-.2.69c-.33.53-.64-.46-.75.19l-.09-.07a.78.78,0,0,0,0-.14.1.1,0,0,0,0,.14c0,.29-.34.39-.65.69l-.09-.44.27-.06c-.33-.28-.34.29-.58.4-.16.27.13.49.07.67s-.16.22-.29.16-.28-.42-.3-.61c0,.48-.05.47-.36.86-.13-.17-.14-.26-.11-.33a.48.48,0,0,0,0,.4l-.26-.12c-.64,0,0,.94-.67,1.15,0-.28-.44.32-.74.19.15-.17-.41-.48-.42-.77-.52.13.08.54-.22.83l-.13-.54c-.22.4.06.29-.2.64,0-.19-.23,0-.11-.3-.48.23-.33.2-.76.38l.22.46c-.1.13-.26,0-.35-.09s.14-.08.1-.13c-.38-.29-.12.36-.51.12.13.11.29.28.14.4C26,73.77,25.76,73.89,25.65,73.85Zm.51-16.23a.82.82,0,0,1,0,.18S26.26,57.79,26.16,57.62ZM42.81,48l0,0-.34-.15Zm-2.43-2.53a2,2,0,0,1,.49.23C40.81,45.54,40.35,45.26,40.38,45.44Zm-9.46-5.29.3-.11L31.09,40ZM26.78,63l.18-.15L26.7,63Zm-5,.15-.1-.27,0,.09Z"/><path class="cls-1" d="M46.25,61.84c0,.2.4-.24.31.31,0,.07-.09.07-.13.14l.08.23c-.17.2-.22-.29-.36-.33A1.4,1.4,0,0,1,46.25,61.84Z"/><path class="cls-1" d="M46.62,61.21c-.08.12-.18.23-.25.33A.87.87,0,0,1,46.62,61.21Z"/><path class="cls-1" d="M46.18,64.45c.18.21.33.11.49,0-.35,1.23-.76,2.43-1.19,3.62-.22.34.21-.54-.13-.28,0,.58-.31.77-.46,1.32-.13-.43-.27.39-.5.2l-.27.77-.29,0-.08.51c-.13.15-.17-.13-.35.14.06.3-.08.47-.27.71a1.76,1.76,0,0,0,.13-.43c0-.15,0-.29.06-.42a.79.79,0,0,1,.52-.64c0-.32-.17,0-.46.11a1.71,1.71,0,0,1,.32-.54,1.87,1.87,0,0,0,.39-.71l.18.43c.13-.33.18-.44.2-.43s0,.48.24.22l.19-1.11.11,0a3.64,3.64,0,0,0,.16-.38c0-.15.08-.32.11-.48a1.55,1.55,0,0,0,0-.79l.14.14c.08-.24,0-.31,0-.49l.13.07a7,7,0,0,0,.06-.79v.06L45.7,65h.2C45.92,64.75,46,64.51,46.18,64.45Z"/><path class="cls-1" d="M46.33,61.6a2,2,0,0,0-.08.22A.58.58,0,0,1,46.33,61.6Z"/><path class="cls-1" d="M46.12,62.29a1.21,1.21,0,0,0,0,.18A1.21,1.21,0,0,1,46.12,62.29Z"/><path class="cls-1" d="M44.71,63.49c.1-.14.33,0,.28-.33L44.73,63c.07-.23.27.08.3-.2.12.11-.08.32.14.35s.14-.46.06-.61c-.09,0,0,.09-.06.18-.32-.46,0-.32,0-.8l.09.43.4-.32c0,.38.23.4.33.8,0-.09.05-.19.08-.3a3.18,3.18,0,0,0,0,.69c0,.18,0,.36,0,.56a2.94,2.94,0,0,1-.1.63l-.05-.18L45.7,65h-.21l0,0c-.23-.41-.29.2-.56.12l.18.07c0,.06,0,.24-.08.32L45,65.2c-.1.09-.07.28-.08.42-.08-.2-.31-.13-.45-.06.14,0,0,.1,0,.1.07.2-.8-.15-1,.4a.35.35,0,0,0,.06.29c-.44-.15-.6.54-.82.47.11-.18,0-.24,0-.38-.24.11-.32.1-.36.43-.28.06-.1-.3-.32-.42-.38.19.24.36,0,.51-1.17.33-1.89,1.66-2.9,1.73,0-.1-.12-.16-.16-.26-.27.06-.11.65-.49.41,0-.09.07-.23,0-.28.09.43-.57.68-.48,1.12l-.11-.15c-.27.34-.63.77-.89.64.05,0,0,0,0-.1,0,.47-.41.38-.67.73-.45-.49-.69.53-1.1.1-.86.41-.8,1.18-1.5,1.37.07-.22-.29-.27-.35-.09l.12.11c-.29.2-1,.21-1.21.8-.14,0-.16-.26-.3-.23l.06.34a.88.88,0,0,0-.31-.08,1.15,1.15,0,0,1-.52.69c-.13-.11-.24-.32-.39-.19-.13.36-.81.75-1.33,1l0-.14c-.22-.07-.39.19-.58.35,0-.09-.12-.2-.16-.3,0,.42-.46.51-.44.85l-.57.21.08.11c-.84.22-1.41,1-2.24,1-.58-.07-.78,1-1.41,1-.14,0,.07-.32-.15-.35a.42.42,0,0,1-.13.38,0,0,0,0,0,0,0v-.12c0,.06,0,.09,0,.12v0a1.39,1.39,0,0,1-.34.2c-.25-.08-.59-.24-.85-.14.65-.47.65-.36.85-.92a2.21,2.21,0,0,1-.59.24,2.12,2.12,0,0,1,.18-.87c.09.48.48-.28.63.12.33-.19-.2-.73.26-.87l0,.34c.22-.54.52-.79.6-1.12l.05.06c0-.28.71-.29.66-.72.08.15-.17.31.14.39-.14-.28.3-.44.19-.57.11,0,.35-.08.44.18.15-.12,0-.29-.14-.4.39.24.13-.41.51-.12,0,0-.05.08-.1.13s.25.22.35.09l-.22-.46c.43-.18.28-.15.76-.38-.12.27.13.11.11.3.26-.35,0-.24.2-.64l.13.54c.3-.29-.3-.7.22-.83,0,.29.57.6.42.77.3.13.77-.47.74-.19.62-.21,0-1.19.67-1.15l.26.12a.48.48,0,0,1,0-.4c0,.07,0,.16.11.33.31-.39.4-.38.36-.86,0,.19,0,.62.3.61s.19-.12.29-.16-.23-.4-.07-.67c.24-.11.25-.68.58-.4l-.27.06.09.44c.31-.3.67-.4.65-.69l.09.07c.11-.65.42.34.75-.19a5.23,5.23,0,0,0,.2-.69v.57l.36-.43-.2-.26A4.91,4.91,0,0,0,34.77,69c.31-.3.52-.65.46-.9.63,0,0,.76.63,1,.35-.76.11-.65.87-1-.08-.15-.38-.33-.17-.54.17,0,.65,0,.65-.4a.14.14,0,0,1,0,.06c0-.67.58-.41.62-.83,0,0,0,.06,0,.1l.33-.53.38.24c0-.33.15-.17.27-.39,0,.19-.14.5.12.54-.21-.38.47-.4.3-.51l.24-.33.28.37.47-.61c-.22,0-.16-.16-.34-.23,0-.26.63-.05.73-.43l0,.14a.82.82,0,0,0,1-.54l-.24,0c.51,0,.43-.41.88-.5,0,.14,0,.28.1.35.07-.4.53-.64.87-.84l0,0c.23,0,.35.09.46.34-.23,0-.24.16-.16.31.86,0-.29-.79.36-.86a.19.19,0,0,0,.15.26v-.37l.14.43c.17.12.2-.16.3-.24C44.63,63.2,44.75,63.31,44.71,63.49Z"/><path class="cls-4" d="M28.57,77.63a1.7,1.7,0,0,0,.39,0A.52.52,0,0,0,28.57,77.63Zm15.9-8.87s-.07.1-.2.43l-.18-.43a1.87,1.87,0,0,1-.39.71,1.71,1.71,0,0,0-.32.54c.29-.1.48-.43.46-.11a.79.79,0,0,0-.52.64c0,.13,0,.27-.06.42a1.76,1.76,0,0,1-.13.43s0,0,0,0a3.86,3.86,0,0,0-.28.4l-.15-.07c.25-.55.55-1.15.28-1.35l-.07.27-.1.25-.19.53c-.16,0-.35.07-.54.27a7.33,7.33,0,0,0-.49.65,3.6,3.6,0,0,0,.39-.47c-.08.17.14.21.06.38a4.48,4.48,0,0,0-.82.88,1.86,1.86,0,0,1-.89.72l0-.06-.48.65c-.22.12-.24,0-.21-.14a.1.1,0,0,1,0,0s0,0,0,0c-.22.28-.4.54-.63.8a4.88,4.88,0,0,1-.94.74h-.18l-.62.47-.42.18c.18-.4.26-.75,0-.83.07-.37.21-.62-.6-.44-.15.26-.72.79-1,.58l.09.28c-.44.32-.54.18-.65.05s-.26-.27-.84,0h.28c-.21.11-.32.35-.6.37-.1,0,0-.15.11-.25a9.87,9.87,0,0,1-.84.74c-.1-.15-.09-.25.07-.43-.92.28.35.45-.82.67-.24-.06,0-.19.15-.33a1.11,1.11,0,0,0-.72.12c-.21.12-.41.26-.67.38-.06-.25.3-.29-.18-.37.11.12.22.33-.13.42.12-.29-.29-.08-.64-.09a.31.31,0,0,0-.25-.06.42.42,0,0,0,.25.06.17.17,0,0,1-.05.28,2.92,2.92,0,0,1-.56,0,3.08,3.08,0,0,0,.47.19A.89.89,0,0,1,29,78a5.67,5.67,0,0,0-.67-.2.27.27,0,0,1,.19-.12c-.24,0-.48-.09-.74-.11a1.89,1.89,0,0,0-.83.09l.06,0c-1.15.25.36.44-1,.67-.44-.07.26-.82-.77-.61.47.27-.69.47-1.3.5l.66-.44c-.23,0-.64.08-.77,0a.42.42,0,0,0,.13-.38c.22,0,0,.34.15.35.63,0,.83-1,1.41-1,.83-.08,1.4-.82,2.24-1l-.08-.11.57-.21c0-.34.4-.43.44-.85,0,.1.17.21.16.3.19-.16.36-.42.58-.35l0,.14c.52-.22,1.2-.61,1.33-1,.15-.13.26.08.39.19a1.15,1.15,0,0,0,.52-.69.88.88,0,0,1,.31.08l-.06-.34c.14,0,.16.21.3.23.24-.59.92-.6,1.21-.8l-.12-.11c.06-.18.42-.13.35.09.7-.19.64-1,1.5-1.37.41.43.65-.59,1.1-.1.26-.35.62-.26.67-.73,0,.06.08.06,0,.1.26.13.62-.3.89-.64l.11.15c-.09-.44.57-.69.48-1.12.09,0,0,.19,0,.28.38.24.22-.35.49-.41,0,.1.17.16.16.26,1-.07,1.73-1.4,2.9-1.73.29-.15-.33-.32,0-.51.22.12,0,.48.32.42,0-.33.12-.32.36-.43,0,.14.12.2,0,.38.22.07.38-.62.82-.47a.35.35,0,0,1-.06-.29c.19-.55,1.06-.2,1-.4,0,0,.11-.13,0-.1.14-.07.37-.14.45.06,0-.14,0-.33.08-.42l.07.25c0-.08,0-.26.08-.32l.17.07c-.09-.11-.14-.11-.17-.07L45,65.06c.27.08.33-.53.56-.12l0,0h.21l-.06.19v-.06a7,7,0,0,1-.06.79l-.13-.07c0,.18,0,.25,0,.49l-.14-.14a1.55,1.55,0,0,1,0,.79c0,.16-.07.33-.11.48a3.64,3.64,0,0,1-.16.38l-.11,0L44.71,69C44.44,69.24,44.5,68.84,44.47,68.76Z"/><path class="cls-1" d="M45.33,65.2l-.17-.07S45.24,65.09,45.33,65.2Z"/><path class="cls-1" d="M45.09,71.62c.19.14.13.5,0,.9-.07.21-.17.42-.26.63,0,0,0,0,0,0-.08.19-.17.37-.23.53A5.48,5.48,0,0,1,43.38,75a7.63,7.63,0,0,0-1.23,1.17l0-.07a1.13,1.13,0,0,0-.7.34,5.39,5.39,0,0,0-.62.64c-.4.47-.84.92-1.37.89a5.53,5.53,0,0,0,1.06-.86c.27-.3.49-.59.74-.91,0,.1,0,.31.25.16l.52-.75,0,.06a2.39,2.39,0,0,0,1-.81,5,5,0,0,1,.92-1c.1-.19-.15-.24,0-.43-.17.21-.34.42-.52.61a7.08,7.08,0,0,1,.64-.82c.22-.21.43-.34.62-.3C44.83,72.42,45,72,45.09,71.62Z"/><path class="cls-1" d="M45,73.25a4.26,4.26,0,0,1,.31-.47A1.32,1.32,0,0,1,45,73.25Z"/><polygon class="cls-1" points="44.96 45.75 44.92 45.8 44.56 45.58 44.96 45.75"/><path class="cls-1" d="M44.86,50.69s0,0,0,.06S44.72,50.68,44.86,50.69Z"/><path class="cls-1" d="M44.26,62.87l.16.16A.81.81,0,0,1,44.26,62.87Z"/><path class="cls-1" d="M43.23,63.18c-.15-.23.3-.34.38-.29S43.42,63.08,43.23,63.18Z"/><path class="cls-1" d="M43,70.39c.27.2,0,.8-.28,1.35-.08.17-.15.33-.2.47a4,4,0,0,1-1,1.07,8,8,0,0,0-1.06,1l0-.06c-.47,0-.8.43-1.14.85a2.58,2.58,0,0,1-.56.54,1.06,1.06,0,0,1-.65.22,4.88,4.88,0,0,0,.94-.74c.23-.26.41-.52.63-.8,0,.09,0,.26.21.14l.48-.65,0,.06a1.86,1.86,0,0,0,.89-.72,4.48,4.48,0,0,1,.82-.88c.08-.17-.14-.21-.06-.38a3.6,3.6,0,0,1-.39.47,7.33,7.33,0,0,1,.49-.65c.19-.2.38-.31.54-.27l.19-.53.1-.25Z"/><path class="cls-1" d="M43.12,71.41a1.17,1.17,0,0,1-.28.4A3.86,3.86,0,0,1,43.12,71.41Z"/><polygon class="cls-1" points="42.85 47.92 42.81 47.97 42.51 47.77 42.85 47.92"/><path class="cls-1" d="M42.68,43.17a1.91,1.91,0,0,0-.55-.28C42.09,42.68,42.61,43,42.68,43.17Z"/><path class="cls-1" d="M41.63,42.47a.29.29,0,0,1,.07.2C41.56,42.61,41.57,42.53,41.63,42.47Z"/><path class="cls-1" d="M41.34,76.1l-.05.06S41.32,76.09,41.34,76.1Z"/><path class="cls-1" d="M40.87,45.67a2,2,0,0,0-.49-.23C40.35,45.26,40.81,45.54,40.87,45.67Z"/><path class="cls-1" d="M40,45.07a.32.32,0,0,1,.06.18C39.9,45.19,39.91,45.12,40,45.07Z"/><path class="cls-1" d="M39.7,74.27a.1.1,0,0,0,0,0S39.68,74.26,39.7,74.27Z"/><path class="cls-1" d="M39.55,38.2c.05.07,0,.07-.1.06Z"/><path class="cls-1" d="M39.29,65.84l0,0,0,0Z"/><polygon class="cls-1" points="39.26 77.94 38.79 78.57 38.56 78.45 39.26 77.94"/><path class="cls-1" d="M20.07,80.19l.22-.44a.46.46,0,0,1,.31.14l-.16-.26c.2-.12.29.28.5.06l-.17-.16c.12,0,.2-.1.28-.16l.23,0s0,0-.05.08a.33.33,0,0,0,.44-.08l.17,0a2.69,2.69,0,0,0,.57-.17h.23c-.19.5-.24.43-.92.91.53-.17,1.35.53,1.38,0V80c.13.09.62,0,.89,0l-.78.49a5.87,5.87,0,0,0,1.23-.17c.36-.11.55-.25.29-.4,1.18-.26.38.61.89.7.79-.11.74-.24.67-.36s-.17-.24.48-.4l-.06,0a3.2,3.2,0,0,1,1.82,0,.34.34,0,0,0-.23.12c.26.05.51.16.77.23a1.08,1.08,0,0,0,.87-.13,4.83,4.83,0,0,1-.52-.23c.26,0,.44,0,.63,0a.19.19,0,0,0,.06-.32c.4,0,.87-.22.74.11.39-.11.27-.35.14-.49h0c.53.08.12.14.19.43.61-.31.93-.68,1.61-.57-.14.16-.45.3-.17.38,1.31-.26,0-.44.86-.77l0,0c-.14.19-.15.29-.05.45.25-.19.48-.39.71-.6h0l.09,0s0,.07,0,.09c.33,0,.46-.28.7-.41H35l.24-.13a.45.45,0,0,1,.45.17c.13.15.23.3.75,0l-.1-.32c.15.12.4,0,.62-.12a2.29,2.29,0,0,0,.51-.55c.93-.23.76.08.69.5.2.06.18.35.06.7a3.49,3.49,0,0,1-.24.53,5.63,5.63,0,0,1-.46.76l-.24.33c0-.11.08-.24-.05-.28a6.29,6.29,0,0,1-3,1.47c-.3-.11-.08-.23.12-.34s.38-.24,0-.34c-.49.56-1.07.63-1.71,1.14a3.89,3.89,0,0,0-1.5.2c.13-.06.23-.1.1-.15-.5,0-.56.37-1.06.53l-.28-.45a11.24,11.24,0,0,0-1.33.33,4.52,4.52,0,0,1-1.14.19l0-.07a9.42,9.42,0,0,0-1.06,0,3,3,0,0,0-1,.2c-.33-.13-.21-.26-.69-.4-.05.31-.37.25-.74.15a1.21,1.21,0,0,0-1.1,0L22,81.68c-.28.23-1.17,0-1.62,0,.27-.09-.39-.37-.89-.53.1.08-.14,0-.48-.11a.9.9,0,0,0,.31-.69c.23.36.13,0,.44.1.05-.09,0,0-.09-.06,0-.43.29-.15.4-.28Z"/><path class="cls-1" d="M38.15,41.36c.05.07,0,.06-.07.06Z"/><polygon class="cls-1" points="37.91 75.86 37.5 76.43 37.29 76.33 37.91 75.86"/><path class="cls-1" d="M34.44,78.35l-.26.23a2.18,2.18,0,0,1-.66.15s0,0,0,0l-.07,0c-.2-.1,0-.19.14-.27s.33-.21,0-.29c-.43.48-.94.5-1.49,1a4.59,4.59,0,0,0-1.18.11h0l-.06,0c.07,0,.12-.07,0-.1-.41,0-.48.3-.87.45a.19.19,0,0,0-.1,0l-.19-.31a21.16,21.16,0,0,1-2.15.44l0-.06a3.55,3.55,0,0,0-1.82.17c-.29-.12-.18-.24-.59-.37-.1.54-1.08-.26-1.6.19l-.69-.5a.52.52,0,0,1-.28.09s0-.08.05-.13l-.28.14h-.14a2.71,2.71,0,0,1-.4,0,.43.43,0,0,1,.32-.17l-.33-.38c.21-.3.23,0,.31.14.19-.12.31,0,.6-.12.06-.18,0-.19-.06-.34l.32,0,0,.33a.71.71,0,0,1,.51-.67c.2.07.35.09.36-.1l0-.1h0c.13.08.54,0,.77,0l-.66.44c.61,0,1.77-.23,1.3-.5,1-.21.33.54.77.61,1.37-.23-.14-.42,1-.67l-.06,0a1.89,1.89,0,0,1,.83-.09c.26,0,.5.08.74.11a.27.27,0,0,0-.19.12A5.67,5.67,0,0,1,29,78a.89.89,0,0,0,.76-.11,3.08,3.08,0,0,1-.47-.19,2.92,2.92,0,0,0,.56,0,.17.17,0,0,0,.05-.28c.35,0,.76-.2.64.09.35-.09.24-.3.13-.42.48.08.12.12.18.37.26-.12.46-.26.67-.38a1.11,1.11,0,0,1,.72-.12c-.12.14-.39.27-.15.33,1.17-.22-.1-.39.82-.67-.16.18-.17.28-.07.43a9.87,9.87,0,0,0,.84-.74c-.07.1-.21.2-.11.25.28,0,.39-.26.6-.37h-.28c.58-.23.72-.1.84,0s.21.27.65-.05l-.09-.28c.26.21.83-.32,1-.58.81-.18.67.07.6.44.22.08.14.43,0,.83l-.12.23a10,10,0,0,1-.6,1c0-.1.07-.21,0-.24a6.65,6.65,0,0,1-.9.63,1.58,1.58,0,0,0-.51.15l.27,0-.1.06-.56.26S34.4,78.41,34.44,78.35Z"/><path class="cls-1" d="M35.2,78.08l-.24.13-.27,0A1.58,1.58,0,0,1,35.2,78.08Z"/><path class="cls-1" d="M34.18,78.58l.26-.23c0,.06-.11.13-.14.18l-.09,0Z"/><path class="cls-1" d="M33.55,78.68s0,0,0,0l0,0Z"/><path class="cls-1" d="M32.05,69.93a.78.78,0,0,1,0,.14A.1.1,0,0,1,32.05,69.93Z"/><path class="cls-1" d="M27.53,59.62l.15.27-.16-.17c.07.2.11.34.05.36s-.22-.33-.23-.29c.09.24,0,.31-.17.3l0-.1c-.12-.14-.09,0-.1.07l-.17-.28c.13.3,0,.23.13.49l-.15,0,.08.11c-.26-.11-.21.26-.51,0-.11-.11-.12,0-.12,0l-.19,0,0,0h0l.07,0-.08,0,0,0,0,0s0,0,0,0h0l-.18,0,.07,0-.11,0c.06,0,.34-.13.26-.13l-.19.07c.07,0-.18,0,.11-.1.06,0,0,0,.05,0,.4-.17-.11,0,0-.13l-.44.16h0a1.18,1.18,0,0,1,.29-.11S26,60.06,26,60l-.31.09.1-.07.08,0c-.36.06.13-.16-.39,0,.12,0,.27-.06.34-.09.28-.15-.49,0-.16-.16s0-.18.17-.33l-.13,0,.09-.09a.71.71,0,0,1-.3,0h0v0l.14,0c-.05,0-.2,0,0-.07h.11c.07-.08.06-.17-.19-.15,0,0,.19-.06.35-.1s-.13,0-.34,0l.22-.07-.31,0s.25,0,.32-.07c-.36,0-.05-.12-.08-.15l-.15,0c-.13,0,.09-.06.25-.07s-.13-.06-.3-.09h0a.79.79,0,0,0,0-.09l.13,0,0,.06a.13.13,0,0,0,0-.07s0,0,0-.06l.07,0c.06.09.14.19.13.14l-.09-.15.15,0c-.16,0,0-.07-.21-.07h0c.22,0,.08-.07-.08-.1h0l.17,0c0,.08.06.08.12.19a2.37,2.37,0,0,0-.16-.4l.25.43c0-.12-.39-.64-.23-.56s.47.66.47.73c.17.21.13-.09.23.11.17,0-.44-.9-.17-.66l.14.18a1.16,1.16,0,0,1-.13-.29,1.6,1.6,0,0,0,.17.29.74.74,0,0,0-.06-.31,2.11,2.11,0,0,0,.23.35c.08.09,0,0,.06,0s-.25-.4-.29-.55-.16-.44.09-.11l-.09,0,.2.37c0-.12.11-.07,0-.28l0,0c-.19-.43.31.42.24.12l-.13-.34.16.32,0-.21-.17-.26a2.6,2.6,0,0,0,.55.4,1,1,0,0,0-.16-.53c.27.24.3.59.64,1-.15-.47-.21-.46,0-.46-.09-.14-.28-.38-.28-.48s.22.16.14,0a0,0,0,0,0,0,0l0,0c-.19-.42.1-.08,0-.34l.05.07-.07-.29.23.3c-.1-.23,0-.07,0-.2a2.28,2.28,0,0,0,.26.46c-.23-.37,0-.15-.08-.3l0-.16.25.38,0-.31c-.1-.1-.13-.18-.23-.3s.24.18.13-.08l.05.1c.22.25.27.15.19-.08l-.1-.1c.18.14,0-.19.15-.1a1.39,1.39,0,0,0,.18.31c-.13-.28,0-.31,0-.35l0,0a1.92,1.92,0,0,1,.32.43c-.09-.06,0,0,.05.18.34.28-.42-.71-.18-.53a.77.77,0,0,0,.16.25l-.11-.22.19.31c.11.15,0-.06,0-.09a2.08,2.08,0,0,1,.24.37s.12.09,0-.15L29,56.42c-.06-.14.12.14.05,0,.09.12.1.21.19.3s-.12-.31-.21-.45,0,0,0,.1a1.12,1.12,0,0,1-.23-.47l.13.23L29,56c.15.29.25.39.44.73-.17-.41-.49-1.12-.34-1.08l.23.47c.1,0-.05-.29-.21-.62.34.55.28.48.58,1-.06-.16.25.18,0-.2l-.06-.1s0-.08,0-.12l.27.51a1.59,1.59,0,0,0-.3-.69c-.11-.35.34.46.41.49,0-.29-.27-.39-.34-.69s.09-.06.2,0a.19.19,0,0,0,0,.1c.11.09.37.44.27.17l-.2-.23s.09.07.08,0a1.17,1.17,0,0,0-.15-.25c.05,0,0-.09.17.15a1.46,1.46,0,0,0-.22-.38c.14.13.09.12.24.36-.05-.19-.14-.4.05-.19a1,1,0,0,0,.15.28c.16,0-.22-.37-.18-.45a2.55,2.55,0,0,0,.22.37l-.11-.33a.35.35,0,0,0,.06.09c.08.08,0-.11,0-.14l-.08-.08c.1-.08.47.69.48.5l-.16-.25c.17.24.12,0,0-.15A2,2,0,0,1,31,56a9.68,9.68,0,0,1,.75,1.44c-.06-.08-.08-.15-.13-.21,0,.22.09.47-.1.32-.25-.32,0-.18-.3-.51.17.34.06.26.2.58-.08-.07-.18-.15-.18-.08a.27.27,0,0,0-.06-.09c-.08-.06.11.26.11.34l-.27-.4c0,.07.07.37,0,.36l0-.06c-.07,0-.15,0,0,.26-.09-.08-.15-.2-.24-.26.34.54-.18-.1.11.43l-.28-.31a.6.6,0,0,1,.1.38c-.06-.14-.17-.21-.21-.18s-.08,0,0,.25l-.09-.14c-.07,0,.05.35-.22,0-.07,0,0,.13.08.3L30,58.19h0c-.25-.4,0,0-.18-.1l.1.11a0,0,0,0,0,0,0,1.67,1.67,0,0,1,.08.2l-.12-.2a1.28,1.28,0,0,0,.13.28c-.11-.18-.18-.21-.21-.2a.14.14,0,0,1,.06.09c.1.18-.39-.39-.26,0a2.36,2.36,0,0,0,.14.24c-.24-.26,0,.22-.15.08a1.34,1.34,0,0,0-.15-.29c-.06,0-.1,0,0,.2-.09,0-.16-.26-.3-.43-.08,0,.24.36.18.38-.35-.15-.13.63-.52.33,0-.07-.11-.16-.16-.25s.21.46,0,.15a1.13,1.13,0,0,0-.11-.22c.2.36,0,.33.23.7l-.11-.17c0,.18.05.39-.11.2,0,0,0,0-.05-.09.16.35,0,.15,0,.33-.37-.53-.08.18-.41-.3-.19,0,.13.64-.08.55s-.23-.32-.18-.2l.09.13c0,.06-.32-.17-.19.2C27.67,59.83,27.58,59.66,27.53,59.62Z"/><polygon class="cls-1" points="31.57 36.68 31.23 36.79 31.42 36.59 31.57 36.68"/><polygon class="cls-1" points="31.22 40.04 30.92 40.15 31.09 39.96 31.22 40.04"/><path class="cls-1" d="M30.35,71c.06.25-.16.3-.28.4C30.17,71.23,30.31,71.14,30.35,71Z"/><path class="cls-1" d="M30.1,79.62h0Z"/><path class="cls-1" d="M30.08,79.61H30l0,0A.19.19,0,0,1,30.08,79.61Z"/><path class="cls-1" d="M30.07,79.62h0v0Z"/><path class="cls-1" d="M30,79.56l0,0a.4.4,0,0,1-.22-.06A.35.35,0,0,1,30,79.56Z"/><path class="cls-1" d="M30,58.25l0,0a0,0,0,0,1,0,0S30,58.2,30,58.25Z"/><path class="cls-1" d="M29.88,55.75l-.06,0S29.84,55.69,29.88,55.75Z"/><path class="cls-1" d="M29.69,77.27a.31.31,0,0,1,.25.06A.42.42,0,0,1,29.69,77.27Z"/><path class="cls-1" d="M29.82,55.48l-.05,0Z"/><path class="cls-1" d="M29,80a3.38,3.38,0,0,1-.45,0A.63.63,0,0,1,29,80Z"/><path class="cls-1" d="M29,77.65a1.7,1.7,0,0,1-.39,0A.52.52,0,0,1,29,77.65Z"/><path class="cls-1" d="M28.44,55.93c0,.06,0,.07,0,.09C28.25,55.79,28.39,55.86,28.44,55.93Z"/><path class="cls-1" d="M27.47,57l0,0h0S27.47,57,27.47,57Z"/><polygon class="cls-1" points="26.96 62.81 26.78 62.96 26.7 62.95 26.96 62.81"/><path class="cls-1" d="M26.2,62.9l0,0c-.11,0-.14,0,.12-.19L26,62.9a4.43,4.43,0,0,1,.78-.4c.18-.06-.13.23.1.14l0,0c-.5.41.47-.2,0,.21,0,0-.19,0-.37.11a.87.87,0,0,0,.22-.17l-.18.08c.29-.27-.12,0,0-.16C26.41,62.75,26.25,62.87,26.2,62.9Z"/><path class="cls-1" d="M27.14,40c0,.1-.12.21-.39.33A.48.48,0,0,1,27.14,40Z"/><path class="cls-1" d="M26.25,61.48c.5-.23-.15.18.31,0,.07,0-.2.26-.13.27l-.12.07c.46-.22.2,0,0,.17l.22-.09c0,.17,0,.31.29.27,0,0-.06,0-.18.1.21-.1.06,0,.18,0-.29.17-.07.06-.28.21l.07-.07-.35.15.05,0a1,1,0,0,0-.39.14l.07-.05-.08,0,.07,0-.2.07,0,0v-.06l.1,0c-.07,0-.52.2-.43.08a4,4,0,0,0,.41-.22l-.12,0,.08,0a2.08,2.08,0,0,0-.33.17c.08-.09.52-.37.44-.37.22-.1.21-.11.24-.14-.5.26-.45.12-.8.29.33-.23-.3.1-.29,0a8.57,8.57,0,0,0,.81-.4c-.24.09-.31.05-.58.13.34-.29-.34,0,0-.28h0c.13,0,.36-.14.39-.14.24-.16,0,0-.05,0s0,0,.05-.05c-.27.09-.18.09-.41.23l-.32.12.3-.15c.08-.08-.27.09-.45.15,0,0,.27-.12.36-.19s-.16-.05-.36,0l0-.07h0c.05,0,.05-.06,0-.07s.05-.2.22-.06c-.07-.2-.15-.31-.19-.43l.05,0a2.19,2.19,0,0,1,.25.43h0l.1.18c.1,0,.26,0,0-.48.16.23,0,0,.18.15,0-.05,0-.05-.06-.07-.14-.29,0-.08.05-.08l0,0-.07-.22a.8.8,0,0,1,.15.16l-.13-.21s.21.3.21.21l-.13-.18c.06,0,.05,0,.06,0s0,0,.1.11,0,0,0,0l.06.07h0c.08.08.08,0,.07,0l.41-.16c-.26.18.26,0,.14.16a4.49,4.49,0,0,0-.43.18c.13,0,.59-.23.4-.11l-.05,0c.5-.19-.65.44.25.08l-.3.16,0,0-.58.31a3.63,3.63,0,0,0,.5-.22h0A0,0,0,0,0,26.25,61.48Z"/><path class="cls-1" d="M26.7,62.46q.07,0,.06,0Z"/><path class="cls-1" d="M26.49,62.51l.17-.09s-.12.08-.17.14c.13-.08.17-.1.19-.09-.19.1-.64.36-.33.11-.14.07-.11.09-.27.21s.05-.08-.12,0l.36-.21c-.12,0,0,0,.18-.12v0l.2-.08Z"/><path class="cls-1" d="M26.66,57.32v0Z"/><path class="cls-1" d="M26.87,36.65c0,.11-.14.23-.45.38A.54.54,0,0,1,26.87,36.65Z"/><path class="cls-1" d="M26.44,57.39l0,.08A.18.18,0,0,1,26.44,57.39Z"/><path class="cls-1" d="M26.29,60.43c.11,0,.09,0,.08.09l-.07,0S26.29,60.47,26.29,60.43Z"/><path class="cls-1" d="M26.3,60.55c0,.1,0,.18-.1.09a.05.05,0,0,1,0,0Z"/><path class="cls-1" d="M26.29,60.43s0,.08,0,.12l-.12.05h0l-.07-.14Z"/><path class="cls-1" d="M26.24,61.48h0Z"/><path class="cls-1" d="M26.16,57.62c.1.17,0,.15,0,.18A.82.82,0,0,0,26.16,57.62Z"/><path class="cls-1" d="M26,60.77s0,0,0-.06l.16,0c-.38.25.41,0,0,.29a1.53,1.53,0,0,0-.27.11c0-.07,0-.13,0-.09l-.13-.2h0v0s.13.1.21.12l-.1-.19h0Z"/><path class="cls-1" d="M24.77,60.29a5.73,5.73,0,0,1-.6.11c.35-.1,0-.07.34-.17,0,0-.48.11-.6.11v0l.28-.06a1.58,1.58,0,0,1-.28,0,1.15,1.15,0,0,0-.06-.21,1.93,1.93,0,0,0-.1-.19c.06,0,.07,0,.13.08-.12-.25-.06-.27,0-.32l0,0a1.23,1.23,0,0,0,.17.25c.08,0,.07-.23.22-.12a3,3,0,0,0,.29.5,2.76,2.76,0,0,1-.35-.82l.12.19c.07,0-.06-.28,0-.27s.05,0,.13.13.07.21.18.42c-.08-.19,0-.26,0-.27.11.15.24.14.36.46,0,0,0,0,.05-.06a5.28,5.28,0,0,1-.32-.62l.16.19c-.22-.38,0-.19-.14-.46h0c-.08-.2.09,0,.09-.1.1.16.22.3.37.51-.05-.09,0-.13-.11-.25l.11.14-.05-.19c.11.06.18.39.34.56a2.59,2.59,0,0,1-.19-.43l.13,0a.65.65,0,0,1,.09.13s0-.06,0-.13a.71.71,0,0,0,.3,0l-.09.09.13,0c-.21.15.15.16-.17.33s.44,0,.16.16c-.07,0-.22,0-.34.09.52-.12,0,.1.39,0l-.08,0-.1.07L26,60c0,.05-.18.11-.18.13a1.18,1.18,0,0,0-.29.11h0l.44-.16c-.11.09.4,0,0,.13,0,0,0,0-.05,0-.29.11,0,.05-.11.1l.19-.07c.08,0-.2.09-.26.13l.11,0-.07,0,.18,0h0s-.07.05-.1.08l.14,0a0,0,0,0,1,0,0l-.12.06.13,0c.1.22-.07.09-.09.19l-.06,0-.06,0,0,0-.11.05c-.09-.13-.17-.29-.14-.15l.11.16-.19.07.21,0,.13.2c-.06,0,0,0,0,.09l-.08,0-.06-.07s0,0,0,0-.09-.12-.1-.11,0,.08-.06,0l.13.18c0,.09-.17-.2-.21-.21l.13.21a.8.8,0,0,0-.15-.16l.07.22,0,0s-.19-.21-.05.08c0,0,.05,0,.06.07-.15-.16,0,.08-.18-.15.21.44.05.46,0,.48l-.1-.18h0a2.19,2.19,0,0,0-.25-.43h0l-.07-.12a.51.51,0,0,0,0,.13h0a3.54,3.54,0,0,1-.81.2l.22-.09c0-.07-.55.1-.09-.1,0,0,.22,0,.46-.11-.22.06-.27,0-.27,0a1.53,1.53,0,0,1,.54-.24s0,0,0,0a4.8,4.8,0,0,1-.68.17l.2-.08c-.39.11-.11,0-.53.07l.1,0c-.23,0,0-.06-.09-.07.18,0,.34-.12.56-.2a1.12,1.12,0,0,0-.22,0l.18-.07-.22,0C24.24,60.4,24.56,60.38,24.77,60.29Z"/><path class="cls-1" d="M26.1,60.46l.07.14-.09,0-.1,0c0-.1.19,0,.09-.19Z"/><path class="cls-1" d="M26.07,60.4l.08,0-.07,0Z"/><path class="cls-1" d="M26.08,60.42h0a0,0,0,0,0,0,0h0Z"/><path class="cls-1" d="M26.06,60.44a0,0,0,0,1,0,0l-.13,0Z"/><path class="cls-1" d="M26,60.36l0,0-.14,0s.1-.06.1-.08Z"/><polygon class="cls-1" points="26.03 60.36 26.01 60.37 26 60.37 26.03 60.36"/><path class="cls-1" d="M26,60.71s0,0,0,.06l0-.05Z"/><path class="cls-1" d="M26,60.66a.11.11,0,0,0,0,.05h0l0,0Z"/><path class="cls-1" d="M25.92,60.73l.1.19c-.08,0-.17-.15-.21-.12v0Z"/><path class="cls-1" d="M25.92,60.68h0l0,0Z"/><path class="cls-1" d="M25.89,60.69l0,0-.12.05a.05.05,0,0,1,0,0Z"/><path class="cls-1" d="M25.86,61.09c0,.07,0,.12-.07,0Z"/><path class="cls-1" d="M25.86,61.07v0l-.07,0a0,0,0,0,1,0,0Z"/><path class="cls-1" d="M25.48,58.57s0,0,0,0c.17,0,.41,0,.3.09s-.38.07-.25.07l.15,0s-.28.16.08.15c-.07,0-.28.05-.32.07l.31,0-.22.07c.21,0,.35,0,.34,0s-.39.08-.35.1c.25,0,.26.07.19.15h-.11c-.17.06,0,.06,0,.07l-.14,0h0c-.09-.19-.27-.47-.17-.43l.12.23c-.11-.32-.08-.41-.17-.62l0,.06c-.09-.2.14,0,0-.28a1.63,1.63,0,0,1,.09.19h-.06s0,.06.13.07S25.46,58.56,25.48,58.57Z"/><path class="cls-1" d="M24.83,59a2.8,2.8,0,0,0-.17-.32A1.38,1.38,0,0,0,24.83,59Zm-.1.55.05.11,0,0Zm0-.15a5.28,5.28,0,0,0,.32.62s0,.09-.05.06c-.12-.32-.25-.31-.36-.46,0,0-.07.08,0,.27-.11-.21-.22-.36-.18-.42s-.12-.14-.13-.13.08.28,0,.27l-.12-.19a2.76,2.76,0,0,0,.35.82,3,3,0,0,1-.29-.5c-.15-.11-.14.11-.22.12a1.23,1.23,0,0,1-.17-.25c.15-.08-.08-.1.13-.13,0,0-.05,0-.18,0s-.72.1-.49,0l.18-.06h-.16l.22,0a1,1,0,0,0-.49,0,2.59,2.59,0,0,0,.59-.11c.12,0,0,0,0,0a3.92,3.92,0,0,1-.61.07s-.47,0-.07-.09l-.08,0,.41,0c-.08,0,0-.1-.26-.08l.1,0h-.14c.08,0,.55-.11.34-.13H23l.41,0-.18,0-.33,0a2.67,2.67,0,0,0,.62-.28,1.32,1.32,0,0,0-.54-.05c.34-.11.66,0,1.15-.14-.48,0-.5,0-.41-.12a2.39,2.39,0,0,1-.56,0c.07,0,.26-.1,0-.11H23.1c-.48,0,0-.1-.32-.11h.1l-.29-.06L23,58c-.25,0-.08,0-.19-.05a2.25,2.25,0,0,0,.52,0c-.44,0-.11-.08-.3-.06l-.15,0,.44,0L23,57.74c-.14,0-.22,0-.37,0h-.05s.25-.09.05-.11h.11c.32-.05.27-.13,0-.17l-.09,0c.11-.06-.19-.08,0-.14a1,1,0,0,0,.34,0c-.3,0-.28-.11-.27-.16h.05a1.8,1.8,0,0,1,.53,0c-.1,0,0,0,.19,0s.06,0,.07,0-.84,0-.63-.08a.93.93,0,0,0,.29,0h.14c.18,0,0,0-.06-.06a2.29,2.29,0,0,1,.47,0c-.13,0,.11,0-.13-.07h.08s-.33-.06-.5-.07c0,0,0,0,.1,0a1.45,1.45,0,0,1-.53-.07l.28,0L23,56.85c.33,0,.46,0,.85,0-.44-.07-1.2-.2-1.08-.28l.52.08c.07-.05-.27-.11-.63-.16.67.05.54,0,1.22.12,0,0-.07,0-.08,0s.18,0-.15-.06h-.13c.06,0-.1-.05-.09-.06l.54.07a1.73,1.73,0,0,0-.69-.13c-.35-.11.57,0,.63,0-.26-.12-.46,0-.74-.13h0c-.2-.06,0-.08.15-.1l.11,0c.13,0,.57,0,.29-.08h-.3s.1,0,.06,0a1.21,1.21,0,0,0-.3,0c.08,0-.06-.07.24,0l-.11,0h.12c-.17-.07-.43-.13-.14-.13a1.34,1.34,0,0,0,.31.05c.15-.06-.46-.06-.47-.13a3.91,3.91,0,0,0,.45.07l-.34-.11.11,0c.11,0-.1,0-.12-.07h-.1c.11-.07.82.09.68,0l-.25,0c.23,0,0-.06-.13-.11a2.8,2.8,0,0,1,.77.11,8.88,8.88,0,0,1,1,.2l.43.11h-.07c.2.09.43.17.2.19-.39,0-.17-.07-.57-.1.34.08.23.09.57.17-.13,0-.25,0-.16,0l-.12,0c-.11,0,.26.06.33.09l-.49,0c0,.05.35.12.3.15H25.5c-.06,0-.11.05.2.11-.11,0-.25,0-.36,0,.63,0-.15,0,.39.11h-.38a.74.74,0,0,1,.35.1.31.31,0,0,0-.24,0c.06,0,0,.06.19.09h-.16s.32.1-.16.1c-.07,0,.12,0,.31.06l-.21,0h0c-.47,0,0,0-.18.06h.19l.17,0h-.1l.14,0c-.17,0-.22,0-.23,0a.15.15,0,0,1,.1,0c.21,0-.53.07-.16.12h.25c-.29,0,.19.08,0,.1a1.7,1.7,0,0,0-.33,0s-.08,0,.18.05a3.57,3.57,0,0,1-.52,0s.34,0,.4,0c-.27.15.48.25,0,.38l-.3,0c-.09,0,.5,0,.11.07h-.13c.22,0,.23,0,.42.05v0h0l.06.1h0c-.06-.09-.09-.12-.1-.11s.08.19,0,.11l.09.14s0,0,0,0a.8.8,0,0,0-.15-.16c.05.09,0,.11.06.24h0a1.63,1.63,0,0,0-.09-.19c.13.28-.1.08,0,.28l0-.06c.09.21.06.3.17.62l-.12-.23c-.1,0,.08.24.17.43h-.06s0,0,0,0h0s0,0-.11-.13l.06.15a2.59,2.59,0,0,0,.19.43c-.16-.17-.23-.5-.34-.56l.05.19-.11-.14c.07.12.06.16.11.25-.15-.21-.27-.35-.37-.51,0,.07-.17-.1-.09.1a0,0,0,0,0,0,0c.11.27-.08.08.14.46Z"/><path class="cls-1" d="M25.78,60.74h0l-.11-.16C25.61,60.45,25.69,60.61,25.78,60.74Z"/><path class="cls-1" d="M25.75,60.75l0,0-.21,0Z"/><path class="cls-1" d="M25.72,56l-.08,0Z"/><path class="cls-1" d="M25.58,58.24c.24,0,.05,0,.21.07l-.15,0Z"/><path class="cls-1" d="M25.51,58.13c.16,0,.3.06.08.1h0Z"/><path class="cls-1" d="M25.67,58.1l-.17,0v0Z"/><path class="cls-1" d="M25.67,58.1h-.18l0-.05c.11,0,.06,0,.17,0A.2.2,0,0,0,25.67,58.1Z"/><path class="cls-1" d="M25.64,58.33h0l-.05-.06s0,0,0,0h0Z"/><path class="cls-1" d="M25.55,58.28l.05.06-.07,0-.09-.14c.08.08,0-.08,0-.11s0,0,.1.11h0S25.56,58.27,25.55,58.28Z"/><path class="cls-1" d="M25.56,58.42h0s0,0,0,0S25.56,58.41,25.56,58.42Z"/><path class="cls-1" d="M25.54,58.41s0,0,0,0l-.13,0c-.06-.13,0-.15-.06-.24a.8.8,0,0,1,.15.16Z"/><path class="cls-1" d="M25.55,58.24h0Z"/><path class="cls-1" d="M25.49,59.34c0,.07.05.12,0,.13a.65.65,0,0,0-.09-.13h.06Z"/><path class="cls-1" d="M25.47,58.55s0,0,0,0,0,0,0,0Z"/><path class="cls-1" d="M25.42,59.33h0l-.13,0,.05,0h.07Z"/><path class="cls-1" d="M25.37,59.34s0,0,0,0Z"/><path class="cls-1" d="M25.39,58.47l.07.08c-.09,0-.15,0-.13-.07Z"/><path class="cls-1" d="M25.35,59.34l-.05,0-.06-.15C25.31,59.32,25.33,59.34,25.35,59.34Z"/><path class="cls-1" d="M25.28,61.74h0Z"/><path class="cls-1" d="M24.2,61.54c-.05,0,0-.06-.17,0a1.33,1.33,0,0,0,.39-.15c0-.06-.2-.07-.05-.18a3.36,3.36,0,0,0,.48-.16h0c0,.12.12.23.19.43-.17-.14-.2,0-.22.06a.63.63,0,0,0-.22,0h0a.68.68,0,0,0-.21-.29,1.75,1.75,0,0,0,.18.29h0l-.2.07s0-.06.11-.1a.74.74,0,0,1-.25,0Z"/><path class="cls-1" d="M24.47,60.77l-.14,0,.11,0Zm-.63,0c.42-.11.14,0,.53-.07l-.2.08a4.8,4.8,0,0,0,.68-.17s.08,0,0,0a1.53,1.53,0,0,0-.54.24s.05.06.27,0c-.24.07-.42.15-.46.11-.46.2.14,0,.09.1L24,61.2a3.54,3.54,0,0,0,.81-.2s0,0,0,0a3.36,3.36,0,0,1-.48.16c-.15.11.06.12.05.18a1.33,1.33,0,0,1-.39.15c.13,0,.12,0,.17,0l.05.12c.07.17.18.39.05.27s0-.07-.06-.11c.32.63-.54-.51-.13.37l-.19-.28L24,62c-.26-.35-.18-.27-.45-.65a3,3,0,0,0,.3.59h0c.21.41-.25-.13,0,.3-.06.1-.35-.13-.38,0l-.06-.12c.21.44-.07.23-.24,0,0,.07,0,.13.08.21-.24,0-.44.09-.47.43-.05,0,0-.1-.13-.25.14.31,0,.12,0,.27-.17-.32-.07,0-.25-.32l.07.23-.16-.22.08.21s-.12-.19-.15-.19c.11.22.1.23.08.25-.06-.2-.35-.72-.06-.36-.07-.16-.09-.12-.22-.29s.1,0,.07-.14l.2.37a.07.07,0,0,1,0,0s.08.19.21.31l-.14-.38.05,0s0-.22-.14-.5l.1.17a1.42,1.42,0,0,0-.05-.16l.09.14-.07-.23,0,0,.09,0,0,.1c.05-.08-.18-.54,0-.46a3.31,3.31,0,0,0,.24.42l-.07-.13.08.09s-.21-.34-.2-.37.47.61.43.39c.12.3.13.22.18.27-.3-.52-.1-.47-.32-.87.31.39-.08-.26,0-.26.11.24.28.49.45.78-.08-.24,0-.34-.11-.61.36.28,0-.37.36-.11a2.59,2.59,0,0,1,.19.38c.26.28-.08-.25.14,0-.13-.29-.14-.16-.31-.39l-.06-.13h0l.07.11c.05,0,0,0,0-.12l.06,0s0,0,0,0,.13,0,.11-.06h.06c.09,0-.14.12.09.07Z"/><path class="cls-1" d="M24.9,61h0a.51.51,0,0,1,0-.13Z"/><path class="cls-1" d="M24.83,61.5s0,0,0,.07h0l-.13,0-.06-.06s0,0,0,0A.63.63,0,0,1,24.83,61.5Z"/><polygon class="cls-1" points="24.73 59.55 24.82 59.7 24.78 59.66 24.73 59.55"/><path class="cls-1" d="M24.81,61.58h0l0,.07h-.05l-.06,0Z"/><path class="cls-1" d="M24.75,59.12h0a0,0,0,0,1,0,0Z"/><path class="cls-1" d="M24.83,59a1.38,1.38,0,0,1-.17-.32A2.8,2.8,0,0,1,24.83,59Z"/><path class="cls-1" d="M24.74,61.66s-.08,0-.07,0h0Z"/><path class="cls-1" d="M24.44,61.62l.15,0h0a.31.31,0,0,1,0,.1c-.23-.18-.08.34-.24.26s-.08-.19-.14-.29h0l0,0h0l.2-.07h0a.05.05,0,0,1,0,0Z"/><path class="cls-1" d="M24.61,74.69s0,0,0-.09S24.62,74.66,24.61,74.69Z"/><path class="cls-1" d="M24.59,61.57h0l-.15,0Z"/><path class="cls-1" d="M24.6,61.52h0a1.75,1.75,0,0,1-.18-.29A.68.68,0,0,1,24.6,61.52Z"/><path class="cls-1" d="M24.17,60.4a5.73,5.73,0,0,0,.6-.11c-.21.09-.53.11-.62.18l.22,0-.18.07a1.12,1.12,0,0,1,.22,0c-.22.08-.38.15-.56.2h-.06c0-.12-.1-.34-.1-.42h.06l0,.09c.07.06.11,0,.12,0s.59-.15.6-.11C24.13,60.33,24.52,60.3,24.17,60.4Z"/><polygon class="cls-1" points="24.47 60.77 24.44 60.79 24.33 60.82 24.47 60.77"/><path class="cls-1" d="M24.46,61.5c-.1,0-.06.06-.11.1h0l0,0h0l-.06-.09A.74.74,0,0,0,24.46,61.5Z"/><path class="cls-1" d="M24.28,61.64h0Z"/><path class="cls-1" d="M24.19,60.25l-.28.06v0A1.58,1.58,0,0,0,24.19,60.25Z"/><path class="cls-1" d="M23.91,60.31v0s0,0,0,0Z"/><path class="cls-1" d="M23.75,59.87a1.93,1.93,0,0,1,.1.19,1.15,1.15,0,0,1,.06.21h-.16l0-.05s0,0,0,.05h-.15c-.09,0,0-.09-.11-.09a.73.73,0,0,0,.25-.07c-.29.07-.24,0-.39,0a.86.86,0,0,1,.28-.12,1,1,0,0,0-.26.06c.21-.09-.33,0,.06-.09.06,0,.05,0,.06,0a2.07,2.07,0,0,0,.24-.09h0l-.49.11c0-.08,0-.05,0-.13a2.27,2.27,0,0,0,.3-.06,4.37,4.37,0,0,0-.45,0l.49-.1c-.17,0-.7.15-.57.05s.78-.2.85-.18h0s-.09.07,0,.32C23.82,59.87,23.81,59.91,23.75,59.87Zm-.05-.06c0-.05-.05-.07,0,0Zm.08.31s0-.11-.07-.2A.68.68,0,0,1,23.78,60.12Z"/><path class="cls-1" d="M23.9,59.61l0,0a.22.22,0,0,0,0-.1Z"/><polygon class="cls-1" points="23.87 61.94 23.88 61.95 23.87 61.95 23.87 61.94"/><path class="cls-1" d="M23.85,77.69a0,0,0,0,1,0,0h0Z"/><path class="cls-1" d="M23.84,77.57v.12S23.81,77.63,23.84,77.57Z"/><path class="cls-1" d="M23.81,60.69h0Z"/><path class="cls-1" d="M23.71,59.92c.08.09.11.24.07.2A.68.68,0,0,0,23.71,59.92Z"/><path class="cls-1" d="M23.79,60.69h0l-.13,0h0Z"/><path class="cls-1" d="M23.73,60.22l0,.05h-.06S23.7,60.22,23.73,60.22Z"/><path class="cls-1" d="M23.7,59.81l0,0S23.67,59.76,23.7,59.81Z"/><path class="cls-1" d="M23.66,60.73l-.06,0h0l.06,0Z"/><path class="cls-1" d="M23.65,60.72l-.06,0c0-.09-.12-.22-.16-.32S23.56,60.61,23.65,60.72Z"/><polygon class="cls-1" points="23.57 60.3 23.62 60.4 23.59 60.35 23.57 60.3"/><path class="cls-1" d="M23.61,57l-.24,0c-.16,0,.21,0,0,0A1.7,1.7,0,0,1,23.61,57Z"/><path class="cls-1" d="M23.59,60.74h0Z"/><path class="cls-1" d="M23.55,60.9s0,0,0,0h0A0,0,0,0,0,23.55,60.9Z"/><polygon class="cls-1" points="23.56 60.27 23.57 60.28 23.56 60.28 23.56 60.27"/><path class="cls-1" d="M23.56,60.27h0Z"/><path class="cls-1" d="M23.55,60.75h0Z"/><path class="cls-1" d="M23.55,60.75h0l-.08-.18Z"/><path class="cls-1" d="M23.28,60.2a.47.47,0,0,1,.15,0Z"/><path class="cls-1" d="M23.3,56.19s0,0,.06,0Z"/><path class="cls-1" d="M23.08,59.39c.18,0,.14,0,.15,0A.54.54,0,0,0,23.08,59.39Z"/><path class="cls-1" d="M23,56a.59.59,0,0,1,.27,0Z"/><path class="cls-1" d="M23.15,56.07h0Z"/><path class="cls-1" d="M23.08,79.89V80C23,80,23,80,23.08,79.89Z"/><path class="cls-1" d="M21.84,77a1.63,1.63,0,0,0,.49.13,1.6,1.6,0,0,0,.44,0l.08,0h0l.06,0s0,0,0,0a2.21,2.21,0,0,0,.59-.24c-.2.56-.2.45-.85.92.26-.1.6.06.85.14a.71.71,0,0,0-.51.67l0-.33-.32,0c0,.15.12.16.06.34-.29.11-.41,0-.6.12-.08-.16-.1-.44-.31-.14l.33.38a.43.43,0,0,0-.32.17l-.37,0c.1,0,.08-.08,0-.14l.08,0-.28-.08h0l-.52-.21c.08.06-.08,0-.33-.05l.15-.14c.06-.18-.26-.6,0-.81l.26.18c-.18-.5.4-.38.31-.91l.08.1c0-.29.42-.22.56-.4a.94.94,0,0,0,.31.32Z"/><path class="cls-1" d="M23,57.91h0Z"/><path class="cls-1" d="M22.92,77.09s0,0,0,0l-.06,0Z"/><path class="cls-1" d="M22.85,77.11l-.08,0a1.6,1.6,0,0,1-.44,0,1.63,1.63,0,0,1-.49-.13l.23-.09c.06,0,.11.11.17.17s0-.16.07-.26l.13,0,0,0,0-.09.14-.27C23,76.44,22.67,77,22.85,77.11Z"/><path class="cls-1" d="M22.67,57.16c.06,0,.06,0,.06.07C22.45,57.23,22.59,57.16,22.67,57.16Z"/><path class="cls-1" d="M22.69,79.08s0,.09-.05.13h-.23Z"/><path class="cls-1" d="M22.53,76.76l-.09,0-.1-.1Z"/><path class="cls-1" d="M22.44,76.8l-.13,0a.16.16,0,0,0,0-.15h0Z"/><path class="cls-1" d="M22.36,62.75s0,.07,0,0A.06.06,0,0,1,22.36,62.75Z"/><path class="cls-1" d="M22.33,76.7a.16.16,0,0,1,0,.15l-.24.09a.94.94,0,0,1-.31-.32,0,0,0,0,1,0,0A2.52,2.52,0,0,1,22.33,76.7Z"/><path class="cls-1" d="M22.29,62.81c0,.19-.28-.11-.22.14l0,0c-.4-.51.11.52-.29,0,.08,0,0-.23,0-.42a1,1,0,0,0,.16.24l-.07-.24,0,0c.28.28,0-.15.22-.05,0,0-.14-.23-.15-.28l0,.05c0-.13,0-.18.23.11L22,62A2.58,2.58,0,0,1,22.29,62.81Z"/><path class="cls-1" d="M21.74,76.19c.09.22.08.35,0,.42h0A.55.55,0,0,1,21.74,76.19Z"/><polygon class="cls-1" points="21.68 62.84 21.78 63.11 21.65 62.93 21.68 62.84"/><path class="cls-1" d="M21.77,76.61a0,0,0,0,0,0,0s0,0,0,0Z"/><path class="cls-1" d="M21.87,79.17c-.07.08-.13.17-.2.24a1.69,1.69,0,0,1-.39,0h0c-.09-.12-.16-.09-.23,0l-.29-.09.71-.29h0c.1.06.12.12,0,.14Z"/><path class="cls-1" d="M21.28,79.41a1.69,1.69,0,0,0,.39,0,.33.33,0,0,1-.44.08C21.28,79.45,21.31,79.46,21.28,79.41Z"/><path class="cls-1" d="M21.56,79l-.08,0h0a.78.78,0,0,0-.19-.12Z"/><path class="cls-1" d="M19.15,78.91a.32.32,0,0,1,0-.09l.61,0a5.89,5.89,0,0,1,1.47.08h0a.78.78,0,0,1,.19.12l-.71.29.29.09c-.08.06-.16.18-.28.16l.17.16c-.21.22-.3-.18-.5-.06l.16.26a.46.46,0,0,0-.31-.14l-.22.44v-.08c-.11.13-.4-.15-.4.28.05,0,.14,0,.09.06-.31-.09-.21.26-.44-.1A.9.9,0,0,1,19,81a5.15,5.15,0,0,0-1.13-.25.13.13,0,0,1,0-.06l0,0h0l.09-.15a8.23,8.23,0,0,1-1.72-.69,1.45,1.45,0,0,0,.41-.37.25.25,0,0,0,.13.4c.38-.19.79-.66,1.2-.7,0,.33,0,.43.21.64,0-.38-.12-.69.05-1l.65-.05.3,0A.22.22,0,0,1,19.15,78.91Z"/><path class="cls-1" d="M20.81,41.27l.08-.08S20.87,41.23,20.81,41.27Z"/><path class="cls-1" d="M20.74,78.65l.52.21a5.89,5.89,0,0,0-1.47-.08l-.61,0a1.09,1.09,0,0,1,.42-.43c.21,0,.44.11.65.16a.49.49,0,0,1,0,.15.52.52,0,0,0,.18-.1h0C20.66,78.66,20.82,78.71,20.74,78.65Z"/><polygon class="cls-1" points="20.2 77.94 20.27 78.19 20.18 78.18 20.2 77.94"/><path class="cls-1" d="M19.66,78.35c.15.1.6-.09.59.2-.21,0-.44-.12-.65-.16Z"/><path class="cls-1" d="M19.58,38.11a.47.47,0,0,1,.1-.1S19.66,38.06,19.58,38.11Z"/><path class="cls-1" d="M19.14,78.83h0a.32.32,0,0,0,0,.09A.22.22,0,0,0,19.14,78.83Z"/><path class="cls-1" d="M18.48,78.86c.37-.14.35-.85.78-.52-.24.16-.14.28-.12.49l-.3,0-.65.05a.71.71,0,0,1,.17-.24Z"/><path class="cls-1" d="M19,81a3.8,3.8,0,0,1-.91.58l-.07-.2c.27-.18-.12-.41-.15-.63A5.15,5.15,0,0,1,19,81Z"/><path class="cls-1" d="M18,81.32l0,.1C18,81.41,18,81.37,18,81.32Z"/><path class="cls-1" d="M18,77.6l-.08.05,0,0Z"/><path class="cls-1" d="M13.32,84c0,.83-1.26-.12-1.33,1.1l-.25-.31.27,0c-.38-.29-.2-.26-.57-.6,0,.2-.21.69.06.77l0-.17c.17.71-.76.28-.68.85-.44.32-1.22.37-1.52.61,0,0,0-.14,0-.14,0,.57-.79.66-1.1.52,0,.14-.07.33-.09.51l0-.18a9.73,9.73,0,0,0-2.87,1.82c-.18.07.21-.21-.06-.29,0,.42-.3.29-.46.56-.05-.39-.24.06-.39-.24l-.22.4L3.92,89l-.08.33c-.1,0-.12-.21-.26-.13a.34.34,0,0,1-.19.4c.16-.33,0-1,.53-.69,0-.24-.12-.11-.34-.23.17-.27.33-.1.6-.45l.09.44c.4-.43,0,.14.34.18l.25-.63.08.06a1,1,0,0,0,.45-.85l.07.2c.1-.08.07-.18.12-.27l.08.15.22-.4v0L6.3,87v.14c.39-.28.36-.86.78-1,.07.15-.05.43.13.49l0-.18s.08,0,.13.06c.24-.16-.19-.36-.09-.44s.72.47,1,0c-.15.5.11.2.19.31-.25-.6.55-.88.46-1.37.47.3.23-.45.56-.59a1.59,1.59,0,0,0,.27.88c.13-.36.57-.68.8-1.13.95-.07.86-.87,1.79-1a1.2,1.2,0,0,1,0,.51c.53.11.17-.41.62-.3.09-.42-.22-.13-.47-.3l0-.42.15.3c.38-.09.13-.41.16-.64.24-.16.15.26.33.28.87-.08.7-1,1.36-1.3l0,.18c.37,0,.78-.47.9-.79,0,0,0-.13-.07-.22.19,0,.39-.2.41,0,0-.36.2-.51.43-.67a8.23,8.23,0,0,0,1.72.69l-.09.15h0c-.35.42-.11.43-.28.86-.86,0-1.4,1.25-2.06,1.07.11-.22-.1-.34-.29-.32-.07.28.21.22.18.55-.64,0-1.1.9-1.61,1,0-.19.09-.37,0-.53-.11.22,0,.76-.39.71C13.36,84.11,13.32,84.06,13.32,84Z"/><path class="cls-1" d="M17.89,80.79h-.05l0,0A.13.13,0,0,0,17.89,80.79Z"/><path class="cls-1" d="M17.28,74.72v.36A.62.62,0,0,1,17.28,74.72Z"/><path class="cls-1" d="M16.57,74a1.7,1.7,0,0,1-.32-.15,4.23,4.23,0,0,1-.42-.3c.08-.11.23,0,.4.12A1.15,1.15,0,0,1,16.57,74Z"/><path class="cls-1" d="M15.55,76.14a.21.21,0,0,1,.13.24Z"/><path class="cls-1" d="M15.52,76.61V77A.77.77,0,0,1,15.52,76.61Z"/><path class="cls-1" d="M15.22,80.54c0-.08.08,0,.13,0A.2.2,0,0,1,15.22,80.54Z"/><path class="cls-1" d="M15.11,80.77c.13.06,0,.32-.13.31A.68.68,0,0,0,15.11,80.77Z"/><path class="cls-1" d="M14.66,75.72a.09.09,0,0,1,0,0h0S14.67,75.73,14.66,75.72Z"/><path class="cls-1" d="M14.66,75.72s0,0,0,0a3.2,3.2,0,0,1-.82-.52.13.13,0,0,1,.16,0h0s.07.05.09,0l0,0,0,0h0A2.07,2.07,0,0,1,14.66,75.72Z"/><path class="cls-1" d="M14.15,75.27l0,0Z"/><path class="cls-1" d="M14.11,75.25s0,0-.09,0A.18.18,0,0,1,14.11,75.25Z"/><polygon class="cls-1" points="13.74 81.73 13.71 82.01 13.67 81.96 13.74 81.73"/><path class="cls-1" d="M13.52,78.26a.23.23,0,0,1,.15.27Z"/><path class="cls-1" d="M12.4,83.27h0C12.36,83.17,12.36,83.13,12.4,83.27Z"/><path class="cls-1" d="M12.17,69.71a.85.85,0,0,0,.17.06A.32.32,0,0,1,12.17,69.71Z"/><path class="cls-1" d="M11.66,48.22a5,5,0,0,0-.31.79C11.25,48.76,11.54,48.46,11.66,48.22Z"/><path class="cls-1" d="M10.23,67s0,.06,0,.08l0,0Z"/><path class="cls-1" d="M9.64,70.83l.19.08A.46.46,0,0,1,9.64,70.83Z"/><path class="cls-1" d="M9.67,52.11c.05,0,.08,0,.07.12A.24.24,0,0,1,9.67,52.11Z"/><path class="cls-1" d="M8.79,46.48,9,46.12a2.75,2.75,0,0,0-.35.89A.62.62,0,0,1,8.79,46.48Z"/><path class="cls-1" d="M8.76,62.82l0,0S8.74,62.79,8.76,62.82Z"/><path class="cls-1" d="M7.35,67.71l.05,0a.17.17,0,0,1,0,.09Z"/><path class="cls-1" d="M6.75,50.58c.06,0,.1,0,.08.14A.39.39,0,0,1,6.75,50.58Z"/><path class="cls-1" d="M5.71,62.91l-.07,0S5.68,62.88,5.71,62.91Z"/><path class="cls-1" d="M3.27,88.72c.23.41-.18.84-.31,1.2-.31.39-1,.3-1.25.74v0c-.64-.37-.64.95-1.27.6a2,2,0,0,0,.74-.87c0,.07,0,.24.18.22l.22-.4v0c.63.08.5-.41,1.05-.53.06-.09-.11-.25-.05-.34l-.29.2c.2-.26.49-.46.74-.19Z"/><path class="cls-1" d="M3.39,89.64a.29.29,0,0,1-.19.17A.7.7,0,0,1,3.39,89.64Z"/><path class="cls-1" d="M1.2,90.32h0S1.19,90.3,1.2,90.32Z"/><polygon class="cls-1" points="0.3 91.15 0.17 91.56 0 91.4 0.3 91.15"/></g></g></g></svg>