<svg xmlns="http://www.w3.org/2000/svg" xmlns:xlink="http://www.w3.org/1999/xlink" viewBox="0 0 159.24 25.87"><defs><style>.cls-1{fill:#d04421;}.cls-2{fill:url(#blau_-_verd_clar);}.cls-3{fill:url(#verd_fort_-_verd_clar);}.cls-4{fill:#86b81d;}.cls-5{fill:url(#taronja_-_groc);}.cls-6{fill:#003764;}</style><linearGradient id="blau_-_verd_clar" x1="3.8" y1="18.46" x2="3.8" gradientUnits="userSpaceOnUse"><stop offset="0" stop-color="#86b81d"/><stop offset="0.15" stop-color="#7fbb53"/><stop offset="0.35" stop-color="#77bf96"/><stop offset="0.49" stop-color="#72c1bf"/><stop offset="0.57" stop-color="#70c2cf"/><stop offset="1" stop-color="#70c2cf"/></linearGradient><linearGradient id="verd_fort_-_verd_clar" x1="19.02" x2="19.02" y2="18.59" gradientUnits="userSpaceOnUse"><stop offset="0.46" stop-color="#54a552"/><stop offset="0.6" stop-color="#5ba84b"/><stop offset="0.8" stop-color="#6eaf37"/><stop offset="1" stop-color="#86b81d"/></linearGradient><linearGradient id="taronja_-_groc" x1="35.61" x2="35.61" y2="25.87" gradientUnits="userSpaceOnUse"><stop offset="0" stop-color="#f3e700"/><stop offset="0.28" stop-color="#f0d900"/><stop offset="0.8" stop-color="#e9b500"/><stop offset="1" stop-color="#e6a500"/></linearGradient></defs><title>Asset 2</title><g id="Layer_2" data-name="Layer 2"><g id="Capa_1" data-name="Capa 1"><polygon class="cls-1" points="57.33 25.87 49.72 25.87 49.72 5.26 53.42 0 57.33 0 57.33 25.87"/><polygon class="cls-2" points="7.61 18.46 0 18.46 0 5.26 3.7 0 7.61 0 7.61 18.46"/><rect class="cls-3" x="15.22" width="7.61" height="18.59"/><rect class="cls-4" y="18.26" width="22.83" height="7.61"/><polygon class="cls-5" points="37.14 0 37.14 18.26 26.48 18.26 26.48 25.87 41.05 25.87 44.74 20.6 44.74 0 37.14 0"/><polygon class="cls-6" points="151.15 0.14 151.15 1.85 154.23 1.85 154.23 11.58 156.16 11.58 156.16 1.85 159.24 1.85 159.24 0.14 151.15 0.14"/><path class="cls-6" d="M73.43,11.37a3.71,3.71,0,0,0,1.28-.72,3.79,3.79,0,0,0,.87-1.13,5.27,5.27,0,0,0,.52-1.46,8.79,8.79,0,0,0,.16-1.76V.1H74.34V6.3a7,7,0,0,1-.13,1.38,3.45,3.45,0,0,1-.41,1.07,1.86,1.86,0,0,1-.8.72,2.82,2.82,0,0,1-1.25.25,2.73,2.73,0,0,1-1.23-.25,1.83,1.83,0,0,1-.78-.73,3.36,3.36,0,0,1-.41-1.07,6.91,6.91,0,0,1-.12-1.37V.1H67.28V6.3a8.31,8.31,0,0,0,.26,2.14,4.89,4.89,0,0,0,.8,1.67,3.54,3.54,0,0,0,1.4,1.12,4.87,4.87,0,0,0,2,.39,5.2,5.2,0,0,0,1.68-.25"/><polygon class="cls-6" points="85.37 8.33 80.03 0.19 78.04 0.19 78.04 11.62 79.97 11.62 79.97 3.48 85.31 11.62 87.29 11.62 87.29 0.19 85.37 0.19 85.37 8.33"/><rect class="cls-6" x="89.54" y="0.19" width="1.93" height="11.43"/><polygon class="cls-6" points="96.89 11.62 99.36 11.62 103.86 0.19 101.79 0.19 98.13 9.47 94.47 0.19 92.39 0.19 96.89 11.62"/><polygon class="cls-6" points="105.17 11.62 112.11 11.62 112.11 9.91 107.1 9.91 107.1 7.02 111.73 7.02 111.73 5.31 107.1 5.31 107.1 1.9 112.11 1.9 112.11 0.19 105.17 0.19 105.17 11.62"/><path class="cls-6" d="M120.62,1.13a5.35,5.35,0,0,0-3.31-.94h-3.67V11.62h1.93V7.77h1.74a1.6,1.6,0,0,1,1,.34A1.84,1.84,0,0,1,119,9l.89,2.67h2.25a6.64,6.64,0,0,1-.47-1.08c-.18-.48-.33-.93-.47-1.33A7.11,7.11,0,0,0,120.6,8a2.39,2.39,0,0,0-.74-.84,2.83,2.83,0,0,0,1.44-1.23,3.87,3.87,0,0,0,.56-2.05,3.27,3.27,0,0,0-1.24-2.76m-5.05,4.93V1.9h1.74a3.38,3.38,0,0,1,2,.46,1.72,1.72,0,0,1,.66,1.53,2,2,0,0,1-.65,1.67,3.27,3.27,0,0,1-2,.5Z"/><path class="cls-6" d="M123.35,4.33a3,3,0,0,0,.8.92,6.79,6.79,0,0,0,1.08.67c.4.2.79.39,1.19.56a11,11,0,0,1,1.08.5,2.8,2.8,0,0,1,.8.58,1,1,0,0,1,.31.73,1.73,1.73,0,0,1-.17.78,1.2,1.2,0,0,1-.46.51,2,2,0,0,1-.62.25,2.66,2.66,0,0,1-.71.08,5.32,5.32,0,0,1-2.93-1.14l-1,1.51a8,8,0,0,0,1.81,1,6,6,0,0,0,2.14.36,5.17,5.17,0,0,0,1.19-.13,3.79,3.79,0,0,0,1.92-1.06,2.85,2.85,0,0,0,.57-.94,3.16,3.16,0,0,0,.22-1.2,2.9,2.9,0,0,0-.19-1,2.46,2.46,0,0,0-.52-.8,3.74,3.74,0,0,0-.74-.62,6.32,6.32,0,0,0-.88-.51l-.92-.41-.88-.38a8.25,8.25,0,0,1-.74-.4,2,2,0,0,1-.51-.48.93.93,0,0,1-.19-.57,1.16,1.16,0,0,1,.52-1,2,2,0,0,1,1.18-.37,4.94,4.94,0,0,1,.9.08,3.39,3.39,0,0,1,.76.25,6.38,6.38,0,0,1,.56.31c.14.09.31.22.51.37l.94-1.45a7.15,7.15,0,0,0-1.69-1,5.79,5.79,0,0,0-2-.3,4.62,4.62,0,0,0-1.8.35,3.31,3.31,0,0,0-1.33,1.07A2.82,2.82,0,0,0,123,3.09a2.46,2.46,0,0,0,.31,1.24"/><rect class="cls-6" x="131.7" y="0.19" width="1.93" height="11.43"/><polygon class="cls-6" points="137.95 1.9 137.95 11.62 139.88 11.62 139.88 1.9 142.96 1.9 142.96 0.19 134.87 0.19 134.87 1.9 137.95 1.9"/><path class="cls-6" d="M143.47,11.62l1.11-2.7h5.1l1.11,2.7h2.08L148.17.19h-2.08L141.4,11.62Zm1.82-4.41,1.84-4.49L149,7.21Z"/><path class="cls-6" d="M79.37,16.88l1.85,4.48H77.53Zm-1-2.53L73.64,25.78h2.07l1.11-2.7h5.11L83,25.78h2.07L80.42,14.35Z"/><path class="cls-6" d="M73.56,14.35H71.63v7.16a5,5,0,0,1-.08,1,2.43,2.43,0,0,1-.27.77,1.28,1.28,0,0,1-.52.51,1.84,1.84,0,0,1-.82.17,2.48,2.48,0,0,1-.63-.07,1.64,1.64,0,0,1-.52-.24l-.37-.29c-.09-.08-.2-.2-.35-.36l-1.35,1.33a4.83,4.83,0,0,0,1.43,1.11,3.86,3.86,0,0,0,1.78.42,3.5,3.5,0,0,0,2-.56,3.2,3.2,0,0,0,1.21-1.52,6.25,6.25,0,0,0,.38-2.28Z"/><rect class="cls-6" x="120.16" y="14.44" width="1.93" height="11.43"/><path class="cls-6" d="M91.22,25.42a3.62,3.62,0,0,0,1.28-.72,3.92,3.92,0,0,0,.87-1.13,5.22,5.22,0,0,0,.52-1.47,8.66,8.66,0,0,0,.17-1.75v-6.2H92.13v6.2A6.19,6.19,0,0,1,92,21.72a3.27,3.27,0,0,1-.41,1.07,1.88,1.88,0,0,1-.8.73,3.18,3.18,0,0,1-2.47,0,1.92,1.92,0,0,1-.79-.73,3.43,3.43,0,0,1-.4-1.07A6.25,6.25,0,0,1,87,20.35v-6.2H85.07v6.2a7.8,7.8,0,0,0,.27,2.13,5,5,0,0,0,.79,1.68,3.61,3.61,0,0,0,1.4,1.12,4.89,4.89,0,0,0,2,.39,5.18,5.18,0,0,0,1.67-.25"/><polygon class="cls-6" points="108.04 14.32 108.04 25.75 114.98 25.75 114.98 24.04 109.96 24.04 109.96 21.14 114.59 21.14 114.59 19.43 109.96 19.43 109.96 16.03 114.98 16.03 114.98 14.32 108.04 14.32"/><polygon class="cls-6" points="104.25 14.32 100.81 20.2 97.39 14.32 95.42 14.32 95.42 25.75 97.34 25.75 97.34 17.88 100.29 22.92 101.34 22.92 104.29 17.88 104.29 25.75 106.21 25.75 106.21 14.32 104.25 14.32"/></g></g></svg>